G04 EAGLE Gerber RS-274X export*
G75*
%MOMM*%
%FSLAX34Y34*%
%LPD*%
%INTop Copper*%
%IPPOS*%
%AMOC8*
5,1,8,0,0,1.08239X$1,22.5*%
G01*
%ADD10R,1.400000X0.450000*%
%ADD11R,3.400000X6.500000*%
%ADD12R,1.400000X1.400000*%
%ADD13R,1.000000X1.100000*%
%ADD14R,3.200000X1.800000*%
%ADD15R,1.100000X1.000000*%
%ADD16R,13.000000X5.000000*%
%ADD17R,1.500000X1.300000*%
%ADD18R,6.000000X2.000000*%
%ADD19R,10.300000X8.900000*%
%ADD20R,1.930400X3.810000*%
%ADD21R,1.200000X0.700000*%
%ADD22R,1.800000X1.600000*%
%ADD23P,1.649562X8X112.500000*%
%ADD24C,2.000000*%
%ADD25C,0.254000*%
%ADD26C,0.355600*%
%ADD27C,0.756400*%
%ADD28C,0.152400*%
%ADD29C,0.656400*%
%ADD30C,0.457200*%
%ADD31C,0.304800*%

G36*
X666868Y7001D02*
X666868Y7001D01*
X666987Y7008D01*
X667025Y7021D01*
X667066Y7026D01*
X667176Y7069D01*
X667289Y7106D01*
X667324Y7128D01*
X667361Y7143D01*
X667457Y7212D01*
X667558Y7276D01*
X667586Y7306D01*
X667619Y7329D01*
X667695Y7421D01*
X667776Y7508D01*
X667796Y7543D01*
X667821Y7574D01*
X667872Y7682D01*
X667930Y7786D01*
X667940Y7826D01*
X667957Y7862D01*
X667979Y7979D01*
X668009Y8094D01*
X668013Y8154D01*
X668017Y8174D01*
X668015Y8195D01*
X668019Y8255D01*
X668019Y193675D01*
X668004Y193793D01*
X667997Y193912D01*
X667984Y193950D01*
X667979Y193991D01*
X667936Y194101D01*
X667899Y194214D01*
X667877Y194249D01*
X667862Y194286D01*
X667793Y194382D01*
X667729Y194483D01*
X667699Y194511D01*
X667676Y194544D01*
X667584Y194620D01*
X667497Y194701D01*
X667462Y194721D01*
X667431Y194746D01*
X667323Y194797D01*
X667219Y194855D01*
X667179Y194865D01*
X667143Y194882D01*
X667026Y194904D01*
X666911Y194934D01*
X666851Y194938D01*
X666831Y194942D01*
X666810Y194940D01*
X666750Y194944D01*
X593986Y194944D01*
X593868Y194929D01*
X593749Y194922D01*
X593711Y194909D01*
X593670Y194904D01*
X593560Y194861D01*
X593447Y194824D01*
X593412Y194802D01*
X593375Y194787D01*
X593279Y194718D01*
X593178Y194654D01*
X593150Y194624D01*
X593117Y194601D01*
X593041Y194509D01*
X592973Y194436D01*
X575422Y194436D01*
X575393Y194483D01*
X575363Y194511D01*
X575340Y194544D01*
X575248Y194620D01*
X575161Y194701D01*
X575126Y194721D01*
X575095Y194746D01*
X574987Y194797D01*
X574883Y194855D01*
X574843Y194865D01*
X574807Y194882D01*
X574690Y194904D01*
X574575Y194934D01*
X574515Y194938D01*
X574495Y194942D01*
X574474Y194940D01*
X574414Y194944D01*
X571761Y194944D01*
X571643Y194929D01*
X571524Y194922D01*
X571486Y194909D01*
X571445Y194904D01*
X571335Y194861D01*
X571222Y194824D01*
X571187Y194802D01*
X571150Y194787D01*
X571054Y194718D01*
X570953Y194654D01*
X570925Y194624D01*
X570892Y194601D01*
X570816Y194509D01*
X570748Y194436D01*
X553197Y194436D01*
X553168Y194483D01*
X553138Y194511D01*
X553115Y194544D01*
X553023Y194620D01*
X552936Y194701D01*
X552901Y194721D01*
X552870Y194746D01*
X552762Y194797D01*
X552658Y194855D01*
X552618Y194865D01*
X552582Y194882D01*
X552465Y194904D01*
X552350Y194934D01*
X552290Y194938D01*
X552270Y194942D01*
X552249Y194940D01*
X552189Y194944D01*
X528486Y194944D01*
X528368Y194929D01*
X528249Y194922D01*
X528211Y194909D01*
X528170Y194904D01*
X528060Y194861D01*
X527947Y194824D01*
X527912Y194802D01*
X527875Y194787D01*
X527779Y194718D01*
X527678Y194654D01*
X527650Y194624D01*
X527617Y194601D01*
X527541Y194509D01*
X527473Y194436D01*
X513922Y194436D01*
X513893Y194483D01*
X513863Y194511D01*
X513840Y194544D01*
X513748Y194620D01*
X513661Y194701D01*
X513626Y194721D01*
X513595Y194746D01*
X513487Y194797D01*
X513383Y194855D01*
X513343Y194865D01*
X513307Y194882D01*
X513190Y194904D01*
X513075Y194934D01*
X513015Y194938D01*
X512995Y194942D01*
X512974Y194940D01*
X512914Y194944D01*
X506094Y194944D01*
X506094Y244475D01*
X506079Y244593D01*
X506072Y244712D01*
X506059Y244750D01*
X506054Y244791D01*
X506011Y244901D01*
X505974Y245014D01*
X505952Y245049D01*
X505937Y245086D01*
X505868Y245182D01*
X505804Y245283D01*
X505774Y245311D01*
X505751Y245344D01*
X505659Y245420D01*
X505572Y245501D01*
X505537Y245521D01*
X505506Y245546D01*
X505398Y245597D01*
X505294Y245655D01*
X505254Y245665D01*
X505218Y245682D01*
X505101Y245704D01*
X504986Y245734D01*
X504926Y245738D01*
X504906Y245742D01*
X504885Y245740D01*
X504825Y245744D01*
X267636Y245744D01*
X267518Y245729D01*
X267399Y245722D01*
X267361Y245709D01*
X267320Y245704D01*
X267210Y245661D01*
X267097Y245624D01*
X267062Y245602D01*
X267025Y245587D01*
X266929Y245518D01*
X266828Y245454D01*
X266800Y245424D01*
X266767Y245401D01*
X266691Y245309D01*
X266623Y245236D01*
X254072Y245236D01*
X254043Y245283D01*
X254013Y245311D01*
X253990Y245344D01*
X253898Y245420D01*
X253811Y245501D01*
X253776Y245521D01*
X253745Y245546D01*
X253637Y245597D01*
X253533Y245655D01*
X253493Y245665D01*
X253457Y245682D01*
X253340Y245704D01*
X253225Y245734D01*
X253165Y245738D01*
X253145Y245742D01*
X253124Y245740D01*
X253064Y245744D01*
X233536Y245744D01*
X233418Y245729D01*
X233299Y245722D01*
X233261Y245709D01*
X233220Y245704D01*
X233110Y245661D01*
X232997Y245624D01*
X232962Y245602D01*
X232925Y245587D01*
X232829Y245518D01*
X232728Y245454D01*
X232700Y245424D01*
X232667Y245401D01*
X232591Y245309D01*
X232523Y245236D01*
X211972Y245236D01*
X211943Y245283D01*
X211913Y245311D01*
X211890Y245344D01*
X211798Y245420D01*
X211711Y245501D01*
X211676Y245521D01*
X211645Y245546D01*
X211537Y245597D01*
X211433Y245655D01*
X211393Y245665D01*
X211357Y245682D01*
X211240Y245704D01*
X211125Y245734D01*
X211065Y245738D01*
X211045Y245742D01*
X211024Y245740D01*
X210964Y245744D01*
X195436Y245744D01*
X195318Y245729D01*
X195199Y245722D01*
X195161Y245709D01*
X195120Y245704D01*
X195010Y245661D01*
X194897Y245624D01*
X194862Y245602D01*
X194825Y245587D01*
X194729Y245518D01*
X194628Y245454D01*
X194600Y245424D01*
X194567Y245401D01*
X194491Y245309D01*
X194423Y245236D01*
X173872Y245236D01*
X173843Y245283D01*
X173813Y245311D01*
X173790Y245344D01*
X173698Y245420D01*
X173611Y245501D01*
X173576Y245521D01*
X173545Y245546D01*
X173437Y245597D01*
X173333Y245655D01*
X173293Y245665D01*
X173257Y245682D01*
X173140Y245704D01*
X173025Y245734D01*
X172965Y245738D01*
X172945Y245742D01*
X172924Y245740D01*
X172864Y245744D01*
X157336Y245744D01*
X157218Y245729D01*
X157099Y245722D01*
X157061Y245709D01*
X157020Y245704D01*
X156910Y245661D01*
X156797Y245624D01*
X156762Y245602D01*
X156725Y245587D01*
X156629Y245518D01*
X156528Y245454D01*
X156500Y245424D01*
X156467Y245401D01*
X156391Y245309D01*
X156323Y245236D01*
X135772Y245236D01*
X135743Y245283D01*
X135713Y245311D01*
X135690Y245344D01*
X135598Y245420D01*
X135511Y245501D01*
X135476Y245521D01*
X135445Y245546D01*
X135337Y245597D01*
X135233Y245655D01*
X135193Y245665D01*
X135157Y245682D01*
X135040Y245704D01*
X134925Y245734D01*
X134865Y245738D01*
X134845Y245742D01*
X134824Y245740D01*
X134764Y245744D01*
X119236Y245744D01*
X119118Y245729D01*
X118999Y245722D01*
X118961Y245709D01*
X118920Y245704D01*
X118810Y245661D01*
X118697Y245624D01*
X118662Y245602D01*
X118625Y245587D01*
X118529Y245518D01*
X118428Y245454D01*
X118400Y245424D01*
X118367Y245401D01*
X118291Y245309D01*
X118223Y245236D01*
X97672Y245236D01*
X97643Y245283D01*
X97613Y245311D01*
X97590Y245344D01*
X97498Y245420D01*
X97411Y245501D01*
X97376Y245521D01*
X97345Y245546D01*
X97237Y245597D01*
X97133Y245655D01*
X97093Y245665D01*
X97057Y245682D01*
X96940Y245704D01*
X96825Y245734D01*
X96765Y245738D01*
X96745Y245742D01*
X96724Y245740D01*
X96664Y245744D01*
X11430Y245744D01*
X11312Y245729D01*
X11193Y245722D01*
X11155Y245709D01*
X11114Y245704D01*
X11004Y245661D01*
X10891Y245624D01*
X10856Y245602D01*
X10819Y245587D01*
X10723Y245518D01*
X10622Y245454D01*
X10594Y245424D01*
X10561Y245401D01*
X10485Y245309D01*
X10404Y245222D01*
X10384Y245187D01*
X10359Y245156D01*
X10308Y245048D01*
X10250Y244944D01*
X10240Y244904D01*
X10223Y244868D01*
X10201Y244751D01*
X10171Y244636D01*
X10167Y244576D01*
X10163Y244556D01*
X10165Y244535D01*
X10161Y244475D01*
X10161Y8255D01*
X10176Y8137D01*
X10183Y8018D01*
X10196Y7980D01*
X10201Y7939D01*
X10244Y7829D01*
X10281Y7716D01*
X10303Y7681D01*
X10318Y7644D01*
X10387Y7548D01*
X10451Y7447D01*
X10481Y7419D01*
X10504Y7386D01*
X10596Y7310D01*
X10683Y7229D01*
X10718Y7209D01*
X10749Y7184D01*
X10857Y7133D01*
X10961Y7075D01*
X11001Y7065D01*
X11037Y7048D01*
X11154Y7026D01*
X11269Y6996D01*
X11329Y6992D01*
X11349Y6988D01*
X11370Y6990D01*
X11430Y6986D01*
X666750Y6986D01*
X666868Y7001D01*
G37*
G36*
X752367Y354346D02*
X752367Y354346D01*
X752486Y354353D01*
X752524Y354366D01*
X752565Y354371D01*
X752675Y354414D01*
X752788Y354451D01*
X752823Y354473D01*
X752860Y354488D01*
X752956Y354558D01*
X753057Y354621D01*
X753085Y354651D01*
X753118Y354674D01*
X753194Y354766D01*
X753275Y354853D01*
X753295Y354888D01*
X753320Y354919D01*
X753371Y355027D01*
X753429Y355131D01*
X753439Y355171D01*
X753456Y355207D01*
X753478Y355324D01*
X753508Y355439D01*
X753512Y355500D01*
X753516Y355520D01*
X753514Y355540D01*
X753518Y355600D01*
X753518Y356656D01*
X754326Y358606D01*
X755819Y360099D01*
X757769Y360907D01*
X759881Y360907D01*
X761831Y360099D01*
X762172Y359757D01*
X762259Y359690D01*
X762301Y359651D01*
X762322Y359639D01*
X762389Y359583D01*
X762408Y359575D01*
X762424Y359562D01*
X762552Y359507D01*
X762677Y359448D01*
X762697Y359444D01*
X762716Y359436D01*
X762854Y359414D01*
X762990Y359388D01*
X763010Y359389D01*
X763030Y359386D01*
X763169Y359399D01*
X763307Y359408D01*
X763326Y359414D01*
X763346Y359416D01*
X763477Y359463D01*
X763609Y359506D01*
X763627Y359517D01*
X763646Y359524D01*
X763760Y359602D01*
X763878Y359676D01*
X763892Y359691D01*
X763909Y359702D01*
X764001Y359806D01*
X764096Y359908D01*
X764106Y359925D01*
X764119Y359941D01*
X764182Y360064D01*
X764250Y360186D01*
X764255Y360206D01*
X764264Y360224D01*
X764294Y360360D01*
X764329Y360494D01*
X764331Y360522D01*
X764334Y360534D01*
X764333Y360555D01*
X764335Y360588D01*
X764337Y360596D01*
X764336Y360606D01*
X764339Y360655D01*
X764339Y401345D01*
X764322Y401483D01*
X764309Y401622D01*
X764302Y401641D01*
X764299Y401661D01*
X764248Y401790D01*
X764201Y401921D01*
X764190Y401938D01*
X764182Y401956D01*
X764101Y402069D01*
X764023Y402184D01*
X764007Y402197D01*
X763996Y402214D01*
X763888Y402303D01*
X763784Y402394D01*
X763766Y402404D01*
X763751Y402417D01*
X763625Y402476D01*
X763501Y402539D01*
X763481Y402544D01*
X763463Y402552D01*
X763327Y402578D01*
X763191Y402609D01*
X763170Y402608D01*
X763151Y402612D01*
X763012Y402603D01*
X762873Y402599D01*
X762853Y402593D01*
X762833Y402592D01*
X762701Y402549D01*
X762567Y402511D01*
X762550Y402500D01*
X762531Y402494D01*
X762413Y402420D01*
X762293Y402349D01*
X762272Y402330D01*
X762262Y402324D01*
X762248Y402309D01*
X762172Y402243D01*
X761831Y401901D01*
X759881Y401093D01*
X757769Y401093D01*
X755819Y401901D01*
X754326Y403394D01*
X753518Y405344D01*
X753518Y407456D01*
X754326Y409406D01*
X755819Y410899D01*
X757769Y411707D01*
X759881Y411707D01*
X761831Y410899D01*
X762172Y410557D01*
X762282Y410472D01*
X762389Y410383D01*
X762408Y410375D01*
X762424Y410362D01*
X762552Y410307D01*
X762677Y410248D01*
X762697Y410244D01*
X762716Y410236D01*
X762854Y410214D01*
X762990Y410188D01*
X763010Y410189D01*
X763030Y410186D01*
X763169Y410199D01*
X763307Y410208D01*
X763326Y410214D01*
X763346Y410216D01*
X763477Y410263D01*
X763609Y410306D01*
X763627Y410317D01*
X763646Y410324D01*
X763760Y410402D01*
X763878Y410476D01*
X763892Y410491D01*
X763909Y410502D01*
X764001Y410606D01*
X764096Y410708D01*
X764106Y410725D01*
X764119Y410741D01*
X764182Y410864D01*
X764250Y410986D01*
X764255Y411006D01*
X764264Y411024D01*
X764294Y411160D01*
X764329Y411294D01*
X764331Y411322D01*
X764334Y411334D01*
X764333Y411355D01*
X764339Y411455D01*
X764339Y452145D01*
X764322Y452283D01*
X764309Y452422D01*
X764302Y452441D01*
X764299Y452461D01*
X764248Y452590D01*
X764201Y452721D01*
X764190Y452738D01*
X764182Y452756D01*
X764101Y452869D01*
X764023Y452984D01*
X764007Y452997D01*
X763996Y453014D01*
X763888Y453103D01*
X763784Y453194D01*
X763766Y453204D01*
X763751Y453217D01*
X763625Y453276D01*
X763501Y453339D01*
X763481Y453344D01*
X763463Y453352D01*
X763327Y453378D01*
X763191Y453409D01*
X763170Y453408D01*
X763151Y453412D01*
X763012Y453403D01*
X762873Y453399D01*
X762853Y453393D01*
X762833Y453392D01*
X762701Y453349D01*
X762567Y453311D01*
X762550Y453300D01*
X762531Y453294D01*
X762413Y453220D01*
X762293Y453149D01*
X762272Y453130D01*
X762262Y453124D01*
X762248Y453109D01*
X762172Y453043D01*
X761831Y452701D01*
X759881Y451893D01*
X757769Y451893D01*
X755819Y452701D01*
X754326Y454194D01*
X753518Y456144D01*
X753518Y458256D01*
X754326Y460206D01*
X755819Y461699D01*
X757769Y462507D01*
X759881Y462507D01*
X761831Y461699D01*
X762172Y461357D01*
X762282Y461272D01*
X762389Y461183D01*
X762408Y461175D01*
X762424Y461162D01*
X762552Y461107D01*
X762677Y461048D01*
X762697Y461044D01*
X762716Y461036D01*
X762854Y461014D01*
X762990Y460988D01*
X763010Y460989D01*
X763030Y460986D01*
X763169Y460999D01*
X763307Y461008D01*
X763326Y461014D01*
X763346Y461016D01*
X763477Y461063D01*
X763609Y461106D01*
X763627Y461117D01*
X763646Y461124D01*
X763760Y461202D01*
X763878Y461276D01*
X763892Y461291D01*
X763909Y461302D01*
X764001Y461406D01*
X764096Y461508D01*
X764106Y461525D01*
X764119Y461541D01*
X764182Y461664D01*
X764250Y461786D01*
X764255Y461806D01*
X764264Y461824D01*
X764294Y461960D01*
X764329Y462094D01*
X764331Y462122D01*
X764334Y462134D01*
X764333Y462155D01*
X764339Y462255D01*
X764339Y480720D01*
X764322Y480858D01*
X764309Y480997D01*
X764302Y481016D01*
X764299Y481036D01*
X764248Y481165D01*
X764201Y481296D01*
X764190Y481313D01*
X764182Y481331D01*
X764101Y481444D01*
X764023Y481559D01*
X764007Y481572D01*
X763996Y481589D01*
X763888Y481678D01*
X763784Y481769D01*
X763766Y481779D01*
X763751Y481792D01*
X763625Y481851D01*
X763501Y481914D01*
X763481Y481919D01*
X763463Y481927D01*
X763327Y481953D01*
X763191Y481984D01*
X763170Y481983D01*
X763151Y481987D01*
X763012Y481978D01*
X762873Y481974D01*
X762853Y481968D01*
X762833Y481967D01*
X762701Y481924D01*
X762567Y481886D01*
X762550Y481875D01*
X762531Y481869D01*
X762413Y481795D01*
X762293Y481724D01*
X762272Y481705D01*
X762262Y481699D01*
X762248Y481684D01*
X762172Y481618D01*
X761831Y481276D01*
X759881Y480468D01*
X757769Y480468D01*
X755819Y481276D01*
X754326Y482769D01*
X753518Y484719D01*
X753518Y486920D01*
X753503Y487038D01*
X753496Y487157D01*
X753483Y487195D01*
X753478Y487236D01*
X753435Y487346D01*
X753398Y487459D01*
X753376Y487494D01*
X753361Y487531D01*
X753292Y487627D01*
X753228Y487728D01*
X753198Y487756D01*
X753175Y487789D01*
X753083Y487865D01*
X752996Y487946D01*
X752961Y487966D01*
X752930Y487991D01*
X752822Y488042D01*
X752718Y488100D01*
X752678Y488110D01*
X752642Y488127D01*
X752525Y488149D01*
X752410Y488179D01*
X752350Y488183D01*
X752330Y488187D01*
X752309Y488185D01*
X752249Y488189D01*
X717776Y488189D01*
X717658Y488174D01*
X717539Y488167D01*
X717501Y488154D01*
X717460Y488149D01*
X717350Y488106D01*
X717237Y488069D01*
X717202Y488047D01*
X717165Y488032D01*
X717069Y487963D01*
X716968Y487899D01*
X716940Y487869D01*
X716907Y487846D01*
X716831Y487754D01*
X716750Y487667D01*
X716730Y487632D01*
X716705Y487601D01*
X716654Y487493D01*
X716596Y487389D01*
X716586Y487349D01*
X716569Y487313D01*
X716547Y487196D01*
X716517Y487081D01*
X716513Y487021D01*
X716509Y487001D01*
X716511Y486980D01*
X716507Y486920D01*
X716507Y484719D01*
X715699Y482769D01*
X714206Y481276D01*
X712256Y480468D01*
X710144Y480468D01*
X708194Y481276D01*
X706701Y482769D01*
X705893Y484719D01*
X705893Y486920D01*
X705878Y487038D01*
X705871Y487157D01*
X705858Y487195D01*
X705853Y487236D01*
X705810Y487346D01*
X705773Y487459D01*
X705751Y487494D01*
X705736Y487531D01*
X705667Y487627D01*
X705603Y487728D01*
X705573Y487756D01*
X705550Y487789D01*
X705458Y487865D01*
X705371Y487946D01*
X705336Y487966D01*
X705305Y487991D01*
X705197Y488042D01*
X705093Y488100D01*
X705053Y488110D01*
X705017Y488127D01*
X704900Y488149D01*
X704785Y488179D01*
X704725Y488183D01*
X704705Y488187D01*
X704684Y488185D01*
X704624Y488189D01*
X666976Y488189D01*
X666858Y488174D01*
X666739Y488167D01*
X666701Y488154D01*
X666660Y488149D01*
X666550Y488106D01*
X666437Y488069D01*
X666402Y488047D01*
X666365Y488032D01*
X666269Y487963D01*
X666168Y487899D01*
X666140Y487869D01*
X666107Y487846D01*
X666031Y487754D01*
X665950Y487667D01*
X665930Y487632D01*
X665905Y487601D01*
X665854Y487493D01*
X665796Y487389D01*
X665786Y487349D01*
X665769Y487313D01*
X665747Y487196D01*
X665717Y487081D01*
X665713Y487021D01*
X665709Y487001D01*
X665711Y486980D01*
X665707Y486920D01*
X665707Y484719D01*
X664899Y482769D01*
X663406Y481276D01*
X661456Y480468D01*
X659344Y480468D01*
X657394Y481276D01*
X655901Y482769D01*
X655093Y484719D01*
X655093Y486920D01*
X655078Y487038D01*
X655071Y487157D01*
X655058Y487195D01*
X655053Y487236D01*
X655010Y487346D01*
X654973Y487459D01*
X654951Y487494D01*
X654936Y487531D01*
X654867Y487627D01*
X654803Y487728D01*
X654773Y487756D01*
X654750Y487789D01*
X654658Y487865D01*
X654571Y487946D01*
X654536Y487966D01*
X654505Y487991D01*
X654397Y488042D01*
X654293Y488100D01*
X654253Y488110D01*
X654217Y488127D01*
X654100Y488149D01*
X653985Y488179D01*
X653925Y488183D01*
X653905Y488187D01*
X653884Y488185D01*
X653824Y488189D01*
X616176Y488189D01*
X616058Y488174D01*
X615939Y488167D01*
X615901Y488154D01*
X615860Y488149D01*
X615750Y488106D01*
X615637Y488069D01*
X615602Y488047D01*
X615565Y488032D01*
X615469Y487963D01*
X615368Y487899D01*
X615340Y487869D01*
X615307Y487846D01*
X615231Y487754D01*
X615150Y487667D01*
X615130Y487632D01*
X615105Y487601D01*
X615054Y487493D01*
X614996Y487389D01*
X614986Y487349D01*
X614969Y487313D01*
X614947Y487196D01*
X614917Y487081D01*
X614913Y487021D01*
X614909Y487001D01*
X614911Y486980D01*
X614907Y486920D01*
X614907Y484719D01*
X614099Y482769D01*
X612606Y481276D01*
X610656Y480468D01*
X608544Y480468D01*
X606594Y481276D01*
X605101Y482769D01*
X604293Y484719D01*
X604293Y486920D01*
X604278Y487038D01*
X604271Y487157D01*
X604258Y487195D01*
X604253Y487236D01*
X604210Y487346D01*
X604173Y487459D01*
X604151Y487494D01*
X604136Y487531D01*
X604067Y487627D01*
X604003Y487728D01*
X603973Y487756D01*
X603950Y487789D01*
X603858Y487865D01*
X603771Y487946D01*
X603736Y487966D01*
X603705Y487991D01*
X603597Y488042D01*
X603493Y488100D01*
X603453Y488110D01*
X603417Y488127D01*
X603300Y488149D01*
X603185Y488179D01*
X603125Y488183D01*
X603105Y488187D01*
X603084Y488185D01*
X603024Y488189D01*
X565376Y488189D01*
X565258Y488174D01*
X565139Y488167D01*
X565101Y488154D01*
X565060Y488149D01*
X564950Y488106D01*
X564837Y488069D01*
X564802Y488047D01*
X564765Y488032D01*
X564669Y487963D01*
X564568Y487899D01*
X564540Y487869D01*
X564507Y487846D01*
X564431Y487754D01*
X564350Y487667D01*
X564330Y487632D01*
X564305Y487601D01*
X564254Y487493D01*
X564196Y487389D01*
X564186Y487349D01*
X564169Y487313D01*
X564147Y487196D01*
X564117Y487081D01*
X564113Y487021D01*
X564109Y487001D01*
X564111Y486980D01*
X564107Y486920D01*
X564107Y484719D01*
X563299Y482769D01*
X561806Y481276D01*
X559856Y480468D01*
X557744Y480468D01*
X555794Y481276D01*
X554301Y482769D01*
X553493Y484719D01*
X553493Y486920D01*
X553478Y487038D01*
X553471Y487157D01*
X553458Y487195D01*
X553453Y487236D01*
X553410Y487346D01*
X553373Y487459D01*
X553351Y487494D01*
X553336Y487531D01*
X553267Y487627D01*
X553203Y487728D01*
X553173Y487756D01*
X553150Y487789D01*
X553058Y487865D01*
X552971Y487946D01*
X552936Y487966D01*
X552905Y487991D01*
X552797Y488042D01*
X552693Y488100D01*
X552653Y488110D01*
X552617Y488127D01*
X552500Y488149D01*
X552385Y488179D01*
X552325Y488183D01*
X552305Y488187D01*
X552284Y488185D01*
X552224Y488189D01*
X514576Y488189D01*
X514458Y488174D01*
X514339Y488167D01*
X514301Y488154D01*
X514260Y488149D01*
X514150Y488106D01*
X514037Y488069D01*
X514002Y488047D01*
X513965Y488032D01*
X513869Y487963D01*
X513768Y487899D01*
X513740Y487869D01*
X513707Y487846D01*
X513631Y487754D01*
X513550Y487667D01*
X513530Y487632D01*
X513505Y487601D01*
X513454Y487493D01*
X513396Y487389D01*
X513386Y487349D01*
X513369Y487313D01*
X513347Y487196D01*
X513317Y487081D01*
X513313Y487021D01*
X513309Y487001D01*
X513311Y486980D01*
X513307Y486920D01*
X513307Y484719D01*
X512499Y482769D01*
X511006Y481276D01*
X509056Y480468D01*
X506944Y480468D01*
X504994Y481276D01*
X503501Y482769D01*
X502693Y484719D01*
X502693Y486920D01*
X502678Y487038D01*
X502671Y487157D01*
X502658Y487195D01*
X502653Y487236D01*
X502610Y487346D01*
X502573Y487459D01*
X502551Y487494D01*
X502536Y487531D01*
X502467Y487627D01*
X502403Y487728D01*
X502373Y487756D01*
X502350Y487789D01*
X502258Y487865D01*
X502171Y487946D01*
X502136Y487966D01*
X502105Y487991D01*
X501997Y488042D01*
X501893Y488100D01*
X501853Y488110D01*
X501817Y488127D01*
X501700Y488149D01*
X501585Y488179D01*
X501525Y488183D01*
X501505Y488187D01*
X501484Y488185D01*
X501424Y488189D01*
X463776Y488189D01*
X463658Y488174D01*
X463539Y488167D01*
X463501Y488154D01*
X463460Y488149D01*
X463350Y488106D01*
X463237Y488069D01*
X463202Y488047D01*
X463165Y488032D01*
X463069Y487963D01*
X462968Y487899D01*
X462940Y487869D01*
X462907Y487846D01*
X462831Y487754D01*
X462750Y487667D01*
X462730Y487632D01*
X462705Y487601D01*
X462654Y487493D01*
X462596Y487389D01*
X462586Y487349D01*
X462569Y487313D01*
X462547Y487196D01*
X462517Y487081D01*
X462513Y487021D01*
X462509Y487001D01*
X462511Y486980D01*
X462507Y486920D01*
X462507Y484719D01*
X461699Y482769D01*
X460206Y481276D01*
X458256Y480468D01*
X456144Y480468D01*
X454194Y481276D01*
X452701Y482769D01*
X451893Y484719D01*
X451893Y486920D01*
X451878Y487038D01*
X451871Y487157D01*
X451858Y487195D01*
X451853Y487236D01*
X451810Y487346D01*
X451773Y487459D01*
X451751Y487494D01*
X451736Y487531D01*
X451667Y487627D01*
X451603Y487728D01*
X451573Y487756D01*
X451550Y487789D01*
X451458Y487865D01*
X451371Y487946D01*
X451336Y487966D01*
X451305Y487991D01*
X451197Y488042D01*
X451093Y488100D01*
X451053Y488110D01*
X451017Y488127D01*
X450900Y488149D01*
X450785Y488179D01*
X450725Y488183D01*
X450705Y488187D01*
X450684Y488185D01*
X450624Y488189D01*
X412976Y488189D01*
X412858Y488174D01*
X412739Y488167D01*
X412701Y488154D01*
X412660Y488149D01*
X412550Y488106D01*
X412437Y488069D01*
X412402Y488047D01*
X412365Y488032D01*
X412269Y487963D01*
X412168Y487899D01*
X412140Y487869D01*
X412107Y487846D01*
X412031Y487754D01*
X411950Y487667D01*
X411930Y487632D01*
X411905Y487601D01*
X411854Y487493D01*
X411796Y487389D01*
X411786Y487349D01*
X411769Y487313D01*
X411747Y487196D01*
X411717Y487081D01*
X411713Y487021D01*
X411709Y487001D01*
X411711Y486980D01*
X411707Y486920D01*
X411707Y484719D01*
X410899Y482769D01*
X409406Y481276D01*
X407456Y480468D01*
X405344Y480468D01*
X403394Y481276D01*
X401901Y482769D01*
X401093Y484719D01*
X401093Y486920D01*
X401078Y487038D01*
X401071Y487157D01*
X401058Y487195D01*
X401053Y487236D01*
X401010Y487346D01*
X400973Y487459D01*
X400951Y487494D01*
X400936Y487531D01*
X400867Y487627D01*
X400803Y487728D01*
X400773Y487756D01*
X400750Y487789D01*
X400658Y487865D01*
X400571Y487946D01*
X400536Y487966D01*
X400505Y487991D01*
X400397Y488042D01*
X400293Y488100D01*
X400253Y488110D01*
X400217Y488127D01*
X400100Y488149D01*
X399985Y488179D01*
X399925Y488183D01*
X399905Y488187D01*
X399884Y488185D01*
X399824Y488189D01*
X362176Y488189D01*
X362058Y488174D01*
X361939Y488167D01*
X361901Y488154D01*
X361860Y488149D01*
X361750Y488106D01*
X361637Y488069D01*
X361602Y488047D01*
X361565Y488032D01*
X361469Y487963D01*
X361368Y487899D01*
X361340Y487869D01*
X361307Y487846D01*
X361231Y487754D01*
X361150Y487667D01*
X361130Y487632D01*
X361105Y487601D01*
X361054Y487493D01*
X360996Y487389D01*
X360986Y487349D01*
X360969Y487313D01*
X360947Y487196D01*
X360917Y487081D01*
X360913Y487021D01*
X360909Y487001D01*
X360911Y486980D01*
X360907Y486920D01*
X360907Y484719D01*
X360099Y482769D01*
X358606Y481276D01*
X356656Y480468D01*
X354544Y480468D01*
X352594Y481276D01*
X351101Y482769D01*
X350293Y484719D01*
X350293Y486920D01*
X350278Y487038D01*
X350271Y487157D01*
X350258Y487195D01*
X350253Y487236D01*
X350210Y487346D01*
X350173Y487459D01*
X350151Y487494D01*
X350136Y487531D01*
X350067Y487627D01*
X350003Y487728D01*
X349973Y487756D01*
X349950Y487789D01*
X349858Y487865D01*
X349771Y487946D01*
X349736Y487966D01*
X349705Y487991D01*
X349597Y488042D01*
X349493Y488100D01*
X349453Y488110D01*
X349417Y488127D01*
X349300Y488149D01*
X349185Y488179D01*
X349125Y488183D01*
X349105Y488187D01*
X349084Y488185D01*
X349024Y488189D01*
X311376Y488189D01*
X311258Y488174D01*
X311139Y488167D01*
X311101Y488154D01*
X311060Y488149D01*
X310950Y488106D01*
X310837Y488069D01*
X310802Y488047D01*
X310765Y488032D01*
X310669Y487963D01*
X310568Y487899D01*
X310540Y487869D01*
X310507Y487846D01*
X310431Y487754D01*
X310350Y487667D01*
X310330Y487632D01*
X310305Y487601D01*
X310254Y487493D01*
X310196Y487389D01*
X310186Y487349D01*
X310169Y487313D01*
X310147Y487196D01*
X310117Y487081D01*
X310113Y487021D01*
X310109Y487001D01*
X310111Y486980D01*
X310107Y486920D01*
X310107Y484719D01*
X309299Y482769D01*
X307806Y481276D01*
X305856Y480468D01*
X303744Y480468D01*
X301794Y481276D01*
X300301Y482769D01*
X299493Y484719D01*
X299493Y486920D01*
X299478Y487038D01*
X299471Y487157D01*
X299458Y487195D01*
X299453Y487236D01*
X299410Y487346D01*
X299373Y487459D01*
X299351Y487494D01*
X299336Y487531D01*
X299267Y487627D01*
X299203Y487728D01*
X299173Y487756D01*
X299150Y487789D01*
X299058Y487865D01*
X298971Y487946D01*
X298936Y487966D01*
X298905Y487991D01*
X298797Y488042D01*
X298693Y488100D01*
X298653Y488110D01*
X298617Y488127D01*
X298500Y488149D01*
X298385Y488179D01*
X298325Y488183D01*
X298305Y488187D01*
X298284Y488185D01*
X298224Y488189D01*
X260576Y488189D01*
X260458Y488174D01*
X260339Y488167D01*
X260301Y488154D01*
X260260Y488149D01*
X260150Y488106D01*
X260037Y488069D01*
X260002Y488047D01*
X259965Y488032D01*
X259869Y487963D01*
X259768Y487899D01*
X259740Y487869D01*
X259707Y487846D01*
X259631Y487754D01*
X259550Y487667D01*
X259530Y487632D01*
X259505Y487601D01*
X259454Y487493D01*
X259396Y487389D01*
X259386Y487349D01*
X259369Y487313D01*
X259347Y487196D01*
X259317Y487081D01*
X259313Y487021D01*
X259309Y487001D01*
X259311Y486980D01*
X259307Y486920D01*
X259307Y484719D01*
X258499Y482769D01*
X257006Y481276D01*
X255056Y480468D01*
X252944Y480468D01*
X250994Y481276D01*
X249501Y482769D01*
X248693Y484719D01*
X248693Y486920D01*
X248678Y487038D01*
X248671Y487157D01*
X248658Y487195D01*
X248653Y487236D01*
X248610Y487346D01*
X248573Y487459D01*
X248551Y487494D01*
X248536Y487531D01*
X248467Y487627D01*
X248403Y487728D01*
X248373Y487756D01*
X248350Y487789D01*
X248258Y487865D01*
X248171Y487946D01*
X248136Y487966D01*
X248105Y487991D01*
X247997Y488042D01*
X247893Y488100D01*
X247853Y488110D01*
X247817Y488127D01*
X247700Y488149D01*
X247585Y488179D01*
X247525Y488183D01*
X247505Y488187D01*
X247484Y488185D01*
X247424Y488189D01*
X209776Y488189D01*
X209658Y488174D01*
X209539Y488167D01*
X209501Y488154D01*
X209460Y488149D01*
X209350Y488106D01*
X209237Y488069D01*
X209202Y488047D01*
X209165Y488032D01*
X209069Y487963D01*
X208968Y487899D01*
X208940Y487869D01*
X208907Y487846D01*
X208831Y487754D01*
X208750Y487667D01*
X208730Y487632D01*
X208705Y487601D01*
X208654Y487493D01*
X208596Y487389D01*
X208586Y487349D01*
X208569Y487313D01*
X208547Y487196D01*
X208517Y487081D01*
X208513Y487021D01*
X208509Y487001D01*
X208511Y486980D01*
X208507Y486920D01*
X208507Y484719D01*
X207699Y482769D01*
X206206Y481276D01*
X204256Y480468D01*
X202144Y480468D01*
X200194Y481276D01*
X198701Y482769D01*
X197893Y484719D01*
X197893Y486920D01*
X197878Y487038D01*
X197871Y487157D01*
X197858Y487195D01*
X197853Y487236D01*
X197810Y487346D01*
X197773Y487459D01*
X197751Y487494D01*
X197736Y487531D01*
X197667Y487627D01*
X197603Y487728D01*
X197573Y487756D01*
X197550Y487789D01*
X197458Y487865D01*
X197371Y487946D01*
X197336Y487966D01*
X197305Y487991D01*
X197197Y488042D01*
X197093Y488100D01*
X197053Y488110D01*
X197017Y488127D01*
X196900Y488149D01*
X196785Y488179D01*
X196725Y488183D01*
X196705Y488187D01*
X196684Y488185D01*
X196624Y488189D01*
X158976Y488189D01*
X158858Y488174D01*
X158739Y488167D01*
X158701Y488154D01*
X158660Y488149D01*
X158550Y488106D01*
X158437Y488069D01*
X158402Y488047D01*
X158365Y488032D01*
X158269Y487963D01*
X158168Y487899D01*
X158140Y487869D01*
X158107Y487846D01*
X158031Y487754D01*
X157950Y487667D01*
X157930Y487632D01*
X157905Y487601D01*
X157854Y487493D01*
X157796Y487389D01*
X157786Y487349D01*
X157769Y487313D01*
X157747Y487196D01*
X157717Y487081D01*
X157713Y487021D01*
X157709Y487001D01*
X157711Y486980D01*
X157707Y486920D01*
X157707Y484719D01*
X156899Y482769D01*
X155406Y481276D01*
X153456Y480468D01*
X151344Y480468D01*
X149394Y481276D01*
X147901Y482769D01*
X147093Y484719D01*
X147093Y486920D01*
X147078Y487038D01*
X147071Y487157D01*
X147058Y487195D01*
X147053Y487236D01*
X147010Y487346D01*
X146973Y487459D01*
X146951Y487494D01*
X146936Y487531D01*
X146867Y487627D01*
X146803Y487728D01*
X146773Y487756D01*
X146750Y487789D01*
X146658Y487865D01*
X146571Y487946D01*
X146536Y487966D01*
X146505Y487991D01*
X146397Y488042D01*
X146293Y488100D01*
X146253Y488110D01*
X146217Y488127D01*
X146100Y488149D01*
X145985Y488179D01*
X145925Y488183D01*
X145905Y488187D01*
X145884Y488185D01*
X145824Y488189D01*
X108176Y488189D01*
X108058Y488174D01*
X107939Y488167D01*
X107901Y488154D01*
X107860Y488149D01*
X107750Y488106D01*
X107637Y488069D01*
X107602Y488047D01*
X107565Y488032D01*
X107469Y487963D01*
X107368Y487899D01*
X107340Y487869D01*
X107307Y487846D01*
X107231Y487754D01*
X107150Y487667D01*
X107130Y487632D01*
X107105Y487601D01*
X107054Y487493D01*
X106996Y487389D01*
X106986Y487349D01*
X106969Y487313D01*
X106947Y487196D01*
X106917Y487081D01*
X106913Y487021D01*
X106909Y487001D01*
X106911Y486980D01*
X106907Y486920D01*
X106907Y484719D01*
X106099Y482769D01*
X104606Y481276D01*
X102656Y480468D01*
X101600Y480468D01*
X101482Y480453D01*
X101363Y480446D01*
X101325Y480433D01*
X101284Y480428D01*
X101174Y480385D01*
X101061Y480348D01*
X101026Y480326D01*
X100989Y480311D01*
X100893Y480242D01*
X100792Y480178D01*
X100764Y480148D01*
X100731Y480125D01*
X100655Y480033D01*
X100574Y479946D01*
X100554Y479911D01*
X100529Y479880D01*
X100478Y479772D01*
X100420Y479668D01*
X100410Y479628D01*
X100393Y479592D01*
X100371Y479475D01*
X100341Y479360D01*
X100337Y479300D01*
X100333Y479280D01*
X100335Y479259D01*
X100331Y479199D01*
X100331Y428625D01*
X100346Y428507D01*
X100353Y428388D01*
X100366Y428350D01*
X100371Y428309D01*
X100414Y428199D01*
X100451Y428086D01*
X100473Y428051D01*
X100488Y428014D01*
X100558Y427918D01*
X100621Y427817D01*
X100651Y427789D01*
X100674Y427756D01*
X100766Y427681D01*
X100853Y427599D01*
X100888Y427579D01*
X100919Y427554D01*
X101027Y427503D01*
X101131Y427445D01*
X101171Y427435D01*
X101207Y427418D01*
X101324Y427396D01*
X101439Y427366D01*
X101500Y427362D01*
X101520Y427358D01*
X101540Y427360D01*
X101600Y427356D01*
X338456Y427356D01*
X338456Y355600D01*
X338471Y355482D01*
X338478Y355363D01*
X338491Y355325D01*
X338496Y355284D01*
X338539Y355174D01*
X338576Y355061D01*
X338598Y355026D01*
X338613Y354989D01*
X338683Y354893D01*
X338746Y354792D01*
X338776Y354764D01*
X338799Y354731D01*
X338891Y354656D01*
X338978Y354574D01*
X339013Y354554D01*
X339044Y354529D01*
X339152Y354478D01*
X339256Y354420D01*
X339296Y354410D01*
X339332Y354393D01*
X339449Y354371D01*
X339564Y354341D01*
X339625Y354337D01*
X339645Y354333D01*
X339665Y354335D01*
X339725Y354331D01*
X752249Y354331D01*
X752367Y354346D01*
G37*
G36*
X333493Y249571D02*
X333493Y249571D01*
X333612Y249578D01*
X333650Y249591D01*
X333691Y249596D01*
X333801Y249639D01*
X333914Y249676D01*
X333949Y249698D01*
X333986Y249713D01*
X334082Y249783D01*
X334183Y249846D01*
X334211Y249876D01*
X334244Y249899D01*
X334320Y249991D01*
X334401Y250078D01*
X334421Y250113D01*
X334446Y250144D01*
X334497Y250252D01*
X334555Y250356D01*
X334565Y250396D01*
X334582Y250432D01*
X334604Y250549D01*
X334634Y250664D01*
X334638Y250725D01*
X334642Y250745D01*
X334640Y250765D01*
X334644Y250825D01*
X334644Y419100D01*
X334629Y419218D01*
X334622Y419337D01*
X334609Y419375D01*
X334604Y419416D01*
X334561Y419526D01*
X334524Y419639D01*
X334502Y419674D01*
X334487Y419711D01*
X334418Y419807D01*
X334354Y419908D01*
X334324Y419936D01*
X334301Y419969D01*
X334209Y420045D01*
X334122Y420126D01*
X334087Y420146D01*
X334056Y420171D01*
X333948Y420222D01*
X333844Y420280D01*
X333804Y420290D01*
X333768Y420307D01*
X333651Y420329D01*
X333536Y420359D01*
X333476Y420363D01*
X333456Y420367D01*
X333435Y420365D01*
X333375Y420369D01*
X96519Y420369D01*
X96519Y483921D01*
X96518Y483931D01*
X96519Y483940D01*
X96498Y484089D01*
X96479Y484237D01*
X96476Y484246D01*
X96475Y484255D01*
X96423Y484407D01*
X96293Y484719D01*
X96293Y486920D01*
X96278Y487038D01*
X96271Y487157D01*
X96258Y487195D01*
X96253Y487236D01*
X96210Y487346D01*
X96173Y487459D01*
X96151Y487494D01*
X96136Y487531D01*
X96067Y487627D01*
X96003Y487728D01*
X95973Y487756D01*
X95950Y487789D01*
X95858Y487865D01*
X95771Y487946D01*
X95736Y487966D01*
X95705Y487991D01*
X95597Y488042D01*
X95493Y488100D01*
X95453Y488110D01*
X95417Y488127D01*
X95300Y488149D01*
X95185Y488179D01*
X95125Y488183D01*
X95105Y488187D01*
X95084Y488185D01*
X95024Y488189D01*
X57376Y488189D01*
X57258Y488174D01*
X57139Y488167D01*
X57101Y488154D01*
X57060Y488149D01*
X56950Y488106D01*
X56837Y488069D01*
X56802Y488047D01*
X56765Y488032D01*
X56669Y487963D01*
X56568Y487899D01*
X56540Y487869D01*
X56507Y487846D01*
X56431Y487754D01*
X56350Y487667D01*
X56330Y487632D01*
X56305Y487601D01*
X56254Y487493D01*
X56196Y487389D01*
X56186Y487349D01*
X56169Y487313D01*
X56147Y487196D01*
X56117Y487081D01*
X56113Y487021D01*
X56109Y487001D01*
X56110Y486990D01*
X56109Y486986D01*
X56110Y486973D01*
X56107Y486920D01*
X56107Y485284D01*
X56121Y485172D01*
X56127Y485060D01*
X56141Y485015D01*
X56147Y484968D01*
X56188Y484864D01*
X56221Y484757D01*
X56246Y484716D01*
X56264Y484673D01*
X56330Y484582D01*
X56389Y484486D01*
X56423Y484454D01*
X56450Y484415D01*
X56537Y484344D01*
X56618Y484266D01*
X56659Y484243D01*
X56695Y484213D01*
X56797Y484165D01*
X56895Y484109D01*
X56964Y484086D01*
X56983Y484077D01*
X57001Y484074D01*
X57047Y484058D01*
X61438Y482882D01*
X67722Y479253D01*
X72853Y474122D01*
X76482Y467838D01*
X78360Y460828D01*
X78360Y453572D01*
X76482Y446562D01*
X72853Y440278D01*
X67722Y435147D01*
X61438Y431518D01*
X54428Y429640D01*
X47172Y429640D01*
X40162Y431518D01*
X33878Y435147D01*
X28747Y440278D01*
X25118Y446562D01*
X23240Y453572D01*
X23240Y454733D01*
X23232Y454802D01*
X23233Y454872D01*
X23212Y454960D01*
X23200Y455049D01*
X23175Y455114D01*
X23158Y455182D01*
X23116Y455261D01*
X23083Y455344D01*
X23042Y455401D01*
X23010Y455463D01*
X22949Y455529D01*
X22897Y455602D01*
X22843Y455646D01*
X22796Y455698D01*
X22721Y455747D01*
X22652Y455805D01*
X22588Y455834D01*
X22530Y455873D01*
X22445Y455902D01*
X22364Y455940D01*
X22295Y455953D01*
X22229Y455976D01*
X22140Y455983D01*
X22052Y456000D01*
X21982Y455996D01*
X21912Y456001D01*
X21824Y455986D01*
X21734Y455980D01*
X21668Y455959D01*
X21599Y455947D01*
X21517Y455910D01*
X21432Y455882D01*
X21373Y455845D01*
X21309Y455816D01*
X21239Y455760D01*
X21163Y455712D01*
X21115Y455661D01*
X21061Y455618D01*
X21007Y455546D01*
X20945Y455480D01*
X20911Y455419D01*
X20869Y455363D01*
X20798Y455219D01*
X20374Y454194D01*
X18881Y452701D01*
X16931Y451893D01*
X14819Y451893D01*
X12869Y452701D01*
X12327Y453243D01*
X12218Y453328D01*
X12111Y453417D01*
X12092Y453425D01*
X12076Y453438D01*
X11948Y453493D01*
X11823Y453552D01*
X11803Y453556D01*
X11784Y453564D01*
X11646Y453586D01*
X11510Y453612D01*
X11490Y453611D01*
X11470Y453614D01*
X11331Y453601D01*
X11193Y453592D01*
X11174Y453586D01*
X11154Y453584D01*
X11023Y453537D01*
X10891Y453494D01*
X10873Y453483D01*
X10854Y453476D01*
X10740Y453398D01*
X10622Y453324D01*
X10608Y453309D01*
X10591Y453298D01*
X10499Y453194D01*
X10404Y453092D01*
X10394Y453075D01*
X10381Y453059D01*
X10318Y452936D01*
X10250Y452814D01*
X10245Y452794D01*
X10236Y452776D01*
X10206Y452640D01*
X10171Y452506D01*
X10169Y452478D01*
X10166Y452466D01*
X10167Y452445D01*
X10161Y452345D01*
X10161Y411255D01*
X10178Y411117D01*
X10191Y410978D01*
X10198Y410959D01*
X10201Y410939D01*
X10252Y410810D01*
X10299Y410679D01*
X10310Y410662D01*
X10318Y410644D01*
X10399Y410531D01*
X10477Y410416D01*
X10493Y410403D01*
X10504Y410386D01*
X10612Y410297D01*
X10716Y410206D01*
X10734Y410196D01*
X10749Y410183D01*
X10875Y410124D01*
X10999Y410061D01*
X11019Y410057D01*
X11037Y410048D01*
X11174Y410022D01*
X11309Y409991D01*
X11330Y409992D01*
X11349Y409988D01*
X11488Y409997D01*
X11627Y410001D01*
X11647Y410007D01*
X11667Y410008D01*
X11799Y410051D01*
X11933Y410089D01*
X11950Y410100D01*
X11969Y410106D01*
X12087Y410180D01*
X12207Y410251D01*
X12228Y410270D01*
X12238Y410276D01*
X12252Y410291D01*
X12327Y410357D01*
X12869Y410899D01*
X14819Y411707D01*
X16931Y411707D01*
X18881Y410899D01*
X20374Y409406D01*
X21182Y407456D01*
X21182Y405344D01*
X20374Y403394D01*
X18881Y401901D01*
X16931Y401093D01*
X14819Y401093D01*
X12869Y401901D01*
X12327Y402443D01*
X12218Y402528D01*
X12111Y402617D01*
X12092Y402625D01*
X12076Y402638D01*
X11948Y402693D01*
X11823Y402752D01*
X11803Y402756D01*
X11784Y402764D01*
X11646Y402786D01*
X11510Y402812D01*
X11490Y402811D01*
X11470Y402814D01*
X11331Y402801D01*
X11193Y402792D01*
X11174Y402786D01*
X11154Y402784D01*
X11023Y402737D01*
X10891Y402694D01*
X10873Y402683D01*
X10854Y402676D01*
X10740Y402598D01*
X10622Y402524D01*
X10608Y402509D01*
X10591Y402498D01*
X10499Y402394D01*
X10404Y402292D01*
X10394Y402275D01*
X10381Y402259D01*
X10318Y402136D01*
X10250Y402014D01*
X10245Y401994D01*
X10236Y401976D01*
X10206Y401840D01*
X10171Y401706D01*
X10169Y401678D01*
X10166Y401666D01*
X10167Y401645D01*
X10161Y401545D01*
X10161Y360455D01*
X10178Y360317D01*
X10191Y360178D01*
X10198Y360159D01*
X10201Y360139D01*
X10252Y360010D01*
X10299Y359879D01*
X10310Y359862D01*
X10318Y359844D01*
X10399Y359731D01*
X10477Y359616D01*
X10493Y359603D01*
X10504Y359586D01*
X10612Y359497D01*
X10716Y359406D01*
X10734Y359396D01*
X10749Y359383D01*
X10875Y359324D01*
X10999Y359261D01*
X11019Y359257D01*
X11037Y359248D01*
X11174Y359222D01*
X11309Y359191D01*
X11330Y359192D01*
X11349Y359188D01*
X11488Y359197D01*
X11627Y359201D01*
X11647Y359207D01*
X11667Y359208D01*
X11799Y359251D01*
X11933Y359289D01*
X11950Y359300D01*
X11969Y359306D01*
X12087Y359380D01*
X12207Y359451D01*
X12228Y359470D01*
X12238Y359476D01*
X12252Y359491D01*
X12327Y359557D01*
X12869Y360099D01*
X14819Y360907D01*
X16931Y360907D01*
X18881Y360099D01*
X20374Y358606D01*
X21182Y356656D01*
X21182Y354544D01*
X20374Y352594D01*
X18881Y351101D01*
X16931Y350293D01*
X14819Y350293D01*
X12869Y351101D01*
X12327Y351643D01*
X12218Y351728D01*
X12111Y351817D01*
X12092Y351825D01*
X12076Y351838D01*
X11948Y351893D01*
X11823Y351952D01*
X11803Y351956D01*
X11784Y351964D01*
X11646Y351986D01*
X11510Y352012D01*
X11490Y352011D01*
X11470Y352014D01*
X11331Y352001D01*
X11193Y351992D01*
X11174Y351986D01*
X11154Y351984D01*
X11023Y351937D01*
X10891Y351894D01*
X10873Y351883D01*
X10854Y351876D01*
X10740Y351798D01*
X10622Y351724D01*
X10608Y351709D01*
X10591Y351698D01*
X10499Y351594D01*
X10404Y351492D01*
X10394Y351475D01*
X10381Y351459D01*
X10318Y351336D01*
X10250Y351214D01*
X10245Y351194D01*
X10236Y351176D01*
X10206Y351040D01*
X10171Y350906D01*
X10169Y350878D01*
X10166Y350866D01*
X10167Y350845D01*
X10161Y350745D01*
X10161Y309655D01*
X10178Y309517D01*
X10191Y309378D01*
X10198Y309359D01*
X10201Y309339D01*
X10252Y309210D01*
X10299Y309079D01*
X10310Y309062D01*
X10318Y309044D01*
X10399Y308931D01*
X10477Y308816D01*
X10493Y308803D01*
X10504Y308786D01*
X10612Y308697D01*
X10716Y308606D01*
X10734Y308596D01*
X10749Y308583D01*
X10875Y308524D01*
X10999Y308461D01*
X11019Y308457D01*
X11037Y308448D01*
X11174Y308422D01*
X11309Y308391D01*
X11330Y308392D01*
X11349Y308388D01*
X11488Y308397D01*
X11627Y308401D01*
X11647Y308407D01*
X11667Y308408D01*
X11799Y308451D01*
X11933Y308489D01*
X11950Y308500D01*
X11969Y308506D01*
X12087Y308580D01*
X12207Y308651D01*
X12228Y308670D01*
X12238Y308676D01*
X12252Y308691D01*
X12327Y308757D01*
X12869Y309299D01*
X14819Y310107D01*
X16931Y310107D01*
X18881Y309299D01*
X20374Y307806D01*
X21182Y305856D01*
X21182Y303744D01*
X20374Y301794D01*
X18881Y300301D01*
X16931Y299493D01*
X14819Y299493D01*
X12869Y300301D01*
X12327Y300843D01*
X12218Y300928D01*
X12111Y301017D01*
X12092Y301025D01*
X12076Y301038D01*
X11948Y301093D01*
X11823Y301152D01*
X11803Y301156D01*
X11784Y301164D01*
X11646Y301186D01*
X11510Y301212D01*
X11490Y301211D01*
X11470Y301214D01*
X11331Y301201D01*
X11193Y301192D01*
X11174Y301186D01*
X11154Y301184D01*
X11023Y301137D01*
X10891Y301094D01*
X10873Y301083D01*
X10854Y301076D01*
X10740Y300998D01*
X10622Y300924D01*
X10608Y300909D01*
X10591Y300898D01*
X10499Y300794D01*
X10404Y300692D01*
X10394Y300675D01*
X10381Y300659D01*
X10318Y300536D01*
X10250Y300414D01*
X10245Y300394D01*
X10236Y300376D01*
X10206Y300240D01*
X10171Y300106D01*
X10169Y300078D01*
X10166Y300066D01*
X10167Y300045D01*
X10161Y299945D01*
X10161Y258855D01*
X10178Y258717D01*
X10191Y258578D01*
X10198Y258559D01*
X10201Y258539D01*
X10252Y258410D01*
X10299Y258279D01*
X10310Y258262D01*
X10318Y258244D01*
X10399Y258131D01*
X10477Y258016D01*
X10493Y258003D01*
X10504Y257986D01*
X10612Y257897D01*
X10716Y257806D01*
X10734Y257796D01*
X10749Y257783D01*
X10875Y257724D01*
X10999Y257661D01*
X11019Y257657D01*
X11037Y257648D01*
X11174Y257622D01*
X11309Y257591D01*
X11330Y257592D01*
X11349Y257588D01*
X11488Y257597D01*
X11627Y257601D01*
X11647Y257607D01*
X11667Y257608D01*
X11799Y257651D01*
X11933Y257689D01*
X11950Y257700D01*
X11969Y257706D01*
X12087Y257780D01*
X12207Y257851D01*
X12228Y257870D01*
X12238Y257876D01*
X12252Y257891D01*
X12327Y257957D01*
X12869Y258499D01*
X14819Y259307D01*
X16931Y259307D01*
X18881Y258499D01*
X20374Y257006D01*
X21182Y255056D01*
X21182Y252944D01*
X20505Y251311D01*
X20492Y251263D01*
X20471Y251218D01*
X20450Y251110D01*
X20421Y251004D01*
X20420Y250954D01*
X20411Y250906D01*
X20418Y250796D01*
X20416Y250686D01*
X20428Y250638D01*
X20431Y250588D01*
X20465Y250484D01*
X20490Y250377D01*
X20513Y250333D01*
X20529Y250286D01*
X20588Y250193D01*
X20639Y250096D01*
X20672Y250059D01*
X20699Y250017D01*
X20779Y249942D01*
X20853Y249860D01*
X20894Y249833D01*
X20931Y249799D01*
X21027Y249746D01*
X21119Y249686D01*
X21166Y249669D01*
X21209Y249645D01*
X21315Y249618D01*
X21419Y249582D01*
X21469Y249578D01*
X21517Y249566D01*
X21678Y249556D01*
X333375Y249556D01*
X333493Y249571D01*
G37*
G36*
X704742Y7001D02*
X704742Y7001D01*
X704861Y7008D01*
X704899Y7021D01*
X704940Y7026D01*
X705050Y7069D01*
X705163Y7106D01*
X705198Y7128D01*
X705235Y7143D01*
X705331Y7212D01*
X705432Y7276D01*
X705460Y7306D01*
X705493Y7329D01*
X705569Y7421D01*
X705650Y7508D01*
X705670Y7543D01*
X705695Y7574D01*
X705746Y7682D01*
X705804Y7786D01*
X705814Y7826D01*
X705831Y7862D01*
X705853Y7979D01*
X705883Y8094D01*
X705887Y8154D01*
X705891Y8174D01*
X705889Y8195D01*
X705893Y8255D01*
X705893Y10581D01*
X706701Y12531D01*
X708194Y14024D01*
X710144Y14832D01*
X712256Y14832D01*
X714206Y14024D01*
X715699Y12531D01*
X716507Y10581D01*
X716507Y8255D01*
X716522Y8137D01*
X716529Y8018D01*
X716542Y7980D01*
X716547Y7939D01*
X716590Y7829D01*
X716627Y7716D01*
X716649Y7681D01*
X716664Y7644D01*
X716733Y7548D01*
X716797Y7447D01*
X716827Y7419D01*
X716850Y7386D01*
X716942Y7310D01*
X717029Y7229D01*
X717064Y7209D01*
X717095Y7184D01*
X717203Y7133D01*
X717307Y7075D01*
X717347Y7065D01*
X717383Y7048D01*
X717500Y7026D01*
X717615Y6996D01*
X717675Y6992D01*
X717695Y6988D01*
X717716Y6990D01*
X717776Y6986D01*
X752249Y6986D01*
X752367Y7001D01*
X752486Y7008D01*
X752524Y7021D01*
X752565Y7026D01*
X752675Y7069D01*
X752788Y7106D01*
X752823Y7128D01*
X752860Y7143D01*
X752956Y7212D01*
X753057Y7276D01*
X753085Y7306D01*
X753118Y7329D01*
X753194Y7421D01*
X753275Y7508D01*
X753295Y7543D01*
X753320Y7574D01*
X753371Y7682D01*
X753429Y7786D01*
X753439Y7826D01*
X753456Y7862D01*
X753478Y7979D01*
X753508Y8094D01*
X753512Y8154D01*
X753516Y8174D01*
X753514Y8195D01*
X753518Y8255D01*
X753518Y10581D01*
X754326Y12531D01*
X755819Y14024D01*
X757769Y14832D01*
X759881Y14832D01*
X761831Y14024D01*
X762172Y13682D01*
X762259Y13616D01*
X762302Y13575D01*
X762324Y13563D01*
X762389Y13508D01*
X762408Y13500D01*
X762424Y13487D01*
X762552Y13432D01*
X762677Y13373D01*
X762697Y13369D01*
X762716Y13361D01*
X762854Y13339D01*
X762990Y13313D01*
X763010Y13314D01*
X763030Y13311D01*
X763169Y13324D01*
X763307Y13333D01*
X763326Y13339D01*
X763346Y13341D01*
X763477Y13388D01*
X763609Y13431D01*
X763627Y13442D01*
X763646Y13449D01*
X763760Y13527D01*
X763878Y13601D01*
X763892Y13616D01*
X763909Y13627D01*
X764001Y13731D01*
X764096Y13833D01*
X764106Y13850D01*
X764119Y13866D01*
X764182Y13989D01*
X764250Y14111D01*
X764255Y14131D01*
X764264Y14149D01*
X764294Y14285D01*
X764329Y14419D01*
X764331Y14447D01*
X764334Y14459D01*
X764333Y14480D01*
X764335Y14511D01*
X764337Y14521D01*
X764336Y14530D01*
X764339Y14580D01*
X764339Y45745D01*
X764322Y45883D01*
X764309Y46022D01*
X764302Y46041D01*
X764299Y46061D01*
X764248Y46190D01*
X764201Y46321D01*
X764190Y46338D01*
X764182Y46356D01*
X764101Y46469D01*
X764023Y46584D01*
X764007Y46597D01*
X763996Y46614D01*
X763888Y46703D01*
X763784Y46794D01*
X763766Y46804D01*
X763751Y46817D01*
X763625Y46876D01*
X763501Y46939D01*
X763481Y46944D01*
X763463Y46952D01*
X763327Y46978D01*
X763191Y47009D01*
X763170Y47008D01*
X763151Y47012D01*
X763012Y47003D01*
X762873Y46999D01*
X762853Y46993D01*
X762833Y46992D01*
X762701Y46949D01*
X762567Y46911D01*
X762550Y46900D01*
X762531Y46894D01*
X762413Y46820D01*
X762293Y46749D01*
X762272Y46730D01*
X762262Y46724D01*
X762248Y46709D01*
X762172Y46643D01*
X761831Y46301D01*
X759881Y45493D01*
X757769Y45493D01*
X755819Y46301D01*
X754326Y47794D01*
X753518Y49744D01*
X753518Y51856D01*
X754326Y53806D01*
X755819Y55299D01*
X757769Y56107D01*
X759881Y56107D01*
X761831Y55299D01*
X762172Y54957D01*
X762282Y54872D01*
X762389Y54783D01*
X762408Y54775D01*
X762424Y54762D01*
X762552Y54707D01*
X762677Y54648D01*
X762697Y54644D01*
X762716Y54636D01*
X762854Y54614D01*
X762990Y54588D01*
X763010Y54589D01*
X763030Y54586D01*
X763169Y54599D01*
X763307Y54608D01*
X763326Y54614D01*
X763346Y54616D01*
X763477Y54663D01*
X763609Y54706D01*
X763627Y54717D01*
X763646Y54724D01*
X763760Y54802D01*
X763878Y54876D01*
X763892Y54891D01*
X763909Y54902D01*
X764001Y55006D01*
X764096Y55108D01*
X764106Y55125D01*
X764119Y55141D01*
X764182Y55264D01*
X764250Y55386D01*
X764255Y55406D01*
X764264Y55424D01*
X764294Y55560D01*
X764329Y55694D01*
X764331Y55722D01*
X764334Y55734D01*
X764333Y55755D01*
X764339Y55855D01*
X764339Y96545D01*
X764322Y96683D01*
X764309Y96822D01*
X764302Y96841D01*
X764299Y96861D01*
X764248Y96990D01*
X764201Y97121D01*
X764190Y97138D01*
X764182Y97156D01*
X764101Y97269D01*
X764023Y97384D01*
X764007Y97397D01*
X763996Y97414D01*
X763888Y97503D01*
X763784Y97594D01*
X763766Y97604D01*
X763751Y97617D01*
X763625Y97676D01*
X763501Y97739D01*
X763481Y97744D01*
X763463Y97752D01*
X763327Y97778D01*
X763191Y97809D01*
X763170Y97808D01*
X763151Y97812D01*
X763012Y97803D01*
X762873Y97799D01*
X762853Y97793D01*
X762833Y97792D01*
X762701Y97749D01*
X762567Y97711D01*
X762550Y97700D01*
X762531Y97694D01*
X762413Y97620D01*
X762293Y97549D01*
X762272Y97530D01*
X762262Y97524D01*
X762248Y97509D01*
X762172Y97443D01*
X761831Y97101D01*
X759881Y96293D01*
X757769Y96293D01*
X755819Y97101D01*
X754326Y98594D01*
X753518Y100544D01*
X753518Y102656D01*
X754326Y104606D01*
X755819Y106099D01*
X757769Y106907D01*
X759881Y106907D01*
X761831Y106099D01*
X762172Y105757D01*
X762282Y105672D01*
X762389Y105583D01*
X762408Y105575D01*
X762424Y105562D01*
X762552Y105507D01*
X762677Y105448D01*
X762697Y105444D01*
X762716Y105436D01*
X762854Y105414D01*
X762990Y105388D01*
X763010Y105389D01*
X763030Y105386D01*
X763169Y105399D01*
X763307Y105408D01*
X763326Y105414D01*
X763346Y105416D01*
X763477Y105463D01*
X763609Y105506D01*
X763627Y105517D01*
X763646Y105524D01*
X763760Y105602D01*
X763878Y105676D01*
X763892Y105691D01*
X763909Y105702D01*
X764001Y105806D01*
X764096Y105908D01*
X764106Y105925D01*
X764119Y105941D01*
X764182Y106064D01*
X764250Y106186D01*
X764255Y106206D01*
X764264Y106224D01*
X764294Y106360D01*
X764329Y106494D01*
X764331Y106522D01*
X764334Y106534D01*
X764333Y106555D01*
X764339Y106655D01*
X764339Y147345D01*
X764322Y147483D01*
X764309Y147622D01*
X764302Y147641D01*
X764299Y147661D01*
X764248Y147790D01*
X764201Y147921D01*
X764190Y147938D01*
X764182Y147956D01*
X764101Y148069D01*
X764023Y148184D01*
X764007Y148197D01*
X763996Y148214D01*
X763888Y148303D01*
X763784Y148394D01*
X763766Y148404D01*
X763751Y148417D01*
X763625Y148476D01*
X763501Y148539D01*
X763481Y148544D01*
X763463Y148552D01*
X763327Y148578D01*
X763191Y148609D01*
X763170Y148608D01*
X763151Y148612D01*
X763012Y148603D01*
X762873Y148599D01*
X762853Y148593D01*
X762833Y148592D01*
X762701Y148549D01*
X762567Y148511D01*
X762550Y148500D01*
X762531Y148494D01*
X762413Y148420D01*
X762293Y148349D01*
X762272Y148330D01*
X762262Y148324D01*
X762248Y148309D01*
X762172Y148243D01*
X761831Y147901D01*
X759881Y147093D01*
X757769Y147093D01*
X755819Y147901D01*
X754326Y149394D01*
X753518Y151344D01*
X753518Y153456D01*
X754326Y155406D01*
X755819Y156899D01*
X757769Y157707D01*
X759881Y157707D01*
X761831Y156899D01*
X762172Y156557D01*
X762282Y156472D01*
X762389Y156383D01*
X762408Y156375D01*
X762424Y156362D01*
X762552Y156307D01*
X762677Y156248D01*
X762697Y156244D01*
X762716Y156236D01*
X762854Y156214D01*
X762990Y156188D01*
X763010Y156189D01*
X763030Y156186D01*
X763169Y156199D01*
X763307Y156208D01*
X763326Y156214D01*
X763346Y156216D01*
X763477Y156263D01*
X763609Y156306D01*
X763627Y156317D01*
X763646Y156324D01*
X763760Y156402D01*
X763878Y156476D01*
X763892Y156491D01*
X763909Y156502D01*
X764001Y156606D01*
X764096Y156708D01*
X764106Y156725D01*
X764119Y156741D01*
X764182Y156864D01*
X764250Y156986D01*
X764255Y157006D01*
X764264Y157024D01*
X764294Y157160D01*
X764329Y157294D01*
X764331Y157322D01*
X764334Y157334D01*
X764333Y157355D01*
X764339Y157455D01*
X764339Y198145D01*
X764322Y198283D01*
X764309Y198422D01*
X764302Y198441D01*
X764299Y198461D01*
X764248Y198590D01*
X764201Y198721D01*
X764190Y198738D01*
X764182Y198756D01*
X764101Y198869D01*
X764023Y198984D01*
X764007Y198997D01*
X763996Y199014D01*
X763888Y199103D01*
X763784Y199194D01*
X763766Y199204D01*
X763751Y199217D01*
X763625Y199276D01*
X763501Y199339D01*
X763481Y199344D01*
X763463Y199352D01*
X763327Y199378D01*
X763191Y199409D01*
X763170Y199408D01*
X763151Y199412D01*
X763012Y199403D01*
X762873Y199399D01*
X762853Y199393D01*
X762833Y199392D01*
X762701Y199349D01*
X762567Y199311D01*
X762550Y199300D01*
X762531Y199294D01*
X762413Y199220D01*
X762293Y199149D01*
X762272Y199130D01*
X762262Y199124D01*
X762248Y199109D01*
X762172Y199043D01*
X761831Y198701D01*
X759881Y197893D01*
X757769Y197893D01*
X755819Y198701D01*
X754326Y200194D01*
X753518Y202144D01*
X753518Y204256D01*
X754326Y206206D01*
X755819Y207699D01*
X757769Y208507D01*
X759881Y208507D01*
X761831Y207699D01*
X762172Y207357D01*
X762282Y207272D01*
X762389Y207183D01*
X762408Y207175D01*
X762424Y207162D01*
X762552Y207107D01*
X762677Y207048D01*
X762697Y207044D01*
X762716Y207036D01*
X762854Y207014D01*
X762990Y206988D01*
X763010Y206989D01*
X763030Y206986D01*
X763169Y206999D01*
X763307Y207008D01*
X763326Y207014D01*
X763346Y207016D01*
X763477Y207063D01*
X763609Y207106D01*
X763627Y207117D01*
X763646Y207124D01*
X763760Y207202D01*
X763878Y207276D01*
X763892Y207291D01*
X763909Y207302D01*
X764001Y207406D01*
X764096Y207508D01*
X764106Y207525D01*
X764119Y207541D01*
X764182Y207664D01*
X764250Y207786D01*
X764255Y207806D01*
X764264Y207824D01*
X764294Y207960D01*
X764329Y208094D01*
X764331Y208122D01*
X764334Y208134D01*
X764333Y208155D01*
X764339Y208255D01*
X764339Y248945D01*
X764322Y249083D01*
X764309Y249222D01*
X764302Y249241D01*
X764299Y249261D01*
X764248Y249390D01*
X764201Y249521D01*
X764190Y249538D01*
X764182Y249556D01*
X764101Y249669D01*
X764023Y249784D01*
X764007Y249797D01*
X763996Y249814D01*
X763888Y249903D01*
X763784Y249994D01*
X763766Y250004D01*
X763751Y250017D01*
X763625Y250076D01*
X763501Y250139D01*
X763481Y250144D01*
X763463Y250152D01*
X763327Y250178D01*
X763191Y250209D01*
X763170Y250208D01*
X763151Y250212D01*
X763012Y250203D01*
X762873Y250199D01*
X762853Y250193D01*
X762833Y250192D01*
X762701Y250149D01*
X762567Y250111D01*
X762550Y250100D01*
X762531Y250094D01*
X762413Y250020D01*
X762293Y249949D01*
X762272Y249930D01*
X762262Y249924D01*
X762248Y249909D01*
X762172Y249843D01*
X761831Y249501D01*
X759881Y248693D01*
X757769Y248693D01*
X755819Y249501D01*
X754326Y250994D01*
X753518Y252944D01*
X753518Y255056D01*
X754326Y257006D01*
X755819Y258499D01*
X757769Y259307D01*
X759881Y259307D01*
X761831Y258499D01*
X762172Y258157D01*
X762282Y258072D01*
X762389Y257983D01*
X762408Y257975D01*
X762424Y257962D01*
X762552Y257907D01*
X762677Y257848D01*
X762697Y257844D01*
X762716Y257836D01*
X762854Y257814D01*
X762990Y257788D01*
X763010Y257789D01*
X763030Y257786D01*
X763169Y257799D01*
X763307Y257808D01*
X763326Y257814D01*
X763346Y257816D01*
X763477Y257863D01*
X763609Y257906D01*
X763627Y257917D01*
X763646Y257924D01*
X763760Y258002D01*
X763878Y258076D01*
X763892Y258091D01*
X763909Y258102D01*
X764001Y258206D01*
X764096Y258308D01*
X764106Y258325D01*
X764119Y258341D01*
X764182Y258464D01*
X764250Y258586D01*
X764255Y258606D01*
X764264Y258624D01*
X764294Y258760D01*
X764329Y258894D01*
X764331Y258922D01*
X764334Y258934D01*
X764333Y258955D01*
X764339Y259055D01*
X764339Y299745D01*
X764322Y299883D01*
X764309Y300022D01*
X764302Y300041D01*
X764299Y300061D01*
X764248Y300190D01*
X764201Y300321D01*
X764190Y300338D01*
X764182Y300356D01*
X764101Y300469D01*
X764023Y300584D01*
X764007Y300597D01*
X763996Y300614D01*
X763888Y300703D01*
X763784Y300794D01*
X763766Y300804D01*
X763751Y300817D01*
X763625Y300876D01*
X763501Y300939D01*
X763481Y300944D01*
X763463Y300952D01*
X763327Y300978D01*
X763191Y301009D01*
X763170Y301008D01*
X763151Y301012D01*
X763012Y301003D01*
X762873Y300999D01*
X762853Y300993D01*
X762833Y300992D01*
X762701Y300949D01*
X762567Y300911D01*
X762550Y300900D01*
X762531Y300894D01*
X762413Y300820D01*
X762293Y300749D01*
X762272Y300730D01*
X762262Y300724D01*
X762248Y300709D01*
X762172Y300643D01*
X761831Y300301D01*
X759881Y299493D01*
X757769Y299493D01*
X755819Y300301D01*
X754326Y301794D01*
X753518Y303744D01*
X753518Y305856D01*
X754326Y307806D01*
X755819Y309299D01*
X757769Y310107D01*
X759881Y310107D01*
X761831Y309299D01*
X762172Y308957D01*
X762282Y308872D01*
X762389Y308783D01*
X762408Y308775D01*
X762424Y308762D01*
X762552Y308707D01*
X762677Y308648D01*
X762697Y308644D01*
X762716Y308636D01*
X762854Y308614D01*
X762990Y308588D01*
X763010Y308589D01*
X763030Y308586D01*
X763169Y308599D01*
X763307Y308608D01*
X763326Y308614D01*
X763346Y308616D01*
X763477Y308663D01*
X763609Y308706D01*
X763627Y308717D01*
X763646Y308724D01*
X763760Y308802D01*
X763878Y308876D01*
X763892Y308891D01*
X763909Y308902D01*
X764001Y309006D01*
X764096Y309108D01*
X764106Y309125D01*
X764119Y309141D01*
X764182Y309264D01*
X764250Y309386D01*
X764255Y309406D01*
X764264Y309424D01*
X764294Y309560D01*
X764329Y309694D01*
X764331Y309722D01*
X764334Y309734D01*
X764333Y309755D01*
X764339Y309855D01*
X764339Y320675D01*
X764324Y320793D01*
X764317Y320912D01*
X764304Y320950D01*
X764299Y320991D01*
X764256Y321101D01*
X764219Y321214D01*
X764197Y321249D01*
X764182Y321286D01*
X764113Y321382D01*
X764049Y321483D01*
X764019Y321511D01*
X763996Y321544D01*
X763904Y321620D01*
X763817Y321701D01*
X763782Y321721D01*
X763751Y321746D01*
X763643Y321797D01*
X763539Y321855D01*
X763499Y321865D01*
X763463Y321882D01*
X763346Y321904D01*
X763231Y321934D01*
X763171Y321938D01*
X763151Y321942D01*
X763130Y321940D01*
X763070Y321944D01*
X577850Y321944D01*
X577732Y321929D01*
X577613Y321922D01*
X577575Y321909D01*
X577534Y321904D01*
X577424Y321861D01*
X577311Y321824D01*
X577276Y321802D01*
X577239Y321787D01*
X577143Y321718D01*
X577042Y321654D01*
X577014Y321624D01*
X576981Y321601D01*
X576906Y321509D01*
X576824Y321422D01*
X576804Y321387D01*
X576779Y321356D01*
X576728Y321248D01*
X576670Y321144D01*
X576660Y321104D01*
X576643Y321068D01*
X576621Y320951D01*
X576591Y320836D01*
X576587Y320776D01*
X576583Y320756D01*
X576585Y320735D01*
X576581Y320675D01*
X576581Y242569D01*
X549275Y242569D01*
X549157Y242554D01*
X549038Y242547D01*
X549000Y242534D01*
X548959Y242529D01*
X548849Y242486D01*
X548736Y242449D01*
X548701Y242427D01*
X548664Y242412D01*
X548568Y242343D01*
X548467Y242279D01*
X548439Y242249D01*
X548406Y242226D01*
X548331Y242134D01*
X548249Y242047D01*
X548229Y242012D01*
X548204Y241981D01*
X548153Y241873D01*
X548095Y241769D01*
X548085Y241729D01*
X548068Y241693D01*
X548046Y241576D01*
X548016Y241461D01*
X548012Y241401D01*
X548008Y241381D01*
X548010Y241360D01*
X548006Y241300D01*
X548006Y203200D01*
X548021Y203082D01*
X548028Y202963D01*
X548041Y202925D01*
X548046Y202884D01*
X548089Y202774D01*
X548126Y202661D01*
X548148Y202626D01*
X548163Y202589D01*
X548233Y202493D01*
X548296Y202392D01*
X548326Y202364D01*
X548349Y202331D01*
X548441Y202256D01*
X548528Y202174D01*
X548563Y202154D01*
X548594Y202129D01*
X548702Y202078D01*
X548806Y202020D01*
X548846Y202010D01*
X548882Y201993D01*
X548999Y201971D01*
X549114Y201941D01*
X549175Y201937D01*
X549195Y201933D01*
X549215Y201935D01*
X549275Y201931D01*
X675006Y201931D01*
X675006Y8255D01*
X675021Y8137D01*
X675028Y8018D01*
X675041Y7980D01*
X675046Y7939D01*
X675089Y7829D01*
X675126Y7716D01*
X675148Y7681D01*
X675163Y7644D01*
X675233Y7548D01*
X675296Y7447D01*
X675326Y7419D01*
X675349Y7386D01*
X675441Y7310D01*
X675528Y7229D01*
X675563Y7209D01*
X675594Y7184D01*
X675702Y7133D01*
X675806Y7075D01*
X675846Y7065D01*
X675882Y7048D01*
X675999Y7026D01*
X676114Y6996D01*
X676175Y6992D01*
X676195Y6988D01*
X676215Y6990D01*
X676275Y6986D01*
X704624Y6986D01*
X704742Y7001D01*
G37*
G36*
X571618Y249571D02*
X571618Y249571D01*
X571737Y249578D01*
X571775Y249591D01*
X571816Y249596D01*
X571926Y249639D01*
X572039Y249676D01*
X572074Y249698D01*
X572111Y249713D01*
X572207Y249783D01*
X572308Y249846D01*
X572336Y249876D01*
X572369Y249899D01*
X572445Y249991D01*
X572526Y250078D01*
X572546Y250113D01*
X572571Y250144D01*
X572622Y250252D01*
X572680Y250356D01*
X572690Y250396D01*
X572707Y250432D01*
X572729Y250549D01*
X572759Y250664D01*
X572763Y250725D01*
X572767Y250745D01*
X572765Y250765D01*
X572769Y250825D01*
X572769Y349250D01*
X572754Y349368D01*
X572747Y349487D01*
X572734Y349525D01*
X572729Y349566D01*
X572686Y349676D01*
X572649Y349789D01*
X572627Y349824D01*
X572612Y349861D01*
X572543Y349957D01*
X572479Y350058D01*
X572449Y350086D01*
X572426Y350119D01*
X572334Y350195D01*
X572247Y350276D01*
X572212Y350296D01*
X572181Y350321D01*
X572073Y350372D01*
X571969Y350430D01*
X571929Y350440D01*
X571893Y350457D01*
X571776Y350479D01*
X571661Y350509D01*
X571601Y350513D01*
X571581Y350517D01*
X571560Y350515D01*
X571500Y350519D01*
X339725Y350519D01*
X339607Y350504D01*
X339488Y350497D01*
X339450Y350484D01*
X339409Y350479D01*
X339299Y350436D01*
X339186Y350399D01*
X339151Y350377D01*
X339114Y350362D01*
X339018Y350293D01*
X338917Y350229D01*
X338889Y350199D01*
X338856Y350176D01*
X338781Y350084D01*
X338699Y349997D01*
X338679Y349962D01*
X338654Y349931D01*
X338603Y349823D01*
X338545Y349719D01*
X338535Y349679D01*
X338518Y349643D01*
X338496Y349526D01*
X338466Y349411D01*
X338462Y349351D01*
X338458Y349331D01*
X338460Y349310D01*
X338456Y349250D01*
X338456Y250825D01*
X338471Y250707D01*
X338478Y250588D01*
X338491Y250550D01*
X338496Y250509D01*
X338539Y250399D01*
X338576Y250286D01*
X338598Y250251D01*
X338613Y250214D01*
X338683Y250118D01*
X338746Y250017D01*
X338776Y249989D01*
X338799Y249956D01*
X338891Y249881D01*
X338978Y249799D01*
X339013Y249779D01*
X339044Y249754D01*
X339152Y249703D01*
X339256Y249645D01*
X339296Y249635D01*
X339332Y249618D01*
X339449Y249596D01*
X339564Y249566D01*
X339625Y249562D01*
X339645Y249558D01*
X339665Y249560D01*
X339725Y249556D01*
X571500Y249556D01*
X571618Y249571D01*
G37*
%LPC*%
G36*
X297148Y173466D02*
X297148Y173466D01*
X297146Y173447D01*
X297168Y173345D01*
X297184Y173243D01*
X297194Y173226D01*
X297198Y173206D01*
X297251Y173117D01*
X297300Y173026D01*
X297314Y173012D01*
X297324Y172995D01*
X297403Y172928D01*
X297478Y172856D01*
X297496Y172848D01*
X297511Y172835D01*
X297607Y172796D01*
X297701Y172753D01*
X297721Y172751D01*
X297739Y172743D01*
X297906Y172725D01*
X301982Y172725D01*
X302875Y171832D01*
X302875Y165964D01*
X302859Y165902D01*
X302829Y165804D01*
X302829Y165784D01*
X302824Y165764D01*
X302832Y165661D01*
X302835Y165558D01*
X302842Y165539D01*
X302843Y165519D01*
X302875Y165446D01*
X302875Y159464D01*
X302859Y159402D01*
X302829Y159304D01*
X302829Y159284D01*
X302824Y159264D01*
X302832Y159161D01*
X302835Y159058D01*
X302842Y159039D01*
X302843Y159019D01*
X302875Y158946D01*
X302875Y153068D01*
X301982Y152175D01*
X286718Y152175D01*
X285961Y152932D01*
X285887Y152985D01*
X285818Y153045D01*
X285788Y153057D01*
X285762Y153076D01*
X285675Y153103D01*
X285590Y153137D01*
X285549Y153141D01*
X285527Y153148D01*
X285494Y153147D01*
X285423Y153155D01*
X282575Y153155D01*
X282555Y153152D01*
X282536Y153154D01*
X282434Y153132D01*
X282332Y153116D01*
X282315Y153106D01*
X282295Y153102D01*
X282206Y153049D01*
X282115Y153000D01*
X282101Y152986D01*
X282084Y152976D01*
X282017Y152897D01*
X281946Y152822D01*
X281937Y152804D01*
X281924Y152789D01*
X281885Y152693D01*
X281842Y152599D01*
X281840Y152579D01*
X281832Y152561D01*
X281814Y152394D01*
X281814Y151607D01*
X281829Y151517D01*
X281836Y151426D01*
X281848Y151397D01*
X281854Y151365D01*
X281896Y151284D01*
X281932Y151200D01*
X281958Y151168D01*
X281969Y151147D01*
X281992Y151125D01*
X282037Y151069D01*
X284707Y148399D01*
X284707Y147014D01*
X284710Y146994D01*
X284708Y146975D01*
X284730Y146873D01*
X284746Y146771D01*
X284756Y146754D01*
X284760Y146734D01*
X284813Y146645D01*
X284862Y146554D01*
X284876Y146540D01*
X284886Y146523D01*
X284965Y146456D01*
X285040Y146384D01*
X285058Y146376D01*
X285073Y146363D01*
X285169Y146324D01*
X285263Y146281D01*
X285283Y146279D01*
X285301Y146271D01*
X285468Y146253D01*
X285931Y146253D01*
X286021Y146267D01*
X286112Y146275D01*
X286142Y146287D01*
X286174Y146292D01*
X286255Y146335D01*
X286338Y146371D01*
X286371Y146397D01*
X286391Y146408D01*
X286413Y146431D01*
X286469Y146476D01*
X286718Y146725D01*
X301982Y146725D01*
X302875Y145832D01*
X302875Y139964D01*
X302859Y139902D01*
X302829Y139804D01*
X302829Y139784D01*
X302824Y139764D01*
X302832Y139661D01*
X302835Y139558D01*
X302842Y139539D01*
X302843Y139519D01*
X302875Y139446D01*
X302875Y133464D01*
X302859Y133402D01*
X302829Y133304D01*
X302829Y133284D01*
X302824Y133264D01*
X302832Y133161D01*
X302835Y133058D01*
X302842Y133039D01*
X302843Y133019D01*
X302875Y132946D01*
X302875Y126964D01*
X302859Y126902D01*
X302829Y126804D01*
X302829Y126784D01*
X302824Y126764D01*
X302832Y126661D01*
X302835Y126558D01*
X302842Y126539D01*
X302843Y126519D01*
X302875Y126446D01*
X302875Y120464D01*
X302859Y120402D01*
X302829Y120304D01*
X302829Y120284D01*
X302824Y120264D01*
X302832Y120161D01*
X302835Y120058D01*
X302842Y120039D01*
X302843Y120019D01*
X302875Y119946D01*
X302875Y113964D01*
X302859Y113902D01*
X302829Y113804D01*
X302829Y113784D01*
X302824Y113764D01*
X302832Y113661D01*
X302835Y113558D01*
X302842Y113539D01*
X302843Y113519D01*
X302875Y113446D01*
X302875Y107568D01*
X301982Y106675D01*
X294843Y106675D01*
X294753Y106661D01*
X294662Y106653D01*
X294632Y106641D01*
X294600Y106636D01*
X294519Y106593D01*
X294436Y106557D01*
X294403Y106531D01*
X294383Y106520D01*
X294361Y106497D01*
X294305Y106452D01*
X294156Y106304D01*
X294156Y106303D01*
X293116Y105264D01*
X292968Y105115D01*
X292915Y105041D01*
X292855Y104972D01*
X292843Y104942D01*
X292824Y104916D01*
X292797Y104829D01*
X292763Y104744D01*
X292759Y104703D01*
X292752Y104681D01*
X292753Y104648D01*
X292745Y104577D01*
X292745Y71294D01*
X292760Y71176D01*
X292767Y71057D01*
X292780Y71019D01*
X292785Y70978D01*
X292828Y70868D01*
X292865Y70755D01*
X292887Y70720D01*
X292902Y70683D01*
X292971Y70587D01*
X293035Y70486D01*
X293065Y70458D01*
X293088Y70425D01*
X293180Y70349D01*
X293267Y70268D01*
X293302Y70248D01*
X293333Y70223D01*
X293441Y70172D01*
X293545Y70114D01*
X293585Y70104D01*
X293621Y70087D01*
X293738Y70065D01*
X293853Y70035D01*
X293913Y70031D01*
X293933Y70027D01*
X293954Y70029D01*
X294014Y70025D01*
X296082Y70025D01*
X296975Y69132D01*
X296975Y57868D01*
X296082Y56975D01*
X294014Y56975D01*
X293896Y56960D01*
X293777Y56953D01*
X293739Y56940D01*
X293698Y56935D01*
X293588Y56892D01*
X293475Y56855D01*
X293440Y56833D01*
X293403Y56818D01*
X293307Y56749D01*
X293206Y56685D01*
X293178Y56655D01*
X293145Y56632D01*
X293069Y56540D01*
X292988Y56453D01*
X292968Y56418D01*
X292943Y56387D01*
X292892Y56279D01*
X292834Y56175D01*
X292824Y56135D01*
X292807Y56099D01*
X292785Y55982D01*
X292755Y55867D01*
X292751Y55807D01*
X292747Y55787D01*
X292749Y55766D01*
X292745Y55706D01*
X292745Y50744D01*
X292760Y50626D01*
X292767Y50507D01*
X292780Y50469D01*
X292785Y50428D01*
X292828Y50318D01*
X292865Y50205D01*
X292887Y50170D01*
X292902Y50133D01*
X292971Y50037D01*
X293035Y49936D01*
X293065Y49908D01*
X293088Y49875D01*
X293180Y49799D01*
X293267Y49718D01*
X293302Y49698D01*
X293333Y49673D01*
X293441Y49622D01*
X293545Y49564D01*
X293585Y49554D01*
X293621Y49537D01*
X293738Y49515D01*
X293853Y49485D01*
X293913Y49481D01*
X293933Y49477D01*
X293954Y49479D01*
X294014Y49475D01*
X299282Y49475D01*
X300175Y48582D01*
X300175Y40318D01*
X299282Y39425D01*
X286018Y39425D01*
X285125Y40318D01*
X285125Y48582D01*
X286035Y49492D01*
X286123Y49497D01*
X286161Y49510D01*
X286202Y49515D01*
X286312Y49558D01*
X286425Y49595D01*
X286460Y49617D01*
X286497Y49632D01*
X286593Y49701D01*
X286694Y49765D01*
X286722Y49795D01*
X286755Y49818D01*
X286831Y49910D01*
X286912Y49997D01*
X286932Y50032D01*
X286957Y50063D01*
X287008Y50171D01*
X287066Y50275D01*
X287076Y50315D01*
X287093Y50351D01*
X287115Y50468D01*
X287145Y50583D01*
X287149Y50643D01*
X287153Y50663D01*
X287151Y50684D01*
X287155Y50744D01*
X287155Y55706D01*
X287140Y55824D01*
X287133Y55943D01*
X287120Y55981D01*
X287115Y56022D01*
X287072Y56132D01*
X287035Y56245D01*
X287013Y56280D01*
X286998Y56317D01*
X286929Y56413D01*
X286865Y56514D01*
X286835Y56542D01*
X286812Y56575D01*
X286720Y56651D01*
X286633Y56732D01*
X286598Y56752D01*
X286567Y56777D01*
X286459Y56828D01*
X286355Y56886D01*
X286315Y56896D01*
X286279Y56913D01*
X286162Y56935D01*
X286047Y56965D01*
X285987Y56969D01*
X285967Y56973D01*
X285946Y56971D01*
X285886Y56975D01*
X283818Y56975D01*
X282925Y57868D01*
X282925Y69132D01*
X283818Y70025D01*
X285886Y70025D01*
X286004Y70040D01*
X286123Y70047D01*
X286161Y70060D01*
X286202Y70065D01*
X286312Y70108D01*
X286425Y70145D01*
X286460Y70167D01*
X286497Y70182D01*
X286593Y70251D01*
X286694Y70315D01*
X286722Y70345D01*
X286755Y70368D01*
X286831Y70460D01*
X286912Y70547D01*
X286932Y70582D01*
X286957Y70613D01*
X287008Y70721D01*
X287066Y70825D01*
X287076Y70865D01*
X287093Y70901D01*
X287115Y71018D01*
X287145Y71133D01*
X287149Y71193D01*
X287153Y71213D01*
X287151Y71234D01*
X287155Y71294D01*
X287155Y105713D01*
X287143Y105811D01*
X287140Y105910D01*
X287123Y105968D01*
X287115Y106028D01*
X287079Y106120D01*
X287051Y106215D01*
X287021Y106268D01*
X286998Y106324D01*
X286940Y106404D01*
X286890Y106489D01*
X286824Y106565D01*
X286812Y106581D01*
X286802Y106589D01*
X286784Y106610D01*
X285825Y107568D01*
X285825Y110534D01*
X285808Y110671D01*
X285795Y110810D01*
X285788Y110829D01*
X285785Y110849D01*
X285734Y110978D01*
X285687Y111109D01*
X285676Y111126D01*
X285668Y111145D01*
X285587Y111257D01*
X285509Y111372D01*
X285493Y111386D01*
X285482Y111402D01*
X285374Y111491D01*
X285270Y111583D01*
X285252Y111592D01*
X285237Y111605D01*
X285111Y111664D01*
X284987Y111728D01*
X284967Y111732D01*
X284949Y111741D01*
X284813Y111767D01*
X284677Y111797D01*
X284656Y111797D01*
X284636Y111800D01*
X284498Y111792D01*
X284359Y111788D01*
X284339Y111782D01*
X284319Y111781D01*
X284187Y111738D01*
X284053Y111699D01*
X284036Y111689D01*
X284017Y111683D01*
X283899Y111608D01*
X283779Y111538D01*
X283758Y111519D01*
X283748Y111512D01*
X283734Y111497D01*
X283658Y111431D01*
X275233Y103005D01*
X268144Y103005D01*
X268026Y102990D01*
X267907Y102983D01*
X267869Y102970D01*
X267828Y102965D01*
X267718Y102922D01*
X267605Y102885D01*
X267570Y102863D01*
X267533Y102848D01*
X267437Y102779D01*
X267336Y102715D01*
X267308Y102685D01*
X267275Y102662D01*
X267199Y102570D01*
X267118Y102483D01*
X267098Y102448D01*
X267073Y102417D01*
X267022Y102309D01*
X266964Y102205D01*
X266954Y102165D01*
X266937Y102129D01*
X266915Y102012D01*
X266885Y101897D01*
X266881Y101837D01*
X266877Y101817D01*
X266879Y101796D01*
X266875Y101736D01*
X266875Y99668D01*
X265982Y98775D01*
X254718Y98775D01*
X253825Y99668D01*
X253825Y100759D01*
X253808Y100897D01*
X253795Y101035D01*
X253788Y101054D01*
X253785Y101074D01*
X253734Y101203D01*
X253687Y101334D01*
X253676Y101351D01*
X253668Y101370D01*
X253587Y101482D01*
X253509Y101597D01*
X253493Y101611D01*
X253482Y101627D01*
X253374Y101716D01*
X253270Y101808D01*
X253252Y101817D01*
X253237Y101830D01*
X253111Y101889D01*
X252987Y101953D01*
X252967Y101957D01*
X252949Y101966D01*
X252812Y101992D01*
X252677Y102022D01*
X252656Y102022D01*
X252637Y102025D01*
X252498Y102017D01*
X252359Y102013D01*
X252339Y102007D01*
X252319Y102006D01*
X252187Y101963D01*
X252053Y101924D01*
X252036Y101914D01*
X252017Y101908D01*
X251899Y101833D01*
X251779Y101763D01*
X251758Y101744D01*
X251748Y101737D01*
X251734Y101722D01*
X251659Y101656D01*
X250817Y100814D01*
X250816Y100814D01*
X248808Y98805D01*
X244744Y98805D01*
X244626Y98790D01*
X244507Y98783D01*
X244469Y98770D01*
X244428Y98765D01*
X244318Y98722D01*
X244205Y98685D01*
X244170Y98663D01*
X244133Y98648D01*
X244037Y98579D01*
X243936Y98515D01*
X243908Y98485D01*
X243875Y98462D01*
X243799Y98370D01*
X243718Y98283D01*
X243698Y98248D01*
X243673Y98217D01*
X243622Y98109D01*
X243564Y98005D01*
X243554Y97965D01*
X243537Y97929D01*
X243515Y97812D01*
X243485Y97697D01*
X243481Y97637D01*
X243477Y97617D01*
X243479Y97596D01*
X243475Y97536D01*
X243475Y94018D01*
X242582Y93125D01*
X227318Y93125D01*
X226425Y94018D01*
X226425Y109282D01*
X227318Y110175D01*
X242582Y110175D01*
X243475Y109282D01*
X243475Y105664D01*
X243490Y105546D01*
X243497Y105427D01*
X243510Y105389D01*
X243515Y105348D01*
X243558Y105238D01*
X243595Y105125D01*
X243617Y105090D01*
X243632Y105053D01*
X243701Y104957D01*
X243765Y104856D01*
X243795Y104828D01*
X243818Y104795D01*
X243910Y104719D01*
X243997Y104638D01*
X244032Y104618D01*
X244063Y104593D01*
X244171Y104542D01*
X244275Y104484D01*
X244315Y104474D01*
X244351Y104457D01*
X244468Y104435D01*
X244583Y104405D01*
X244643Y104401D01*
X244663Y104397D01*
X244684Y104399D01*
X244744Y104395D01*
X245967Y104395D01*
X246065Y104407D01*
X246164Y104410D01*
X246222Y104427D01*
X246282Y104435D01*
X246374Y104471D01*
X246469Y104499D01*
X246522Y104529D01*
X246578Y104552D01*
X246658Y104610D01*
X246743Y104660D01*
X246819Y104726D01*
X246835Y104738D01*
X246843Y104748D01*
X246864Y104766D01*
X250692Y108595D01*
X252556Y108595D01*
X252674Y108610D01*
X252793Y108617D01*
X252831Y108630D01*
X252872Y108635D01*
X252982Y108678D01*
X253095Y108715D01*
X253130Y108737D01*
X253167Y108752D01*
X253263Y108821D01*
X253364Y108885D01*
X253392Y108915D01*
X253425Y108938D01*
X253501Y109030D01*
X253582Y109117D01*
X253602Y109152D01*
X253627Y109183D01*
X253678Y109291D01*
X253736Y109395D01*
X253746Y109435D01*
X253763Y109471D01*
X253785Y109588D01*
X253815Y109703D01*
X253819Y109763D01*
X253823Y109783D01*
X253821Y109804D01*
X253825Y109864D01*
X253825Y111932D01*
X254718Y112825D01*
X266248Y112825D01*
X266366Y112840D01*
X266485Y112847D01*
X266523Y112860D01*
X266564Y112865D01*
X266674Y112908D01*
X266788Y112945D01*
X266822Y112967D01*
X266859Y112982D01*
X266956Y113051D01*
X267056Y113115D01*
X267084Y113145D01*
X267117Y113168D01*
X267193Y113260D01*
X267274Y113347D01*
X267294Y113382D01*
X267320Y113413D01*
X267370Y113521D01*
X267428Y113625D01*
X267438Y113665D01*
X267455Y113701D01*
X267477Y113818D01*
X267507Y113933D01*
X267511Y113993D01*
X267515Y114013D01*
X267514Y114034D01*
X267517Y114094D01*
X267517Y114506D01*
X267502Y114624D01*
X267495Y114743D01*
X267483Y114781D01*
X267478Y114822D01*
X267434Y114932D01*
X267397Y115045D01*
X267375Y115080D01*
X267361Y115117D01*
X267291Y115213D01*
X267227Y115314D01*
X267197Y115342D01*
X267174Y115375D01*
X267082Y115451D01*
X266995Y115532D01*
X266960Y115552D01*
X266929Y115577D01*
X266821Y115628D01*
X266717Y115686D01*
X266678Y115696D01*
X266641Y115713D01*
X266524Y115735D01*
X266409Y115765D01*
X266349Y115769D01*
X266329Y115773D01*
X266308Y115771D01*
X266248Y115775D01*
X254718Y115775D01*
X253825Y116668D01*
X253825Y128932D01*
X254171Y129278D01*
X254244Y129372D01*
X254323Y129461D01*
X254341Y129497D01*
X254366Y129529D01*
X254414Y129638D01*
X254468Y129744D01*
X254476Y129783D01*
X254492Y129821D01*
X254511Y129938D01*
X254537Y130054D01*
X254536Y130095D01*
X254542Y130135D01*
X254531Y130253D01*
X254528Y130372D01*
X254516Y130411D01*
X254513Y130451D01*
X254472Y130563D01*
X254439Y130678D01*
X254419Y130713D01*
X254405Y130751D01*
X254338Y130849D01*
X254278Y130952D01*
X254238Y130997D01*
X254226Y131014D01*
X254211Y131027D01*
X254171Y131073D01*
X253825Y131418D01*
X253825Y135586D01*
X253810Y135704D01*
X253803Y135823D01*
X253790Y135861D01*
X253785Y135902D01*
X253742Y136012D01*
X253705Y136125D01*
X253683Y136160D01*
X253668Y136197D01*
X253599Y136293D01*
X253535Y136394D01*
X253505Y136422D01*
X253482Y136455D01*
X253390Y136531D01*
X253303Y136612D01*
X253268Y136632D01*
X253237Y136657D01*
X253129Y136708D01*
X253025Y136766D01*
X252985Y136776D01*
X252949Y136793D01*
X252832Y136815D01*
X252717Y136845D01*
X252657Y136849D01*
X252637Y136853D01*
X252616Y136851D01*
X252556Y136855D01*
X244744Y136855D01*
X244626Y136840D01*
X244507Y136833D01*
X244469Y136820D01*
X244428Y136815D01*
X244318Y136772D01*
X244205Y136735D01*
X244170Y136713D01*
X244133Y136698D01*
X244037Y136629D01*
X243936Y136565D01*
X243908Y136535D01*
X243875Y136512D01*
X243799Y136420D01*
X243718Y136333D01*
X243698Y136298D01*
X243673Y136267D01*
X243622Y136159D01*
X243564Y136055D01*
X243554Y136015D01*
X243537Y135979D01*
X243515Y135862D01*
X243485Y135747D01*
X243481Y135687D01*
X243477Y135667D01*
X243479Y135646D01*
X243475Y135586D01*
X243475Y132018D01*
X242582Y131125D01*
X227318Y131125D01*
X226425Y132018D01*
X226425Y136144D01*
X226410Y136262D01*
X226403Y136381D01*
X226390Y136419D01*
X226385Y136460D01*
X226342Y136570D01*
X226305Y136683D01*
X226283Y136718D01*
X226268Y136755D01*
X226199Y136851D01*
X226135Y136952D01*
X226105Y136980D01*
X226082Y137013D01*
X225990Y137089D01*
X225903Y137170D01*
X225868Y137190D01*
X225837Y137215D01*
X225729Y137266D01*
X225625Y137324D01*
X225585Y137334D01*
X225549Y137351D01*
X225432Y137373D01*
X225317Y137403D01*
X225257Y137407D01*
X225237Y137411D01*
X225216Y137409D01*
X225156Y137413D01*
X221925Y137413D01*
X221896Y137410D01*
X221866Y137412D01*
X221738Y137390D01*
X221610Y137373D01*
X221582Y137363D01*
X221553Y137358D01*
X221435Y137304D01*
X221314Y137256D01*
X221290Y137239D01*
X221263Y137227D01*
X221162Y137146D01*
X221057Y137070D01*
X221038Y137047D01*
X221015Y137028D01*
X220937Y136925D01*
X220854Y136825D01*
X220841Y136798D01*
X220823Y136774D01*
X220753Y136630D01*
X219320Y133172D01*
X216078Y129930D01*
X211842Y128175D01*
X207258Y128175D01*
X203022Y129930D01*
X199780Y133172D01*
X198025Y137408D01*
X198025Y141992D01*
X199780Y146228D01*
X203022Y149470D01*
X207258Y151225D01*
X211842Y151225D01*
X216078Y149470D01*
X219320Y146228D01*
X220753Y142770D01*
X220767Y142745D01*
X220776Y142717D01*
X220846Y142607D01*
X220910Y142494D01*
X220931Y142473D01*
X220946Y142448D01*
X221041Y142359D01*
X221131Y142266D01*
X221157Y142250D01*
X221178Y142230D01*
X221292Y142167D01*
X221402Y142099D01*
X221431Y142091D01*
X221457Y142076D01*
X221582Y142044D01*
X221706Y142006D01*
X221736Y142004D01*
X221764Y141997D01*
X221925Y141987D01*
X225156Y141987D01*
X225274Y142002D01*
X225393Y142009D01*
X225431Y142022D01*
X225472Y142027D01*
X225582Y142070D01*
X225695Y142107D01*
X225730Y142129D01*
X225767Y142144D01*
X225863Y142213D01*
X225964Y142277D01*
X225992Y142307D01*
X226025Y142330D01*
X226101Y142422D01*
X226182Y142509D01*
X226202Y142544D01*
X226227Y142575D01*
X226278Y142683D01*
X226336Y142787D01*
X226346Y142827D01*
X226363Y142863D01*
X226385Y142980D01*
X226415Y143095D01*
X226419Y143155D01*
X226423Y143175D01*
X226421Y143196D01*
X226425Y143256D01*
X226425Y147282D01*
X227318Y148175D01*
X242582Y148175D01*
X243475Y147282D01*
X243475Y143714D01*
X243490Y143596D01*
X243497Y143477D01*
X243510Y143439D01*
X243515Y143398D01*
X243558Y143288D01*
X243595Y143175D01*
X243617Y143140D01*
X243632Y143103D01*
X243701Y143007D01*
X243765Y142906D01*
X243795Y142878D01*
X243818Y142845D01*
X243910Y142769D01*
X243997Y142688D01*
X244032Y142668D01*
X244063Y142643D01*
X244171Y142592D01*
X244275Y142534D01*
X244315Y142524D01*
X244351Y142507D01*
X244468Y142485D01*
X244583Y142455D01*
X244643Y142451D01*
X244663Y142447D01*
X244684Y142449D01*
X244744Y142445D01*
X252556Y142445D01*
X252674Y142460D01*
X252793Y142467D01*
X252831Y142480D01*
X252872Y142485D01*
X252982Y142528D01*
X253095Y142565D01*
X253130Y142587D01*
X253167Y142602D01*
X253263Y142671D01*
X253364Y142735D01*
X253392Y142765D01*
X253425Y142788D01*
X253501Y142880D01*
X253582Y142967D01*
X253602Y143002D01*
X253627Y143033D01*
X253678Y143141D01*
X253736Y143245D01*
X253746Y143285D01*
X253763Y143321D01*
X253785Y143438D01*
X253815Y143553D01*
X253819Y143613D01*
X253823Y143633D01*
X253821Y143654D01*
X253823Y143679D01*
X254718Y144575D01*
X265982Y144575D01*
X266999Y143558D01*
X267013Y143518D01*
X267024Y143501D01*
X267032Y143483D01*
X267113Y143370D01*
X267191Y143255D01*
X267207Y143242D01*
X267218Y143225D01*
X267326Y143136D01*
X267430Y143045D01*
X267448Y143035D01*
X267463Y143022D01*
X267589Y142963D01*
X267713Y142900D01*
X267733Y142896D01*
X267751Y142887D01*
X267888Y142861D01*
X268023Y142830D01*
X268044Y142831D01*
X268063Y142827D01*
X268202Y142836D01*
X268341Y142840D01*
X268361Y142846D01*
X268381Y142847D01*
X268513Y142890D01*
X268647Y142928D01*
X268664Y142939D01*
X268683Y142945D01*
X268801Y143019D01*
X268921Y143090D01*
X268942Y143109D01*
X268952Y143115D01*
X268966Y143130D01*
X269041Y143196D01*
X269873Y144028D01*
X271823Y144836D01*
X272824Y144836D01*
X272942Y144851D01*
X273061Y144858D01*
X273099Y144870D01*
X273140Y144875D01*
X273250Y144919D01*
X273363Y144956D01*
X273398Y144978D01*
X273435Y144992D01*
X273531Y145062D01*
X273632Y145126D01*
X273660Y145156D01*
X273693Y145179D01*
X273769Y145271D01*
X273850Y145358D01*
X273870Y145393D01*
X273895Y145424D01*
X273946Y145532D01*
X274004Y145636D01*
X274014Y145675D01*
X274031Y145712D01*
X274053Y145829D01*
X274083Y145944D01*
X274087Y146004D01*
X274091Y146024D01*
X274089Y146045D01*
X274093Y146105D01*
X274093Y147257D01*
X274901Y149207D01*
X276394Y150700D01*
X278344Y151508D01*
X279626Y151508D01*
X279763Y151525D01*
X279902Y151538D01*
X279921Y151545D01*
X279941Y151548D01*
X280070Y151599D01*
X280201Y151646D01*
X280218Y151657D01*
X280237Y151665D01*
X280349Y151746D01*
X280464Y151824D01*
X280478Y151840D01*
X280494Y151851D01*
X280583Y151959D01*
X280675Y152063D01*
X280684Y152081D01*
X280697Y152096D01*
X280756Y152222D01*
X280820Y152346D01*
X280824Y152366D01*
X280833Y152384D01*
X280859Y152520D01*
X280889Y152656D01*
X280889Y152677D01*
X280892Y152696D01*
X280884Y152835D01*
X280880Y152974D01*
X280874Y152994D01*
X280873Y153014D01*
X280830Y153146D01*
X280791Y153280D01*
X280781Y153297D01*
X280775Y153316D01*
X280700Y153434D01*
X280630Y153554D01*
X280611Y153575D01*
X280604Y153585D01*
X280590Y153599D01*
X280523Y153674D01*
X269041Y165156D01*
X268932Y165241D01*
X268825Y165330D01*
X268806Y165339D01*
X268790Y165351D01*
X268662Y165407D01*
X268537Y165466D01*
X268517Y165469D01*
X268498Y165477D01*
X268360Y165499D01*
X268224Y165525D01*
X268204Y165524D01*
X268184Y165527D01*
X268045Y165514D01*
X267907Y165506D01*
X267888Y165499D01*
X267868Y165498D01*
X267736Y165450D01*
X267605Y165408D01*
X267587Y165397D01*
X267568Y165390D01*
X267453Y165312D01*
X267336Y165237D01*
X267322Y165223D01*
X267305Y165211D01*
X267213Y165107D01*
X267118Y165006D01*
X267108Y164988D01*
X267095Y164973D01*
X267031Y164849D01*
X266964Y164727D01*
X266959Y164708D01*
X266950Y164690D01*
X266920Y164554D01*
X266885Y164419D01*
X266883Y164391D01*
X266880Y164379D01*
X266881Y164359D01*
X266875Y164259D01*
X266875Y163168D01*
X266170Y162463D01*
X266097Y162369D01*
X266018Y162280D01*
X265999Y162244D01*
X265975Y162212D01*
X265927Y162103D01*
X265873Y161997D01*
X265864Y161957D01*
X265848Y161920D01*
X265830Y161802D01*
X265804Y161686D01*
X265805Y161646D01*
X265798Y161606D01*
X265810Y161487D01*
X265813Y161369D01*
X265824Y161330D01*
X265828Y161289D01*
X265869Y161177D01*
X265902Y161063D01*
X265922Y161028D01*
X265936Y160990D01*
X266003Y160892D01*
X266063Y160789D01*
X266103Y160744D01*
X266114Y160727D01*
X266130Y160714D01*
X266170Y160668D01*
X266212Y160626D01*
X266367Y160252D01*
X266367Y157049D01*
X261580Y157049D01*
X261462Y157034D01*
X261343Y157027D01*
X261305Y157014D01*
X261265Y157009D01*
X261154Y156966D01*
X261041Y156929D01*
X261007Y156907D01*
X260969Y156892D01*
X260873Y156823D01*
X260772Y156759D01*
X260744Y156729D01*
X260712Y156706D01*
X260636Y156614D01*
X260554Y156527D01*
X260535Y156492D01*
X260509Y156461D01*
X260458Y156353D01*
X260401Y156249D01*
X260391Y156209D01*
X260373Y156173D01*
X260353Y156066D01*
X260349Y156096D01*
X260305Y156206D01*
X260269Y156319D01*
X260247Y156354D01*
X260232Y156391D01*
X260162Y156487D01*
X260099Y156588D01*
X260069Y156616D01*
X260045Y156649D01*
X259954Y156725D01*
X259867Y156806D01*
X259832Y156826D01*
X259800Y156851D01*
X259693Y156902D01*
X259588Y156960D01*
X259549Y156970D01*
X259513Y156987D01*
X259396Y157009D01*
X259280Y157039D01*
X259220Y157043D01*
X259200Y157047D01*
X259180Y157045D01*
X259120Y157049D01*
X254333Y157049D01*
X254333Y160252D01*
X254488Y160626D01*
X254530Y160668D01*
X254603Y160762D01*
X254682Y160852D01*
X254701Y160888D01*
X254725Y160920D01*
X254773Y161029D01*
X254827Y161135D01*
X254836Y161174D01*
X254852Y161211D01*
X254870Y161329D01*
X254896Y161445D01*
X254895Y161486D01*
X254902Y161526D01*
X254890Y161644D01*
X254887Y161763D01*
X254876Y161802D01*
X254872Y161842D01*
X254831Y161954D01*
X254798Y162069D01*
X254778Y162103D01*
X254764Y162141D01*
X254697Y162240D01*
X254637Y162342D01*
X254597Y162388D01*
X254586Y162405D01*
X254570Y162418D01*
X254530Y162463D01*
X253825Y163168D01*
X253825Y165236D01*
X253810Y165354D01*
X253803Y165473D01*
X253790Y165511D01*
X253785Y165552D01*
X253742Y165662D01*
X253705Y165775D01*
X253683Y165810D01*
X253668Y165847D01*
X253599Y165943D01*
X253535Y166044D01*
X253505Y166072D01*
X253482Y166105D01*
X253390Y166181D01*
X253303Y166262D01*
X253268Y166282D01*
X253237Y166307D01*
X253129Y166358D01*
X253025Y166416D01*
X252985Y166426D01*
X252949Y166443D01*
X252832Y166465D01*
X252717Y166495D01*
X252657Y166499D01*
X252637Y166503D01*
X252616Y166501D01*
X252556Y166505D01*
X251244Y166505D01*
X251126Y166490D01*
X251007Y166483D01*
X250969Y166470D01*
X250928Y166465D01*
X250818Y166422D01*
X250705Y166385D01*
X250670Y166363D01*
X250633Y166348D01*
X250537Y166279D01*
X250436Y166215D01*
X250408Y166185D01*
X250375Y166162D01*
X250299Y166070D01*
X250218Y165983D01*
X250198Y165948D01*
X250173Y165917D01*
X250122Y165809D01*
X250064Y165705D01*
X250054Y165665D01*
X250037Y165629D01*
X250015Y165512D01*
X249985Y165397D01*
X249981Y165337D01*
X249978Y165322D01*
X249082Y164425D01*
X237818Y164425D01*
X236925Y165318D01*
X236925Y177582D01*
X237818Y178475D01*
X249082Y178475D01*
X249975Y177582D01*
X249975Y173364D01*
X249990Y173246D01*
X249997Y173127D01*
X250010Y173089D01*
X250015Y173048D01*
X250058Y172938D01*
X250095Y172825D01*
X250117Y172790D01*
X250132Y172753D01*
X250201Y172657D01*
X250265Y172556D01*
X250295Y172528D01*
X250318Y172495D01*
X250410Y172419D01*
X250497Y172338D01*
X250532Y172318D01*
X250563Y172293D01*
X250671Y172242D01*
X250775Y172184D01*
X250815Y172174D01*
X250851Y172157D01*
X250968Y172135D01*
X251083Y172105D01*
X251143Y172101D01*
X251163Y172097D01*
X251184Y172099D01*
X251244Y172095D01*
X252556Y172095D01*
X252674Y172110D01*
X252793Y172117D01*
X252831Y172130D01*
X252872Y172135D01*
X252982Y172178D01*
X253095Y172215D01*
X253130Y172237D01*
X253167Y172252D01*
X253263Y172321D01*
X253364Y172385D01*
X253392Y172415D01*
X253425Y172438D01*
X253501Y172530D01*
X253582Y172617D01*
X253602Y172652D01*
X253627Y172683D01*
X253678Y172791D01*
X253736Y172895D01*
X253746Y172935D01*
X253763Y172971D01*
X253785Y173088D01*
X253815Y173203D01*
X253819Y173263D01*
X253823Y173283D01*
X253821Y173304D01*
X253825Y173364D01*
X253825Y175432D01*
X254718Y176325D01*
X263309Y176325D01*
X263447Y176342D01*
X263585Y176355D01*
X263604Y176362D01*
X263624Y176365D01*
X263754Y176416D01*
X263884Y176463D01*
X263901Y176474D01*
X263920Y176482D01*
X264032Y176563D01*
X264148Y176641D01*
X264161Y176657D01*
X264177Y176668D01*
X264266Y176775D01*
X264358Y176880D01*
X264367Y176898D01*
X264380Y176913D01*
X264439Y177039D01*
X264503Y177163D01*
X264507Y177183D01*
X264516Y177201D01*
X264542Y177337D01*
X264572Y177473D01*
X264572Y177494D01*
X264575Y177513D01*
X264567Y177652D01*
X264563Y177791D01*
X264557Y177811D01*
X264556Y177831D01*
X264513Y177963D01*
X264474Y178097D01*
X264464Y178114D01*
X264458Y178133D01*
X264383Y178251D01*
X264313Y178371D01*
X264294Y178392D01*
X264287Y178402D01*
X264273Y178416D01*
X264206Y178492D01*
X263794Y178904D01*
X263716Y178964D01*
X263644Y179032D01*
X263591Y179061D01*
X263543Y179098D01*
X263452Y179138D01*
X263365Y179186D01*
X263307Y179201D01*
X263251Y179225D01*
X263153Y179240D01*
X263057Y179265D01*
X262957Y179271D01*
X262937Y179275D01*
X262925Y179273D01*
X262897Y179275D01*
X254718Y179275D01*
X253825Y180168D01*
X253825Y182236D01*
X253810Y182354D01*
X253803Y182473D01*
X253790Y182511D01*
X253785Y182552D01*
X253742Y182662D01*
X253705Y182775D01*
X253683Y182810D01*
X253668Y182847D01*
X253599Y182943D01*
X253535Y183044D01*
X253505Y183072D01*
X253482Y183105D01*
X253390Y183181D01*
X253303Y183262D01*
X253268Y183282D01*
X253237Y183307D01*
X253129Y183358D01*
X253025Y183416D01*
X252985Y183426D01*
X252949Y183443D01*
X252832Y183465D01*
X252717Y183495D01*
X252657Y183499D01*
X252637Y183503D01*
X252616Y183501D01*
X252556Y183505D01*
X249637Y183505D01*
X249539Y183493D01*
X249440Y183490D01*
X249390Y183475D01*
X237818Y183475D01*
X236925Y184368D01*
X236925Y196632D01*
X237818Y197525D01*
X249082Y197525D01*
X249975Y196632D01*
X249975Y190364D01*
X249990Y190246D01*
X249997Y190127D01*
X250010Y190089D01*
X250015Y190048D01*
X250058Y189938D01*
X250095Y189825D01*
X250117Y189790D01*
X250132Y189753D01*
X250201Y189657D01*
X250265Y189556D01*
X250295Y189528D01*
X250318Y189495D01*
X250410Y189419D01*
X250497Y189338D01*
X250532Y189318D01*
X250563Y189293D01*
X250671Y189242D01*
X250775Y189184D01*
X250815Y189174D01*
X250851Y189157D01*
X250968Y189135D01*
X251083Y189105D01*
X251143Y189101D01*
X251163Y189097D01*
X251184Y189099D01*
X251244Y189095D01*
X252556Y189095D01*
X252674Y189110D01*
X252793Y189117D01*
X252831Y189130D01*
X252872Y189135D01*
X252982Y189178D01*
X253095Y189215D01*
X253130Y189237D01*
X253167Y189252D01*
X253263Y189321D01*
X253364Y189385D01*
X253392Y189415D01*
X253425Y189438D01*
X253501Y189530D01*
X253582Y189617D01*
X253602Y189652D01*
X253627Y189683D01*
X253678Y189791D01*
X253736Y189895D01*
X253746Y189935D01*
X253763Y189971D01*
X253785Y190088D01*
X253815Y190203D01*
X253819Y190263D01*
X253823Y190283D01*
X253821Y190304D01*
X253825Y190364D01*
X253825Y192432D01*
X254718Y193325D01*
X265982Y193325D01*
X266875Y192432D01*
X266875Y184253D01*
X266887Y184155D01*
X266890Y184056D01*
X266907Y183998D01*
X266915Y183938D01*
X266951Y183846D01*
X266979Y183751D01*
X267009Y183698D01*
X267032Y183642D01*
X267090Y183562D01*
X267140Y183477D01*
X267206Y183401D01*
X267218Y183385D01*
X267228Y183377D01*
X267246Y183356D01*
X283658Y166944D01*
X283768Y166859D01*
X283875Y166770D01*
X283894Y166761D01*
X283910Y166749D01*
X284038Y166693D01*
X284163Y166634D01*
X284183Y166631D01*
X284202Y166623D01*
X284340Y166601D01*
X284475Y166575D01*
X284496Y166576D01*
X284516Y166573D01*
X284655Y166586D01*
X284793Y166594D01*
X284812Y166601D01*
X284832Y166603D01*
X284964Y166650D01*
X285095Y166692D01*
X285113Y166703D01*
X285132Y166710D01*
X285247Y166788D01*
X285364Y166863D01*
X285378Y166877D01*
X285395Y166889D01*
X285487Y166993D01*
X285582Y167094D01*
X285592Y167112D01*
X285605Y167127D01*
X285668Y167251D01*
X285736Y167373D01*
X285741Y167392D01*
X285750Y167410D01*
X285780Y167546D01*
X285815Y167681D01*
X285817Y167709D01*
X285819Y167721D01*
X285819Y167741D01*
X285825Y167841D01*
X285825Y171832D01*
X286718Y172725D01*
X290286Y172725D01*
X290404Y172740D01*
X290523Y172747D01*
X290561Y172760D01*
X290602Y172765D01*
X290712Y172808D01*
X290825Y172845D01*
X290860Y172867D01*
X290897Y172882D01*
X290993Y172951D01*
X291094Y173015D01*
X291122Y173045D01*
X291155Y173068D01*
X291230Y173160D01*
X291312Y173247D01*
X291332Y173282D01*
X291357Y173313D01*
X291408Y173421D01*
X291466Y173525D01*
X291476Y173565D01*
X291493Y173601D01*
X291515Y173718D01*
X291545Y173833D01*
X291549Y173893D01*
X291553Y173913D01*
X291551Y173934D01*
X291555Y173994D01*
X291555Y192756D01*
X291540Y192874D01*
X291533Y192993D01*
X291520Y193031D01*
X291515Y193072D01*
X291472Y193182D01*
X291435Y193295D01*
X291413Y193330D01*
X291398Y193367D01*
X291328Y193463D01*
X291265Y193564D01*
X291235Y193592D01*
X291212Y193625D01*
X291120Y193701D01*
X291033Y193782D01*
X290998Y193802D01*
X290967Y193827D01*
X290859Y193878D01*
X290755Y193936D01*
X290715Y193946D01*
X290679Y193963D01*
X290562Y193985D01*
X290447Y194015D01*
X290386Y194019D01*
X290366Y194023D01*
X290346Y194021D01*
X290286Y194025D01*
X286468Y194025D01*
X285575Y194918D01*
X285575Y207182D01*
X286468Y208075D01*
X297732Y208075D01*
X298625Y207182D01*
X298625Y205114D01*
X298640Y204996D01*
X298647Y204877D01*
X298660Y204839D01*
X298665Y204798D01*
X298708Y204688D01*
X298745Y204575D01*
X298767Y204540D01*
X298782Y204503D01*
X298851Y204407D01*
X298915Y204306D01*
X298945Y204278D01*
X298968Y204245D01*
X299060Y204169D01*
X299147Y204088D01*
X299182Y204068D01*
X299213Y204043D01*
X299321Y203992D01*
X299425Y203934D01*
X299465Y203924D01*
X299501Y203907D01*
X299618Y203885D01*
X299733Y203855D01*
X299793Y203851D01*
X299813Y203847D01*
X299834Y203849D01*
X299894Y203845D01*
X302856Y203845D01*
X302974Y203860D01*
X303093Y203867D01*
X303131Y203880D01*
X303172Y203885D01*
X303282Y203928D01*
X303395Y203965D01*
X303430Y203987D01*
X303467Y204002D01*
X303563Y204071D01*
X303664Y204135D01*
X303692Y204165D01*
X303725Y204188D01*
X303801Y204280D01*
X303882Y204367D01*
X303902Y204402D01*
X303927Y204433D01*
X303978Y204541D01*
X304036Y204645D01*
X304046Y204685D01*
X304063Y204721D01*
X304085Y204838D01*
X304115Y204953D01*
X304119Y205013D01*
X304123Y205033D01*
X304121Y205054D01*
X304125Y205114D01*
X304125Y206682D01*
X305018Y207575D01*
X317282Y207575D01*
X318175Y206682D01*
X318175Y195418D01*
X317282Y194525D01*
X305018Y194525D01*
X304125Y195418D01*
X304125Y196986D01*
X304110Y197104D01*
X304103Y197223D01*
X304090Y197261D01*
X304085Y197302D01*
X304042Y197412D01*
X304005Y197525D01*
X303983Y197560D01*
X303968Y197597D01*
X303899Y197693D01*
X303835Y197794D01*
X303805Y197822D01*
X303782Y197855D01*
X303690Y197931D01*
X303603Y198012D01*
X303568Y198032D01*
X303537Y198057D01*
X303429Y198108D01*
X303325Y198166D01*
X303285Y198176D01*
X303249Y198193D01*
X303132Y198215D01*
X303017Y198245D01*
X302957Y198249D01*
X302937Y198253D01*
X302916Y198251D01*
X302856Y198255D01*
X299894Y198255D01*
X299776Y198240D01*
X299657Y198233D01*
X299619Y198220D01*
X299578Y198215D01*
X299468Y198172D01*
X299355Y198135D01*
X299320Y198113D01*
X299283Y198098D01*
X299187Y198029D01*
X299086Y197965D01*
X299058Y197935D01*
X299025Y197912D01*
X298949Y197820D01*
X298868Y197733D01*
X298848Y197698D01*
X298823Y197667D01*
X298772Y197559D01*
X298714Y197455D01*
X298704Y197415D01*
X298687Y197379D01*
X298665Y197262D01*
X298635Y197147D01*
X298631Y197087D01*
X298627Y197067D01*
X298629Y197046D01*
X298625Y196986D01*
X298625Y194918D01*
X297516Y193810D01*
X297456Y193732D01*
X297388Y193660D01*
X297359Y193607D01*
X297322Y193559D01*
X297282Y193468D01*
X297234Y193381D01*
X297219Y193323D01*
X297195Y193267D01*
X297180Y193169D01*
X297155Y193073D01*
X297149Y192973D01*
X297145Y192953D01*
X297146Y192941D01*
X297145Y192913D01*
X297145Y173486D01*
X297148Y173466D01*
G37*
%LPD*%
%LPC*%
G36*
X69237Y38480D02*
X69237Y38480D01*
X63880Y43837D01*
X63880Y51413D01*
X69237Y56770D01*
X69469Y56770D01*
X69587Y56785D01*
X69706Y56792D01*
X69744Y56805D01*
X69785Y56810D01*
X69895Y56853D01*
X70008Y56890D01*
X70043Y56912D01*
X70080Y56927D01*
X70176Y56996D01*
X70277Y57060D01*
X70305Y57090D01*
X70338Y57113D01*
X70414Y57205D01*
X70495Y57292D01*
X70515Y57327D01*
X70540Y57358D01*
X70591Y57466D01*
X70649Y57570D01*
X70659Y57610D01*
X70676Y57646D01*
X70698Y57763D01*
X70728Y57878D01*
X70732Y57938D01*
X70736Y57958D01*
X70734Y57979D01*
X70738Y58039D01*
X70738Y60650D01*
X70735Y60679D01*
X70737Y60709D01*
X70715Y60837D01*
X70698Y60965D01*
X70688Y60993D01*
X70683Y61022D01*
X70629Y61140D01*
X70581Y61261D01*
X70564Y61285D01*
X70552Y61312D01*
X70471Y61413D01*
X70395Y61518D01*
X70372Y61537D01*
X70353Y61560D01*
X70250Y61638D01*
X70150Y61721D01*
X70123Y61734D01*
X70099Y61752D01*
X69955Y61822D01*
X66497Y63255D01*
X63255Y66497D01*
X61500Y70733D01*
X61500Y74281D01*
X61485Y74406D01*
X61475Y74531D01*
X61465Y74563D01*
X61460Y74597D01*
X61414Y74713D01*
X61374Y74833D01*
X61356Y74861D01*
X61343Y74892D01*
X61270Y74994D01*
X61201Y75100D01*
X61176Y75122D01*
X61157Y75150D01*
X61060Y75230D01*
X60967Y75315D01*
X60938Y75331D01*
X60912Y75352D01*
X60798Y75406D01*
X60687Y75466D01*
X60654Y75474D01*
X60624Y75488D01*
X60500Y75512D01*
X60378Y75542D01*
X60345Y75541D01*
X60312Y75548D01*
X60186Y75540D01*
X60060Y75539D01*
X60012Y75529D01*
X59994Y75528D01*
X59974Y75521D01*
X59903Y75507D01*
X54428Y74040D01*
X47172Y74040D01*
X40162Y75918D01*
X33878Y79547D01*
X28747Y84678D01*
X25118Y90962D01*
X23240Y97972D01*
X23240Y105228D01*
X25118Y112238D01*
X28747Y118522D01*
X33878Y123653D01*
X40162Y127282D01*
X47172Y129160D01*
X54428Y129160D01*
X61438Y127282D01*
X67722Y123653D01*
X72853Y118522D01*
X76482Y112238D01*
X78360Y105228D01*
X78360Y97972D01*
X76482Y90962D01*
X73878Y86454D01*
X73827Y86331D01*
X73771Y86212D01*
X73766Y86185D01*
X73755Y86160D01*
X73736Y86029D01*
X73711Y85899D01*
X73713Y85873D01*
X73709Y85846D01*
X73722Y85714D01*
X73731Y85582D01*
X73739Y85556D01*
X73742Y85530D01*
X73788Y85405D01*
X73829Y85280D01*
X73843Y85257D01*
X73853Y85231D01*
X73928Y85123D01*
X73999Y85011D01*
X74019Y84992D01*
X74034Y84970D01*
X74134Y84884D01*
X74231Y84793D01*
X74254Y84780D01*
X74275Y84762D01*
X74393Y84703D01*
X74509Y84639D01*
X74535Y84633D01*
X74559Y84621D01*
X74689Y84593D01*
X74817Y84560D01*
X74855Y84558D01*
X74870Y84554D01*
X74892Y84555D01*
X74978Y84550D01*
X75317Y84550D01*
X79553Y82795D01*
X82795Y79553D01*
X84552Y75311D01*
X84621Y75190D01*
X84686Y75067D01*
X84700Y75052D01*
X84710Y75035D01*
X84807Y74935D01*
X84900Y74832D01*
X84917Y74821D01*
X84931Y74806D01*
X85050Y74734D01*
X85166Y74657D01*
X85185Y74651D01*
X85202Y74640D01*
X85335Y74599D01*
X85467Y74554D01*
X85487Y74552D01*
X85506Y74547D01*
X85645Y74540D01*
X85784Y74529D01*
X85804Y74532D01*
X85824Y74531D01*
X85960Y74559D01*
X86097Y74583D01*
X86115Y74592D01*
X86135Y74596D01*
X86261Y74657D01*
X86387Y74714D01*
X86403Y74726D01*
X86421Y74735D01*
X86527Y74826D01*
X86635Y74912D01*
X86648Y74929D01*
X86663Y74942D01*
X86743Y75056D01*
X86827Y75166D01*
X86839Y75192D01*
X86846Y75202D01*
X86853Y75221D01*
X86898Y75311D01*
X88655Y79553D01*
X91897Y82795D01*
X96133Y84550D01*
X100717Y84550D01*
X104953Y82795D01*
X108195Y79553D01*
X109952Y75311D01*
X110021Y75191D01*
X110086Y75067D01*
X110100Y75052D01*
X110110Y75035D01*
X110206Y74935D01*
X110300Y74832D01*
X110317Y74821D01*
X110331Y74806D01*
X110450Y74734D01*
X110566Y74657D01*
X110585Y74651D01*
X110602Y74640D01*
X110735Y74599D01*
X110867Y74554D01*
X110887Y74552D01*
X110906Y74547D01*
X111045Y74540D01*
X111184Y74529D01*
X111204Y74532D01*
X111224Y74531D01*
X111359Y74559D01*
X111497Y74583D01*
X111516Y74592D01*
X111535Y74596D01*
X111660Y74657D01*
X111787Y74714D01*
X111803Y74726D01*
X111821Y74735D01*
X111927Y74826D01*
X112035Y74912D01*
X112048Y74929D01*
X112063Y74942D01*
X112143Y75055D01*
X112227Y75167D01*
X112239Y75192D01*
X112246Y75202D01*
X112253Y75221D01*
X112298Y75311D01*
X114055Y79553D01*
X117297Y82795D01*
X121533Y84550D01*
X126117Y84550D01*
X130353Y82795D01*
X133595Y79553D01*
X135352Y75311D01*
X135421Y75190D01*
X135486Y75067D01*
X135500Y75052D01*
X135510Y75035D01*
X135607Y74935D01*
X135700Y74832D01*
X135717Y74821D01*
X135731Y74806D01*
X135850Y74734D01*
X135966Y74657D01*
X135985Y74651D01*
X136002Y74640D01*
X136135Y74599D01*
X136267Y74554D01*
X136287Y74552D01*
X136306Y74547D01*
X136445Y74540D01*
X136584Y74529D01*
X136604Y74532D01*
X136624Y74531D01*
X136760Y74559D01*
X136897Y74583D01*
X136915Y74592D01*
X136935Y74596D01*
X137061Y74657D01*
X137187Y74714D01*
X137203Y74726D01*
X137221Y74735D01*
X137327Y74826D01*
X137435Y74912D01*
X137448Y74929D01*
X137463Y74942D01*
X137543Y75056D01*
X137627Y75166D01*
X137639Y75192D01*
X137646Y75202D01*
X137653Y75221D01*
X137698Y75311D01*
X139455Y79553D01*
X142697Y82795D01*
X146933Y84550D01*
X151517Y84550D01*
X155753Y82795D01*
X158995Y79553D01*
X160750Y75317D01*
X160750Y70733D01*
X158995Y66497D01*
X155753Y63255D01*
X152295Y61822D01*
X152270Y61808D01*
X152242Y61799D01*
X152132Y61729D01*
X152019Y61665D01*
X151998Y61644D01*
X151973Y61629D01*
X151884Y61534D01*
X151791Y61444D01*
X151775Y61418D01*
X151755Y61397D01*
X151692Y61283D01*
X151624Y61173D01*
X151616Y61144D01*
X151601Y61118D01*
X151569Y60993D01*
X151531Y60869D01*
X151529Y60839D01*
X151522Y60811D01*
X151512Y60650D01*
X151512Y58039D01*
X151527Y57921D01*
X151534Y57802D01*
X151547Y57764D01*
X151552Y57723D01*
X151595Y57613D01*
X151632Y57500D01*
X151654Y57465D01*
X151669Y57428D01*
X151738Y57332D01*
X151802Y57231D01*
X151832Y57203D01*
X151855Y57170D01*
X151947Y57094D01*
X152034Y57013D01*
X152069Y56993D01*
X152100Y56968D01*
X152208Y56917D01*
X152312Y56859D01*
X152352Y56849D01*
X152388Y56832D01*
X152505Y56810D01*
X152620Y56780D01*
X152680Y56776D01*
X152700Y56772D01*
X152721Y56774D01*
X152781Y56770D01*
X153013Y56770D01*
X158370Y51413D01*
X158370Y43837D01*
X153013Y38480D01*
X145437Y38480D01*
X140080Y43837D01*
X140080Y51413D01*
X145437Y56770D01*
X145669Y56770D01*
X145787Y56785D01*
X145906Y56792D01*
X145944Y56805D01*
X145985Y56810D01*
X146095Y56853D01*
X146208Y56890D01*
X146243Y56912D01*
X146280Y56927D01*
X146376Y56996D01*
X146477Y57060D01*
X146505Y57090D01*
X146538Y57113D01*
X146614Y57205D01*
X146695Y57292D01*
X146715Y57327D01*
X146740Y57358D01*
X146791Y57466D01*
X146849Y57570D01*
X146859Y57610D01*
X146876Y57646D01*
X146898Y57763D01*
X146928Y57878D01*
X146932Y57938D01*
X146936Y57958D01*
X146934Y57979D01*
X146938Y58039D01*
X146938Y60650D01*
X146935Y60679D01*
X146937Y60709D01*
X146915Y60837D01*
X146898Y60965D01*
X146888Y60993D01*
X146883Y61022D01*
X146829Y61140D01*
X146781Y61261D01*
X146764Y61285D01*
X146752Y61312D01*
X146671Y61413D01*
X146595Y61518D01*
X146572Y61537D01*
X146553Y61560D01*
X146450Y61638D01*
X146350Y61721D01*
X146323Y61734D01*
X146299Y61752D01*
X146155Y61822D01*
X142697Y63255D01*
X139455Y66497D01*
X137698Y70739D01*
X137629Y70859D01*
X137564Y70983D01*
X137550Y70998D01*
X137540Y71015D01*
X137444Y71115D01*
X137350Y71218D01*
X137333Y71229D01*
X137319Y71244D01*
X137200Y71316D01*
X137084Y71393D01*
X137065Y71399D01*
X137048Y71410D01*
X136915Y71451D01*
X136783Y71496D01*
X136763Y71498D01*
X136744Y71503D01*
X136605Y71510D01*
X136466Y71521D01*
X136446Y71518D01*
X136426Y71519D01*
X136291Y71491D01*
X136153Y71467D01*
X136134Y71458D01*
X136115Y71454D01*
X135990Y71393D01*
X135863Y71336D01*
X135847Y71324D01*
X135829Y71315D01*
X135723Y71224D01*
X135615Y71138D01*
X135602Y71121D01*
X135587Y71108D01*
X135507Y70995D01*
X135423Y70883D01*
X135411Y70858D01*
X135404Y70848D01*
X135397Y70829D01*
X135352Y70739D01*
X133595Y66497D01*
X130353Y63255D01*
X126895Y61822D01*
X126870Y61808D01*
X126842Y61799D01*
X126732Y61729D01*
X126619Y61665D01*
X126598Y61644D01*
X126573Y61629D01*
X126484Y61534D01*
X126391Y61444D01*
X126375Y61418D01*
X126355Y61397D01*
X126292Y61283D01*
X126224Y61173D01*
X126216Y61144D01*
X126201Y61118D01*
X126169Y60993D01*
X126131Y60869D01*
X126129Y60839D01*
X126122Y60811D01*
X126112Y60650D01*
X126112Y58039D01*
X126127Y57921D01*
X126134Y57802D01*
X126147Y57764D01*
X126152Y57723D01*
X126195Y57613D01*
X126232Y57500D01*
X126254Y57465D01*
X126269Y57428D01*
X126338Y57332D01*
X126402Y57231D01*
X126432Y57203D01*
X126455Y57170D01*
X126547Y57094D01*
X126634Y57013D01*
X126669Y56993D01*
X126700Y56968D01*
X126808Y56917D01*
X126912Y56859D01*
X126952Y56849D01*
X126988Y56832D01*
X127105Y56810D01*
X127220Y56780D01*
X127280Y56776D01*
X127300Y56772D01*
X127321Y56774D01*
X127381Y56770D01*
X127613Y56770D01*
X132970Y51413D01*
X132970Y43837D01*
X127613Y38480D01*
X120037Y38480D01*
X114680Y43837D01*
X114680Y51413D01*
X120037Y56770D01*
X120269Y56770D01*
X120387Y56785D01*
X120506Y56792D01*
X120544Y56805D01*
X120585Y56810D01*
X120695Y56853D01*
X120808Y56890D01*
X120843Y56912D01*
X120880Y56927D01*
X120976Y56996D01*
X121077Y57060D01*
X121105Y57090D01*
X121138Y57113D01*
X121214Y57205D01*
X121295Y57292D01*
X121315Y57327D01*
X121340Y57358D01*
X121391Y57466D01*
X121449Y57570D01*
X121459Y57610D01*
X121476Y57646D01*
X121498Y57763D01*
X121528Y57878D01*
X121532Y57938D01*
X121536Y57958D01*
X121534Y57979D01*
X121538Y58039D01*
X121538Y60650D01*
X121535Y60679D01*
X121537Y60709D01*
X121515Y60837D01*
X121498Y60965D01*
X121488Y60993D01*
X121483Y61022D01*
X121429Y61140D01*
X121381Y61261D01*
X121364Y61285D01*
X121352Y61312D01*
X121271Y61413D01*
X121195Y61518D01*
X121172Y61537D01*
X121153Y61560D01*
X121050Y61638D01*
X120950Y61721D01*
X120923Y61734D01*
X120899Y61752D01*
X120755Y61822D01*
X117297Y63255D01*
X114055Y66497D01*
X112298Y70739D01*
X112229Y70860D01*
X112164Y70983D01*
X112150Y70998D01*
X112140Y71015D01*
X112043Y71115D01*
X111950Y71218D01*
X111933Y71229D01*
X111919Y71244D01*
X111800Y71316D01*
X111684Y71393D01*
X111665Y71399D01*
X111648Y71410D01*
X111515Y71451D01*
X111383Y71496D01*
X111363Y71498D01*
X111344Y71503D01*
X111205Y71510D01*
X111066Y71521D01*
X111046Y71518D01*
X111026Y71519D01*
X110890Y71491D01*
X110753Y71467D01*
X110735Y71458D01*
X110715Y71454D01*
X110589Y71393D01*
X110463Y71336D01*
X110447Y71324D01*
X110429Y71315D01*
X110323Y71224D01*
X110215Y71138D01*
X110202Y71121D01*
X110187Y71108D01*
X110107Y70994D01*
X110023Y70884D01*
X110011Y70858D01*
X110004Y70848D01*
X109997Y70829D01*
X109952Y70739D01*
X108195Y66497D01*
X104953Y63255D01*
X101495Y61822D01*
X101470Y61808D01*
X101442Y61799D01*
X101332Y61729D01*
X101219Y61665D01*
X101198Y61644D01*
X101173Y61629D01*
X101084Y61534D01*
X100991Y61444D01*
X100975Y61418D01*
X100955Y61397D01*
X100892Y61283D01*
X100824Y61173D01*
X100816Y61144D01*
X100801Y61118D01*
X100769Y60993D01*
X100731Y60869D01*
X100729Y60839D01*
X100722Y60811D01*
X100712Y60650D01*
X100712Y58039D01*
X100727Y57921D01*
X100734Y57802D01*
X100747Y57764D01*
X100752Y57723D01*
X100795Y57613D01*
X100832Y57500D01*
X100854Y57465D01*
X100869Y57428D01*
X100938Y57332D01*
X101002Y57231D01*
X101032Y57203D01*
X101055Y57170D01*
X101147Y57094D01*
X101234Y57013D01*
X101269Y56993D01*
X101300Y56968D01*
X101408Y56917D01*
X101512Y56859D01*
X101552Y56849D01*
X101588Y56832D01*
X101705Y56810D01*
X101820Y56780D01*
X101880Y56776D01*
X101900Y56772D01*
X101921Y56774D01*
X101981Y56770D01*
X102213Y56770D01*
X107570Y51413D01*
X107570Y43837D01*
X102213Y38480D01*
X94637Y38480D01*
X89280Y43837D01*
X89280Y51413D01*
X94637Y56770D01*
X94869Y56770D01*
X94987Y56785D01*
X95106Y56792D01*
X95144Y56805D01*
X95185Y56810D01*
X95295Y56853D01*
X95408Y56890D01*
X95443Y56912D01*
X95480Y56927D01*
X95576Y56996D01*
X95677Y57060D01*
X95705Y57090D01*
X95738Y57113D01*
X95814Y57205D01*
X95895Y57292D01*
X95915Y57327D01*
X95940Y57358D01*
X95991Y57466D01*
X96049Y57570D01*
X96059Y57610D01*
X96076Y57646D01*
X96098Y57763D01*
X96128Y57878D01*
X96132Y57938D01*
X96136Y57958D01*
X96134Y57979D01*
X96138Y58039D01*
X96138Y60650D01*
X96135Y60679D01*
X96137Y60709D01*
X96115Y60837D01*
X96098Y60965D01*
X96088Y60993D01*
X96083Y61022D01*
X96029Y61140D01*
X95981Y61261D01*
X95964Y61285D01*
X95952Y61312D01*
X95871Y61413D01*
X95795Y61518D01*
X95772Y61537D01*
X95753Y61560D01*
X95650Y61638D01*
X95550Y61721D01*
X95523Y61734D01*
X95499Y61752D01*
X95355Y61822D01*
X91897Y63255D01*
X88655Y66497D01*
X86898Y70739D01*
X86829Y70859D01*
X86764Y70983D01*
X86750Y70998D01*
X86740Y71015D01*
X86644Y71115D01*
X86550Y71218D01*
X86533Y71229D01*
X86519Y71244D01*
X86400Y71316D01*
X86284Y71393D01*
X86265Y71399D01*
X86248Y71410D01*
X86115Y71451D01*
X85983Y71496D01*
X85963Y71498D01*
X85944Y71503D01*
X85805Y71510D01*
X85666Y71521D01*
X85646Y71518D01*
X85626Y71519D01*
X85491Y71491D01*
X85353Y71467D01*
X85334Y71458D01*
X85315Y71454D01*
X85190Y71393D01*
X85063Y71336D01*
X85047Y71324D01*
X85029Y71315D01*
X84923Y71224D01*
X84815Y71138D01*
X84802Y71121D01*
X84787Y71108D01*
X84707Y70995D01*
X84623Y70883D01*
X84611Y70858D01*
X84604Y70848D01*
X84597Y70829D01*
X84552Y70739D01*
X82795Y66497D01*
X79553Y63255D01*
X76095Y61822D01*
X76070Y61808D01*
X76042Y61799D01*
X75932Y61729D01*
X75819Y61665D01*
X75798Y61644D01*
X75773Y61629D01*
X75684Y61534D01*
X75591Y61444D01*
X75575Y61418D01*
X75555Y61397D01*
X75492Y61283D01*
X75424Y61173D01*
X75416Y61144D01*
X75401Y61118D01*
X75369Y60993D01*
X75331Y60869D01*
X75329Y60839D01*
X75322Y60811D01*
X75312Y60650D01*
X75312Y58039D01*
X75327Y57921D01*
X75334Y57802D01*
X75347Y57764D01*
X75352Y57723D01*
X75395Y57613D01*
X75432Y57500D01*
X75454Y57465D01*
X75469Y57428D01*
X75538Y57332D01*
X75602Y57231D01*
X75632Y57203D01*
X75655Y57170D01*
X75747Y57094D01*
X75834Y57013D01*
X75869Y56993D01*
X75900Y56968D01*
X76008Y56917D01*
X76112Y56859D01*
X76152Y56849D01*
X76188Y56832D01*
X76305Y56810D01*
X76420Y56780D01*
X76480Y56776D01*
X76500Y56772D01*
X76521Y56774D01*
X76581Y56770D01*
X76813Y56770D01*
X82170Y51413D01*
X82170Y43837D01*
X76813Y38480D01*
X69237Y38480D01*
G37*
%LPD*%
%LPC*%
G36*
X362187Y146641D02*
X362187Y146641D01*
X362096Y146633D01*
X362066Y146621D01*
X362034Y146616D01*
X361953Y146573D01*
X361870Y146537D01*
X361837Y146511D01*
X361817Y146500D01*
X361795Y146477D01*
X361739Y146432D01*
X360982Y145675D01*
X345718Y145675D01*
X344825Y146568D01*
X344825Y152436D01*
X344841Y152498D01*
X344871Y152596D01*
X344871Y152616D01*
X344876Y152636D01*
X344868Y152739D01*
X344865Y152842D01*
X344858Y152861D01*
X344857Y152881D01*
X344825Y152954D01*
X344825Y158936D01*
X344841Y158998D01*
X344871Y159096D01*
X344871Y159116D01*
X344876Y159136D01*
X344868Y159239D01*
X344865Y159342D01*
X344858Y159361D01*
X344857Y159381D01*
X344825Y159454D01*
X344825Y165436D01*
X344841Y165498D01*
X344871Y165596D01*
X344871Y165616D01*
X344876Y165636D01*
X344868Y165739D01*
X344865Y165842D01*
X344858Y165861D01*
X344857Y165881D01*
X344825Y165954D01*
X344825Y171832D01*
X345718Y172725D01*
X360982Y172725D01*
X361952Y171755D01*
X361981Y171705D01*
X362030Y171614D01*
X362044Y171600D01*
X362054Y171583D01*
X362133Y171516D01*
X362208Y171444D01*
X362226Y171436D01*
X362241Y171423D01*
X362337Y171384D01*
X362431Y171341D01*
X362451Y171339D01*
X362469Y171331D01*
X362636Y171313D01*
X362767Y171313D01*
X362857Y171327D01*
X362948Y171335D01*
X362977Y171347D01*
X363009Y171352D01*
X363090Y171395D01*
X363174Y171431D01*
X363206Y171457D01*
X363227Y171468D01*
X363249Y171491D01*
X363305Y171536D01*
X365294Y173525D01*
X367244Y174333D01*
X369356Y174333D01*
X371306Y173525D01*
X372799Y172032D01*
X373607Y170082D01*
X373607Y167970D01*
X373205Y167000D01*
X373191Y166952D01*
X373170Y166907D01*
X373150Y166799D01*
X373121Y166693D01*
X373120Y166643D01*
X373111Y166594D01*
X373117Y166485D01*
X373116Y166375D01*
X373127Y166327D01*
X373130Y166277D01*
X373164Y166173D01*
X373190Y166066D01*
X373213Y166022D01*
X373228Y165975D01*
X373287Y165882D01*
X373339Y165785D01*
X373372Y165748D01*
X373399Y165706D01*
X373479Y165631D01*
X373552Y165549D01*
X373594Y165522D01*
X373630Y165488D01*
X373726Y165435D01*
X373818Y165375D01*
X373865Y165358D01*
X373909Y165334D01*
X374015Y165307D01*
X374119Y165271D01*
X374169Y165267D01*
X374217Y165255D01*
X374377Y165245D01*
X389367Y165245D01*
X389465Y165257D01*
X389564Y165260D01*
X389622Y165277D01*
X389682Y165285D01*
X389774Y165321D01*
X389869Y165349D01*
X389922Y165379D01*
X389978Y165402D01*
X390058Y165460D01*
X390143Y165510D01*
X390219Y165576D01*
X390235Y165588D01*
X390243Y165598D01*
X390264Y165616D01*
X398939Y174292D01*
X399032Y174328D01*
X399145Y174365D01*
X399180Y174387D01*
X399217Y174402D01*
X399313Y174471D01*
X399414Y174535D01*
X399442Y174565D01*
X399475Y174588D01*
X399551Y174680D01*
X399632Y174767D01*
X399652Y174802D01*
X399677Y174833D01*
X399728Y174941D01*
X399786Y175045D01*
X399796Y175085D01*
X399813Y175121D01*
X399835Y175238D01*
X399865Y175353D01*
X399869Y175413D01*
X399873Y175433D01*
X399871Y175454D01*
X399875Y175514D01*
X399875Y176557D01*
X400768Y177450D01*
X412032Y177450D01*
X412925Y176557D01*
X412925Y175514D01*
X412940Y175396D01*
X412947Y175277D01*
X412960Y175239D01*
X412965Y175198D01*
X413008Y175088D01*
X413045Y174975D01*
X413067Y174940D01*
X413082Y174903D01*
X413151Y174807D01*
X413215Y174706D01*
X413245Y174678D01*
X413268Y174645D01*
X413360Y174569D01*
X413447Y174488D01*
X413482Y174468D01*
X413513Y174443D01*
X413621Y174392D01*
X413725Y174334D01*
X413765Y174324D01*
X413801Y174307D01*
X413918Y174285D01*
X414033Y174255D01*
X414093Y174251D01*
X414113Y174247D01*
X414134Y174249D01*
X414194Y174245D01*
X415006Y174245D01*
X415124Y174260D01*
X415243Y174267D01*
X415281Y174280D01*
X415322Y174285D01*
X415432Y174328D01*
X415545Y174365D01*
X415580Y174387D01*
X415617Y174402D01*
X415713Y174471D01*
X415814Y174535D01*
X415842Y174565D01*
X415875Y174588D01*
X415951Y174680D01*
X416032Y174767D01*
X416052Y174802D01*
X416077Y174833D01*
X416128Y174941D01*
X416186Y175045D01*
X416196Y175085D01*
X416213Y175121D01*
X416235Y175238D01*
X416265Y175353D01*
X416269Y175413D01*
X416273Y175433D01*
X416271Y175454D01*
X416275Y175514D01*
X416275Y177082D01*
X417168Y177975D01*
X429432Y177975D01*
X430325Y177082D01*
X430325Y165818D01*
X429432Y164925D01*
X417168Y164925D01*
X416275Y165818D01*
X416275Y167386D01*
X416260Y167504D01*
X416253Y167623D01*
X416240Y167661D01*
X416235Y167702D01*
X416192Y167812D01*
X416155Y167925D01*
X416133Y167960D01*
X416118Y167997D01*
X416049Y168093D01*
X415985Y168194D01*
X415955Y168222D01*
X415932Y168255D01*
X415840Y168331D01*
X415753Y168412D01*
X415718Y168432D01*
X415687Y168457D01*
X415579Y168508D01*
X415475Y168566D01*
X415435Y168576D01*
X415399Y168593D01*
X415282Y168615D01*
X415167Y168645D01*
X415107Y168649D01*
X415087Y168653D01*
X415066Y168651D01*
X415006Y168655D01*
X414194Y168655D01*
X414076Y168640D01*
X413957Y168633D01*
X413919Y168620D01*
X413878Y168615D01*
X413768Y168572D01*
X413655Y168535D01*
X413620Y168513D01*
X413583Y168498D01*
X413487Y168429D01*
X413386Y168365D01*
X413358Y168335D01*
X413325Y168312D01*
X413249Y168220D01*
X413168Y168133D01*
X413148Y168098D01*
X413123Y168067D01*
X413072Y167959D01*
X413014Y167855D01*
X413004Y167815D01*
X412987Y167779D01*
X412965Y167662D01*
X412935Y167547D01*
X412931Y167487D01*
X412927Y167467D01*
X412929Y167446D01*
X412925Y167386D01*
X412925Y164293D01*
X412032Y163400D01*
X400768Y163400D01*
X399870Y164298D01*
X399858Y164396D01*
X399845Y164535D01*
X399838Y164554D01*
X399835Y164574D01*
X399784Y164703D01*
X399737Y164834D01*
X399726Y164851D01*
X399718Y164870D01*
X399637Y164982D01*
X399559Y165097D01*
X399543Y165111D01*
X399532Y165127D01*
X399424Y165216D01*
X399320Y165308D01*
X399302Y165317D01*
X399287Y165330D01*
X399161Y165389D01*
X399037Y165453D01*
X399017Y165457D01*
X398999Y165466D01*
X398863Y165492D01*
X398727Y165522D01*
X398706Y165522D01*
X398687Y165525D01*
X398548Y165517D01*
X398409Y165513D01*
X398389Y165507D01*
X398369Y165506D01*
X398237Y165463D01*
X398103Y165424D01*
X398086Y165414D01*
X398067Y165408D01*
X397949Y165333D01*
X397829Y165263D01*
X397808Y165244D01*
X397798Y165237D01*
X397784Y165223D01*
X397709Y165156D01*
X392200Y159648D01*
X392127Y159553D01*
X392048Y159464D01*
X392030Y159428D01*
X392005Y159396D01*
X391958Y159287D01*
X391903Y159181D01*
X391895Y159142D01*
X391879Y159104D01*
X391860Y158987D01*
X391834Y158871D01*
X391835Y158830D01*
X391829Y158790D01*
X391840Y158672D01*
X391843Y158553D01*
X391855Y158514D01*
X391859Y158474D01*
X391899Y158361D01*
X391932Y158247D01*
X391952Y158213D01*
X391966Y158174D01*
X392033Y158076D01*
X392093Y157973D01*
X392133Y157928D01*
X392145Y157911D01*
X392160Y157898D01*
X392200Y157853D01*
X393461Y156591D01*
X393539Y156531D01*
X393611Y156463D01*
X393664Y156434D01*
X393712Y156397D01*
X393803Y156357D01*
X393890Y156309D01*
X393948Y156294D01*
X394004Y156270D01*
X394102Y156255D01*
X394198Y156230D01*
X394298Y156224D01*
X394318Y156220D01*
X394330Y156222D01*
X394358Y156220D01*
X398606Y156220D01*
X398724Y156235D01*
X398843Y156242D01*
X398881Y156255D01*
X398922Y156260D01*
X399032Y156303D01*
X399145Y156340D01*
X399180Y156362D01*
X399217Y156377D01*
X399313Y156446D01*
X399414Y156510D01*
X399442Y156540D01*
X399475Y156563D01*
X399551Y156655D01*
X399632Y156742D01*
X399652Y156777D01*
X399677Y156808D01*
X399728Y156916D01*
X399786Y157020D01*
X399796Y157060D01*
X399813Y157096D01*
X399835Y157213D01*
X399865Y157328D01*
X399869Y157388D01*
X399873Y157408D01*
X399871Y157429D01*
X399875Y157489D01*
X399875Y159557D01*
X400768Y160450D01*
X412032Y160450D01*
X412925Y159557D01*
X412925Y157489D01*
X412940Y157371D01*
X412947Y157252D01*
X412960Y157214D01*
X412965Y157173D01*
X413008Y157063D01*
X413045Y156950D01*
X413067Y156915D01*
X413082Y156878D01*
X413151Y156782D01*
X413215Y156681D01*
X413245Y156653D01*
X413268Y156620D01*
X413360Y156544D01*
X413447Y156463D01*
X413482Y156443D01*
X413513Y156418D01*
X413621Y156367D01*
X413725Y156309D01*
X413765Y156299D01*
X413801Y156282D01*
X413918Y156260D01*
X414033Y156230D01*
X414093Y156226D01*
X414113Y156222D01*
X414134Y156224D01*
X414194Y156220D01*
X415506Y156220D01*
X415624Y156235D01*
X415743Y156242D01*
X415781Y156255D01*
X415822Y156260D01*
X415932Y156303D01*
X416045Y156340D01*
X416080Y156362D01*
X416117Y156377D01*
X416213Y156446D01*
X416314Y156510D01*
X416342Y156540D01*
X416375Y156563D01*
X416451Y156655D01*
X416532Y156742D01*
X416552Y156777D01*
X416577Y156808D01*
X416628Y156916D01*
X416686Y157020D01*
X416696Y157060D01*
X416713Y157096D01*
X416735Y157213D01*
X416765Y157328D01*
X416769Y157388D01*
X416773Y157408D01*
X416771Y157429D01*
X416775Y157489D01*
X416775Y158532D01*
X417668Y159425D01*
X428932Y159425D01*
X429825Y158532D01*
X429825Y146268D01*
X429024Y145468D01*
X428951Y145374D01*
X428872Y145284D01*
X428854Y145248D01*
X428829Y145216D01*
X428782Y145107D01*
X428727Y145001D01*
X428719Y144961D01*
X428703Y144924D01*
X428684Y144807D01*
X428658Y144691D01*
X428659Y144650D01*
X428653Y144610D01*
X428664Y144491D01*
X428667Y144373D01*
X428679Y144334D01*
X428682Y144294D01*
X428723Y144182D01*
X428756Y144067D01*
X428776Y144032D01*
X428790Y143994D01*
X428857Y143896D01*
X428917Y143793D01*
X428957Y143748D01*
X428969Y143731D01*
X428984Y143718D01*
X429024Y143672D01*
X429411Y143285D01*
X429489Y143225D01*
X429561Y143157D01*
X429614Y143128D01*
X429662Y143091D01*
X429753Y143051D01*
X429840Y143003D01*
X429898Y142988D01*
X429954Y142964D01*
X430052Y142949D01*
X430148Y142924D01*
X430248Y142918D01*
X430268Y142914D01*
X430280Y142916D01*
X430308Y142914D01*
X434066Y142914D01*
X434204Y142931D01*
X434342Y142944D01*
X434361Y142951D01*
X434381Y142954D01*
X434511Y143005D01*
X434641Y143052D01*
X434658Y143063D01*
X434677Y143071D01*
X434789Y143152D01*
X434905Y143230D01*
X434918Y143246D01*
X434934Y143257D01*
X435023Y143365D01*
X435115Y143469D01*
X435124Y143487D01*
X435137Y143502D01*
X435196Y143628D01*
X435260Y143752D01*
X435264Y143772D01*
X435273Y143790D01*
X435299Y143927D01*
X435329Y144062D01*
X435329Y144083D01*
X435332Y144102D01*
X435324Y144241D01*
X435320Y144380D01*
X435314Y144400D01*
X435313Y144420D01*
X435270Y144552D01*
X435231Y144686D01*
X435221Y144703D01*
X435215Y144722D01*
X435140Y144840D01*
X435070Y144960D01*
X435051Y144981D01*
X435044Y144991D01*
X435029Y145005D01*
X434963Y145080D01*
X433775Y146268D01*
X433775Y158532D01*
X434668Y159425D01*
X436236Y159425D01*
X436354Y159440D01*
X436473Y159447D01*
X436511Y159460D01*
X436552Y159465D01*
X436662Y159508D01*
X436775Y159545D01*
X436810Y159567D01*
X436847Y159582D01*
X436943Y159651D01*
X437044Y159715D01*
X437072Y159745D01*
X437105Y159768D01*
X437181Y159860D01*
X437262Y159947D01*
X437282Y159982D01*
X437307Y160013D01*
X437358Y160121D01*
X437416Y160225D01*
X437426Y160265D01*
X437443Y160301D01*
X437465Y160418D01*
X437495Y160533D01*
X437499Y160593D01*
X437503Y160613D01*
X437501Y160634D01*
X437505Y160694D01*
X437505Y163656D01*
X437490Y163774D01*
X437483Y163893D01*
X437470Y163931D01*
X437465Y163972D01*
X437422Y164082D01*
X437385Y164195D01*
X437363Y164230D01*
X437348Y164267D01*
X437279Y164363D01*
X437215Y164464D01*
X437185Y164492D01*
X437162Y164525D01*
X437070Y164601D01*
X436983Y164682D01*
X436948Y164702D01*
X436917Y164727D01*
X436809Y164778D01*
X436705Y164836D01*
X436665Y164846D01*
X436629Y164863D01*
X436512Y164885D01*
X436397Y164915D01*
X436337Y164919D01*
X436317Y164923D01*
X436296Y164921D01*
X436236Y164925D01*
X434168Y164925D01*
X433275Y165818D01*
X433275Y177082D01*
X434168Y177975D01*
X446432Y177975D01*
X447325Y177082D01*
X447325Y165818D01*
X446432Y164925D01*
X444364Y164925D01*
X444246Y164910D01*
X444127Y164903D01*
X444089Y164890D01*
X444048Y164885D01*
X443938Y164842D01*
X443825Y164805D01*
X443790Y164783D01*
X443753Y164768D01*
X443657Y164699D01*
X443556Y164635D01*
X443528Y164605D01*
X443495Y164582D01*
X443419Y164490D01*
X443338Y164403D01*
X443318Y164368D01*
X443293Y164337D01*
X443242Y164229D01*
X443184Y164125D01*
X443174Y164085D01*
X443157Y164049D01*
X443135Y163932D01*
X443105Y163817D01*
X443101Y163757D01*
X443097Y163737D01*
X443099Y163716D01*
X443095Y163656D01*
X443095Y160694D01*
X443110Y160576D01*
X443117Y160457D01*
X443130Y160419D01*
X443135Y160378D01*
X443178Y160268D01*
X443215Y160155D01*
X443237Y160120D01*
X443252Y160083D01*
X443321Y159987D01*
X443385Y159886D01*
X443415Y159858D01*
X443438Y159825D01*
X443530Y159749D01*
X443617Y159668D01*
X443652Y159648D01*
X443683Y159623D01*
X443791Y159572D01*
X443895Y159514D01*
X443935Y159504D01*
X443971Y159487D01*
X444088Y159465D01*
X444203Y159435D01*
X444263Y159431D01*
X444283Y159427D01*
X444304Y159429D01*
X444364Y159425D01*
X445932Y159425D01*
X446825Y158532D01*
X446825Y146268D01*
X445637Y145080D01*
X445552Y144971D01*
X445463Y144864D01*
X445454Y144845D01*
X445442Y144829D01*
X445386Y144701D01*
X445327Y144576D01*
X445324Y144556D01*
X445315Y144537D01*
X445294Y144399D01*
X445268Y144263D01*
X445269Y144243D01*
X445266Y144223D01*
X445279Y144084D01*
X445287Y143946D01*
X445294Y143927D01*
X445295Y143907D01*
X445343Y143775D01*
X445385Y143644D01*
X445396Y143626D01*
X445403Y143607D01*
X445481Y143492D01*
X445556Y143375D01*
X445570Y143361D01*
X445582Y143344D01*
X445686Y143252D01*
X445787Y143157D01*
X445805Y143147D01*
X445820Y143134D01*
X445944Y143070D01*
X446066Y143003D01*
X446085Y142998D01*
X446103Y142989D01*
X446239Y142959D01*
X446374Y142924D01*
X446402Y142922D01*
X446414Y142919D01*
X446434Y142920D01*
X446534Y142914D01*
X453606Y142914D01*
X453724Y142929D01*
X453843Y142936D01*
X453881Y142949D01*
X453922Y142954D01*
X454032Y142997D01*
X454145Y143034D01*
X454180Y143056D01*
X454217Y143071D01*
X454313Y143140D01*
X454414Y143204D01*
X454442Y143234D01*
X454475Y143257D01*
X454551Y143349D01*
X454632Y143436D01*
X454652Y143471D01*
X454677Y143502D01*
X454728Y143610D01*
X454786Y143714D01*
X454796Y143754D01*
X454813Y143790D01*
X454835Y143907D01*
X454865Y144022D01*
X454869Y144082D01*
X454873Y144102D01*
X454871Y144123D01*
X454875Y144183D01*
X454875Y152182D01*
X455768Y153075D01*
X456828Y153075D01*
X456946Y153090D01*
X457065Y153097D01*
X457103Y153110D01*
X457144Y153115D01*
X457254Y153158D01*
X457367Y153195D01*
X457402Y153217D01*
X457439Y153232D01*
X457535Y153301D01*
X457636Y153365D01*
X457664Y153395D01*
X457697Y153418D01*
X457773Y153510D01*
X457854Y153597D01*
X457874Y153632D01*
X457899Y153663D01*
X457950Y153771D01*
X458008Y153875D01*
X458018Y153915D01*
X458035Y153951D01*
X458057Y154068D01*
X458087Y154183D01*
X458091Y154243D01*
X458095Y154263D01*
X458093Y154284D01*
X458097Y154344D01*
X458097Y156806D01*
X458082Y156924D01*
X458075Y157043D01*
X458062Y157081D01*
X458057Y157122D01*
X458014Y157232D01*
X457977Y157345D01*
X457955Y157380D01*
X457940Y157417D01*
X457871Y157513D01*
X457807Y157614D01*
X457777Y157642D01*
X457754Y157675D01*
X457662Y157751D01*
X457575Y157832D01*
X457540Y157852D01*
X457509Y157877D01*
X457401Y157928D01*
X457297Y157986D01*
X457257Y157996D01*
X457221Y158013D01*
X457104Y158035D01*
X456989Y158065D01*
X456929Y158069D01*
X456909Y158073D01*
X456888Y158071D01*
X456828Y158075D01*
X455768Y158075D01*
X454875Y158968D01*
X454875Y171232D01*
X455768Y172125D01*
X467032Y172125D01*
X467925Y171232D01*
X467925Y158968D01*
X467032Y158075D01*
X465972Y158075D01*
X465854Y158060D01*
X465735Y158053D01*
X465697Y158040D01*
X465656Y158035D01*
X465546Y157992D01*
X465433Y157955D01*
X465398Y157933D01*
X465361Y157918D01*
X465265Y157849D01*
X465164Y157785D01*
X465136Y157755D01*
X465103Y157732D01*
X465027Y157640D01*
X464946Y157553D01*
X464926Y157518D01*
X464901Y157487D01*
X464850Y157379D01*
X464792Y157275D01*
X464782Y157235D01*
X464765Y157199D01*
X464743Y157082D01*
X464713Y156967D01*
X464709Y156907D01*
X464705Y156887D01*
X464707Y156866D01*
X464703Y156806D01*
X464703Y154344D01*
X464718Y154226D01*
X464725Y154107D01*
X464738Y154069D01*
X464743Y154028D01*
X464786Y153918D01*
X464823Y153805D01*
X464845Y153770D01*
X464860Y153733D01*
X464929Y153637D01*
X464993Y153536D01*
X465023Y153508D01*
X465046Y153475D01*
X465138Y153399D01*
X465225Y153318D01*
X465260Y153298D01*
X465291Y153273D01*
X465399Y153222D01*
X465503Y153164D01*
X465543Y153154D01*
X465579Y153137D01*
X465696Y153115D01*
X465811Y153085D01*
X465871Y153081D01*
X465891Y153077D01*
X465912Y153079D01*
X465972Y153075D01*
X467032Y153075D01*
X467925Y152182D01*
X467925Y139918D01*
X467032Y139025D01*
X464585Y139025D01*
X464447Y139008D01*
X464308Y138995D01*
X464289Y138988D01*
X464269Y138985D01*
X464140Y138934D01*
X464009Y138887D01*
X463992Y138876D01*
X463974Y138868D01*
X463861Y138787D01*
X463746Y138709D01*
X463733Y138693D01*
X463716Y138682D01*
X463627Y138574D01*
X463535Y138470D01*
X463526Y138452D01*
X463513Y138437D01*
X463454Y138311D01*
X463391Y138187D01*
X463386Y138167D01*
X463378Y138149D01*
X463352Y138013D01*
X463321Y137877D01*
X463322Y137856D01*
X463318Y137837D01*
X463327Y137698D01*
X463331Y137559D01*
X463337Y137539D01*
X463338Y137519D01*
X463381Y137387D01*
X463419Y137253D01*
X463430Y137236D01*
X463436Y137217D01*
X463510Y137099D01*
X463581Y136979D01*
X463599Y136958D01*
X463606Y136948D01*
X463621Y136934D01*
X463687Y136859D01*
X464499Y136046D01*
X464578Y135986D01*
X464650Y135918D01*
X464703Y135889D01*
X464751Y135852D01*
X464842Y135812D01*
X464928Y135764D01*
X464987Y135749D01*
X465042Y135725D01*
X465140Y135710D01*
X465236Y135685D01*
X465336Y135679D01*
X465356Y135675D01*
X465369Y135677D01*
X465397Y135675D01*
X472857Y135675D01*
X473750Y134782D01*
X473750Y123518D01*
X472857Y122625D01*
X460593Y122625D01*
X459700Y123518D01*
X459700Y130978D01*
X459688Y131076D01*
X459685Y131175D01*
X459668Y131234D01*
X459660Y131294D01*
X459624Y131386D01*
X459596Y131481D01*
X459566Y131533D01*
X459543Y131589D01*
X459485Y131670D01*
X459435Y131755D01*
X459369Y131830D01*
X459357Y131847D01*
X459347Y131855D01*
X459328Y131876D01*
X458304Y132900D01*
X458304Y132901D01*
X456866Y134338D01*
X456757Y134423D01*
X456650Y134512D01*
X456631Y134520D01*
X456615Y134533D01*
X456488Y134588D01*
X456362Y134647D01*
X456342Y134651D01*
X456323Y134659D01*
X456185Y134681D01*
X456049Y134707D01*
X456029Y134706D01*
X456009Y134709D01*
X455870Y134696D01*
X455732Y134687D01*
X455713Y134681D01*
X455693Y134679D01*
X455561Y134632D01*
X455430Y134589D01*
X455412Y134578D01*
X455393Y134571D01*
X455278Y134493D01*
X455161Y134419D01*
X455147Y134404D01*
X455130Y134393D01*
X455038Y134289D01*
X454943Y134187D01*
X454933Y134170D01*
X454920Y134154D01*
X454856Y134030D01*
X454789Y133909D01*
X454784Y133889D01*
X454775Y133871D01*
X454745Y133735D01*
X454710Y133601D01*
X454708Y133573D01*
X454705Y133561D01*
X454706Y133540D01*
X454700Y133440D01*
X454700Y123518D01*
X453807Y122625D01*
X441543Y122625D01*
X440650Y123518D01*
X440650Y125086D01*
X440635Y125204D01*
X440628Y125323D01*
X440615Y125361D01*
X440610Y125402D01*
X440567Y125512D01*
X440530Y125625D01*
X440508Y125660D01*
X440493Y125697D01*
X440424Y125793D01*
X440360Y125894D01*
X440330Y125922D01*
X440307Y125955D01*
X440215Y126031D01*
X440128Y126112D01*
X440093Y126132D01*
X440062Y126157D01*
X439954Y126208D01*
X439850Y126266D01*
X439810Y126276D01*
X439774Y126293D01*
X439657Y126315D01*
X439542Y126345D01*
X439482Y126349D01*
X439462Y126353D01*
X439441Y126351D01*
X439381Y126355D01*
X436919Y126355D01*
X436801Y126340D01*
X436682Y126333D01*
X436644Y126320D01*
X436603Y126315D01*
X436493Y126272D01*
X436380Y126235D01*
X436345Y126213D01*
X436308Y126198D01*
X436212Y126129D01*
X436111Y126065D01*
X436083Y126035D01*
X436050Y126012D01*
X435974Y125920D01*
X435893Y125833D01*
X435873Y125798D01*
X435848Y125767D01*
X435797Y125659D01*
X435739Y125555D01*
X435729Y125515D01*
X435712Y125479D01*
X435690Y125362D01*
X435660Y125247D01*
X435656Y125187D01*
X435652Y125167D01*
X435654Y125146D01*
X435650Y125086D01*
X435650Y123518D01*
X434757Y122625D01*
X422493Y122625D01*
X421600Y123518D01*
X421600Y125086D01*
X421585Y125204D01*
X421578Y125323D01*
X421565Y125361D01*
X421560Y125402D01*
X421517Y125512D01*
X421480Y125625D01*
X421458Y125660D01*
X421443Y125697D01*
X421374Y125793D01*
X421310Y125894D01*
X421280Y125922D01*
X421257Y125955D01*
X421165Y126031D01*
X421078Y126112D01*
X421043Y126132D01*
X421012Y126157D01*
X420904Y126208D01*
X420800Y126266D01*
X420760Y126276D01*
X420724Y126293D01*
X420607Y126315D01*
X420492Y126345D01*
X420432Y126349D01*
X420412Y126353D01*
X420391Y126351D01*
X420331Y126355D01*
X398892Y126355D01*
X378964Y146284D01*
X378886Y146344D01*
X378814Y146412D01*
X378761Y146441D01*
X378713Y146478D01*
X378622Y146518D01*
X378535Y146566D01*
X378477Y146581D01*
X378421Y146605D01*
X378323Y146620D01*
X378227Y146645D01*
X378127Y146651D01*
X378107Y146655D01*
X378095Y146653D01*
X378067Y146655D01*
X362277Y146655D01*
X362187Y146641D01*
G37*
%LPD*%
%LPC*%
G36*
X361291Y104417D02*
X361291Y104417D01*
X361283Y104508D01*
X361271Y104538D01*
X361266Y104570D01*
X361223Y104650D01*
X361187Y104734D01*
X361161Y104766D01*
X361150Y104787D01*
X361127Y104809D01*
X361082Y104865D01*
X360934Y105014D01*
X359644Y106304D01*
X359495Y106452D01*
X359421Y106505D01*
X359352Y106565D01*
X359322Y106577D01*
X359296Y106596D01*
X359209Y106623D01*
X359124Y106657D01*
X359083Y106661D01*
X359061Y106668D01*
X359028Y106667D01*
X358957Y106675D01*
X345718Y106675D01*
X344825Y107568D01*
X344825Y113436D01*
X344841Y113498D01*
X344871Y113596D01*
X344871Y113616D01*
X344876Y113636D01*
X344868Y113739D01*
X344865Y113842D01*
X344858Y113861D01*
X344857Y113881D01*
X344825Y113954D01*
X344825Y119936D01*
X344841Y119998D01*
X344871Y120096D01*
X344871Y120116D01*
X344876Y120136D01*
X344868Y120239D01*
X344865Y120342D01*
X344858Y120361D01*
X344857Y120381D01*
X344825Y120454D01*
X344825Y126436D01*
X344841Y126498D01*
X344871Y126596D01*
X344871Y126616D01*
X344876Y126636D01*
X344868Y126739D01*
X344865Y126842D01*
X344858Y126861D01*
X344857Y126881D01*
X344825Y126954D01*
X344825Y132936D01*
X344841Y132998D01*
X344871Y133096D01*
X344871Y133116D01*
X344876Y133136D01*
X344868Y133239D01*
X344865Y133342D01*
X344858Y133361D01*
X344857Y133381D01*
X344825Y133454D01*
X344825Y139332D01*
X345718Y140225D01*
X360982Y140225D01*
X361739Y139468D01*
X361813Y139415D01*
X361882Y139355D01*
X361912Y139343D01*
X361938Y139324D01*
X362025Y139297D01*
X362110Y139263D01*
X362151Y139259D01*
X362173Y139252D01*
X362206Y139253D01*
X362277Y139245D01*
X370558Y139245D01*
X372566Y137236D01*
X388106Y121696D01*
X388184Y121636D01*
X388256Y121568D01*
X388309Y121539D01*
X388357Y121502D01*
X388448Y121462D01*
X388535Y121414D01*
X388593Y121399D01*
X388649Y121375D01*
X388747Y121360D01*
X388843Y121335D01*
X388943Y121329D01*
X388963Y121325D01*
X388975Y121327D01*
X389003Y121325D01*
X397182Y121325D01*
X398075Y120432D01*
X398075Y108168D01*
X397182Y107275D01*
X386541Y107275D01*
X386404Y107258D01*
X386265Y107245D01*
X386246Y107238D01*
X386226Y107235D01*
X386097Y107184D01*
X385966Y107137D01*
X385949Y107126D01*
X385930Y107118D01*
X385818Y107037D01*
X385703Y106959D01*
X385689Y106943D01*
X385673Y106932D01*
X385584Y106824D01*
X385492Y106720D01*
X385483Y106702D01*
X385470Y106687D01*
X385411Y106561D01*
X385347Y106437D01*
X385343Y106417D01*
X385334Y106399D01*
X385308Y106262D01*
X385278Y106127D01*
X385278Y106106D01*
X385275Y106087D01*
X385283Y105948D01*
X385287Y105809D01*
X385293Y105789D01*
X385294Y105769D01*
X385337Y105637D01*
X385376Y105503D01*
X385386Y105486D01*
X385392Y105467D01*
X385467Y105349D01*
X385537Y105229D01*
X385556Y105208D01*
X385563Y105198D01*
X385577Y105184D01*
X385581Y105180D01*
X385581Y105179D01*
X385583Y105177D01*
X385644Y105109D01*
X388606Y102146D01*
X388684Y102086D01*
X388756Y102018D01*
X388809Y101989D01*
X388857Y101952D01*
X388948Y101912D01*
X389035Y101864D01*
X389093Y101849D01*
X389149Y101825D01*
X389247Y101810D01*
X389343Y101785D01*
X389443Y101779D01*
X389463Y101775D01*
X389475Y101777D01*
X389503Y101775D01*
X397682Y101775D01*
X398575Y100882D01*
X398575Y89618D01*
X397682Y88725D01*
X385418Y88725D01*
X384525Y89618D01*
X384525Y97797D01*
X384513Y97895D01*
X384510Y97994D01*
X384493Y98052D01*
X384485Y98112D01*
X384449Y98204D01*
X384421Y98299D01*
X384391Y98352D01*
X384368Y98408D01*
X384310Y98488D01*
X384260Y98573D01*
X384194Y98649D01*
X384182Y98665D01*
X384172Y98673D01*
X384154Y98694D01*
X380214Y102633D01*
X379612Y103236D01*
X379502Y103321D01*
X379395Y103410D01*
X379376Y103419D01*
X379360Y103431D01*
X379232Y103487D01*
X379107Y103546D01*
X379087Y103549D01*
X379068Y103557D01*
X378930Y103579D01*
X378794Y103605D01*
X378774Y103604D01*
X378754Y103607D01*
X378615Y103594D01*
X378477Y103586D01*
X378458Y103579D01*
X378438Y103578D01*
X378307Y103530D01*
X378175Y103488D01*
X378157Y103477D01*
X378138Y103470D01*
X378024Y103392D01*
X377906Y103317D01*
X377892Y103303D01*
X377875Y103291D01*
X377783Y103187D01*
X377688Y103086D01*
X377678Y103068D01*
X377665Y103053D01*
X377601Y102929D01*
X377534Y102807D01*
X377529Y102788D01*
X377520Y102770D01*
X377490Y102634D01*
X377455Y102499D01*
X377453Y102471D01*
X377450Y102459D01*
X377451Y102439D01*
X377445Y102339D01*
X377445Y90583D01*
X377457Y90485D01*
X377460Y90386D01*
X377477Y90328D01*
X377485Y90268D01*
X377521Y90176D01*
X377549Y90081D01*
X377579Y90028D01*
X377602Y89972D01*
X377660Y89892D01*
X377710Y89807D01*
X377776Y89731D01*
X377788Y89715D01*
X377798Y89707D01*
X377816Y89686D01*
X384406Y83096D01*
X384484Y83036D01*
X384556Y82968D01*
X384609Y82939D01*
X384657Y82902D01*
X384748Y82862D01*
X384835Y82814D01*
X384893Y82799D01*
X384949Y82775D01*
X385047Y82760D01*
X385143Y82735D01*
X385243Y82729D01*
X385263Y82725D01*
X385275Y82727D01*
X385303Y82725D01*
X397682Y82725D01*
X398575Y81832D01*
X398575Y70568D01*
X397682Y69675D01*
X385418Y69675D01*
X384525Y70568D01*
X384525Y74547D01*
X384513Y74645D01*
X384510Y74744D01*
X384493Y74802D01*
X384485Y74862D01*
X384449Y74954D01*
X384421Y75049D01*
X384391Y75102D01*
X384368Y75158D01*
X384310Y75238D01*
X384260Y75323D01*
X384194Y75399D01*
X384182Y75415D01*
X384172Y75423D01*
X384154Y75444D01*
X371855Y87742D01*
X371855Y109624D01*
X371838Y109762D01*
X371825Y109901D01*
X371818Y109920D01*
X371815Y109940D01*
X371764Y110069D01*
X371717Y110200D01*
X371706Y110217D01*
X371698Y110236D01*
X371617Y110348D01*
X371539Y110463D01*
X371523Y110476D01*
X371512Y110493D01*
X371404Y110582D01*
X371300Y110674D01*
X371282Y110683D01*
X371267Y110696D01*
X371141Y110755D01*
X371017Y110818D01*
X370997Y110823D01*
X370979Y110831D01*
X370842Y110857D01*
X370707Y110888D01*
X370686Y110887D01*
X370667Y110891D01*
X370528Y110882D01*
X370389Y110878D01*
X370369Y110872D01*
X370349Y110871D01*
X370217Y110829D01*
X370083Y110790D01*
X370066Y110779D01*
X370047Y110773D01*
X369929Y110699D01*
X369809Y110628D01*
X369788Y110610D01*
X369778Y110603D01*
X369764Y110588D01*
X369689Y110522D01*
X368662Y109495D01*
X367373Y108961D01*
X367330Y108937D01*
X367283Y108920D01*
X367192Y108858D01*
X367097Y108804D01*
X367061Y108769D01*
X367020Y108741D01*
X366947Y108659D01*
X366868Y108583D01*
X366842Y108540D01*
X366809Y108503D01*
X366759Y108405D01*
X366702Y108311D01*
X366687Y108264D01*
X366665Y108220D01*
X366641Y108112D01*
X366608Y108007D01*
X366606Y107958D01*
X366595Y107909D01*
X366598Y107800D01*
X366593Y107690D01*
X366603Y107641D01*
X366605Y107591D01*
X366635Y107486D01*
X366658Y107378D01*
X366679Y107334D01*
X366693Y107286D01*
X366749Y107191D01*
X366797Y107093D01*
X366829Y107055D01*
X366855Y107012D01*
X366895Y106967D01*
X366895Y71794D01*
X366910Y71676D01*
X366917Y71557D01*
X366930Y71519D01*
X366935Y71478D01*
X366978Y71368D01*
X367015Y71255D01*
X367037Y71220D01*
X367052Y71183D01*
X367121Y71087D01*
X367185Y70986D01*
X367215Y70958D01*
X367238Y70925D01*
X367330Y70849D01*
X367417Y70768D01*
X367452Y70748D01*
X367483Y70723D01*
X367591Y70672D01*
X367695Y70614D01*
X367735Y70604D01*
X367771Y70587D01*
X367888Y70565D01*
X368003Y70535D01*
X368063Y70531D01*
X368083Y70527D01*
X368104Y70529D01*
X368164Y70525D01*
X369732Y70525D01*
X370625Y69632D01*
X370625Y57368D01*
X369732Y56475D01*
X368164Y56475D01*
X368046Y56460D01*
X367927Y56453D01*
X367889Y56440D01*
X367848Y56435D01*
X367738Y56392D01*
X367625Y56355D01*
X367590Y56333D01*
X367553Y56318D01*
X367457Y56249D01*
X367356Y56185D01*
X367328Y56155D01*
X367295Y56132D01*
X367219Y56040D01*
X367138Y55953D01*
X367118Y55918D01*
X367093Y55887D01*
X367042Y55779D01*
X366984Y55675D01*
X366974Y55635D01*
X366957Y55599D01*
X366935Y55482D01*
X366905Y55367D01*
X366901Y55307D01*
X366897Y55287D01*
X366899Y55266D01*
X366895Y55206D01*
X366895Y52744D01*
X366910Y52626D01*
X366917Y52507D01*
X366930Y52469D01*
X366935Y52428D01*
X366978Y52318D01*
X367015Y52205D01*
X367037Y52170D01*
X367052Y52133D01*
X367121Y52037D01*
X367185Y51936D01*
X367215Y51908D01*
X367238Y51875D01*
X367330Y51799D01*
X367417Y51718D01*
X367452Y51698D01*
X367483Y51673D01*
X367591Y51622D01*
X367695Y51564D01*
X367735Y51554D01*
X367771Y51537D01*
X367888Y51515D01*
X368003Y51485D01*
X368063Y51481D01*
X368083Y51477D01*
X368104Y51479D01*
X368164Y51475D01*
X369732Y51475D01*
X370625Y50582D01*
X370625Y38318D01*
X369732Y37425D01*
X368164Y37425D01*
X368046Y37410D01*
X367927Y37403D01*
X367889Y37390D01*
X367848Y37385D01*
X367738Y37342D01*
X367625Y37305D01*
X367590Y37283D01*
X367553Y37268D01*
X367457Y37199D01*
X367356Y37135D01*
X367328Y37105D01*
X367295Y37082D01*
X367219Y36990D01*
X367138Y36903D01*
X367118Y36868D01*
X367093Y36837D01*
X367042Y36729D01*
X366984Y36625D01*
X366974Y36585D01*
X366957Y36549D01*
X366935Y36432D01*
X366905Y36317D01*
X366901Y36257D01*
X366897Y36237D01*
X366899Y36216D01*
X366895Y36156D01*
X366895Y33694D01*
X366910Y33576D01*
X366917Y33457D01*
X366930Y33419D01*
X366935Y33378D01*
X366978Y33268D01*
X367015Y33155D01*
X367037Y33120D01*
X367052Y33083D01*
X367121Y32987D01*
X367185Y32886D01*
X367215Y32858D01*
X367238Y32825D01*
X367330Y32749D01*
X367417Y32668D01*
X367452Y32648D01*
X367483Y32623D01*
X367591Y32572D01*
X367695Y32514D01*
X367735Y32504D01*
X367771Y32487D01*
X367888Y32465D01*
X368003Y32435D01*
X368063Y32431D01*
X368083Y32427D01*
X368104Y32429D01*
X368164Y32425D01*
X369732Y32425D01*
X370625Y31532D01*
X370625Y19268D01*
X369732Y18375D01*
X358468Y18375D01*
X357575Y19268D01*
X357575Y31532D01*
X358468Y32425D01*
X360036Y32425D01*
X360154Y32440D01*
X360273Y32447D01*
X360311Y32460D01*
X360352Y32465D01*
X360462Y32508D01*
X360575Y32545D01*
X360610Y32567D01*
X360647Y32582D01*
X360743Y32651D01*
X360844Y32715D01*
X360872Y32745D01*
X360905Y32768D01*
X360981Y32860D01*
X361062Y32947D01*
X361082Y32982D01*
X361107Y33013D01*
X361158Y33121D01*
X361216Y33225D01*
X361226Y33265D01*
X361243Y33301D01*
X361265Y33418D01*
X361295Y33533D01*
X361299Y33593D01*
X361303Y33613D01*
X361301Y33634D01*
X361305Y33694D01*
X361305Y36156D01*
X361290Y36274D01*
X361283Y36393D01*
X361270Y36431D01*
X361265Y36472D01*
X361222Y36582D01*
X361185Y36695D01*
X361163Y36730D01*
X361148Y36767D01*
X361079Y36863D01*
X361015Y36964D01*
X360985Y36992D01*
X360962Y37025D01*
X360870Y37101D01*
X360783Y37182D01*
X360748Y37202D01*
X360717Y37227D01*
X360609Y37278D01*
X360505Y37336D01*
X360465Y37346D01*
X360429Y37363D01*
X360312Y37385D01*
X360197Y37415D01*
X360137Y37419D01*
X360117Y37423D01*
X360096Y37421D01*
X360036Y37425D01*
X358468Y37425D01*
X357575Y38318D01*
X357575Y50582D01*
X358468Y51475D01*
X360036Y51475D01*
X360154Y51490D01*
X360273Y51497D01*
X360311Y51510D01*
X360352Y51515D01*
X360462Y51558D01*
X360575Y51595D01*
X360610Y51617D01*
X360647Y51632D01*
X360743Y51701D01*
X360844Y51765D01*
X360872Y51795D01*
X360905Y51818D01*
X360981Y51910D01*
X361062Y51997D01*
X361082Y52032D01*
X361107Y52063D01*
X361158Y52171D01*
X361216Y52275D01*
X361226Y52315D01*
X361243Y52351D01*
X361265Y52468D01*
X361295Y52583D01*
X361299Y52643D01*
X361303Y52663D01*
X361301Y52684D01*
X361305Y52744D01*
X361305Y55206D01*
X361290Y55324D01*
X361283Y55443D01*
X361270Y55481D01*
X361265Y55522D01*
X361222Y55632D01*
X361185Y55745D01*
X361163Y55780D01*
X361148Y55817D01*
X361079Y55913D01*
X361015Y56014D01*
X360985Y56042D01*
X360962Y56075D01*
X360870Y56151D01*
X360783Y56232D01*
X360748Y56252D01*
X360717Y56277D01*
X360609Y56328D01*
X360505Y56386D01*
X360465Y56396D01*
X360429Y56413D01*
X360312Y56435D01*
X360197Y56465D01*
X360137Y56469D01*
X360117Y56473D01*
X360096Y56471D01*
X360036Y56475D01*
X358468Y56475D01*
X357575Y57368D01*
X357575Y69632D01*
X358468Y70525D01*
X360036Y70525D01*
X360154Y70540D01*
X360273Y70547D01*
X360311Y70560D01*
X360352Y70565D01*
X360462Y70608D01*
X360575Y70645D01*
X360610Y70667D01*
X360647Y70682D01*
X360743Y70751D01*
X360844Y70815D01*
X360872Y70845D01*
X360905Y70868D01*
X360981Y70960D01*
X361062Y71047D01*
X361082Y71082D01*
X361107Y71113D01*
X361158Y71221D01*
X361216Y71325D01*
X361226Y71365D01*
X361243Y71401D01*
X361265Y71518D01*
X361295Y71633D01*
X361299Y71693D01*
X361303Y71713D01*
X361301Y71734D01*
X361305Y71794D01*
X361305Y104327D01*
X361291Y104417D01*
G37*
%LPD*%
%LPC*%
G36*
X504372Y20065D02*
X504372Y20065D01*
X497362Y21943D01*
X491078Y25572D01*
X485947Y30703D01*
X482318Y36987D01*
X480440Y43997D01*
X480440Y51253D01*
X482318Y58263D01*
X485947Y64547D01*
X491078Y69678D01*
X497362Y73307D01*
X504372Y75185D01*
X511628Y75185D01*
X518638Y73307D01*
X524922Y69678D01*
X530053Y64547D01*
X533682Y58263D01*
X535560Y51253D01*
X535560Y43997D01*
X533682Y36987D01*
X530053Y30703D01*
X524922Y25572D01*
X518638Y21943D01*
X511628Y20065D01*
X504372Y20065D01*
G37*
%LPD*%
%LPC*%
G36*
X271787Y28701D02*
X271787Y28701D01*
X162051Y138437D01*
X162051Y159390D01*
X162048Y159420D01*
X162050Y159449D01*
X162028Y159577D01*
X162011Y159706D01*
X162001Y159733D01*
X161996Y159763D01*
X161942Y159881D01*
X161894Y160002D01*
X161877Y160026D01*
X161865Y160052D01*
X161784Y160154D01*
X161708Y160259D01*
X161685Y160278D01*
X161666Y160301D01*
X161563Y160379D01*
X161463Y160462D01*
X161436Y160474D01*
X161412Y160492D01*
X161268Y160563D01*
X158572Y161680D01*
X155330Y164922D01*
X153575Y169158D01*
X153575Y173742D01*
X155330Y177978D01*
X158572Y181220D01*
X161268Y182337D01*
X161293Y182352D01*
X161321Y182361D01*
X161431Y182430D01*
X161544Y182494D01*
X161565Y182515D01*
X161590Y182531D01*
X161679Y182626D01*
X161772Y182716D01*
X161788Y182741D01*
X161808Y182762D01*
X161871Y182876D01*
X161939Y182987D01*
X161947Y183015D01*
X161962Y183041D01*
X161994Y183167D01*
X162032Y183291D01*
X162034Y183320D01*
X162041Y183349D01*
X162051Y183510D01*
X162051Y191868D01*
X162039Y191966D01*
X162036Y192065D01*
X162019Y192124D01*
X162011Y192184D01*
X161975Y192276D01*
X161947Y192371D01*
X161917Y192423D01*
X161894Y192479D01*
X161836Y192559D01*
X161786Y192645D01*
X161720Y192720D01*
X161708Y192737D01*
X161698Y192744D01*
X161680Y192766D01*
X160601Y193844D01*
X159793Y195794D01*
X159793Y197906D01*
X160601Y199856D01*
X162094Y201349D01*
X164044Y202157D01*
X166156Y202157D01*
X168106Y201349D01*
X169599Y199856D01*
X170407Y197906D01*
X170407Y195794D01*
X169599Y193844D01*
X168520Y192766D01*
X168460Y192687D01*
X168392Y192615D01*
X168363Y192562D01*
X168326Y192514D01*
X168286Y192423D01*
X168238Y192337D01*
X168223Y192278D01*
X168199Y192222D01*
X168184Y192125D01*
X168159Y192029D01*
X168153Y191929D01*
X168149Y191908D01*
X168151Y191896D01*
X168149Y191868D01*
X168149Y183510D01*
X168152Y183480D01*
X168150Y183451D01*
X168172Y183323D01*
X168189Y183194D01*
X168199Y183167D01*
X168204Y183137D01*
X168258Y183019D01*
X168306Y182898D01*
X168323Y182874D01*
X168335Y182848D01*
X168416Y182746D01*
X168492Y182641D01*
X168515Y182622D01*
X168534Y182599D01*
X168637Y182521D01*
X168737Y182438D01*
X168764Y182426D01*
X168788Y182408D01*
X168932Y182337D01*
X171628Y181220D01*
X174870Y177978D01*
X176625Y173742D01*
X176625Y169158D01*
X174870Y164922D01*
X171628Y161680D01*
X168932Y160563D01*
X168907Y160548D01*
X168879Y160539D01*
X168769Y160470D01*
X168656Y160406D01*
X168635Y160385D01*
X168610Y160369D01*
X168521Y160274D01*
X168428Y160184D01*
X168412Y160159D01*
X168392Y160138D01*
X168329Y160024D01*
X168261Y159913D01*
X168253Y159885D01*
X168238Y159859D01*
X168206Y159733D01*
X168168Y159609D01*
X168166Y159580D01*
X168159Y159551D01*
X168149Y159390D01*
X168149Y141489D01*
X168161Y141390D01*
X168164Y141291D01*
X168181Y141233D01*
X168189Y141173D01*
X168225Y141081D01*
X168253Y140986D01*
X168283Y140934D01*
X168306Y140877D01*
X168364Y140797D01*
X168414Y140712D01*
X168480Y140637D01*
X168492Y140620D01*
X168502Y140612D01*
X168520Y140591D01*
X273941Y35170D01*
X274019Y35110D01*
X274091Y35042D01*
X274144Y35013D01*
X274192Y34976D01*
X274283Y34936D01*
X274370Y34888D01*
X274429Y34873D01*
X274484Y34849D01*
X274582Y34834D01*
X274678Y34809D01*
X274778Y34803D01*
X274798Y34799D01*
X274811Y34801D01*
X274839Y34799D01*
X322061Y34799D01*
X322160Y34811D01*
X322259Y34814D01*
X322317Y34831D01*
X322377Y34839D01*
X322469Y34875D01*
X322564Y34903D01*
X322616Y34933D01*
X322673Y34956D01*
X322753Y35014D01*
X322838Y35064D01*
X322914Y35130D01*
X322930Y35142D01*
X322938Y35152D01*
X322959Y35170D01*
X325047Y37259D01*
X325132Y37368D01*
X325221Y37475D01*
X325229Y37494D01*
X325242Y37510D01*
X325297Y37638D01*
X325356Y37763D01*
X325360Y37783D01*
X325368Y37802D01*
X325390Y37940D01*
X325416Y38076D01*
X325415Y38096D01*
X325418Y38116D01*
X325405Y38255D01*
X325396Y38393D01*
X325390Y38412D01*
X325388Y38432D01*
X325341Y38564D01*
X325298Y38695D01*
X325288Y38713D01*
X325281Y38732D01*
X325203Y38847D01*
X325128Y38964D01*
X325113Y38978D01*
X325102Y38995D01*
X324998Y39087D01*
X324897Y39182D01*
X324879Y39192D01*
X324864Y39205D01*
X324740Y39268D01*
X324618Y39336D01*
X324599Y39341D01*
X324580Y39350D01*
X324445Y39380D01*
X324310Y39415D01*
X324282Y39417D01*
X324270Y39420D01*
X324250Y39419D01*
X324149Y39425D01*
X323018Y39425D01*
X322125Y40318D01*
X322125Y48582D01*
X323018Y49475D01*
X336282Y49475D01*
X337175Y48582D01*
X337175Y48514D01*
X337190Y48396D01*
X337197Y48277D01*
X337210Y48239D01*
X337215Y48198D01*
X337258Y48088D01*
X337295Y47975D01*
X337317Y47940D01*
X337332Y47903D01*
X337401Y47807D01*
X337465Y47706D01*
X337495Y47678D01*
X337518Y47645D01*
X337610Y47569D01*
X337697Y47488D01*
X337732Y47468D01*
X337763Y47443D01*
X337871Y47392D01*
X337975Y47334D01*
X338015Y47324D01*
X338051Y47307D01*
X338168Y47285D01*
X338283Y47255D01*
X338343Y47251D01*
X338363Y47247D01*
X338384Y47249D01*
X338444Y47245D01*
X339306Y47245D01*
X339424Y47260D01*
X339543Y47267D01*
X339581Y47280D01*
X339622Y47285D01*
X339732Y47328D01*
X339845Y47365D01*
X339880Y47387D01*
X339917Y47402D01*
X340013Y47471D01*
X340114Y47535D01*
X340142Y47565D01*
X340175Y47588D01*
X340251Y47680D01*
X340332Y47767D01*
X340352Y47802D01*
X340377Y47833D01*
X340428Y47941D01*
X340486Y48045D01*
X340496Y48085D01*
X340513Y48121D01*
X340535Y48238D01*
X340565Y48353D01*
X340569Y48413D01*
X340573Y48433D01*
X340571Y48454D01*
X340575Y48514D01*
X340575Y50582D01*
X341468Y51475D01*
X352732Y51475D01*
X353625Y50582D01*
X353625Y38318D01*
X352732Y37425D01*
X341468Y37425D01*
X340575Y38318D01*
X340575Y40386D01*
X340560Y40504D01*
X340553Y40623D01*
X340540Y40661D01*
X340535Y40702D01*
X340492Y40812D01*
X340455Y40925D01*
X340433Y40960D01*
X340418Y40997D01*
X340349Y41093D01*
X340285Y41194D01*
X340255Y41222D01*
X340232Y41255D01*
X340140Y41331D01*
X340053Y41412D01*
X340018Y41432D01*
X339987Y41457D01*
X339879Y41508D01*
X339775Y41566D01*
X339735Y41576D01*
X339699Y41593D01*
X339582Y41615D01*
X339467Y41645D01*
X339407Y41649D01*
X339387Y41653D01*
X339366Y41651D01*
X339306Y41655D01*
X338444Y41655D01*
X338326Y41640D01*
X338207Y41633D01*
X338169Y41620D01*
X338128Y41615D01*
X338018Y41572D01*
X337905Y41535D01*
X337870Y41513D01*
X337833Y41498D01*
X337737Y41429D01*
X337636Y41365D01*
X337608Y41335D01*
X337575Y41312D01*
X337499Y41220D01*
X337418Y41133D01*
X337398Y41098D01*
X337373Y41067D01*
X337322Y40959D01*
X337264Y40855D01*
X337254Y40815D01*
X337237Y40779D01*
X337215Y40662D01*
X337185Y40547D01*
X337181Y40487D01*
X337177Y40467D01*
X337179Y40446D01*
X337175Y40386D01*
X337175Y40318D01*
X336282Y39425D01*
X333968Y39425D01*
X333850Y39410D01*
X333731Y39403D01*
X333693Y39390D01*
X333652Y39385D01*
X333542Y39342D01*
X333429Y39305D01*
X333394Y39283D01*
X333357Y39268D01*
X333261Y39199D01*
X333160Y39135D01*
X333132Y39105D01*
X333099Y39082D01*
X333023Y38990D01*
X332942Y38903D01*
X332922Y38868D01*
X332897Y38837D01*
X332846Y38729D01*
X332788Y38625D01*
X332778Y38585D01*
X332761Y38549D01*
X332739Y38432D01*
X332709Y38317D01*
X332705Y38257D01*
X332701Y38237D01*
X332703Y38216D01*
X332699Y38156D01*
X332699Y36287D01*
X330541Y34130D01*
X327270Y30859D01*
X325113Y28701D01*
X271787Y28701D01*
G37*
%LPD*%
%LPC*%
G36*
X484916Y300150D02*
X484916Y300150D01*
X484023Y301043D01*
X484023Y314936D01*
X484017Y314986D01*
X484019Y315035D01*
X483997Y315142D01*
X483983Y315252D01*
X483965Y315298D01*
X483955Y315347D01*
X483907Y315445D01*
X483866Y315547D01*
X483837Y315587D01*
X483815Y315632D01*
X483744Y315716D01*
X483680Y315805D01*
X483641Y315836D01*
X483609Y315874D01*
X483519Y315937D01*
X483435Y316008D01*
X483390Y316029D01*
X483349Y316057D01*
X483246Y316096D01*
X483147Y316143D01*
X483098Y316152D01*
X483052Y316170D01*
X482942Y316182D01*
X482835Y316203D01*
X482785Y316200D01*
X482736Y316205D01*
X482627Y316190D01*
X482517Y316183D01*
X482470Y316168D01*
X482421Y316161D01*
X482268Y316109D01*
X480481Y315368D01*
X478369Y315368D01*
X476419Y316176D01*
X474921Y317674D01*
X474917Y317680D01*
X474908Y317708D01*
X474839Y317818D01*
X474775Y317931D01*
X474754Y317952D01*
X474738Y317977D01*
X474643Y318066D01*
X474553Y318159D01*
X474528Y318175D01*
X474507Y318195D01*
X474393Y318258D01*
X474282Y318326D01*
X474254Y318334D01*
X474228Y318349D01*
X474102Y318381D01*
X473978Y318419D01*
X473949Y318421D01*
X473920Y318428D01*
X473759Y318438D01*
X469596Y318438D01*
X469567Y318435D01*
X469537Y318437D01*
X469409Y318415D01*
X469280Y318398D01*
X469253Y318388D01*
X469224Y318383D01*
X469105Y318329D01*
X468985Y318281D01*
X468961Y318264D01*
X468934Y318252D01*
X468833Y318171D01*
X468727Y318095D01*
X468708Y318072D01*
X468685Y318053D01*
X468607Y317950D01*
X468525Y317850D01*
X468512Y317823D01*
X468494Y317799D01*
X468423Y317655D01*
X466970Y314147D01*
X463728Y310905D01*
X459492Y309150D01*
X454908Y309150D01*
X450672Y310905D01*
X447430Y314147D01*
X445675Y318383D01*
X445675Y322967D01*
X447430Y327203D01*
X450672Y330445D01*
X454908Y332200D01*
X459492Y332200D01*
X463728Y330445D01*
X466970Y327203D01*
X468382Y323795D01*
X468396Y323770D01*
X468406Y323742D01*
X468475Y323632D01*
X468539Y323519D01*
X468560Y323498D01*
X468576Y323473D01*
X468670Y323384D01*
X468761Y323291D01*
X468786Y323275D01*
X468807Y323255D01*
X468921Y323192D01*
X469032Y323124D01*
X469060Y323116D01*
X469086Y323101D01*
X469212Y323069D01*
X469336Y323031D01*
X469365Y323029D01*
X469394Y323022D01*
X469554Y323012D01*
X473801Y323012D01*
X473830Y323015D01*
X473860Y323013D01*
X473988Y323035D01*
X474116Y323052D01*
X474144Y323062D01*
X474173Y323068D01*
X474292Y323121D01*
X474412Y323169D01*
X474436Y323186D01*
X474463Y323198D01*
X474564Y323279D01*
X474669Y323355D01*
X474688Y323378D01*
X474711Y323397D01*
X474789Y323500D01*
X474872Y323600D01*
X474885Y323627D01*
X474903Y323651D01*
X474909Y323664D01*
X476419Y325174D01*
X478369Y325982D01*
X480481Y325982D01*
X482268Y325241D01*
X482316Y325228D01*
X482361Y325207D01*
X482469Y325186D01*
X482575Y325157D01*
X482625Y325157D01*
X482674Y325147D01*
X482783Y325154D01*
X482893Y325152D01*
X482941Y325164D01*
X482991Y325167D01*
X483095Y325201D01*
X483202Y325226D01*
X483246Y325250D01*
X483293Y325265D01*
X483386Y325324D01*
X483483Y325375D01*
X483520Y325408D01*
X483562Y325435D01*
X483637Y325515D01*
X483719Y325589D01*
X483746Y325631D01*
X483780Y325667D01*
X483833Y325763D01*
X483893Y325855D01*
X483910Y325902D01*
X483934Y325945D01*
X483961Y326052D01*
X483997Y326156D01*
X484001Y326205D01*
X484013Y326253D01*
X484023Y326414D01*
X484023Y340407D01*
X484916Y341300D01*
X505484Y341300D01*
X506377Y340407D01*
X506377Y301043D01*
X505484Y300150D01*
X484916Y300150D01*
G37*
%LPD*%
%LPC*%
G36*
X164441Y433400D02*
X164441Y433400D01*
X163548Y434293D01*
X163548Y473657D01*
X164441Y474550D01*
X185009Y474550D01*
X185902Y473657D01*
X185902Y459764D01*
X185908Y459714D01*
X185906Y459665D01*
X185928Y459558D01*
X185942Y459448D01*
X185960Y459402D01*
X185970Y459353D01*
X186018Y459255D01*
X186059Y459153D01*
X186088Y459113D01*
X186110Y459068D01*
X186181Y458984D01*
X186245Y458895D01*
X186284Y458864D01*
X186316Y458826D01*
X186406Y458763D01*
X186490Y458692D01*
X186535Y458671D01*
X186576Y458643D01*
X186679Y458604D01*
X186778Y458557D01*
X186827Y458548D01*
X186873Y458530D01*
X186983Y458518D01*
X187090Y458497D01*
X187140Y458500D01*
X187189Y458495D01*
X187298Y458510D01*
X187408Y458517D01*
X187455Y458532D01*
X187504Y458539D01*
X187657Y458591D01*
X189444Y459332D01*
X191556Y459332D01*
X193506Y458524D01*
X195009Y457021D01*
X195066Y456932D01*
X195130Y456819D01*
X195150Y456798D01*
X195166Y456773D01*
X195261Y456684D01*
X195351Y456591D01*
X195376Y456575D01*
X195398Y456555D01*
X195511Y456492D01*
X195622Y456424D01*
X195650Y456416D01*
X195676Y456401D01*
X195802Y456369D01*
X195926Y456331D01*
X195956Y456329D01*
X195984Y456322D01*
X196145Y456312D01*
X200350Y456312D01*
X200379Y456315D01*
X200409Y456313D01*
X200537Y456335D01*
X200665Y456352D01*
X200693Y456362D01*
X200722Y456367D01*
X200840Y456421D01*
X200961Y456469D01*
X200985Y456486D01*
X201012Y456498D01*
X201113Y456579D01*
X201218Y456655D01*
X201237Y456678D01*
X201260Y456697D01*
X201338Y456800D01*
X201421Y456900D01*
X201434Y456927D01*
X201452Y456951D01*
X201522Y457095D01*
X202955Y460553D01*
X206197Y463795D01*
X210433Y465550D01*
X215017Y465550D01*
X219253Y463795D01*
X222495Y460553D01*
X224250Y456317D01*
X224250Y451733D01*
X222495Y447497D01*
X219253Y444255D01*
X215017Y442500D01*
X210433Y442500D01*
X206197Y444255D01*
X202955Y447497D01*
X201522Y450955D01*
X201508Y450980D01*
X201499Y451008D01*
X201429Y451118D01*
X201365Y451231D01*
X201344Y451252D01*
X201329Y451277D01*
X201234Y451366D01*
X201144Y451459D01*
X201119Y451475D01*
X201097Y451495D01*
X200983Y451558D01*
X200873Y451626D01*
X200844Y451634D01*
X200818Y451649D01*
X200693Y451681D01*
X200569Y451719D01*
X200539Y451721D01*
X200511Y451728D01*
X200350Y451738D01*
X196145Y451738D01*
X196115Y451735D01*
X196086Y451737D01*
X195958Y451715D01*
X195829Y451698D01*
X195802Y451688D01*
X195773Y451682D01*
X195654Y451629D01*
X195534Y451581D01*
X195510Y451564D01*
X195483Y451552D01*
X195381Y451471D01*
X195276Y451395D01*
X195257Y451372D01*
X195234Y451353D01*
X195156Y451250D01*
X195073Y451150D01*
X195061Y451123D01*
X195043Y451099D01*
X195008Y451029D01*
X193506Y449526D01*
X191556Y448718D01*
X189444Y448718D01*
X187657Y449459D01*
X187609Y449472D01*
X187564Y449493D01*
X187456Y449514D01*
X187350Y449543D01*
X187300Y449543D01*
X187251Y449553D01*
X187142Y449546D01*
X187032Y449548D01*
X186984Y449536D01*
X186934Y449533D01*
X186830Y449499D01*
X186723Y449474D01*
X186679Y449450D01*
X186632Y449435D01*
X186539Y449376D01*
X186442Y449325D01*
X186405Y449292D01*
X186363Y449265D01*
X186288Y449185D01*
X186206Y449111D01*
X186179Y449069D01*
X186145Y449033D01*
X186092Y448937D01*
X186032Y448845D01*
X186015Y448798D01*
X185991Y448755D01*
X185964Y448648D01*
X185928Y448544D01*
X185924Y448495D01*
X185912Y448447D01*
X185905Y448340D01*
X185904Y448336D01*
X185905Y448331D01*
X185902Y448286D01*
X185902Y434293D01*
X185009Y433400D01*
X164441Y433400D01*
G37*
%LPD*%
%LPC*%
G36*
X464433Y64675D02*
X464433Y64675D01*
X460197Y66430D01*
X456955Y69672D01*
X455200Y73908D01*
X455200Y78492D01*
X456633Y81950D01*
X456640Y81979D01*
X456654Y82005D01*
X456682Y82132D01*
X456717Y82257D01*
X456717Y82287D01*
X456723Y82315D01*
X456720Y82445D01*
X456722Y82575D01*
X456715Y82604D01*
X456714Y82633D01*
X456678Y82758D01*
X456647Y82884D01*
X456634Y82910D01*
X456625Y82939D01*
X456559Y83051D01*
X456499Y83165D01*
X456479Y83187D01*
X456464Y83213D01*
X456357Y83334D01*
X445388Y94303D01*
X445388Y104356D01*
X445373Y104474D01*
X445366Y104593D01*
X445353Y104631D01*
X445348Y104672D01*
X445305Y104782D01*
X445268Y104895D01*
X445246Y104930D01*
X445231Y104967D01*
X445162Y105063D01*
X445098Y105164D01*
X445068Y105192D01*
X445045Y105225D01*
X444953Y105301D01*
X444866Y105382D01*
X444831Y105402D01*
X444800Y105427D01*
X444692Y105478D01*
X444588Y105536D01*
X444548Y105546D01*
X444512Y105563D01*
X444395Y105585D01*
X444280Y105615D01*
X444220Y105619D01*
X444200Y105623D01*
X444179Y105621D01*
X444119Y105625D01*
X441543Y105625D01*
X440650Y106518D01*
X440650Y117782D01*
X441543Y118675D01*
X453807Y118675D01*
X454700Y117782D01*
X454700Y116722D01*
X454715Y116604D01*
X454722Y116485D01*
X454735Y116447D01*
X454740Y116406D01*
X454783Y116296D01*
X454820Y116183D01*
X454842Y116148D01*
X454857Y116111D01*
X454926Y116015D01*
X454990Y115914D01*
X455020Y115886D01*
X455043Y115853D01*
X455135Y115777D01*
X455222Y115696D01*
X455257Y115676D01*
X455288Y115651D01*
X455396Y115600D01*
X455500Y115542D01*
X455540Y115532D01*
X455576Y115515D01*
X455693Y115493D01*
X455808Y115463D01*
X455868Y115459D01*
X455888Y115455D01*
X455909Y115457D01*
X455969Y115453D01*
X458431Y115453D01*
X458549Y115468D01*
X458668Y115475D01*
X458706Y115488D01*
X458747Y115493D01*
X458857Y115536D01*
X458970Y115573D01*
X459005Y115595D01*
X459042Y115610D01*
X459138Y115679D01*
X459239Y115743D01*
X459267Y115773D01*
X459300Y115796D01*
X459376Y115888D01*
X459457Y115975D01*
X459477Y116010D01*
X459502Y116041D01*
X459553Y116149D01*
X459611Y116253D01*
X459621Y116293D01*
X459638Y116329D01*
X459660Y116446D01*
X459690Y116561D01*
X459694Y116621D01*
X459698Y116641D01*
X459696Y116662D01*
X459700Y116722D01*
X459700Y117782D01*
X460593Y118675D01*
X472857Y118675D01*
X473750Y117782D01*
X473750Y116019D01*
X473767Y115881D01*
X473780Y115742D01*
X473787Y115723D01*
X473790Y115703D01*
X473841Y115573D01*
X473888Y115443D01*
X473899Y115426D01*
X473907Y115408D01*
X473988Y115295D01*
X474066Y115180D01*
X474082Y115167D01*
X474093Y115150D01*
X474201Y115061D01*
X474305Y114970D01*
X474323Y114960D01*
X474338Y114947D01*
X474464Y114888D01*
X474588Y114825D01*
X474608Y114821D01*
X474626Y114812D01*
X474763Y114786D01*
X474898Y114755D01*
X474919Y114756D01*
X474938Y114752D01*
X475077Y114761D01*
X475216Y114765D01*
X475236Y114771D01*
X475256Y114772D01*
X475388Y114815D01*
X475522Y114853D01*
X475539Y114864D01*
X475558Y114870D01*
X475676Y114944D01*
X475796Y115015D01*
X475817Y115034D01*
X475827Y115040D01*
X475841Y115055D01*
X475917Y115121D01*
X476419Y115624D01*
X478369Y116432D01*
X480481Y116432D01*
X482431Y115624D01*
X483924Y114131D01*
X484732Y112181D01*
X484732Y110069D01*
X483924Y108119D01*
X482431Y106626D01*
X480481Y105818D01*
X478369Y105818D01*
X476419Y106626D01*
X475917Y107129D01*
X475807Y107214D01*
X475700Y107303D01*
X475681Y107311D01*
X475665Y107324D01*
X475537Y107379D01*
X475412Y107438D01*
X475392Y107442D01*
X475373Y107450D01*
X475235Y107472D01*
X475099Y107498D01*
X475079Y107497D01*
X475059Y107500D01*
X474920Y107487D01*
X474782Y107478D01*
X474763Y107472D01*
X474743Y107470D01*
X474612Y107423D01*
X474480Y107380D01*
X474462Y107369D01*
X474443Y107362D01*
X474329Y107284D01*
X474211Y107210D01*
X474197Y107195D01*
X474180Y107184D01*
X474088Y107080D01*
X473993Y106978D01*
X473983Y106961D01*
X473970Y106945D01*
X473907Y106822D01*
X473839Y106700D01*
X473834Y106680D01*
X473825Y106662D01*
X473805Y106574D01*
X472857Y105625D01*
X460593Y105625D01*
X459700Y106518D01*
X459700Y107578D01*
X459685Y107696D01*
X459678Y107815D01*
X459665Y107853D01*
X459660Y107894D01*
X459617Y108004D01*
X459580Y108117D01*
X459558Y108152D01*
X459543Y108189D01*
X459474Y108285D01*
X459410Y108386D01*
X459380Y108414D01*
X459357Y108447D01*
X459265Y108523D01*
X459178Y108604D01*
X459143Y108624D01*
X459112Y108649D01*
X459004Y108700D01*
X458900Y108758D01*
X458860Y108768D01*
X458824Y108785D01*
X458707Y108807D01*
X458592Y108837D01*
X458532Y108841D01*
X458512Y108845D01*
X458491Y108843D01*
X458431Y108847D01*
X455969Y108847D01*
X455851Y108832D01*
X455732Y108825D01*
X455694Y108812D01*
X455653Y108807D01*
X455543Y108764D01*
X455430Y108727D01*
X455395Y108705D01*
X455358Y108690D01*
X455262Y108621D01*
X455161Y108557D01*
X455133Y108527D01*
X455100Y108504D01*
X455024Y108412D01*
X454943Y108325D01*
X454923Y108290D01*
X454898Y108259D01*
X454847Y108151D01*
X454789Y108047D01*
X454779Y108007D01*
X454762Y107971D01*
X454740Y107854D01*
X454710Y107739D01*
X454706Y107679D01*
X454702Y107659D01*
X454704Y107638D01*
X454700Y107578D01*
X454700Y106518D01*
X453807Y105625D01*
X451231Y105625D01*
X451113Y105610D01*
X450994Y105603D01*
X450956Y105590D01*
X450915Y105585D01*
X450805Y105542D01*
X450692Y105505D01*
X450657Y105483D01*
X450620Y105468D01*
X450524Y105399D01*
X450423Y105335D01*
X450395Y105305D01*
X450362Y105282D01*
X450286Y105190D01*
X450205Y105103D01*
X450185Y105068D01*
X450160Y105037D01*
X450109Y104929D01*
X450051Y104825D01*
X450041Y104785D01*
X450024Y104749D01*
X450002Y104632D01*
X449972Y104517D01*
X449968Y104457D01*
X449964Y104437D01*
X449966Y104416D01*
X449962Y104356D01*
X449962Y96723D01*
X449974Y96625D01*
X449977Y96526D01*
X449994Y96468D01*
X450002Y96407D01*
X450038Y96315D01*
X450066Y96220D01*
X450096Y96168D01*
X450119Y96112D01*
X450177Y96032D01*
X450227Y95946D01*
X450293Y95871D01*
X450305Y95854D01*
X450315Y95847D01*
X450333Y95825D01*
X459591Y86568D01*
X459615Y86549D01*
X459634Y86527D01*
X459740Y86452D01*
X459843Y86373D01*
X459870Y86361D01*
X459894Y86344D01*
X460015Y86298D01*
X460135Y86246D01*
X460164Y86242D01*
X460191Y86231D01*
X460320Y86217D01*
X460449Y86196D01*
X460478Y86199D01*
X460507Y86196D01*
X460636Y86214D01*
X460765Y86226D01*
X460793Y86236D01*
X460822Y86240D01*
X460975Y86292D01*
X464433Y87725D01*
X469017Y87725D01*
X473253Y85970D01*
X476495Y82728D01*
X478250Y78492D01*
X478250Y73908D01*
X476495Y69672D01*
X473253Y66430D01*
X469017Y64675D01*
X464433Y64675D01*
G37*
%LPD*%
%LPC*%
G36*
X288266Y433400D02*
X288266Y433400D01*
X287373Y434293D01*
X287373Y448369D01*
X287367Y448418D01*
X287369Y448468D01*
X287347Y448575D01*
X287333Y448685D01*
X287315Y448731D01*
X287305Y448779D01*
X287257Y448878D01*
X287216Y448980D01*
X287187Y449020D01*
X287165Y449065D01*
X287094Y449149D01*
X287030Y449238D01*
X286991Y449269D01*
X286959Y449307D01*
X286869Y449370D01*
X286785Y449440D01*
X286740Y449462D01*
X286699Y449490D01*
X286596Y449529D01*
X286497Y449576D01*
X286448Y449585D01*
X286402Y449603D01*
X286292Y449615D01*
X286185Y449636D01*
X286135Y449633D01*
X286086Y449638D01*
X285977Y449623D01*
X285867Y449616D01*
X285820Y449601D01*
X285771Y449594D01*
X285618Y449542D01*
X283631Y448718D01*
X281519Y448718D01*
X279569Y449526D01*
X278076Y451019D01*
X277268Y452969D01*
X277268Y455081D01*
X278076Y457031D01*
X279569Y458524D01*
X281519Y459332D01*
X283631Y459332D01*
X285618Y458508D01*
X285666Y458495D01*
X285711Y458474D01*
X285819Y458453D01*
X285925Y458424D01*
X285975Y458424D01*
X286024Y458414D01*
X286133Y458421D01*
X286243Y458419D01*
X286291Y458431D01*
X286341Y458434D01*
X286445Y458468D01*
X286552Y458494D01*
X286596Y458517D01*
X286643Y458532D01*
X286736Y458591D01*
X286833Y458642D01*
X286870Y458676D01*
X286912Y458702D01*
X286987Y458782D01*
X287069Y458856D01*
X287096Y458898D01*
X287130Y458934D01*
X287183Y459030D01*
X287243Y459122D01*
X287260Y459169D01*
X287284Y459212D01*
X287311Y459319D01*
X287347Y459423D01*
X287351Y459472D01*
X287363Y459520D01*
X287373Y459681D01*
X287373Y473657D01*
X288266Y474550D01*
X308834Y474550D01*
X309727Y473657D01*
X309727Y434293D01*
X308834Y433400D01*
X288266Y433400D01*
G37*
%LPD*%
%LPC*%
G36*
X364266Y300150D02*
X364266Y300150D01*
X363373Y301043D01*
X363373Y340407D01*
X364266Y341300D01*
X384834Y341300D01*
X385727Y340407D01*
X385727Y326331D01*
X385733Y326282D01*
X385731Y326232D01*
X385753Y326125D01*
X385767Y326015D01*
X385785Y325969D01*
X385795Y325921D01*
X385843Y325822D01*
X385884Y325720D01*
X385913Y325680D01*
X385935Y325635D01*
X386006Y325551D01*
X386070Y325462D01*
X386109Y325431D01*
X386141Y325393D01*
X386231Y325330D01*
X386315Y325260D01*
X386360Y325238D01*
X386401Y325210D01*
X386504Y325171D01*
X386603Y325124D01*
X386652Y325115D01*
X386698Y325097D01*
X386808Y325085D01*
X386915Y325064D01*
X386965Y325067D01*
X387014Y325062D01*
X387123Y325077D01*
X387233Y325084D01*
X387280Y325099D01*
X387329Y325106D01*
X387482Y325158D01*
X389469Y325982D01*
X391581Y325982D01*
X393531Y325174D01*
X395024Y323681D01*
X395832Y321731D01*
X395832Y319619D01*
X395024Y317669D01*
X393531Y316176D01*
X391581Y315368D01*
X389469Y315368D01*
X387482Y316192D01*
X387434Y316205D01*
X387389Y316226D01*
X387281Y316247D01*
X387175Y316276D01*
X387125Y316276D01*
X387076Y316286D01*
X386967Y316279D01*
X386857Y316281D01*
X386809Y316269D01*
X386759Y316266D01*
X386655Y316232D01*
X386548Y316206D01*
X386504Y316183D01*
X386457Y316168D01*
X386364Y316109D01*
X386267Y316058D01*
X386230Y316024D01*
X386188Y315998D01*
X386113Y315918D01*
X386031Y315844D01*
X386004Y315802D01*
X385970Y315766D01*
X385917Y315670D01*
X385857Y315578D01*
X385840Y315531D01*
X385816Y315488D01*
X385789Y315381D01*
X385753Y315277D01*
X385749Y315228D01*
X385737Y315180D01*
X385727Y315019D01*
X385727Y301043D01*
X384834Y300150D01*
X364266Y300150D01*
G37*
%LPD*%
%LPC*%
G36*
X305018Y211525D02*
X305018Y211525D01*
X304125Y212418D01*
X304125Y223682D01*
X305018Y224575D01*
X306578Y224575D01*
X306696Y224590D01*
X306815Y224597D01*
X306853Y224610D01*
X306894Y224615D01*
X307004Y224658D01*
X307117Y224695D01*
X307152Y224717D01*
X307189Y224732D01*
X307285Y224801D01*
X307386Y224865D01*
X307414Y224895D01*
X307447Y224918D01*
X307523Y225010D01*
X307604Y225097D01*
X307624Y225132D01*
X307649Y225163D01*
X307700Y225271D01*
X307758Y225375D01*
X307768Y225415D01*
X307785Y225451D01*
X307807Y225568D01*
X307837Y225683D01*
X307841Y225743D01*
X307845Y225763D01*
X307843Y225784D01*
X307847Y225844D01*
X307847Y226793D01*
X311822Y230767D01*
X311882Y230846D01*
X311950Y230918D01*
X311979Y230971D01*
X312016Y231019D01*
X312056Y231110D01*
X312104Y231196D01*
X312119Y231255D01*
X312143Y231310D01*
X312158Y231408D01*
X312183Y231504D01*
X312189Y231604D01*
X312193Y231625D01*
X312191Y231637D01*
X312193Y231665D01*
X312193Y232831D01*
X313001Y234781D01*
X314494Y236274D01*
X316444Y237082D01*
X318556Y237082D01*
X320506Y236274D01*
X321999Y234781D01*
X322807Y232831D01*
X322807Y230719D01*
X321999Y228769D01*
X320506Y227276D01*
X318556Y226468D01*
X318452Y226468D01*
X318314Y226451D01*
X318176Y226438D01*
X318157Y226431D01*
X318137Y226428D01*
X318008Y226377D01*
X317877Y226330D01*
X317860Y226319D01*
X317841Y226311D01*
X317729Y226230D01*
X317613Y226152D01*
X317600Y226136D01*
X317584Y226125D01*
X317495Y226017D01*
X317403Y225913D01*
X317394Y225895D01*
X317381Y225880D01*
X317322Y225754D01*
X317258Y225630D01*
X317254Y225610D01*
X317245Y225592D01*
X317219Y225455D01*
X317189Y225320D01*
X317189Y225299D01*
X317186Y225280D01*
X317194Y225141D01*
X317198Y225002D01*
X317204Y224982D01*
X317205Y224962D01*
X317248Y224830D01*
X317287Y224696D01*
X317297Y224679D01*
X317303Y224660D01*
X317378Y224542D01*
X317448Y224422D01*
X317467Y224401D01*
X317474Y224391D01*
X317488Y224377D01*
X317555Y224302D01*
X318175Y223682D01*
X318175Y212418D01*
X317282Y211525D01*
X305018Y211525D01*
G37*
%LPD*%
%LPC*%
G36*
X472768Y139025D02*
X472768Y139025D01*
X471875Y139918D01*
X471875Y152182D01*
X472768Y153075D01*
X481665Y153075D01*
X481763Y153087D01*
X481862Y153090D01*
X481920Y153107D01*
X481981Y153115D01*
X482073Y153151D01*
X482168Y153179D01*
X482220Y153209D01*
X482276Y153232D01*
X482356Y153290D01*
X482442Y153340D01*
X482517Y153406D01*
X482534Y153418D01*
X482541Y153428D01*
X482563Y153446D01*
X486978Y157862D01*
X489655Y157862D01*
X489685Y157865D01*
X489714Y157863D01*
X489842Y157885D01*
X489971Y157902D01*
X489998Y157912D01*
X490027Y157918D01*
X490146Y157971D01*
X490266Y158019D01*
X490290Y158036D01*
X490317Y158048D01*
X490419Y158129D01*
X490524Y158205D01*
X490543Y158228D01*
X490566Y158247D01*
X490644Y158350D01*
X490727Y158450D01*
X490739Y158477D01*
X490757Y158501D01*
X490792Y158571D01*
X492294Y160074D01*
X494244Y160882D01*
X496356Y160882D01*
X498306Y160074D01*
X499799Y158581D01*
X500607Y156631D01*
X500607Y154519D01*
X499799Y152569D01*
X498306Y151076D01*
X496356Y150268D01*
X494244Y150268D01*
X492294Y151076D01*
X490791Y152579D01*
X490734Y152668D01*
X490670Y152781D01*
X490650Y152802D01*
X490634Y152827D01*
X490539Y152916D01*
X490449Y153009D01*
X490424Y153025D01*
X490402Y153045D01*
X490289Y153108D01*
X490178Y153176D01*
X490150Y153184D01*
X490124Y153199D01*
X489998Y153231D01*
X489874Y153269D01*
X489844Y153271D01*
X489816Y153278D01*
X489655Y153288D01*
X489398Y153288D01*
X489300Y153276D01*
X489201Y153273D01*
X489143Y153256D01*
X489082Y153248D01*
X488990Y153212D01*
X488895Y153184D01*
X488843Y153154D01*
X488787Y153131D01*
X488707Y153073D01*
X488621Y153023D01*
X488546Y152957D01*
X488529Y152945D01*
X488522Y152935D01*
X488500Y152917D01*
X485296Y149713D01*
X485236Y149634D01*
X485168Y149562D01*
X485139Y149509D01*
X485102Y149461D01*
X485062Y149370D01*
X485014Y149284D01*
X484999Y149225D01*
X484975Y149169D01*
X484960Y149071D01*
X484935Y148976D01*
X484929Y148876D01*
X484925Y148855D01*
X484927Y148843D01*
X484925Y148815D01*
X484925Y139918D01*
X484032Y139025D01*
X472768Y139025D01*
G37*
%LPD*%
%LPC*%
G36*
X220818Y183475D02*
X220818Y183475D01*
X219925Y184368D01*
X219925Y196632D01*
X220818Y197525D01*
X223706Y197525D01*
X223844Y197542D01*
X223983Y197555D01*
X224002Y197562D01*
X224022Y197565D01*
X224151Y197616D01*
X224282Y197663D01*
X224299Y197674D01*
X224317Y197682D01*
X224430Y197763D01*
X224545Y197841D01*
X224558Y197857D01*
X224575Y197868D01*
X224664Y197976D01*
X224755Y198080D01*
X224765Y198098D01*
X224778Y198113D01*
X224837Y198239D01*
X224900Y198363D01*
X224904Y198383D01*
X224913Y198401D01*
X224939Y198538D01*
X224970Y198673D01*
X224969Y198694D01*
X224973Y198713D01*
X224964Y198852D01*
X224960Y198991D01*
X224954Y199011D01*
X224953Y199031D01*
X224910Y199163D01*
X224872Y199297D01*
X224861Y199314D01*
X224855Y199333D01*
X224781Y199451D01*
X224710Y199571D01*
X224691Y199592D01*
X224685Y199602D01*
X224670Y199616D01*
X224604Y199692D01*
X224101Y200194D01*
X223293Y202144D01*
X223293Y204256D01*
X224101Y206206D01*
X225594Y207699D01*
X227544Y208507D01*
X229656Y208507D01*
X231606Y207699D01*
X233099Y206206D01*
X233907Y204256D01*
X233907Y202144D01*
X233099Y200194D01*
X232274Y199370D01*
X232214Y199291D01*
X232146Y199219D01*
X232117Y199166D01*
X232080Y199118D01*
X232040Y199027D01*
X231992Y198941D01*
X231977Y198882D01*
X231953Y198826D01*
X231938Y198729D01*
X231913Y198633D01*
X231907Y198533D01*
X231903Y198512D01*
X231905Y198500D01*
X231903Y198472D01*
X231903Y198229D01*
X231915Y198131D01*
X231918Y198032D01*
X231935Y197974D01*
X231943Y197914D01*
X231979Y197822D01*
X232007Y197727D01*
X232037Y197674D01*
X232060Y197618D01*
X232118Y197538D01*
X232168Y197453D01*
X232234Y197377D01*
X232246Y197361D01*
X232256Y197353D01*
X232275Y197332D01*
X232975Y196632D01*
X232975Y184368D01*
X232082Y183475D01*
X220818Y183475D01*
G37*
%LPD*%
%LPC*%
G36*
X341468Y18375D02*
X341468Y18375D01*
X340575Y19268D01*
X340575Y19424D01*
X340569Y19473D01*
X340571Y19523D01*
X340549Y19630D01*
X340535Y19739D01*
X340517Y19786D01*
X340507Y19834D01*
X340459Y19933D01*
X340418Y20035D01*
X340389Y20075D01*
X340367Y20120D01*
X340296Y20203D01*
X340232Y20292D01*
X340193Y20324D01*
X340161Y20362D01*
X340071Y20425D01*
X339987Y20495D01*
X339942Y20516D01*
X339901Y20545D01*
X339798Y20584D01*
X339699Y20631D01*
X339650Y20640D01*
X339604Y20658D01*
X339494Y20670D01*
X339387Y20690D01*
X339337Y20687D01*
X339288Y20693D01*
X339179Y20678D01*
X339069Y20671D01*
X339022Y20655D01*
X338973Y20648D01*
X338820Y20596D01*
X337606Y20093D01*
X335494Y20093D01*
X333544Y20901D01*
X332051Y22394D01*
X331243Y24344D01*
X331243Y26456D01*
X332051Y28406D01*
X333544Y29899D01*
X335494Y30707D01*
X337606Y30707D01*
X338820Y30204D01*
X338868Y30190D01*
X338913Y30169D01*
X339021Y30149D01*
X339127Y30120D01*
X339177Y30119D01*
X339226Y30110D01*
X339335Y30116D01*
X339445Y30115D01*
X339493Y30126D01*
X339543Y30129D01*
X339647Y30163D01*
X339754Y30189D01*
X339798Y30212D01*
X339845Y30227D01*
X339938Y30286D01*
X340035Y30337D01*
X340072Y30371D01*
X340114Y30397D01*
X340189Y30478D01*
X340271Y30551D01*
X340298Y30593D01*
X340332Y30629D01*
X340385Y30725D01*
X340445Y30817D01*
X340462Y30864D01*
X340486Y30908D01*
X340513Y31014D01*
X340549Y31118D01*
X340553Y31167D01*
X340565Y31216D01*
X340575Y31376D01*
X340575Y31532D01*
X341468Y32425D01*
X352732Y32425D01*
X353625Y31532D01*
X353625Y19268D01*
X352732Y18375D01*
X341468Y18375D01*
G37*
%LPD*%
%LPC*%
G36*
X548739Y323264D02*
X548739Y323264D01*
X548739Y340792D01*
X556054Y340792D01*
X556428Y340637D01*
X556714Y340351D01*
X556869Y339977D01*
X556869Y323264D01*
X548739Y323264D01*
G37*
%LPD*%
%LPC*%
G36*
X428089Y323264D02*
X428089Y323264D01*
X428089Y340792D01*
X435404Y340792D01*
X435778Y340637D01*
X436064Y340351D01*
X436219Y339977D01*
X436219Y323264D01*
X428089Y323264D01*
G37*
%LPD*%
%LPC*%
G36*
X428089Y300658D02*
X428089Y300658D01*
X428089Y318186D01*
X436219Y318186D01*
X436219Y301473D01*
X436064Y301099D01*
X435778Y300813D01*
X435404Y300658D01*
X428089Y300658D01*
G37*
%LPD*%
%LPC*%
G36*
X548739Y300658D02*
X548739Y300658D01*
X548739Y318186D01*
X556869Y318186D01*
X556869Y301473D01*
X556714Y301099D01*
X556428Y300813D01*
X556054Y300658D01*
X548739Y300658D01*
G37*
%LPD*%
%LPC*%
G36*
X535531Y323264D02*
X535531Y323264D01*
X535531Y339977D01*
X535686Y340351D01*
X535972Y340637D01*
X536346Y340792D01*
X543661Y340792D01*
X543661Y323264D01*
X535531Y323264D01*
G37*
%LPD*%
%LPC*%
G36*
X414881Y323264D02*
X414881Y323264D01*
X414881Y339977D01*
X415036Y340351D01*
X415322Y340637D01*
X415696Y340792D01*
X423011Y340792D01*
X423011Y323264D01*
X414881Y323264D01*
G37*
%LPD*%
%LPC*%
G36*
X536346Y300658D02*
X536346Y300658D01*
X535972Y300813D01*
X535686Y301099D01*
X535531Y301473D01*
X535531Y318186D01*
X543661Y318186D01*
X543661Y300658D01*
X536346Y300658D01*
G37*
%LPD*%
%LPC*%
G36*
X415696Y300658D02*
X415696Y300658D01*
X415322Y300813D01*
X415036Y301099D01*
X414881Y301473D01*
X414881Y318186D01*
X423011Y318186D01*
X423011Y300658D01*
X415696Y300658D01*
G37*
%LPD*%
%LPC*%
G36*
X437514Y281364D02*
X437514Y281364D01*
X437514Y288842D01*
X451177Y288842D01*
X451551Y288687D01*
X451837Y288401D01*
X451992Y288027D01*
X451992Y281364D01*
X437514Y281364D01*
G37*
%LPD*%
%LPC*%
G36*
X417958Y281364D02*
X417958Y281364D01*
X417958Y288027D01*
X418113Y288401D01*
X418399Y288687D01*
X418773Y288842D01*
X432436Y288842D01*
X432436Y281364D01*
X417958Y281364D01*
G37*
%LPD*%
%LPC*%
G36*
X437514Y268808D02*
X437514Y268808D01*
X437514Y276286D01*
X451992Y276286D01*
X451992Y269623D01*
X451837Y269249D01*
X451551Y268963D01*
X451177Y268808D01*
X437514Y268808D01*
G37*
%LPD*%
%LPC*%
G36*
X418773Y268808D02*
X418773Y268808D01*
X418399Y268963D01*
X418113Y269249D01*
X417958Y269623D01*
X417958Y276286D01*
X432436Y276286D01*
X432436Y268808D01*
X418773Y268808D01*
G37*
%LPD*%
%LPC*%
G36*
X481964Y278764D02*
X481964Y278764D01*
X481964Y286977D01*
X482005Y286970D01*
X483654Y286435D01*
X485199Y285647D01*
X486602Y284628D01*
X487828Y283402D01*
X488847Y281999D01*
X489635Y280454D01*
X490170Y278805D01*
X490177Y278764D01*
X481964Y278764D01*
G37*
%LPD*%
%LPC*%
G36*
X481964Y273686D02*
X481964Y273686D01*
X490177Y273686D01*
X490170Y273645D01*
X489635Y271996D01*
X488847Y270451D01*
X487828Y269048D01*
X486602Y267822D01*
X485199Y266803D01*
X483654Y266015D01*
X482005Y265480D01*
X481964Y265473D01*
X481964Y273686D01*
G37*
%LPD*%
%LPC*%
G36*
X468673Y278764D02*
X468673Y278764D01*
X468680Y278805D01*
X469215Y280454D01*
X470003Y281999D01*
X471022Y283402D01*
X472248Y284628D01*
X473651Y285647D01*
X475196Y286435D01*
X476845Y286970D01*
X476886Y286977D01*
X476886Y278764D01*
X468673Y278764D01*
G37*
%LPD*%
%LPC*%
G36*
X476845Y265480D02*
X476845Y265480D01*
X475196Y266015D01*
X473651Y266803D01*
X472248Y267822D01*
X471022Y269048D01*
X470003Y270451D01*
X469215Y271996D01*
X468680Y273645D01*
X468673Y273686D01*
X476886Y273686D01*
X476886Y265473D01*
X476845Y265480D01*
G37*
%LPD*%
%LPC*%
G36*
X177164Y50164D02*
X177164Y50164D01*
X177164Y56262D01*
X178202Y56262D01*
X183262Y51202D01*
X183262Y50164D01*
X177164Y50164D01*
G37*
%LPD*%
%LPC*%
G36*
X202564Y50164D02*
X202564Y50164D01*
X202564Y56262D01*
X203602Y56262D01*
X208662Y51202D01*
X208662Y50164D01*
X202564Y50164D01*
G37*
%LPD*%
%LPC*%
G36*
X191388Y50164D02*
X191388Y50164D01*
X191388Y51202D01*
X196448Y56262D01*
X197486Y56262D01*
X197486Y50164D01*
X191388Y50164D01*
G37*
%LPD*%
%LPC*%
G36*
X165988Y50164D02*
X165988Y50164D01*
X165988Y51202D01*
X171048Y56262D01*
X172086Y56262D01*
X172086Y50164D01*
X165988Y50164D01*
G37*
%LPD*%
%LPC*%
G36*
X202564Y38988D02*
X202564Y38988D01*
X202564Y45086D01*
X208662Y45086D01*
X208662Y44048D01*
X203602Y38988D01*
X202564Y38988D01*
G37*
%LPD*%
%LPC*%
G36*
X177164Y38988D02*
X177164Y38988D01*
X177164Y45086D01*
X183262Y45086D01*
X183262Y44048D01*
X178202Y38988D01*
X177164Y38988D01*
G37*
%LPD*%
%LPC*%
G36*
X171048Y38988D02*
X171048Y38988D01*
X165988Y44048D01*
X165988Y45086D01*
X172086Y45086D01*
X172086Y38988D01*
X171048Y38988D01*
G37*
%LPD*%
%LPC*%
G36*
X196448Y38988D02*
X196448Y38988D01*
X191388Y44048D01*
X191388Y45086D01*
X197486Y45086D01*
X197486Y38988D01*
X196448Y38988D01*
G37*
%LPD*%
%LPC*%
G36*
X411049Y97749D02*
X411049Y97749D01*
X411049Y101267D01*
X414252Y101267D01*
X414626Y101112D01*
X414912Y100826D01*
X415067Y100452D01*
X415067Y97749D01*
X411049Y97749D01*
G37*
%LPD*%
%LPC*%
G36*
X480899Y167599D02*
X480899Y167599D01*
X480899Y171617D01*
X483602Y171617D01*
X483976Y171462D01*
X484262Y171176D01*
X484417Y170802D01*
X484417Y167599D01*
X480899Y167599D01*
G37*
%LPD*%
%LPC*%
G36*
X228949Y173949D02*
X228949Y173949D01*
X228949Y177967D01*
X231652Y177967D01*
X232026Y177812D01*
X232312Y177526D01*
X232467Y177152D01*
X232467Y173949D01*
X228949Y173949D01*
G37*
%LPD*%
%LPC*%
G36*
X411049Y78699D02*
X411049Y78699D01*
X411049Y82217D01*
X414252Y82217D01*
X414626Y82062D01*
X414912Y81776D01*
X415067Y81402D01*
X415067Y78699D01*
X411049Y78699D01*
G37*
%LPD*%
%LPC*%
G36*
X411049Y116799D02*
X411049Y116799D01*
X411049Y120817D01*
X413752Y120817D01*
X414126Y120662D01*
X414412Y120376D01*
X414567Y120002D01*
X414567Y116799D01*
X411049Y116799D01*
G37*
%LPD*%
%LPC*%
G36*
X431124Y114649D02*
X431124Y114649D01*
X431124Y118167D01*
X434327Y118167D01*
X434701Y118012D01*
X434987Y117726D01*
X435142Y117352D01*
X435142Y114649D01*
X431124Y114649D01*
G37*
%LPD*%
%LPC*%
G36*
X349599Y65999D02*
X349599Y65999D01*
X349599Y70017D01*
X352302Y70017D01*
X352676Y69862D01*
X352962Y69576D01*
X353117Y69202D01*
X353117Y65999D01*
X349599Y65999D01*
G37*
%LPD*%
%LPC*%
G36*
X309449Y65999D02*
X309449Y65999D01*
X309449Y69517D01*
X312652Y69517D01*
X313026Y69362D01*
X313312Y69076D01*
X313467Y68702D01*
X313467Y65999D01*
X309449Y65999D01*
G37*
%LPD*%
%LPC*%
G36*
X294599Y220549D02*
X294599Y220549D01*
X294599Y224567D01*
X297302Y224567D01*
X297676Y224412D01*
X297962Y224126D01*
X298117Y223752D01*
X298117Y220549D01*
X294599Y220549D01*
G37*
%LPD*%
%LPC*%
G36*
X422108Y114649D02*
X422108Y114649D01*
X422108Y117352D01*
X422263Y117726D01*
X422549Y118012D01*
X422923Y118167D01*
X426126Y118167D01*
X426126Y114649D01*
X422108Y114649D01*
G37*
%LPD*%
%LPC*%
G36*
X294599Y215551D02*
X294599Y215551D01*
X298117Y215551D01*
X298117Y212348D01*
X297962Y211974D01*
X297676Y211688D01*
X297302Y211533D01*
X294599Y211533D01*
X294599Y215551D01*
G37*
%LPD*%
%LPC*%
G36*
X262849Y152051D02*
X262849Y152051D01*
X266367Y152051D01*
X266367Y148848D01*
X266212Y148474D01*
X265926Y148188D01*
X265552Y148033D01*
X262849Y148033D01*
X262849Y152051D01*
G37*
%LPD*%
%LPC*%
G36*
X402033Y78699D02*
X402033Y78699D01*
X402033Y81402D01*
X402188Y81776D01*
X402474Y82062D01*
X402848Y82217D01*
X406051Y82217D01*
X406051Y78699D01*
X402033Y78699D01*
G37*
%LPD*%
%LPC*%
G36*
X480899Y158583D02*
X480899Y158583D01*
X480899Y162601D01*
X484417Y162601D01*
X484417Y159398D01*
X484262Y159024D01*
X483976Y158738D01*
X483602Y158583D01*
X480899Y158583D01*
G37*
%LPD*%
%LPC*%
G36*
X411049Y107783D02*
X411049Y107783D01*
X411049Y111801D01*
X414567Y111801D01*
X414567Y108598D01*
X414412Y108224D01*
X414126Y107938D01*
X413752Y107783D01*
X411049Y107783D01*
G37*
%LPD*%
%LPC*%
G36*
X402033Y97749D02*
X402033Y97749D01*
X402033Y100452D01*
X402188Y100826D01*
X402474Y101112D01*
X402848Y101267D01*
X406051Y101267D01*
X406051Y97749D01*
X402033Y97749D01*
G37*
%LPD*%
%LPC*%
G36*
X300433Y65999D02*
X300433Y65999D01*
X300433Y68702D01*
X300588Y69076D01*
X300874Y69362D01*
X301248Y69517D01*
X304451Y69517D01*
X304451Y65999D01*
X300433Y65999D01*
G37*
%LPD*%
%LPC*%
G36*
X349599Y56983D02*
X349599Y56983D01*
X349599Y61001D01*
X353117Y61001D01*
X353117Y57798D01*
X352962Y57424D01*
X352676Y57138D01*
X352302Y56983D01*
X349599Y56983D01*
G37*
%LPD*%
%LPC*%
G36*
X228949Y164933D02*
X228949Y164933D01*
X228949Y168951D01*
X232467Y168951D01*
X232467Y165748D01*
X232312Y165374D01*
X232026Y165088D01*
X231652Y164933D01*
X228949Y164933D01*
G37*
%LPD*%
%LPC*%
G36*
X220433Y173949D02*
X220433Y173949D01*
X220433Y177152D01*
X220588Y177526D01*
X220874Y177812D01*
X221248Y177967D01*
X223951Y177967D01*
X223951Y173949D01*
X220433Y173949D01*
G37*
%LPD*%
%LPC*%
G36*
X286083Y220549D02*
X286083Y220549D01*
X286083Y223752D01*
X286238Y224126D01*
X286524Y224412D01*
X286898Y224567D01*
X289601Y224567D01*
X289601Y220549D01*
X286083Y220549D01*
G37*
%LPD*%
%LPC*%
G36*
X341083Y65999D02*
X341083Y65999D01*
X341083Y69202D01*
X341238Y69576D01*
X341524Y69862D01*
X341898Y70017D01*
X344601Y70017D01*
X344601Y65999D01*
X341083Y65999D01*
G37*
%LPD*%
%LPC*%
G36*
X402533Y116799D02*
X402533Y116799D01*
X402533Y120002D01*
X402688Y120376D01*
X402974Y120662D01*
X403348Y120817D01*
X406051Y120817D01*
X406051Y116799D01*
X402533Y116799D01*
G37*
%LPD*%
%LPC*%
G36*
X472383Y167599D02*
X472383Y167599D01*
X472383Y170802D01*
X472538Y171176D01*
X472824Y171462D01*
X473198Y171617D01*
X475901Y171617D01*
X475901Y167599D01*
X472383Y167599D01*
G37*
%LPD*%
%LPC*%
G36*
X431124Y106133D02*
X431124Y106133D01*
X431124Y109651D01*
X435142Y109651D01*
X435142Y106948D01*
X434987Y106574D01*
X434701Y106288D01*
X434327Y106133D01*
X431124Y106133D01*
G37*
%LPD*%
%LPC*%
G36*
X411049Y89233D02*
X411049Y89233D01*
X411049Y92751D01*
X415067Y92751D01*
X415067Y90048D01*
X414912Y89674D01*
X414626Y89388D01*
X414252Y89233D01*
X411049Y89233D01*
G37*
%LPD*%
%LPC*%
G36*
X411049Y70183D02*
X411049Y70183D01*
X411049Y73701D01*
X415067Y73701D01*
X415067Y70998D01*
X414912Y70624D01*
X414626Y70338D01*
X414252Y70183D01*
X411049Y70183D01*
G37*
%LPD*%
%LPC*%
G36*
X309449Y57483D02*
X309449Y57483D01*
X309449Y61001D01*
X313467Y61001D01*
X313467Y58298D01*
X313312Y57924D01*
X313026Y57638D01*
X312652Y57483D01*
X309449Y57483D01*
G37*
%LPD*%
%LPC*%
G36*
X402848Y70183D02*
X402848Y70183D01*
X402474Y70338D01*
X402188Y70624D01*
X402033Y70998D01*
X402033Y73701D01*
X406051Y73701D01*
X406051Y70183D01*
X402848Y70183D01*
G37*
%LPD*%
%LPC*%
G36*
X341898Y56983D02*
X341898Y56983D01*
X341524Y57138D01*
X341238Y57424D01*
X341083Y57798D01*
X341083Y61001D01*
X344601Y61001D01*
X344601Y56983D01*
X341898Y56983D01*
G37*
%LPD*%
%LPC*%
G36*
X473198Y158583D02*
X473198Y158583D01*
X472824Y158738D01*
X472538Y159024D01*
X472383Y159398D01*
X472383Y162601D01*
X475901Y162601D01*
X475901Y158583D01*
X473198Y158583D01*
G37*
%LPD*%
%LPC*%
G36*
X221248Y164933D02*
X221248Y164933D01*
X220874Y165088D01*
X220588Y165374D01*
X220433Y165748D01*
X220433Y168951D01*
X223951Y168951D01*
X223951Y164933D01*
X221248Y164933D01*
G37*
%LPD*%
%LPC*%
G36*
X403348Y107783D02*
X403348Y107783D01*
X402974Y107938D01*
X402688Y108224D01*
X402533Y108598D01*
X402533Y111801D01*
X406051Y111801D01*
X406051Y107783D01*
X403348Y107783D01*
G37*
%LPD*%
%LPC*%
G36*
X402848Y89233D02*
X402848Y89233D01*
X402474Y89388D01*
X402188Y89674D01*
X402033Y90048D01*
X402033Y92751D01*
X406051Y92751D01*
X406051Y89233D01*
X402848Y89233D01*
G37*
%LPD*%
%LPC*%
G36*
X301248Y57483D02*
X301248Y57483D01*
X300874Y57638D01*
X300588Y57924D01*
X300433Y58298D01*
X300433Y61001D01*
X304451Y61001D01*
X304451Y57483D01*
X301248Y57483D01*
G37*
%LPD*%
%LPC*%
G36*
X255148Y148033D02*
X255148Y148033D01*
X254774Y148188D01*
X254488Y148474D01*
X254333Y148848D01*
X254333Y152051D01*
X257851Y152051D01*
X257851Y148033D01*
X255148Y148033D01*
G37*
%LPD*%
%LPC*%
G36*
X286898Y211533D02*
X286898Y211533D01*
X286524Y211688D01*
X286238Y211974D01*
X286083Y212348D01*
X286083Y215551D01*
X289601Y215551D01*
X289601Y211533D01*
X286898Y211533D01*
G37*
%LPD*%
%LPC*%
G36*
X422923Y106133D02*
X422923Y106133D01*
X422549Y106288D01*
X422263Y106574D01*
X422108Y106948D01*
X422108Y109651D01*
X426126Y109651D01*
X426126Y106133D01*
X422923Y106133D01*
G37*
%LPD*%
%LPC*%
G36*
X200024Y47624D02*
X200024Y47624D01*
X200024Y47626D01*
X200026Y47626D01*
X200026Y47624D01*
X200024Y47624D01*
G37*
%LPD*%
%LPC*%
G36*
X174624Y47624D02*
X174624Y47624D01*
X174624Y47626D01*
X174626Y47626D01*
X174626Y47624D01*
X174624Y47624D01*
G37*
%LPD*%
%LPC*%
G36*
X479424Y276224D02*
X479424Y276224D01*
X479424Y276226D01*
X479426Y276226D01*
X479426Y276224D01*
X479424Y276224D01*
G37*
%LPD*%
%LPC*%
G36*
X434974Y278824D02*
X434974Y278824D01*
X434974Y278826D01*
X434976Y278826D01*
X434976Y278824D01*
X434974Y278824D01*
G37*
%LPD*%
%LPC*%
G36*
X425549Y320724D02*
X425549Y320724D01*
X425549Y320726D01*
X425551Y320726D01*
X425551Y320724D01*
X425549Y320724D01*
G37*
%LPD*%
%LPC*%
G36*
X546199Y320724D02*
X546199Y320724D01*
X546199Y320726D01*
X546201Y320726D01*
X546201Y320724D01*
X546199Y320724D01*
G37*
%LPD*%
D10*
X353350Y110450D03*
X353350Y116950D03*
X353350Y123450D03*
X353350Y129950D03*
X353350Y136450D03*
X353350Y142950D03*
X353350Y149450D03*
X353350Y155950D03*
X353350Y162450D03*
X353350Y168950D03*
X294350Y168950D03*
X294350Y162450D03*
X294350Y155950D03*
X294350Y149450D03*
X294350Y142950D03*
X294350Y136450D03*
X294350Y129950D03*
X294350Y123450D03*
X294350Y116950D03*
X294350Y110450D03*
D11*
X323850Y139700D03*
D12*
X234950Y101650D03*
X234950Y139650D03*
D13*
X260350Y137550D03*
X260350Y154550D03*
X260350Y105800D03*
X260350Y122800D03*
D14*
X434975Y278825D03*
X434975Y222825D03*
D15*
X311150Y201050D03*
X311150Y218050D03*
D13*
X292100Y201050D03*
X292100Y218050D03*
D16*
X679450Y441325D03*
X679450Y271325D03*
D17*
X584200Y209525D03*
X584200Y190525D03*
X561975Y209525D03*
X561975Y190525D03*
D18*
X632625Y171450D03*
X732625Y171450D03*
D19*
X273050Y346475D03*
D20*
X298550Y453975D03*
X247550Y453975D03*
D19*
X400050Y428225D03*
D20*
X374550Y320725D03*
X425550Y320725D03*
D19*
X520700Y428225D03*
D20*
X495200Y320725D03*
X546200Y320725D03*
D19*
X149225Y346475D03*
D20*
X174725Y453975D03*
X123725Y453975D03*
D21*
X292650Y44450D03*
X329650Y44450D03*
D13*
X364100Y44450D03*
X347100Y44450D03*
X347100Y25400D03*
X364100Y25400D03*
X364100Y63500D03*
X347100Y63500D03*
D15*
X447675Y129150D03*
X447675Y112150D03*
X428625Y129150D03*
X428625Y112150D03*
X423300Y171450D03*
X440300Y171450D03*
D13*
X406400Y170425D03*
X406400Y153425D03*
X423300Y152400D03*
X440300Y152400D03*
X478400Y146050D03*
X461400Y146050D03*
X408550Y114300D03*
X391550Y114300D03*
D15*
X391550Y76200D03*
X408550Y76200D03*
X391550Y95250D03*
X408550Y95250D03*
D13*
X260350Y259325D03*
X260350Y242325D03*
D22*
X222250Y264825D03*
X222250Y236825D03*
X184150Y264825D03*
X184150Y236825D03*
X146050Y264825D03*
X146050Y236825D03*
X107950Y264825D03*
X107950Y236825D03*
D13*
X537600Y231775D03*
X554600Y231775D03*
D15*
X520700Y188350D03*
X520700Y205350D03*
D13*
X243450Y190500D03*
X226450Y190500D03*
X243450Y171450D03*
X226450Y171450D03*
X260350Y186300D03*
X260350Y169300D03*
D15*
X289950Y63500D03*
X306950Y63500D03*
D23*
X73025Y47625D03*
X98425Y47625D03*
X123825Y47625D03*
X149225Y47625D03*
X174625Y47625D03*
X200025Y47625D03*
D24*
X165100Y171450D03*
X73025Y73025D03*
X123825Y73025D03*
X98425Y73025D03*
X209550Y139700D03*
X149225Y73025D03*
X333375Y463550D03*
X466725Y76200D03*
X212725Y454025D03*
X457200Y320675D03*
X479425Y276225D03*
D13*
X478400Y165100D03*
X461400Y165100D03*
D15*
X466725Y129150D03*
X466725Y112150D03*
D25*
X294350Y136450D02*
X276225Y136450D01*
X261450Y136450D01*
X260350Y137550D01*
X258250Y139650D02*
X234950Y139650D01*
X258250Y139650D02*
X260350Y137550D01*
D26*
X273146Y139529D02*
X276225Y136450D01*
X273146Y139529D02*
X272879Y139529D01*
D27*
X272879Y139529D03*
X365656Y113994D03*
D26*
X360770Y116950D02*
X353350Y116950D01*
X363726Y113994D02*
X365656Y113994D01*
X363726Y113994D02*
X360770Y116950D01*
D28*
X234900Y139700D02*
X209550Y139700D01*
X234900Y139700D02*
X234950Y139650D01*
D25*
X285225Y116950D02*
X294350Y116950D01*
X274075Y105800D02*
X260350Y105800D01*
X274075Y105800D02*
X285225Y116950D01*
X260350Y105800D02*
X251850Y105800D01*
X247650Y101600D01*
X235000Y101600D01*
X234950Y101650D01*
X269650Y129950D02*
X294350Y129950D01*
X269650Y129950D02*
X268288Y128588D01*
X261425Y121725D01*
X260350Y122800D01*
D26*
X400050Y375384D02*
X400050Y428225D01*
D27*
X400050Y375384D03*
X273050Y123825D03*
D26*
X268288Y128588D01*
X311150Y218050D02*
X311150Y225425D01*
X317500Y231775D01*
D27*
X317500Y231775D03*
D29*
X358775Y441325D03*
X368300Y431800D03*
X377825Y441325D03*
X387350Y431800D03*
X396875Y441325D03*
X406400Y431800D03*
X415925Y441325D03*
X425450Y431800D03*
X434975Y441325D03*
X444500Y431800D03*
X358775Y422275D03*
X377825Y422275D03*
X396875Y422275D03*
X415925Y422275D03*
X434975Y422275D03*
X368300Y412750D03*
X387350Y412750D03*
X406400Y412750D03*
X425450Y412750D03*
X444500Y412750D03*
X434975Y403225D03*
X415925Y403225D03*
X396875Y403225D03*
X377825Y403225D03*
X358775Y403225D03*
X368300Y393700D03*
X387350Y393700D03*
X406400Y393700D03*
X425450Y393700D03*
X444500Y393700D03*
X476250Y441325D03*
X485775Y431800D03*
X495300Y441325D03*
X504825Y431800D03*
X514350Y441325D03*
X523875Y431800D03*
X533400Y441325D03*
X542925Y431800D03*
X552450Y441325D03*
X561975Y431800D03*
X476250Y422275D03*
X495300Y422275D03*
X514350Y422275D03*
X533400Y422275D03*
X552450Y422275D03*
X485775Y412750D03*
X504825Y412750D03*
X523875Y412750D03*
X542925Y412750D03*
X561975Y412750D03*
X552450Y403225D03*
X533400Y403225D03*
X514350Y403225D03*
X495300Y403225D03*
X476250Y403225D03*
X485775Y393700D03*
X504825Y393700D03*
X523875Y393700D03*
X542925Y393700D03*
X561975Y393700D03*
X615950Y473075D03*
X628650Y473075D03*
X641350Y473075D03*
X654050Y473075D03*
X666750Y473075D03*
X679450Y473075D03*
X692150Y473075D03*
X704850Y473075D03*
X717550Y473075D03*
X730250Y473075D03*
X742950Y473075D03*
X615950Y409575D03*
X628650Y409575D03*
X641350Y409575D03*
X654050Y409575D03*
X666750Y409575D03*
X679450Y409575D03*
X692150Y409575D03*
X704850Y409575D03*
X717550Y409575D03*
X730250Y409575D03*
X742950Y409575D03*
X117475Y469900D03*
X130175Y469900D03*
X123825Y463550D03*
X117475Y457200D03*
X130175Y457200D03*
X241300Y469900D03*
X254000Y469900D03*
X247650Y463550D03*
X241300Y457200D03*
X254000Y457200D03*
D26*
X228600Y192650D02*
X226450Y190500D01*
X228600Y192650D02*
X228600Y203200D01*
D27*
X228600Y203200D03*
X349250Y276225D03*
D26*
X355600Y282575D01*
X431225Y282575D02*
X434975Y278825D01*
X431225Y282575D02*
X355600Y282575D01*
D29*
X412750Y273050D03*
X457200Y273050D03*
X422275Y295275D03*
X450850Y295275D03*
X422275Y263525D03*
X431800Y263525D03*
X441325Y263525D03*
X450850Y263525D03*
X419100Y304800D03*
X431800Y304800D03*
X425450Y311150D03*
X419100Y317500D03*
X431800Y317500D03*
X539750Y304800D03*
X552450Y304800D03*
X546100Y311150D03*
X539750Y317500D03*
X552450Y317500D03*
X431800Y295275D03*
X441325Y295275D03*
D28*
X438150Y282000D02*
X473650Y282000D01*
X438150Y282000D02*
X434975Y278825D01*
X473650Y282000D02*
X479425Y276225D01*
D27*
X15875Y9525D03*
X50800Y9525D03*
X101600Y9525D03*
X152400Y9525D03*
X203200Y9525D03*
X254000Y9525D03*
X15875Y50800D03*
X15875Y101600D03*
X15875Y152400D03*
X304800Y9525D03*
X355600Y9525D03*
X406400Y9525D03*
X457200Y9525D03*
X508000Y9525D03*
X558800Y9525D03*
X609600Y9525D03*
X660400Y9525D03*
X711200Y9525D03*
X758825Y9525D03*
X758825Y50800D03*
X758825Y101600D03*
X758825Y152400D03*
X758825Y203200D03*
X758825Y254000D03*
X758825Y304800D03*
X758825Y355600D03*
X758825Y406400D03*
X758825Y457200D03*
X15875Y203200D03*
X15875Y254000D03*
X15875Y304800D03*
X15875Y355600D03*
X15875Y406400D03*
X15875Y457200D03*
X15875Y485775D03*
X50800Y485775D03*
X101600Y485775D03*
X152400Y485775D03*
X203200Y485775D03*
X254000Y485775D03*
X304800Y485775D03*
X355600Y485775D03*
X406400Y485775D03*
X457200Y485775D03*
X508000Y485775D03*
X558800Y485775D03*
X609600Y485775D03*
X660400Y485775D03*
X711200Y485775D03*
X758825Y485775D03*
D29*
X323850Y165100D03*
X314325Y165100D03*
X333375Y165100D03*
X314325Y155575D03*
X323850Y155575D03*
X333375Y155575D03*
X314325Y146050D03*
X323850Y146050D03*
X333375Y146050D03*
X314325Y136525D03*
X323850Y136525D03*
X333375Y136525D03*
X314325Y127000D03*
X323850Y127000D03*
X333375Y127000D03*
X314325Y117475D03*
X323850Y117475D03*
X333375Y117475D03*
X561975Y174625D03*
X584200Y174625D03*
X412750Y228600D03*
X412750Y219075D03*
X422275Y209550D03*
X431800Y209550D03*
X441325Y209550D03*
X450850Y209550D03*
X422275Y238125D03*
X431800Y238125D03*
X441325Y238125D03*
X450850Y238125D03*
X457200Y228600D03*
X457200Y219075D03*
X107950Y222250D03*
X146050Y222250D03*
X184150Y222250D03*
X222250Y222250D03*
X606425Y187325D03*
X615950Y187325D03*
X625475Y187325D03*
X635000Y187325D03*
X644525Y187325D03*
X654050Y187325D03*
X663575Y187325D03*
X663575Y155575D03*
X654050Y155575D03*
X644525Y155575D03*
X635000Y155575D03*
X625475Y155575D03*
X565150Y92075D03*
X577850Y92075D03*
X590550Y92075D03*
X603250Y92075D03*
X571500Y82550D03*
X584200Y82550D03*
X596900Y82550D03*
X565150Y73025D03*
X577850Y73025D03*
X590550Y73025D03*
X603250Y73025D03*
X571500Y63500D03*
X584200Y63500D03*
X596900Y63500D03*
X565150Y53975D03*
X577850Y53975D03*
X590550Y53975D03*
X603250Y53975D03*
X571500Y44450D03*
X584200Y44450D03*
X596900Y44450D03*
X565150Y34925D03*
X577850Y34925D03*
X590550Y34925D03*
X603250Y34925D03*
X571500Y25400D03*
X584200Y25400D03*
X596900Y25400D03*
X38100Y219075D03*
X50800Y219075D03*
X63500Y219075D03*
X76200Y219075D03*
X44450Y209550D03*
X57150Y209550D03*
X69850Y209550D03*
X38100Y200025D03*
X50800Y200025D03*
X63500Y200025D03*
X76200Y200025D03*
X44450Y190500D03*
X57150Y190500D03*
X69850Y190500D03*
X38100Y180975D03*
X50800Y180975D03*
X63500Y180975D03*
X76200Y180975D03*
X44450Y171450D03*
X57150Y171450D03*
X69850Y171450D03*
X38100Y161925D03*
X50800Y161925D03*
X63500Y161925D03*
X76200Y161925D03*
X44450Y152400D03*
X57150Y152400D03*
X69850Y152400D03*
D27*
X266700Y82550D03*
X330200Y82550D03*
X260350Y231775D03*
D25*
X294350Y198800D02*
X294350Y168950D01*
X294350Y198800D02*
X292100Y201050D01*
X311150Y201050D01*
D27*
X479425Y111125D03*
X542925Y209550D03*
D26*
X561950Y209550D01*
X561975Y209525D01*
D29*
X755650Y187325D03*
X746125Y187325D03*
X736600Y187325D03*
X727075Y187325D03*
X717550Y187325D03*
X708025Y187325D03*
X708025Y155575D03*
X717550Y155575D03*
X727075Y155575D03*
X736600Y155575D03*
X746125Y155575D03*
X615950Y304800D03*
X628650Y304800D03*
X641350Y304800D03*
X654050Y304800D03*
X666750Y304800D03*
X679450Y304800D03*
X692150Y304800D03*
X704850Y304800D03*
X717550Y304800D03*
X730250Y304800D03*
X742950Y304800D03*
X615950Y238125D03*
X628650Y238125D03*
X641350Y238125D03*
X654050Y238125D03*
X666750Y238125D03*
X679450Y238125D03*
X692150Y238125D03*
X704850Y238125D03*
X717550Y238125D03*
X730250Y238125D03*
X742950Y238125D03*
X584200Y222250D03*
X565150Y222250D03*
X698500Y92075D03*
X711200Y92075D03*
X723900Y92075D03*
X736600Y92075D03*
X704850Y82550D03*
X717550Y82550D03*
X730250Y82550D03*
X698500Y73025D03*
X711200Y73025D03*
X723900Y73025D03*
X736600Y73025D03*
X704850Y63500D03*
X717550Y63500D03*
X730250Y63500D03*
X698500Y53975D03*
X711200Y53975D03*
X723900Y53975D03*
X736600Y53975D03*
X704850Y44450D03*
X717550Y44450D03*
X730250Y44450D03*
X698500Y34925D03*
X711200Y34925D03*
X723900Y34925D03*
X736600Y34925D03*
X704850Y25400D03*
X717550Y25400D03*
X730250Y25400D03*
D28*
X466725Y76200D02*
X447675Y95250D01*
X447675Y112150D01*
D26*
X467750Y111125D02*
X479425Y111125D01*
X466725Y112150D02*
X447675Y112150D01*
X466725Y112150D02*
X467750Y111125D01*
X390525Y320725D02*
X374550Y320725D01*
X390525Y320725D02*
X390525Y320675D01*
D27*
X390525Y320675D03*
X479425Y320675D03*
D26*
X479425Y320725D01*
X495200Y320725D01*
D27*
X279400Y146201D03*
D26*
X282651Y142950D01*
X294350Y142950D01*
D28*
X457200Y320675D02*
X457250Y320725D01*
X479425Y320725D01*
D30*
X174775Y454025D02*
X174725Y453975D01*
D26*
X190500Y453975D01*
X190500Y454025D01*
D27*
X190500Y454025D03*
X282575Y454025D03*
D26*
X298550Y454025D01*
X298550Y453975D01*
D27*
X272824Y113849D03*
D26*
X283144Y123450D02*
X294350Y123450D01*
X275265Y116290D02*
X272824Y113849D01*
X275265Y116290D02*
X275984Y116290D01*
X283144Y123450D01*
D28*
X212725Y454025D02*
X190500Y454025D01*
D25*
X364100Y63500D02*
X364100Y44450D01*
X364100Y63500D02*
X364100Y105800D01*
X359450Y110450D02*
X353350Y110450D01*
X359450Y110450D02*
X364100Y105800D01*
X364100Y44450D02*
X364100Y25400D01*
D28*
X347100Y25400D02*
X336550Y25400D01*
D27*
X336550Y25400D03*
D28*
X73025Y47625D02*
X73025Y73025D01*
D25*
X353350Y149450D02*
X379750Y149450D01*
X400050Y129150D01*
X428625Y129150D01*
X447675Y129150D01*
X440300Y152400D02*
X440300Y171450D01*
X391050Y162450D02*
X353350Y162450D01*
X391050Y162450D02*
X400050Y171450D01*
X405375Y171450D01*
X406400Y170425D01*
X407425Y171450D01*
X423300Y171450D01*
X390150Y155950D02*
X353350Y155950D01*
X392675Y153425D02*
X406400Y153425D01*
X392675Y153425D02*
X390150Y155950D01*
X406400Y153425D02*
X422275Y153425D01*
X423300Y152400D01*
X459300Y143950D02*
X461400Y146050D01*
X459300Y143950D02*
X455469Y140119D01*
X428625Y140119D01*
X423300Y145444D01*
X423300Y152400D01*
D26*
X459300Y136575D02*
X466725Y129150D01*
X459300Y136575D02*
X459300Y143950D01*
X461400Y146050D02*
X461400Y165100D01*
D27*
X495300Y155575D03*
D28*
X487925Y155575D02*
X478400Y146050D01*
X123825Y73025D02*
X123825Y47625D01*
X487925Y155575D02*
X495300Y155575D01*
D25*
X391550Y114300D02*
X369400Y136450D01*
X353350Y136450D01*
X353350Y129950D02*
X366978Y129950D01*
X381000Y115928D01*
X381000Y105800D02*
X391550Y95250D01*
X381000Y105800D02*
X381000Y115928D01*
X365500Y123450D02*
X353350Y123450D01*
X374650Y114300D02*
X374650Y88900D01*
X387350Y76200D01*
X391550Y76200D01*
X374650Y114300D02*
X365500Y123450D01*
D28*
X353350Y168950D02*
X353426Y169026D01*
X368300Y169026D01*
D27*
X368300Y169026D03*
D28*
X98425Y73025D02*
X98425Y47625D01*
D25*
X528075Y231775D02*
X537600Y231775D01*
X528075Y231775D02*
X520700Y224400D01*
X520700Y222250D02*
X520700Y205350D01*
X520700Y222250D02*
X520700Y224400D01*
D27*
X520700Y222250D03*
D28*
X149225Y73025D02*
X149225Y47625D01*
D25*
X284200Y162450D02*
X260350Y186300D01*
X284200Y162450D02*
X294350Y162450D01*
X260350Y186300D02*
X247650Y186300D01*
X243450Y190500D01*
X260350Y169300D02*
X268850Y169300D01*
X282200Y155950D02*
X294350Y155950D01*
X282200Y155950D02*
X268850Y169300D01*
X260350Y169300D02*
X245600Y169300D01*
X243450Y171450D01*
X294350Y110450D02*
X289950Y106050D01*
X289950Y63500D01*
X289950Y47150D01*
X292650Y44450D01*
X329650Y44450D02*
X347100Y44450D01*
D27*
X165100Y263525D03*
D26*
X147350Y263525D01*
X146050Y264825D01*
D29*
X107950Y384175D03*
X117475Y374650D03*
X127000Y384175D03*
X136525Y374650D03*
X146050Y384175D03*
X155575Y374650D03*
X165100Y384175D03*
X174625Y374650D03*
X184150Y384175D03*
X193675Y374650D03*
X107950Y365125D03*
X127000Y365125D03*
X146050Y365125D03*
X165100Y365125D03*
X184150Y365125D03*
X117475Y355600D03*
X136525Y355600D03*
X155575Y355600D03*
X174625Y355600D03*
X193675Y355600D03*
X184150Y346075D03*
X165100Y346075D03*
X146050Y346075D03*
X127000Y346075D03*
X107950Y346075D03*
X117475Y336550D03*
X136525Y336550D03*
X155575Y336550D03*
X174625Y336550D03*
X193675Y336550D03*
X228600Y384175D03*
X238125Y374650D03*
X247650Y384175D03*
X257175Y374650D03*
X266700Y384175D03*
X276225Y374650D03*
X285750Y384175D03*
X295275Y374650D03*
X304800Y384175D03*
X314325Y374650D03*
X228600Y365125D03*
X247650Y365125D03*
X266700Y365125D03*
X285750Y365125D03*
X304800Y365125D03*
X238125Y355600D03*
X257175Y355600D03*
X276225Y355600D03*
X295275Y355600D03*
X314325Y355600D03*
X304800Y346075D03*
X285750Y346075D03*
X266700Y346075D03*
X247650Y346075D03*
X228600Y346075D03*
X238125Y336550D03*
X257175Y336550D03*
X276225Y336550D03*
X295275Y336550D03*
X314325Y336550D03*
X107950Y279400D03*
X146050Y279400D03*
X184150Y279400D03*
X222250Y279400D03*
X38100Y342900D03*
X50800Y342900D03*
X63500Y342900D03*
X76200Y342900D03*
X44450Y333375D03*
X57150Y333375D03*
X69850Y333375D03*
X38100Y323850D03*
X50800Y323850D03*
X63500Y323850D03*
X76200Y323850D03*
X44450Y314325D03*
X57150Y314325D03*
X69850Y314325D03*
X38100Y304800D03*
X50800Y304800D03*
X63500Y304800D03*
X76200Y304800D03*
X44450Y295275D03*
X57150Y295275D03*
X69850Y295275D03*
X38100Y285750D03*
X50800Y285750D03*
X63500Y285750D03*
X76200Y285750D03*
X44450Y276225D03*
X57150Y276225D03*
X69850Y276225D03*
D31*
X329650Y44450D02*
X329650Y37550D01*
X323850Y31750D01*
X273050Y31750D01*
X165100Y139700D02*
X165100Y196850D01*
D27*
X165100Y196850D03*
D31*
X165100Y139700D02*
X273050Y31750D01*
D27*
X260350Y269875D03*
M02*
