G04 EAGLE Gerber RS-274X export*
G75*
%MOMM*%
%FSLAX34Y34*%
%LPD*%
%INSolderpaste Top*%
%IPPOS*%
%AMOC8*
5,1,8,0,0,1.08239X$1,22.5*%
G01*
%ADD10R,1.400000X0.450000*%
%ADD11R,1.400000X1.400000*%
%ADD12R,1.000000X1.100000*%
%ADD13R,3.200000X1.800000*%
%ADD14R,1.100000X1.000000*%
%ADD15R,13.000000X5.000000*%
%ADD16R,1.500000X1.300000*%
%ADD17R,6.000000X2.000000*%
%ADD18R,10.300000X8.900000*%
%ADD19R,1.930400X3.810000*%
%ADD20R,1.200000X0.700000*%
%ADD21R,1.800000X1.600000*%

G36*
X339133Y623286D02*
X339133Y623286D01*
X339140Y623284D01*
X339232Y623293D01*
X339243Y623299D01*
X339256Y623298D01*
X339345Y623325D01*
X339354Y623333D01*
X339368Y623335D01*
X339450Y623378D01*
X339457Y623388D01*
X339470Y623392D01*
X339542Y623451D01*
X339547Y623462D01*
X339559Y623468D01*
X339618Y623540D01*
X339621Y623552D01*
X339632Y623561D01*
X339675Y623642D01*
X339676Y623654D01*
X339685Y623665D01*
X339712Y623754D01*
X339710Y623766D01*
X339717Y623778D01*
X339726Y623870D01*
X339724Y623876D01*
X339726Y623883D01*
X339726Y666438D01*
X339724Y666443D01*
X339726Y666450D01*
X339717Y666542D01*
X339711Y666553D01*
X339712Y666566D01*
X339685Y666655D01*
X339677Y666664D01*
X339675Y666678D01*
X339632Y666760D01*
X339622Y666767D01*
X339618Y666780D01*
X339559Y666852D01*
X339548Y666857D01*
X339542Y666869D01*
X339470Y666928D01*
X339458Y666931D01*
X339457Y666933D01*
X339457Y666934D01*
X339450Y666942D01*
X339368Y666985D01*
X339356Y666986D01*
X339345Y666995D01*
X339256Y667022D01*
X339244Y667020D01*
X339232Y667027D01*
X339140Y667036D01*
X339134Y667034D01*
X339128Y667036D01*
X308573Y667036D01*
X308567Y667034D01*
X308560Y667036D01*
X308468Y667027D01*
X308457Y667021D01*
X308444Y667022D01*
X308355Y666995D01*
X308346Y666987D01*
X308332Y666985D01*
X308251Y666942D01*
X308243Y666932D01*
X308230Y666928D01*
X308158Y666869D01*
X308153Y666858D01*
X308141Y666852D01*
X308082Y666780D01*
X308079Y666768D01*
X308068Y666760D01*
X308025Y666678D01*
X308024Y666666D01*
X308015Y666655D01*
X307988Y666566D01*
X307990Y666554D01*
X307983Y666542D01*
X307974Y666450D01*
X307976Y666444D01*
X307974Y666438D01*
X307974Y623883D01*
X307976Y623877D01*
X307974Y623870D01*
X307983Y623778D01*
X307989Y623767D01*
X307988Y623754D01*
X308015Y623665D01*
X308023Y623656D01*
X308025Y623642D01*
X308068Y623561D01*
X308078Y623553D01*
X308082Y623540D01*
X308141Y623468D01*
X308152Y623463D01*
X308158Y623451D01*
X308230Y623392D01*
X308242Y623389D01*
X308251Y623378D01*
X308332Y623335D01*
X308344Y623334D01*
X308355Y623325D01*
X308444Y623298D01*
X308456Y623300D01*
X308468Y623293D01*
X308560Y623284D01*
X308566Y623286D01*
X308573Y623284D01*
X339128Y623284D01*
X339133Y623286D01*
G37*
G36*
X339133Y120366D02*
X339133Y120366D01*
X339140Y120364D01*
X339232Y120373D01*
X339243Y120379D01*
X339256Y120378D01*
X339345Y120405D01*
X339354Y120413D01*
X339368Y120415D01*
X339450Y120458D01*
X339457Y120468D01*
X339470Y120472D01*
X339542Y120531D01*
X339547Y120542D01*
X339559Y120548D01*
X339618Y120620D01*
X339621Y120632D01*
X339632Y120641D01*
X339675Y120722D01*
X339676Y120734D01*
X339685Y120745D01*
X339712Y120834D01*
X339710Y120846D01*
X339717Y120858D01*
X339726Y120950D01*
X339724Y120956D01*
X339726Y120963D01*
X339726Y163518D01*
X339724Y163523D01*
X339726Y163530D01*
X339717Y163622D01*
X339711Y163633D01*
X339712Y163646D01*
X339685Y163735D01*
X339677Y163744D01*
X339675Y163758D01*
X339632Y163840D01*
X339622Y163847D01*
X339618Y163860D01*
X339559Y163932D01*
X339548Y163937D01*
X339542Y163949D01*
X339470Y164008D01*
X339458Y164011D01*
X339457Y164013D01*
X339457Y164014D01*
X339450Y164022D01*
X339368Y164065D01*
X339356Y164066D01*
X339345Y164075D01*
X339256Y164102D01*
X339244Y164100D01*
X339232Y164107D01*
X339140Y164116D01*
X339134Y164114D01*
X339128Y164116D01*
X308573Y164116D01*
X308567Y164114D01*
X308560Y164116D01*
X308468Y164107D01*
X308457Y164101D01*
X308444Y164102D01*
X308355Y164075D01*
X308346Y164067D01*
X308332Y164065D01*
X308251Y164022D01*
X308243Y164012D01*
X308230Y164008D01*
X308158Y163949D01*
X308153Y163938D01*
X308141Y163932D01*
X308082Y163860D01*
X308079Y163848D01*
X308068Y163840D01*
X308025Y163758D01*
X308024Y163746D01*
X308015Y163735D01*
X307988Y163646D01*
X307990Y163634D01*
X307983Y163622D01*
X307974Y163530D01*
X307976Y163524D01*
X307974Y163518D01*
X307974Y120963D01*
X307976Y120957D01*
X307974Y120950D01*
X307983Y120858D01*
X307989Y120847D01*
X307988Y120834D01*
X308015Y120745D01*
X308023Y120736D01*
X308025Y120722D01*
X308068Y120641D01*
X308078Y120633D01*
X308082Y120620D01*
X308141Y120548D01*
X308152Y120543D01*
X308158Y120531D01*
X308230Y120472D01*
X308242Y120469D01*
X308251Y120458D01*
X308332Y120415D01*
X308344Y120414D01*
X308355Y120405D01*
X308444Y120378D01*
X308456Y120380D01*
X308468Y120373D01*
X308560Y120364D01*
X308566Y120366D01*
X308573Y120364D01*
X339128Y120364D01*
X339133Y120366D01*
G37*
D10*
X353350Y112990D03*
X353350Y119490D03*
X353350Y125990D03*
X353350Y132490D03*
X353350Y138990D03*
X353350Y145490D03*
X353350Y151990D03*
X353350Y158490D03*
X353350Y164990D03*
X353350Y171490D03*
X294350Y171490D03*
X294350Y164990D03*
X294350Y158490D03*
X294350Y151990D03*
X294350Y145490D03*
X294350Y138990D03*
X294350Y132490D03*
X294350Y125990D03*
X294350Y119490D03*
X294350Y112990D03*
D11*
X234950Y104190D03*
X234950Y142190D03*
D12*
X260350Y140090D03*
X260350Y157090D03*
X260350Y108340D03*
X260350Y125340D03*
D13*
X434975Y281365D03*
X434975Y225365D03*
D14*
X311150Y203590D03*
X311150Y220590D03*
D12*
X292100Y203590D03*
X292100Y220590D03*
D15*
X679450Y443865D03*
X679450Y273865D03*
D16*
X584200Y212065D03*
X584200Y193065D03*
X561975Y212065D03*
X561975Y193065D03*
D17*
X632625Y173990D03*
X732625Y173990D03*
D18*
X273050Y349015D03*
D19*
X298550Y456515D03*
X247550Y456515D03*
D18*
X400050Y430765D03*
D19*
X374550Y323265D03*
X425550Y323265D03*
D18*
X520700Y430765D03*
D19*
X495200Y323265D03*
X546200Y323265D03*
D18*
X149225Y349015D03*
D19*
X174725Y456515D03*
X123725Y456515D03*
D20*
X292650Y46990D03*
X329650Y46990D03*
D12*
X364100Y46990D03*
X347100Y46990D03*
X347100Y27940D03*
X364100Y27940D03*
X364100Y66040D03*
X347100Y66040D03*
D14*
X447675Y131690D03*
X447675Y114690D03*
X428625Y131690D03*
X428625Y114690D03*
X423300Y173990D03*
X440300Y173990D03*
D12*
X406400Y172965D03*
X406400Y155965D03*
X423300Y154940D03*
X440300Y154940D03*
X478400Y148590D03*
X461400Y148590D03*
X408550Y116840D03*
X391550Y116840D03*
D14*
X391550Y78740D03*
X408550Y78740D03*
X391550Y97790D03*
X408550Y97790D03*
D12*
X260350Y261865D03*
X260350Y244865D03*
D21*
X222250Y267365D03*
X222250Y239365D03*
X184150Y267365D03*
X184150Y239365D03*
X146050Y267365D03*
X146050Y239365D03*
X107950Y267365D03*
X107950Y239365D03*
D12*
X537600Y234315D03*
X554600Y234315D03*
D14*
X520700Y190890D03*
X520700Y207890D03*
D12*
X243450Y193040D03*
X226450Y193040D03*
X243450Y173990D03*
X226450Y173990D03*
X260350Y188840D03*
X260350Y171840D03*
D14*
X289950Y66040D03*
X306950Y66040D03*
D12*
X478400Y167640D03*
X461400Y167640D03*
D14*
X466725Y131690D03*
X466725Y114690D03*
X382025Y193040D03*
X399025Y193040D03*
D10*
X353350Y615910D03*
X353350Y622410D03*
X353350Y628910D03*
X353350Y635410D03*
X353350Y641910D03*
X353350Y648410D03*
X353350Y654910D03*
X353350Y661410D03*
X353350Y667910D03*
X353350Y674410D03*
X294350Y674410D03*
X294350Y667910D03*
X294350Y661410D03*
X294350Y654910D03*
X294350Y648410D03*
X294350Y641910D03*
X294350Y635410D03*
X294350Y628910D03*
X294350Y622410D03*
X294350Y615910D03*
D11*
X234950Y607110D03*
X234950Y645110D03*
D12*
X260350Y643010D03*
X260350Y660010D03*
X260350Y611260D03*
X260350Y628260D03*
D13*
X434975Y784285D03*
X434975Y728285D03*
D14*
X311150Y706510D03*
X311150Y723510D03*
D12*
X292100Y706510D03*
X292100Y723510D03*
D15*
X679450Y946785D03*
X679450Y776785D03*
D16*
X584200Y714985D03*
X584200Y695985D03*
X561975Y714985D03*
X561975Y695985D03*
D17*
X632625Y676910D03*
X732625Y676910D03*
D18*
X273050Y851935D03*
D19*
X298550Y959435D03*
X247550Y959435D03*
D18*
X400050Y933685D03*
D19*
X374550Y826185D03*
X425550Y826185D03*
D18*
X520700Y933685D03*
D19*
X495200Y826185D03*
X546200Y826185D03*
D18*
X149225Y851935D03*
D19*
X174725Y959435D03*
X123725Y959435D03*
D20*
X292650Y549910D03*
X329650Y549910D03*
D12*
X364100Y549910D03*
X347100Y549910D03*
X347100Y530860D03*
X364100Y530860D03*
X364100Y568960D03*
X347100Y568960D03*
D14*
X447675Y634610D03*
X447675Y617610D03*
X428625Y634610D03*
X428625Y617610D03*
X423300Y676910D03*
X440300Y676910D03*
D12*
X406400Y675885D03*
X406400Y658885D03*
X423300Y657860D03*
X440300Y657860D03*
X478400Y651510D03*
X461400Y651510D03*
X408550Y619760D03*
X391550Y619760D03*
D14*
X391550Y581660D03*
X408550Y581660D03*
X391550Y600710D03*
X408550Y600710D03*
D12*
X260350Y764785D03*
X260350Y747785D03*
D21*
X222250Y770285D03*
X222250Y742285D03*
X184150Y770285D03*
X184150Y742285D03*
X146050Y770285D03*
X146050Y742285D03*
X107950Y770285D03*
X107950Y742285D03*
D12*
X537600Y737235D03*
X554600Y737235D03*
D14*
X520700Y693810D03*
X520700Y710810D03*
D12*
X243450Y695960D03*
X226450Y695960D03*
X243450Y676910D03*
X226450Y676910D03*
X260350Y691760D03*
X260350Y674760D03*
D14*
X289950Y568960D03*
X306950Y568960D03*
D12*
X478400Y670560D03*
X461400Y670560D03*
D14*
X466725Y634610D03*
X466725Y617610D03*
X382025Y695960D03*
X399025Y695960D03*
M02*
