M48
;GenerationSoftware,Autodesk,EAGLE,9.4.2*%
;CreationDate,2019-07-14T20:48:24Z*%
FMAT,2
ICI,OFF
METRIC,TZ,000.000
T4C0.250
T3C0.350
T2C1.016
T1C3.480
%
G90
M71
T1
X5080Y96266
X5080Y60706
X50800Y5017
X5080Y45974
X5080Y10414
X50800Y55308
T2
X84852Y20050
X87392Y70342
X7302Y5017
X9843Y5017
X12382Y5017
X14922Y5017
X17463Y5017
X20003Y5017
X7302Y55308
X9843Y55308
X12382Y55308
X14922Y55308
X17463Y55308
X20003Y55308
X90472Y2540
X93012Y2540
X95552Y2540
X98092Y2540
X79772Y2540
X82312Y2540
X84852Y2540
X87392Y2540
X90472Y7620
X93012Y7620
X95552Y7620
X98092Y7620
X79772Y7620
X82312Y7620
X84852Y7620
X87392Y7620
X90472Y12700
X93012Y12700
X95552Y12700
X98092Y12700
X79772Y12700
X82312Y12700
X84852Y12700
X87392Y12700
X79772Y20050
X82312Y20050
X87392Y20050
X90472Y52832
X93012Y52832
X95552Y52832
X98092Y52832
X79772Y52832
X82312Y52832
X84852Y52832
X87392Y52832
X90472Y57912
X93012Y57912
X95552Y57912
X98092Y57912
X79772Y57912
X82312Y57912
X84852Y57912
X87392Y57912
X90472Y62992
X93012Y62992
X95552Y62992
X98092Y62992
X79772Y62992
X82312Y62992
X84852Y62992
X87392Y62992
X79772Y70342
X82312Y70342
X84852Y70342
T3
X1587Y45974
X1587Y48831
X5080Y48831
X10160Y48831
X15240Y48831
X20320Y48831
X25400Y48831
X30480Y48831
X35560Y48831
X22860Y70866
X34925Y78169
X1587Y51498
X5080Y51498
X10160Y51498
X15240Y51498
X20320Y51498
X25400Y51498
X1587Y55626
X1587Y60706
X1587Y65786
X30480Y51498
X35560Y51498
X40640Y51498
X45720Y51498
X50800Y51498
X55880Y51498
X60960Y51498
X66040Y51498
X71120Y51498
X75883Y51498
X75883Y55626
X75883Y60706
X75883Y65786
X75883Y70866
X75883Y75946
X75883Y81026
X75883Y86106
X75883Y91186
X75883Y96266
X1587Y70866
X38735Y15176
X1587Y81026
X1587Y86106
X1587Y91186
X1587Y96266
X1587Y99123
X5080Y99123
X10160Y99123
X15240Y99123
X20320Y99123
X30480Y99123
X35560Y99123
X40640Y99123
X45720Y99123
X50800Y99123
X55880Y99123
X60960Y99123
X66040Y99123
X71120Y99123
X75883Y99123
X26670Y58801
X33020Y58801
X26035Y73724
X47942Y61658
X54292Y71501
X27288Y14207
X39053Y82614
X47942Y82614
X27940Y65166
X19050Y95948
X28257Y95948
X27282Y61931
X33655Y53086
X38100Y68644
X38735Y65468
X49530Y66104
X36830Y67449
X52070Y72771
X16510Y76899
X16510Y70231
X26035Y77534
X36566Y11653
X40005Y37792
X27305Y12636
X31750Y23431
X40640Y48831
X45720Y48831
X50800Y48831
X55880Y48831
X60960Y48831
X66040Y48831
X71120Y48831
X75883Y48831
X26670Y8509
X33020Y8509
X26035Y23431
X47942Y11366
X54292Y21209
X39053Y32321
X22860Y20574
X34925Y27876
X47942Y32321
X27940Y14874
X19050Y45656
X28257Y45656
X27282Y11639
X33655Y2794
X38100Y18352
X49530Y15811
X36830Y17157
X52070Y22479
X16510Y26606
X26035Y27241
X27288Y64499
X25400Y99123
X36566Y61945
X40005Y88084
X27305Y62928
X31750Y73724
X16510Y19939
X1587Y1207
X5080Y1207
X10160Y1207
X15240Y1207
X20320Y1207
X1587Y75946
X25400Y1207
X1587Y5334
X1587Y10414
X1587Y15494
X30480Y1207
X35560Y1207
X40640Y1207
X45720Y1207
X50800Y1207
X55880Y1207
X60960Y1207
X66040Y1207
X71120Y1207
X75883Y1207
X75883Y5334
X75883Y10414
X75883Y15494
X75883Y20574
X75883Y25654
X75883Y30734
X75883Y35814
X75883Y40894
X75883Y45974
X1587Y20574
X1587Y25654
X1587Y30734
X1587Y35814
X1587Y40894
T4
X14605Y22479
X18415Y22479
X22225Y22479
X60642Y18987
X61595Y18987
X62547Y18987
X63500Y18987
X64452Y18987
X65405Y18987
X66358Y18987
X66358Y15811
X65405Y15811
X64452Y15811
X63500Y15811
X62547Y15811
X56515Y9462
X57785Y9462
X59055Y9462
X60325Y9462
X57150Y8509
X58420Y8509
X59690Y8509
X56515Y7556
X57785Y7556
X59055Y7556
X60325Y7556
X57150Y6604
X58420Y6604
X59690Y6604
X56515Y5651
X57785Y5651
X59055Y5651
X60325Y5651
X57150Y4699
X58420Y4699
X59690Y4699
X56515Y3746
X57785Y3746
X59055Y3746
X60325Y3746
X57150Y2794
X58420Y2794
X59690Y2794
X3810Y22161
X5080Y22161
X6350Y22161
X7620Y22161
X4445Y21209
X5715Y21209
X6985Y21209
X3810Y20257
X5080Y20257
X6350Y20257
X7620Y20257
X4445Y19304
X5715Y19304
X6985Y19304
X3810Y18352
X5080Y18352
X6350Y18352
X7620Y18352
X4445Y17399
X5715Y17399
X6985Y17399
X3810Y16447
X5080Y16447
X6350Y16447
X7620Y16447
X4445Y15494
X5715Y15494
X6985Y15494
X75565Y18987
X74613Y18987
X73660Y18987
X72708Y18987
X71755Y18987
X70803Y18987
X70803Y15811
X71755Y15811
X72708Y15811
X73660Y15811
X74613Y15811
X61595Y30734
X62865Y30734
X64135Y30734
X65405Y30734
X66675Y30734
X67945Y30734
X69215Y30734
X70485Y30734
X71755Y30734
X73025Y30734
X74295Y30734
X61595Y24066
X62865Y24066
X64135Y24066
X65405Y24066
X66675Y24066
X67945Y24066
X69215Y24066
X70485Y24066
X71755Y24066
X73025Y24066
X74295Y24066
X58420Y22479
X56515Y22479
X69850Y9462
X71120Y9462
X72390Y9462
X73660Y9462
X70485Y8509
X71755Y8509
X73025Y8509
X69850Y7556
X71120Y7556
X72390Y7556
X73660Y7556
X70485Y6604
X71755Y6604
X73025Y6604
X69850Y5651
X71120Y5651
X72390Y5651
X73660Y5651
X70485Y4699
X71755Y4699
X73025Y4699
X69850Y3746
X71120Y3746
X72390Y3746
X73660Y3746
X70485Y2794
X71755Y2794
X73025Y2794
X10795Y38672
X11747Y37719
X12700Y38672
X13652Y37719
X14605Y38672
X15557Y37719
X16510Y38672
X17463Y37719
X18415Y38672
X19368Y37719
X12700Y36767
X14605Y36767
X16510Y36767
X18415Y36767
X11747Y35814
X13652Y35814
X15557Y35814
X17463Y35814
X19368Y35814
X18415Y34862
X16510Y34862
X14605Y34862
X12700Y34862
X10795Y34862
X11747Y33909
X13652Y33909
X15557Y33909
X17463Y33909
X19368Y33909
X22860Y38672
X23812Y37719
X24765Y38672
X25717Y37719
X26670Y38672
X27622Y37719
X28575Y38672
X29527Y37719
X30480Y38672
X31432Y37719
X22860Y36767
X24765Y36767
X26670Y36767
X28575Y36767
X30480Y36767
X23812Y35814
X25717Y35814
X27622Y35814
X29527Y35814
X31432Y35814
X30480Y34862
X28575Y34862
X26670Y34862
X24765Y34862
X22860Y34862
X23812Y33909
X25717Y33909
X27622Y33909
X29527Y33909
X31432Y33909
X10795Y28194
X14605Y28194
X18415Y28194
X22225Y28194
X3810Y34544
X5080Y34544
X6350Y34544
X7620Y34544
X4445Y33592
X5715Y33592
X6985Y33592
X3810Y32639
X5080Y32639
X6350Y32639
X7620Y32639
X4445Y31686
X5715Y31686
X6985Y31686
X3810Y30734
X5080Y30734
X6350Y30734
X7620Y30734
X4445Y29781
X5715Y29781
X6985Y29781
X3810Y28829
X5080Y28829
X6350Y28829
X7620Y28829
X4445Y27876
X5715Y27876
X6985Y27876
X35878Y94678
X36830Y93726
X37783Y94678
X38735Y93726
X39688Y94678
X40640Y93726
X41593Y94678
X42545Y93726
X43498Y94678
X44450Y93726
X35878Y92773
X37783Y92773
X39688Y92773
X41593Y92773
X43498Y92773
X36830Y91821
X38735Y91821
X40640Y91821
X42545Y91821
X44450Y91821
X43498Y90868
X41593Y90868
X39688Y90868
X37783Y90868
X35878Y90868
X36830Y89916
X38735Y89916
X40640Y89916
X42545Y89916
X44450Y89916
X47625Y94678
X48577Y93726
X10795Y36767
X50482Y93726
X51435Y94678
X52387Y93726
X53340Y94678
X54292Y93726
X55245Y94678
X56197Y93726
X47625Y92773
X49530Y92773
X51435Y92773
X53340Y92773
X55245Y92773
X48577Y91821
X50482Y91821
X52387Y91821
X54292Y91821
X56197Y91821
X55245Y90868
X53340Y90868
X51435Y90868
X49530Y90868
X47625Y90868
X48577Y89916
X50482Y89916
X52387Y89916
X54292Y89916
X56197Y89916
X61595Y97853
X62865Y97853
X64135Y97853
X65405Y97853
X66675Y97853
X67945Y97853
X69215Y97853
X70485Y97853
X71755Y97853
X73025Y97853
X74295Y97853
X61595Y91503
X62865Y91503
X64135Y91503
X65405Y91503
X66675Y91503
X67945Y91503
X69215Y91503
X70485Y91503
X71755Y91503
X73025Y91503
X74295Y91503
X11747Y97536
X13017Y97536
X12382Y96901
X11747Y96266
X13017Y96266
X24130Y97536
X25400Y97536
X24765Y96901
X24130Y96266
X25400Y96266
X35878Y44386
X36830Y43434
X41275Y77851
X45720Y77851
X42228Y80074
X45085Y80074
X42228Y76899
X43180Y76899
X44132Y76899
X45085Y76899
X41910Y81026
X43180Y81026
X42545Y81661
X41910Y82296
X43180Y82296
X53975Y81026
X55245Y81026
X54610Y81661
X53975Y82296
X55245Y82296
X43180Y80074
X44132Y80074
X37783Y44386
X38735Y43434
X39688Y44386
X40640Y43434
X41593Y44386
X42545Y43434
X43498Y44386
X44450Y43434
X35878Y42482
X37783Y42482
X39688Y42482
X41593Y42482
X43498Y42482
X36830Y41529
X38735Y41529
X40640Y41529
X42545Y41529
X44450Y41529
X43498Y40577
X41593Y40577
X39688Y40577
X37783Y40577
X35878Y40577
X36830Y39624
X38735Y39624
X40640Y39624
X42545Y39624
X44450Y39624
X47625Y44386
X48577Y43434
X49530Y44386
X50482Y43434
X51435Y44386
X52387Y43434
X53340Y44386
X54292Y43434
X55245Y44386
X56197Y43434
X47625Y42482
X49530Y94678
X49530Y42482
X51435Y42482
X53340Y42482
X55245Y42482
X48577Y41529
X50482Y41529
X52387Y41529
X54292Y41529
X56197Y41529
X55245Y40577
X32385Y67056
X31432Y67056
X33338Y67056
X31432Y66104
X32385Y66104
X33338Y66104
X31432Y65151
X32385Y65151
X33338Y65151
X31432Y64198
X32385Y64198
X33338Y64198
X31432Y63246
X32385Y63246
X33338Y63246
X31432Y62293
X32385Y62293
X33338Y62293
X56197Y68009
X58420Y68009
X41275Y73406
X41275Y72454
X42228Y71501
X43180Y71501
X44132Y71501
X45085Y71501
X42228Y74359
X43180Y74359
X44132Y74359
X45085Y74359
X45720Y73406
X45720Y72454
X10795Y72771
X14605Y72771
X18415Y72771
X22225Y72771
X60642Y69279
X61595Y69279
X62547Y69279
X63500Y69279
X64452Y69279
X65405Y69279
X66358Y69279
X66358Y66104
X65405Y66104
X64452Y66104
X63500Y66104
X62547Y66104
X56515Y59753
X57785Y59753
X59055Y59753
X60325Y59753
X57150Y58801
X58420Y58801
X59690Y58801
X56515Y57848
X57785Y57848
X59055Y57848
X60325Y57848
X57150Y56896
X58420Y56896
X59690Y56896
X56515Y55943
X57785Y55943
X59055Y55943
X60325Y55943
X57150Y54991
X58420Y54991
X59690Y54991
X56515Y54038
X57785Y54038
X59055Y54038
X60325Y54038
X57150Y53086
X58420Y53086
X59690Y53086
X3810Y72454
X5080Y72454
X6350Y72454
X7620Y72454
X4445Y71501
X5715Y71501
X6985Y71501
X3810Y70549
X5080Y70549
X6350Y70549
X7620Y70549
X4445Y69596
X5715Y69596
X6985Y69596
X3810Y68644
X5080Y68644
X6350Y68644
X7620Y68644
X4445Y67691
X5715Y67691
X6985Y67691
X3810Y66739
X5080Y66739
X6350Y66739
X7620Y66739
X4445Y65786
X5715Y65786
X6985Y65786
X53340Y40577
X51435Y40577
X49530Y40577
X47625Y40577
X48577Y39624
X75565Y69279
X50482Y39624
X73660Y69279
X72708Y69279
X71755Y69279
X70803Y69279
X70803Y66104
X71755Y66104
X72708Y66104
X73660Y66104
X74613Y66104
X61595Y81026
X62865Y81026
X64135Y81026
X65405Y81026
X66675Y81026
X67945Y81026
X69215Y81026
X70485Y81026
X71755Y81026
X73025Y81026
X74295Y81026
X61595Y74359
X62865Y74359
X64135Y74359
X65405Y74359
X66675Y74359
X67945Y74359
X69215Y74359
X70485Y74359
X71755Y74359
X73025Y74359
X74295Y74359
X58420Y72771
X56515Y72771
X69850Y59753
X71120Y59753
X72390Y59753
X73660Y59753
X70485Y58801
X71755Y58801
X73025Y58801
X69850Y57848
X71120Y57848
X72390Y57848
X73660Y57848
X70485Y56896
X71755Y56896
X73025Y56896
X69850Y55943
X71120Y55943
X72390Y55943
X73660Y55943
X70485Y54991
X71755Y54991
X73025Y54991
X69850Y54038
X71120Y54038
X72390Y54038
X73660Y54038
X70485Y53086
X71755Y53086
X73025Y53086
X52387Y39624
X54292Y39624
X56197Y39624
X61595Y47561
X62865Y47561
X64135Y47561
X65405Y47561
X66675Y47561
X67945Y47561
X69215Y47561
X70485Y47561
X71755Y47561
X73025Y47561
X10795Y88963
X11747Y88011
X12700Y88963
X13652Y88011
X14605Y88963
X15557Y88011
X16510Y88963
X17463Y88011
X18415Y88963
X19368Y88011
X10795Y87059
X12700Y87059
X14605Y87059
X16510Y87059
X18415Y87059
X11747Y86106
X13652Y86106
X15557Y86106
X17463Y86106
X19368Y86106
X18415Y85154
X16510Y85154
X14605Y85154
X12700Y85154
X10795Y85154
X11747Y84201
X13652Y84201
X15557Y84201
X17463Y84201
X19368Y84201
X22860Y88963
X23812Y88011
X24765Y88963
X25717Y88011
X26670Y88963
X27622Y88011
X28575Y88963
X29527Y88011
X30480Y88963
X31432Y88011
X22860Y87059
X24765Y87059
X26670Y87059
X28575Y87059
X30480Y87059
X23812Y86106
X74613Y69279
X27622Y86106
X29527Y86106
X31432Y86106
X30480Y85154
X28575Y85154
X26670Y85154
X24765Y85154
X22860Y85154
X23812Y84201
X25717Y84201
X27622Y84201
X29527Y84201
X31432Y84201
X10795Y78486
X14605Y78486
X18415Y78486
X22225Y78486
X3810Y84836
X5080Y84836
X6350Y84836
X7620Y84836
X4445Y83884
X5715Y83884
X6985Y83884
X3810Y82931
X5080Y82931
X6350Y82931
X7620Y82931
X4445Y81979
X5715Y81979
X6985Y81979
X3810Y81026
X5080Y81026
X6350Y81026
X7620Y81026
X4445Y80074
X5715Y80074
X6985Y80074
X3810Y79121
X5080Y79121
X6350Y79121
X7620Y79121
X4445Y78169
X5715Y78169
X6985Y78169
X74295Y47561
X61595Y41212
X62865Y41212
X64135Y41212
X65405Y41212
X66675Y41212
X67945Y41212
X69215Y41212
X70485Y41212
X71755Y41212
X73025Y41212
X74295Y41212
X11747Y47244
X13017Y47244
X12382Y46609
X11747Y45974
X13017Y45974
X24130Y47244
X25400Y47244
X24765Y46609
X24130Y45974
X25400Y45974
X41275Y27559
X45720Y27559
X42228Y29781
X45085Y29781
X42228Y26606
X43180Y26606
X44132Y26606
X45085Y26606
X41910Y30734
X43180Y30734
X42545Y31369
X41910Y32004
X43180Y32004
X53975Y30734
X55245Y30734
X54610Y31369
X53975Y32004
X55245Y32004
X43180Y29781
X44132Y29781
X32385Y16764
X31432Y16764
X33338Y16764
X31432Y15811
X32385Y15811
X33338Y15811
X31432Y14859
X32385Y14859
X33338Y14859
X31432Y13906
X32385Y13906
X33338Y13906
X31432Y12954
X32385Y12954
X33338Y12954
X31432Y12001
X32385Y12001
X33338Y12001
X56197Y17717
X58420Y17717
X41275Y23114
X41275Y22161
X42228Y21209
X43180Y21209
X44132Y21209
X45085Y21209
X42228Y24066
X43180Y24066
X44132Y24066
X45085Y24066
X45720Y23114
X45720Y22161
X10795Y22479
X25717Y86106
M30