G04 EAGLE Gerber RS-274X export*
G75*
%MOMM*%
%FSLAX34Y34*%
%LPD*%
%INEAGLE Copper Layer 2*%
%IPPOS*%
%AMOC8*
5,1,8,0,0,1.08239X$1,22.5*%
G01*
%ADD10C,1.524000*%
%ADD11C,0.756400*%
%ADD12C,0.656400*%

G36*
X763598Y6989D02*
X763598Y6989D01*
X763617Y6987D01*
X763719Y7009D01*
X763821Y7025D01*
X763838Y7035D01*
X763858Y7039D01*
X763947Y7092D01*
X764038Y7141D01*
X764052Y7155D01*
X764069Y7165D01*
X764136Y7244D01*
X764208Y7319D01*
X764216Y7337D01*
X764229Y7352D01*
X764268Y7448D01*
X764311Y7542D01*
X764313Y7562D01*
X764321Y7580D01*
X764339Y7747D01*
X764339Y496953D01*
X764336Y496973D01*
X764338Y496992D01*
X764316Y497094D01*
X764300Y497196D01*
X764290Y497213D01*
X764286Y497233D01*
X764233Y497322D01*
X764184Y497413D01*
X764170Y497427D01*
X764160Y497444D01*
X764081Y497511D01*
X764006Y497583D01*
X763988Y497591D01*
X763973Y497604D01*
X763877Y497643D01*
X763783Y497686D01*
X763763Y497688D01*
X763745Y497696D01*
X763578Y497714D01*
X10922Y497714D01*
X10902Y497711D01*
X10883Y497713D01*
X10781Y497691D01*
X10679Y497675D01*
X10662Y497665D01*
X10642Y497661D01*
X10553Y497608D01*
X10462Y497559D01*
X10448Y497545D01*
X10431Y497535D01*
X10364Y497456D01*
X10292Y497381D01*
X10284Y497363D01*
X10271Y497348D01*
X10232Y497252D01*
X10189Y497158D01*
X10187Y497138D01*
X10179Y497120D01*
X10161Y496953D01*
X10161Y7747D01*
X10164Y7727D01*
X10162Y7708D01*
X10184Y7606D01*
X10200Y7504D01*
X10210Y7487D01*
X10214Y7467D01*
X10267Y7378D01*
X10316Y7287D01*
X10330Y7273D01*
X10340Y7256D01*
X10419Y7189D01*
X10494Y7117D01*
X10512Y7109D01*
X10527Y7096D01*
X10623Y7057D01*
X10717Y7014D01*
X10737Y7012D01*
X10755Y7004D01*
X10922Y6986D01*
X763578Y6986D01*
X763598Y6989D01*
G37*
%LPC*%
G36*
X420284Y290468D02*
X420284Y290468D01*
X417468Y293284D01*
X417468Y297266D01*
X418896Y298694D01*
X418938Y298752D01*
X418987Y298804D01*
X419009Y298851D01*
X419040Y298893D01*
X419061Y298962D01*
X419091Y299027D01*
X419097Y299079D01*
X419112Y299129D01*
X419110Y299200D01*
X419118Y299271D01*
X419107Y299322D01*
X419106Y299374D01*
X419081Y299442D01*
X419066Y299512D01*
X419039Y299557D01*
X419021Y299605D01*
X418976Y299661D01*
X418939Y299723D01*
X418900Y299757D01*
X418867Y299797D01*
X418807Y299836D01*
X418753Y299883D01*
X418704Y299902D01*
X418660Y299930D01*
X418591Y299948D01*
X418524Y299975D01*
X418453Y299983D01*
X418422Y299991D01*
X418399Y299989D01*
X418358Y299993D01*
X417109Y299993D01*
X414293Y302809D01*
X414293Y306791D01*
X417109Y309607D01*
X419882Y309607D01*
X419902Y309610D01*
X419921Y309608D01*
X420023Y309630D01*
X420125Y309646D01*
X420142Y309656D01*
X420162Y309660D01*
X420251Y309713D01*
X420342Y309762D01*
X420356Y309776D01*
X420373Y309786D01*
X420440Y309865D01*
X420512Y309940D01*
X420520Y309958D01*
X420533Y309973D01*
X420572Y310069D01*
X420615Y310163D01*
X420617Y310183D01*
X420625Y310201D01*
X420643Y310368D01*
X420643Y311932D01*
X420640Y311952D01*
X420642Y311971D01*
X420620Y312073D01*
X420604Y312175D01*
X420594Y312192D01*
X420590Y312212D01*
X420537Y312301D01*
X420488Y312392D01*
X420474Y312406D01*
X420464Y312423D01*
X420385Y312490D01*
X420310Y312562D01*
X420292Y312570D01*
X420277Y312583D01*
X420181Y312622D01*
X420087Y312665D01*
X420067Y312667D01*
X420049Y312675D01*
X419882Y312693D01*
X417109Y312693D01*
X414293Y315509D01*
X414293Y319491D01*
X417109Y322307D01*
X421091Y322307D01*
X423907Y319491D01*
X423907Y316718D01*
X423910Y316698D01*
X423908Y316679D01*
X423930Y316577D01*
X423946Y316475D01*
X423956Y316458D01*
X423960Y316438D01*
X424013Y316349D01*
X424062Y316258D01*
X424076Y316244D01*
X424086Y316227D01*
X424165Y316160D01*
X424240Y316088D01*
X424258Y316080D01*
X424273Y316067D01*
X424369Y316028D01*
X424463Y315985D01*
X424483Y315983D01*
X424501Y315975D01*
X424668Y315957D01*
X426232Y315957D01*
X426252Y315960D01*
X426271Y315958D01*
X426373Y315980D01*
X426475Y315996D01*
X426492Y316006D01*
X426512Y316010D01*
X426601Y316063D01*
X426692Y316112D01*
X426706Y316126D01*
X426723Y316136D01*
X426790Y316215D01*
X426862Y316290D01*
X426870Y316308D01*
X426883Y316323D01*
X426922Y316419D01*
X426965Y316513D01*
X426967Y316533D01*
X426975Y316551D01*
X426993Y316718D01*
X426993Y319491D01*
X429809Y322307D01*
X433791Y322307D01*
X436607Y319491D01*
X436607Y315509D01*
X433791Y312693D01*
X431018Y312693D01*
X430998Y312690D01*
X430979Y312692D01*
X430877Y312670D01*
X430775Y312654D01*
X430758Y312644D01*
X430738Y312640D01*
X430649Y312587D01*
X430558Y312538D01*
X430544Y312524D01*
X430527Y312514D01*
X430460Y312435D01*
X430388Y312360D01*
X430380Y312342D01*
X430367Y312327D01*
X430328Y312231D01*
X430285Y312137D01*
X430283Y312117D01*
X430275Y312099D01*
X430257Y311932D01*
X430257Y310368D01*
X430260Y310348D01*
X430258Y310329D01*
X430280Y310227D01*
X430296Y310125D01*
X430306Y310108D01*
X430310Y310088D01*
X430363Y309999D01*
X430412Y309908D01*
X430426Y309894D01*
X430436Y309877D01*
X430515Y309810D01*
X430590Y309738D01*
X430608Y309730D01*
X430623Y309717D01*
X430719Y309678D01*
X430813Y309635D01*
X430833Y309633D01*
X430851Y309625D01*
X431018Y309607D01*
X433791Y309607D01*
X436607Y306791D01*
X436607Y302809D01*
X434374Y300576D01*
X434362Y300560D01*
X434346Y300547D01*
X434315Y300498D01*
X434312Y300495D01*
X434309Y300489D01*
X434290Y300460D01*
X434230Y300376D01*
X434224Y300357D01*
X434213Y300340D01*
X434188Y300240D01*
X434158Y300141D01*
X434158Y300121D01*
X434153Y300102D01*
X434161Y299999D01*
X434164Y299895D01*
X434171Y299876D01*
X434172Y299857D01*
X434213Y299761D01*
X434248Y299664D01*
X434261Y299649D01*
X434269Y299630D01*
X434374Y299499D01*
X436024Y297849D01*
X436040Y297837D01*
X436053Y297821D01*
X436140Y297765D01*
X436224Y297705D01*
X436243Y297699D01*
X436260Y297688D01*
X436360Y297663D01*
X436459Y297633D01*
X436479Y297633D01*
X436498Y297628D01*
X436601Y297636D01*
X436705Y297639D01*
X436724Y297646D01*
X436743Y297647D01*
X436838Y297688D01*
X436936Y297723D01*
X436952Y297736D01*
X436970Y297744D01*
X437101Y297849D01*
X439334Y300082D01*
X443316Y300082D01*
X445549Y297849D01*
X445565Y297837D01*
X445578Y297821D01*
X445665Y297765D01*
X445749Y297705D01*
X445768Y297699D01*
X445785Y297688D01*
X445885Y297663D01*
X445984Y297633D01*
X446004Y297633D01*
X446023Y297628D01*
X446126Y297636D01*
X446230Y297639D01*
X446249Y297646D01*
X446269Y297647D01*
X446363Y297688D01*
X446461Y297723D01*
X446477Y297736D01*
X446495Y297744D01*
X446626Y297849D01*
X448859Y300082D01*
X452841Y300082D01*
X455657Y297266D01*
X455657Y293284D01*
X452841Y290468D01*
X448859Y290468D01*
X446626Y292701D01*
X446610Y292713D01*
X446597Y292729D01*
X446510Y292785D01*
X446426Y292845D01*
X446407Y292851D01*
X446390Y292862D01*
X446290Y292887D01*
X446191Y292917D01*
X446171Y292917D01*
X446152Y292922D01*
X446049Y292914D01*
X445945Y292911D01*
X445926Y292904D01*
X445907Y292903D01*
X445812Y292862D01*
X445714Y292827D01*
X445698Y292814D01*
X445680Y292806D01*
X445549Y292701D01*
X443316Y290468D01*
X439334Y290468D01*
X437101Y292701D01*
X437085Y292713D01*
X437072Y292729D01*
X436985Y292785D01*
X436901Y292845D01*
X436882Y292851D01*
X436865Y292862D01*
X436765Y292887D01*
X436666Y292917D01*
X436646Y292917D01*
X436627Y292922D01*
X436524Y292914D01*
X436420Y292911D01*
X436401Y292904D01*
X436381Y292903D01*
X436287Y292862D01*
X436189Y292827D01*
X436173Y292814D01*
X436155Y292806D01*
X436024Y292701D01*
X433791Y290468D01*
X429809Y290468D01*
X427576Y292701D01*
X427560Y292713D01*
X427547Y292729D01*
X427460Y292785D01*
X427376Y292845D01*
X427357Y292851D01*
X427340Y292862D01*
X427240Y292887D01*
X427141Y292917D01*
X427121Y292917D01*
X427102Y292922D01*
X426999Y292914D01*
X426895Y292911D01*
X426876Y292904D01*
X426856Y292903D01*
X426762Y292862D01*
X426664Y292827D01*
X426648Y292814D01*
X426630Y292806D01*
X426499Y292701D01*
X424266Y290468D01*
X420284Y290468D01*
G37*
%LPD*%
%LPC*%
G36*
X706034Y182518D02*
X706034Y182518D01*
X703218Y185334D01*
X703218Y189316D01*
X706034Y192132D01*
X710016Y192132D01*
X712249Y189899D01*
X712265Y189887D01*
X712278Y189871D01*
X712345Y189828D01*
X712382Y189796D01*
X712404Y189788D01*
X712449Y189755D01*
X712468Y189749D01*
X712485Y189738D01*
X712585Y189713D01*
X712600Y189709D01*
X712611Y189704D01*
X712616Y189704D01*
X712684Y189683D01*
X712704Y189683D01*
X712723Y189678D01*
X712826Y189686D01*
X712930Y189689D01*
X712949Y189696D01*
X712969Y189697D01*
X713031Y189724D01*
X713040Y189725D01*
X713064Y189738D01*
X713161Y189773D01*
X713177Y189786D01*
X713195Y189794D01*
X713245Y189834D01*
X713258Y189841D01*
X713272Y189855D01*
X713326Y189899D01*
X715559Y192132D01*
X719541Y192132D01*
X721774Y189899D01*
X721790Y189887D01*
X721803Y189871D01*
X721870Y189828D01*
X721907Y189796D01*
X721929Y189788D01*
X721974Y189755D01*
X721993Y189749D01*
X722010Y189738D01*
X722110Y189713D01*
X722125Y189709D01*
X722136Y189704D01*
X722141Y189704D01*
X722209Y189683D01*
X722229Y189683D01*
X722248Y189678D01*
X722351Y189686D01*
X722455Y189689D01*
X722474Y189696D01*
X722494Y189697D01*
X722556Y189724D01*
X722565Y189725D01*
X722589Y189738D01*
X722686Y189773D01*
X722702Y189786D01*
X722720Y189794D01*
X722770Y189834D01*
X722783Y189841D01*
X722797Y189855D01*
X722851Y189899D01*
X725084Y192132D01*
X729066Y192132D01*
X731299Y189899D01*
X731315Y189887D01*
X731328Y189871D01*
X731395Y189828D01*
X731432Y189796D01*
X731454Y189788D01*
X731499Y189755D01*
X731518Y189749D01*
X731535Y189738D01*
X731635Y189713D01*
X731650Y189709D01*
X731661Y189704D01*
X731666Y189704D01*
X731734Y189683D01*
X731754Y189683D01*
X731773Y189678D01*
X731876Y189686D01*
X731980Y189689D01*
X731999Y189696D01*
X732019Y189697D01*
X732081Y189724D01*
X732090Y189725D01*
X732114Y189738D01*
X732211Y189773D01*
X732227Y189786D01*
X732245Y189794D01*
X732295Y189834D01*
X732308Y189841D01*
X732322Y189855D01*
X732376Y189899D01*
X734609Y192132D01*
X738591Y192132D01*
X740824Y189899D01*
X740840Y189887D01*
X740853Y189871D01*
X740920Y189828D01*
X740957Y189796D01*
X740979Y189788D01*
X741024Y189755D01*
X741043Y189749D01*
X741060Y189738D01*
X741160Y189713D01*
X741175Y189709D01*
X741186Y189704D01*
X741191Y189704D01*
X741259Y189683D01*
X741279Y189683D01*
X741298Y189678D01*
X741401Y189686D01*
X741505Y189689D01*
X741524Y189696D01*
X741544Y189697D01*
X741606Y189724D01*
X741615Y189725D01*
X741639Y189738D01*
X741736Y189773D01*
X741752Y189786D01*
X741770Y189794D01*
X741820Y189834D01*
X741833Y189841D01*
X741847Y189855D01*
X741901Y189899D01*
X744134Y192132D01*
X748116Y192132D01*
X750349Y189899D01*
X750365Y189887D01*
X750378Y189871D01*
X750445Y189828D01*
X750482Y189796D01*
X750504Y189788D01*
X750549Y189755D01*
X750568Y189749D01*
X750585Y189738D01*
X750685Y189713D01*
X750700Y189709D01*
X750711Y189704D01*
X750716Y189704D01*
X750784Y189683D01*
X750804Y189683D01*
X750823Y189678D01*
X750926Y189686D01*
X751030Y189689D01*
X751049Y189696D01*
X751069Y189697D01*
X751131Y189724D01*
X751140Y189725D01*
X751164Y189738D01*
X751261Y189773D01*
X751277Y189786D01*
X751295Y189794D01*
X751345Y189834D01*
X751358Y189841D01*
X751372Y189855D01*
X751426Y189899D01*
X753659Y192132D01*
X757641Y192132D01*
X760457Y189316D01*
X760457Y185334D01*
X757641Y182518D01*
X753659Y182518D01*
X751426Y184751D01*
X751410Y184763D01*
X751397Y184779D01*
X751310Y184835D01*
X751226Y184895D01*
X751207Y184901D01*
X751190Y184912D01*
X751090Y184937D01*
X750991Y184967D01*
X750971Y184967D01*
X750952Y184972D01*
X750849Y184964D01*
X750745Y184961D01*
X750726Y184954D01*
X750707Y184953D01*
X750612Y184912D01*
X750514Y184877D01*
X750498Y184864D01*
X750480Y184856D01*
X750349Y184751D01*
X748116Y182518D01*
X744134Y182518D01*
X741901Y184751D01*
X741885Y184763D01*
X741872Y184779D01*
X741785Y184835D01*
X741701Y184895D01*
X741682Y184901D01*
X741665Y184912D01*
X741565Y184937D01*
X741466Y184967D01*
X741446Y184967D01*
X741427Y184972D01*
X741324Y184964D01*
X741220Y184961D01*
X741201Y184954D01*
X741182Y184953D01*
X741087Y184912D01*
X740989Y184877D01*
X740973Y184864D01*
X740955Y184856D01*
X740824Y184751D01*
X738591Y182518D01*
X734609Y182518D01*
X732376Y184751D01*
X732360Y184763D01*
X732347Y184779D01*
X732260Y184835D01*
X732176Y184895D01*
X732157Y184901D01*
X732140Y184912D01*
X732040Y184937D01*
X731941Y184967D01*
X731921Y184967D01*
X731902Y184972D01*
X731799Y184964D01*
X731695Y184961D01*
X731676Y184954D01*
X731657Y184953D01*
X731562Y184912D01*
X731464Y184877D01*
X731448Y184864D01*
X731430Y184856D01*
X731299Y184751D01*
X729066Y182518D01*
X725084Y182518D01*
X722851Y184751D01*
X722835Y184763D01*
X722822Y184779D01*
X722735Y184835D01*
X722651Y184895D01*
X722632Y184901D01*
X722615Y184912D01*
X722515Y184937D01*
X722416Y184967D01*
X722396Y184967D01*
X722377Y184972D01*
X722274Y184964D01*
X722170Y184961D01*
X722151Y184954D01*
X722132Y184953D01*
X722037Y184912D01*
X721939Y184877D01*
X721923Y184864D01*
X721905Y184856D01*
X721774Y184751D01*
X719541Y182518D01*
X715559Y182518D01*
X713326Y184751D01*
X713310Y184763D01*
X713297Y184779D01*
X713210Y184835D01*
X713126Y184895D01*
X713107Y184901D01*
X713090Y184912D01*
X712990Y184937D01*
X712891Y184967D01*
X712871Y184967D01*
X712852Y184972D01*
X712749Y184964D01*
X712645Y184961D01*
X712626Y184954D01*
X712607Y184953D01*
X712512Y184912D01*
X712414Y184877D01*
X712398Y184864D01*
X712380Y184856D01*
X712249Y184751D01*
X710016Y182518D01*
X706034Y182518D01*
G37*
%LPD*%
%LPC*%
G36*
X706034Y150768D02*
X706034Y150768D01*
X703218Y153584D01*
X703218Y157566D01*
X706034Y160382D01*
X710016Y160382D01*
X712249Y158149D01*
X712265Y158137D01*
X712278Y158121D01*
X712365Y158065D01*
X712449Y158005D01*
X712468Y157999D01*
X712485Y157988D01*
X712585Y157963D01*
X712684Y157933D01*
X712704Y157933D01*
X712723Y157928D01*
X712826Y157936D01*
X712930Y157939D01*
X712949Y157946D01*
X712968Y157947D01*
X713063Y157988D01*
X713161Y158023D01*
X713177Y158036D01*
X713195Y158044D01*
X713326Y158149D01*
X715559Y160382D01*
X719541Y160382D01*
X721774Y158149D01*
X721790Y158137D01*
X721803Y158121D01*
X721890Y158065D01*
X721974Y158005D01*
X721993Y157999D01*
X722010Y157988D01*
X722110Y157963D01*
X722209Y157933D01*
X722229Y157933D01*
X722248Y157928D01*
X722351Y157936D01*
X722455Y157939D01*
X722474Y157946D01*
X722493Y157947D01*
X722588Y157988D01*
X722686Y158023D01*
X722702Y158036D01*
X722720Y158044D01*
X722851Y158149D01*
X725084Y160382D01*
X729066Y160382D01*
X731299Y158149D01*
X731315Y158137D01*
X731328Y158121D01*
X731415Y158065D01*
X731499Y158005D01*
X731518Y157999D01*
X731535Y157988D01*
X731635Y157963D01*
X731734Y157933D01*
X731754Y157933D01*
X731773Y157928D01*
X731876Y157936D01*
X731980Y157939D01*
X731999Y157946D01*
X732018Y157947D01*
X732113Y157988D01*
X732211Y158023D01*
X732227Y158036D01*
X732245Y158044D01*
X732376Y158149D01*
X734609Y160382D01*
X738591Y160382D01*
X740824Y158149D01*
X740840Y158137D01*
X740853Y158121D01*
X740940Y158065D01*
X741024Y158005D01*
X741043Y157999D01*
X741060Y157988D01*
X741160Y157963D01*
X741259Y157933D01*
X741279Y157933D01*
X741298Y157928D01*
X741401Y157936D01*
X741505Y157939D01*
X741524Y157946D01*
X741543Y157947D01*
X741638Y157988D01*
X741736Y158023D01*
X741752Y158036D01*
X741770Y158044D01*
X741901Y158149D01*
X744134Y160382D01*
X748116Y160382D01*
X750932Y157566D01*
X750932Y153584D01*
X748116Y150768D01*
X744134Y150768D01*
X741901Y153001D01*
X741885Y153013D01*
X741872Y153029D01*
X741785Y153085D01*
X741701Y153145D01*
X741682Y153151D01*
X741665Y153162D01*
X741565Y153187D01*
X741466Y153217D01*
X741446Y153217D01*
X741427Y153222D01*
X741324Y153214D01*
X741220Y153211D01*
X741201Y153204D01*
X741181Y153203D01*
X741087Y153162D01*
X740989Y153127D01*
X740973Y153114D01*
X740955Y153106D01*
X740824Y153001D01*
X738591Y150768D01*
X734609Y150768D01*
X732376Y153001D01*
X732360Y153013D01*
X732347Y153029D01*
X732260Y153085D01*
X732176Y153145D01*
X732157Y153151D01*
X732140Y153162D01*
X732040Y153187D01*
X731941Y153217D01*
X731921Y153217D01*
X731902Y153222D01*
X731799Y153214D01*
X731695Y153211D01*
X731676Y153204D01*
X731656Y153203D01*
X731562Y153162D01*
X731464Y153127D01*
X731448Y153114D01*
X731430Y153106D01*
X731299Y153001D01*
X729066Y150768D01*
X725084Y150768D01*
X722851Y153001D01*
X722835Y153013D01*
X722822Y153029D01*
X722735Y153085D01*
X722651Y153145D01*
X722632Y153151D01*
X722615Y153162D01*
X722515Y153187D01*
X722416Y153217D01*
X722396Y153217D01*
X722377Y153222D01*
X722274Y153214D01*
X722170Y153211D01*
X722151Y153204D01*
X722131Y153203D01*
X722037Y153162D01*
X721939Y153127D01*
X721923Y153114D01*
X721905Y153106D01*
X721774Y153001D01*
X719541Y150768D01*
X715559Y150768D01*
X713326Y153001D01*
X713310Y153013D01*
X713297Y153029D01*
X713210Y153085D01*
X713126Y153145D01*
X713107Y153151D01*
X713090Y153162D01*
X712990Y153187D01*
X712891Y153217D01*
X712871Y153217D01*
X712852Y153222D01*
X712749Y153214D01*
X712645Y153211D01*
X712626Y153204D01*
X712606Y153203D01*
X712512Y153162D01*
X712414Y153127D01*
X712398Y153114D01*
X712380Y153106D01*
X712249Y153001D01*
X710016Y150768D01*
X706034Y150768D01*
G37*
%LPD*%
%LPC*%
G36*
X239309Y452393D02*
X239309Y452393D01*
X236493Y455209D01*
X236493Y459191D01*
X239309Y462007D01*
X242082Y462007D01*
X242102Y462010D01*
X242121Y462008D01*
X242223Y462030D01*
X242325Y462046D01*
X242342Y462056D01*
X242362Y462060D01*
X242451Y462113D01*
X242542Y462162D01*
X242556Y462176D01*
X242573Y462186D01*
X242640Y462265D01*
X242712Y462340D01*
X242720Y462358D01*
X242733Y462373D01*
X242772Y462469D01*
X242815Y462563D01*
X242817Y462583D01*
X242825Y462601D01*
X242843Y462768D01*
X242843Y464332D01*
X242840Y464352D01*
X242842Y464371D01*
X242820Y464473D01*
X242804Y464575D01*
X242794Y464592D01*
X242790Y464612D01*
X242737Y464701D01*
X242688Y464792D01*
X242674Y464806D01*
X242664Y464823D01*
X242585Y464890D01*
X242510Y464962D01*
X242492Y464970D01*
X242477Y464983D01*
X242381Y465022D01*
X242287Y465065D01*
X242267Y465067D01*
X242249Y465075D01*
X242082Y465093D01*
X239309Y465093D01*
X236493Y467909D01*
X236493Y471891D01*
X239309Y474707D01*
X243291Y474707D01*
X246107Y471891D01*
X246107Y469118D01*
X246110Y469098D01*
X246108Y469079D01*
X246130Y468977D01*
X246146Y468875D01*
X246156Y468858D01*
X246160Y468838D01*
X246213Y468749D01*
X246262Y468658D01*
X246276Y468644D01*
X246286Y468627D01*
X246365Y468560D01*
X246440Y468488D01*
X246458Y468480D01*
X246473Y468467D01*
X246569Y468428D01*
X246663Y468385D01*
X246683Y468383D01*
X246701Y468375D01*
X246868Y468357D01*
X248432Y468357D01*
X248452Y468360D01*
X248471Y468358D01*
X248573Y468380D01*
X248675Y468396D01*
X248692Y468406D01*
X248712Y468410D01*
X248801Y468463D01*
X248892Y468512D01*
X248906Y468526D01*
X248923Y468536D01*
X248990Y468615D01*
X249062Y468690D01*
X249070Y468708D01*
X249083Y468723D01*
X249122Y468819D01*
X249165Y468913D01*
X249167Y468933D01*
X249175Y468951D01*
X249193Y469118D01*
X249193Y471891D01*
X252009Y474707D01*
X255991Y474707D01*
X258807Y471891D01*
X258807Y467909D01*
X255991Y465093D01*
X253218Y465093D01*
X253198Y465090D01*
X253179Y465092D01*
X253077Y465070D01*
X252975Y465054D01*
X252958Y465044D01*
X252938Y465040D01*
X252849Y464987D01*
X252758Y464938D01*
X252744Y464924D01*
X252727Y464914D01*
X252660Y464835D01*
X252588Y464760D01*
X252580Y464742D01*
X252567Y464727D01*
X252528Y464631D01*
X252485Y464537D01*
X252483Y464517D01*
X252475Y464499D01*
X252457Y464332D01*
X252457Y462768D01*
X252460Y462748D01*
X252458Y462729D01*
X252480Y462627D01*
X252496Y462525D01*
X252506Y462508D01*
X252510Y462488D01*
X252563Y462399D01*
X252612Y462308D01*
X252626Y462294D01*
X252636Y462277D01*
X252715Y462210D01*
X252790Y462138D01*
X252808Y462130D01*
X252823Y462117D01*
X252919Y462078D01*
X253013Y462035D01*
X253033Y462033D01*
X253051Y462025D01*
X253218Y462007D01*
X255991Y462007D01*
X258807Y459191D01*
X258807Y455209D01*
X255991Y452393D01*
X252009Y452393D01*
X249193Y455209D01*
X249193Y457982D01*
X249190Y458002D01*
X249192Y458021D01*
X249170Y458123D01*
X249154Y458225D01*
X249144Y458242D01*
X249140Y458262D01*
X249087Y458351D01*
X249038Y458442D01*
X249024Y458456D01*
X249014Y458473D01*
X248935Y458540D01*
X248860Y458612D01*
X248842Y458620D01*
X248827Y458633D01*
X248731Y458672D01*
X248637Y458715D01*
X248617Y458717D01*
X248599Y458725D01*
X248432Y458743D01*
X246868Y458743D01*
X246848Y458740D01*
X246829Y458742D01*
X246727Y458720D01*
X246625Y458704D01*
X246608Y458694D01*
X246588Y458690D01*
X246499Y458637D01*
X246408Y458588D01*
X246394Y458574D01*
X246377Y458564D01*
X246310Y458485D01*
X246238Y458410D01*
X246230Y458392D01*
X246217Y458377D01*
X246178Y458281D01*
X246135Y458187D01*
X246133Y458167D01*
X246125Y458149D01*
X246107Y457982D01*
X246107Y455209D01*
X243291Y452393D01*
X239309Y452393D01*
G37*
%LPD*%
%LPC*%
G36*
X115484Y452393D02*
X115484Y452393D01*
X112668Y455209D01*
X112668Y459191D01*
X115484Y462007D01*
X118257Y462007D01*
X118277Y462010D01*
X118296Y462008D01*
X118398Y462030D01*
X118500Y462046D01*
X118517Y462056D01*
X118537Y462060D01*
X118626Y462113D01*
X118717Y462162D01*
X118731Y462176D01*
X118748Y462186D01*
X118815Y462265D01*
X118887Y462340D01*
X118895Y462358D01*
X118908Y462373D01*
X118947Y462469D01*
X118990Y462563D01*
X118992Y462583D01*
X119000Y462601D01*
X119018Y462768D01*
X119018Y464332D01*
X119015Y464352D01*
X119017Y464371D01*
X118995Y464473D01*
X118979Y464575D01*
X118969Y464592D01*
X118965Y464612D01*
X118912Y464701D01*
X118863Y464792D01*
X118849Y464806D01*
X118839Y464823D01*
X118760Y464890D01*
X118685Y464962D01*
X118667Y464970D01*
X118652Y464983D01*
X118556Y465022D01*
X118462Y465065D01*
X118442Y465067D01*
X118424Y465075D01*
X118257Y465093D01*
X115484Y465093D01*
X112668Y467909D01*
X112668Y471891D01*
X115484Y474707D01*
X119466Y474707D01*
X122282Y471891D01*
X122282Y469118D01*
X122285Y469098D01*
X122283Y469079D01*
X122305Y468977D01*
X122321Y468875D01*
X122331Y468858D01*
X122335Y468838D01*
X122388Y468749D01*
X122437Y468658D01*
X122451Y468644D01*
X122461Y468627D01*
X122540Y468560D01*
X122615Y468488D01*
X122633Y468480D01*
X122648Y468467D01*
X122744Y468428D01*
X122838Y468385D01*
X122858Y468383D01*
X122876Y468375D01*
X123043Y468357D01*
X124607Y468357D01*
X124627Y468360D01*
X124646Y468358D01*
X124748Y468380D01*
X124850Y468396D01*
X124867Y468406D01*
X124887Y468410D01*
X124976Y468463D01*
X125067Y468512D01*
X125081Y468526D01*
X125098Y468536D01*
X125165Y468615D01*
X125237Y468690D01*
X125245Y468708D01*
X125258Y468723D01*
X125297Y468819D01*
X125340Y468913D01*
X125342Y468933D01*
X125350Y468951D01*
X125368Y469118D01*
X125368Y471891D01*
X128184Y474707D01*
X132166Y474707D01*
X134982Y471891D01*
X134982Y467909D01*
X132166Y465093D01*
X129393Y465093D01*
X129373Y465090D01*
X129354Y465092D01*
X129252Y465070D01*
X129150Y465054D01*
X129133Y465044D01*
X129113Y465040D01*
X129024Y464987D01*
X128933Y464938D01*
X128919Y464924D01*
X128902Y464914D01*
X128835Y464835D01*
X128763Y464760D01*
X128755Y464742D01*
X128742Y464727D01*
X128703Y464631D01*
X128660Y464537D01*
X128658Y464517D01*
X128650Y464499D01*
X128632Y464332D01*
X128632Y462768D01*
X128635Y462748D01*
X128633Y462729D01*
X128655Y462627D01*
X128671Y462525D01*
X128681Y462508D01*
X128685Y462488D01*
X128738Y462399D01*
X128787Y462308D01*
X128801Y462294D01*
X128811Y462277D01*
X128890Y462210D01*
X128965Y462138D01*
X128983Y462130D01*
X128998Y462117D01*
X129094Y462078D01*
X129188Y462035D01*
X129208Y462033D01*
X129226Y462025D01*
X129393Y462007D01*
X132166Y462007D01*
X134982Y459191D01*
X134982Y455209D01*
X132166Y452393D01*
X128184Y452393D01*
X125368Y455209D01*
X125368Y457982D01*
X125365Y458002D01*
X125367Y458021D01*
X125345Y458123D01*
X125329Y458225D01*
X125319Y458242D01*
X125315Y458262D01*
X125262Y458351D01*
X125213Y458442D01*
X125199Y458456D01*
X125189Y458473D01*
X125110Y458540D01*
X125035Y458612D01*
X125017Y458620D01*
X125002Y458633D01*
X124906Y458672D01*
X124812Y458715D01*
X124792Y458717D01*
X124774Y458725D01*
X124607Y458743D01*
X123043Y458743D01*
X123023Y458740D01*
X123004Y458742D01*
X122902Y458720D01*
X122800Y458704D01*
X122783Y458694D01*
X122763Y458690D01*
X122674Y458637D01*
X122583Y458588D01*
X122569Y458574D01*
X122552Y458564D01*
X122485Y458485D01*
X122413Y458410D01*
X122405Y458392D01*
X122392Y458377D01*
X122353Y458281D01*
X122310Y458187D01*
X122308Y458167D01*
X122300Y458149D01*
X122282Y457982D01*
X122282Y455209D01*
X119466Y452393D01*
X115484Y452393D01*
G37*
%LPD*%
%LPC*%
G36*
X537759Y299993D02*
X537759Y299993D01*
X534943Y302809D01*
X534943Y306791D01*
X537759Y309607D01*
X540532Y309607D01*
X540552Y309610D01*
X540571Y309608D01*
X540673Y309630D01*
X540775Y309646D01*
X540792Y309656D01*
X540812Y309660D01*
X540901Y309713D01*
X540992Y309762D01*
X541006Y309776D01*
X541023Y309786D01*
X541090Y309865D01*
X541162Y309940D01*
X541170Y309958D01*
X541183Y309973D01*
X541222Y310069D01*
X541265Y310163D01*
X541267Y310183D01*
X541275Y310201D01*
X541293Y310368D01*
X541293Y311932D01*
X541290Y311952D01*
X541292Y311971D01*
X541270Y312073D01*
X541254Y312175D01*
X541244Y312192D01*
X541240Y312212D01*
X541187Y312301D01*
X541138Y312392D01*
X541124Y312406D01*
X541114Y312423D01*
X541035Y312490D01*
X540960Y312562D01*
X540942Y312570D01*
X540927Y312583D01*
X540831Y312622D01*
X540737Y312665D01*
X540717Y312667D01*
X540699Y312675D01*
X540532Y312693D01*
X537759Y312693D01*
X534943Y315509D01*
X534943Y319491D01*
X537759Y322307D01*
X541741Y322307D01*
X544557Y319491D01*
X544557Y316718D01*
X544560Y316698D01*
X544558Y316679D01*
X544580Y316577D01*
X544596Y316475D01*
X544606Y316458D01*
X544610Y316438D01*
X544663Y316349D01*
X544712Y316258D01*
X544726Y316244D01*
X544736Y316227D01*
X544815Y316160D01*
X544890Y316088D01*
X544908Y316080D01*
X544923Y316067D01*
X545019Y316028D01*
X545113Y315985D01*
X545133Y315983D01*
X545151Y315975D01*
X545318Y315957D01*
X546882Y315957D01*
X546902Y315960D01*
X546921Y315958D01*
X547023Y315980D01*
X547125Y315996D01*
X547142Y316006D01*
X547162Y316010D01*
X547251Y316063D01*
X547342Y316112D01*
X547356Y316126D01*
X547373Y316136D01*
X547440Y316215D01*
X547512Y316290D01*
X547520Y316308D01*
X547533Y316323D01*
X547572Y316419D01*
X547615Y316513D01*
X547617Y316533D01*
X547625Y316551D01*
X547643Y316718D01*
X547643Y319491D01*
X550459Y322307D01*
X554441Y322307D01*
X557257Y319491D01*
X557257Y315509D01*
X554441Y312693D01*
X551668Y312693D01*
X551648Y312690D01*
X551629Y312692D01*
X551527Y312670D01*
X551425Y312654D01*
X551408Y312644D01*
X551388Y312640D01*
X551299Y312587D01*
X551208Y312538D01*
X551194Y312524D01*
X551177Y312514D01*
X551110Y312435D01*
X551038Y312360D01*
X551030Y312342D01*
X551017Y312327D01*
X550978Y312231D01*
X550935Y312137D01*
X550933Y312117D01*
X550925Y312099D01*
X550907Y311932D01*
X550907Y310368D01*
X550910Y310348D01*
X550908Y310329D01*
X550930Y310227D01*
X550946Y310125D01*
X550956Y310108D01*
X550960Y310088D01*
X551013Y309999D01*
X551062Y309908D01*
X551076Y309894D01*
X551086Y309877D01*
X551165Y309810D01*
X551240Y309738D01*
X551258Y309730D01*
X551273Y309717D01*
X551369Y309678D01*
X551463Y309635D01*
X551483Y309633D01*
X551501Y309625D01*
X551668Y309607D01*
X554441Y309607D01*
X557257Y306791D01*
X557257Y302809D01*
X554441Y299993D01*
X550459Y299993D01*
X547643Y302809D01*
X547643Y305582D01*
X547640Y305602D01*
X547642Y305621D01*
X547620Y305723D01*
X547604Y305825D01*
X547594Y305842D01*
X547590Y305862D01*
X547537Y305951D01*
X547488Y306042D01*
X547474Y306056D01*
X547464Y306073D01*
X547385Y306140D01*
X547310Y306212D01*
X547292Y306220D01*
X547277Y306233D01*
X547181Y306272D01*
X547087Y306315D01*
X547067Y306317D01*
X547049Y306325D01*
X546882Y306343D01*
X545318Y306343D01*
X545298Y306340D01*
X545279Y306342D01*
X545177Y306320D01*
X545075Y306304D01*
X545058Y306294D01*
X545038Y306290D01*
X544949Y306237D01*
X544858Y306188D01*
X544844Y306174D01*
X544827Y306164D01*
X544760Y306085D01*
X544688Y306010D01*
X544680Y305992D01*
X544667Y305977D01*
X544628Y305881D01*
X544585Y305787D01*
X544583Y305767D01*
X544575Y305749D01*
X544557Y305582D01*
X544557Y302809D01*
X541741Y299993D01*
X537759Y299993D01*
G37*
%LPD*%
%LPC*%
G36*
X420284Y258718D02*
X420284Y258718D01*
X417468Y261534D01*
X417468Y265516D01*
X420284Y268332D01*
X424266Y268332D01*
X426499Y266099D01*
X426515Y266087D01*
X426528Y266071D01*
X426615Y266015D01*
X426699Y265955D01*
X426718Y265949D01*
X426735Y265938D01*
X426835Y265913D01*
X426934Y265883D01*
X426954Y265883D01*
X426973Y265878D01*
X427076Y265886D01*
X427180Y265889D01*
X427199Y265896D01*
X427218Y265897D01*
X427313Y265938D01*
X427411Y265973D01*
X427427Y265986D01*
X427445Y265994D01*
X427576Y266099D01*
X429809Y268332D01*
X433791Y268332D01*
X436024Y266099D01*
X436040Y266087D01*
X436053Y266071D01*
X436140Y266015D01*
X436224Y265955D01*
X436243Y265949D01*
X436260Y265938D01*
X436360Y265913D01*
X436459Y265883D01*
X436479Y265883D01*
X436498Y265878D01*
X436601Y265886D01*
X436705Y265889D01*
X436724Y265896D01*
X436743Y265897D01*
X436838Y265938D01*
X436936Y265973D01*
X436952Y265986D01*
X436970Y265994D01*
X437101Y266099D01*
X439334Y268332D01*
X443316Y268332D01*
X445549Y266099D01*
X445565Y266087D01*
X445578Y266071D01*
X445665Y266015D01*
X445749Y265955D01*
X445768Y265949D01*
X445785Y265938D01*
X445885Y265913D01*
X445984Y265883D01*
X446004Y265883D01*
X446023Y265878D01*
X446126Y265886D01*
X446230Y265889D01*
X446249Y265896D01*
X446268Y265897D01*
X446363Y265938D01*
X446461Y265973D01*
X446477Y265986D01*
X446495Y265994D01*
X446626Y266099D01*
X448859Y268332D01*
X452841Y268332D01*
X455657Y265516D01*
X455657Y261534D01*
X452841Y258718D01*
X448859Y258718D01*
X446626Y260951D01*
X446610Y260963D01*
X446597Y260979D01*
X446510Y261035D01*
X446426Y261095D01*
X446407Y261101D01*
X446390Y261112D01*
X446290Y261137D01*
X446191Y261167D01*
X446171Y261167D01*
X446152Y261172D01*
X446049Y261164D01*
X445945Y261161D01*
X445926Y261154D01*
X445906Y261153D01*
X445812Y261112D01*
X445714Y261077D01*
X445698Y261064D01*
X445680Y261056D01*
X445549Y260951D01*
X443316Y258718D01*
X439334Y258718D01*
X437101Y260951D01*
X437085Y260963D01*
X437072Y260979D01*
X436985Y261035D01*
X436901Y261095D01*
X436882Y261101D01*
X436865Y261112D01*
X436765Y261137D01*
X436666Y261167D01*
X436646Y261167D01*
X436627Y261172D01*
X436524Y261164D01*
X436420Y261161D01*
X436401Y261154D01*
X436381Y261153D01*
X436287Y261112D01*
X436189Y261077D01*
X436173Y261064D01*
X436155Y261056D01*
X436024Y260951D01*
X433791Y258718D01*
X429809Y258718D01*
X427576Y260951D01*
X427560Y260963D01*
X427547Y260979D01*
X427460Y261035D01*
X427376Y261095D01*
X427357Y261101D01*
X427340Y261112D01*
X427240Y261137D01*
X427141Y261167D01*
X427121Y261167D01*
X427102Y261172D01*
X426999Y261164D01*
X426895Y261161D01*
X426876Y261154D01*
X426856Y261153D01*
X426762Y261112D01*
X426664Y261077D01*
X426648Y261064D01*
X426630Y261056D01*
X426499Y260951D01*
X424266Y258718D01*
X420284Y258718D01*
G37*
%LPD*%
%LPC*%
G36*
X147406Y44830D02*
X147406Y44830D01*
X144045Y46222D01*
X141472Y48795D01*
X140080Y52156D01*
X140080Y55794D01*
X141472Y59155D01*
X144045Y61728D01*
X147406Y63120D01*
X151044Y63120D01*
X154405Y61728D01*
X156978Y59155D01*
X158370Y55794D01*
X158370Y52156D01*
X156978Y48795D01*
X154405Y46222D01*
X151044Y44830D01*
X147406Y44830D01*
G37*
%LPD*%
%LPC*%
G36*
X122006Y44830D02*
X122006Y44830D01*
X118645Y46222D01*
X116072Y48795D01*
X114680Y52156D01*
X114680Y55794D01*
X116072Y59155D01*
X118645Y61728D01*
X122006Y63120D01*
X125644Y63120D01*
X129005Y61728D01*
X131578Y59155D01*
X132970Y55794D01*
X132970Y52156D01*
X131578Y48795D01*
X129005Y46222D01*
X125644Y44830D01*
X122006Y44830D01*
G37*
%LPD*%
%LPC*%
G36*
X96606Y44830D02*
X96606Y44830D01*
X93245Y46222D01*
X90672Y48795D01*
X89280Y52156D01*
X89280Y55794D01*
X90672Y59155D01*
X93245Y61728D01*
X96606Y63120D01*
X100244Y63120D01*
X103605Y61728D01*
X106178Y59155D01*
X107570Y55794D01*
X107570Y52156D01*
X106178Y48795D01*
X103605Y46222D01*
X100244Y44830D01*
X96606Y44830D01*
G37*
%LPD*%
%LPC*%
G36*
X71206Y44830D02*
X71206Y44830D01*
X67845Y46222D01*
X65272Y48795D01*
X63880Y52156D01*
X63880Y55794D01*
X65272Y59155D01*
X67845Y61728D01*
X71206Y63120D01*
X74844Y63120D01*
X78205Y61728D01*
X80778Y59155D01*
X82170Y55794D01*
X82170Y52156D01*
X80778Y48795D01*
X78205Y46222D01*
X74844Y44830D01*
X71206Y44830D01*
G37*
%LPD*%
%LPC*%
G36*
X270626Y108542D02*
X270626Y108542D01*
X267517Y111651D01*
X267517Y116047D01*
X269882Y118412D01*
X269894Y118428D01*
X269909Y118440D01*
X269965Y118528D01*
X270025Y118611D01*
X270031Y118630D01*
X270042Y118647D01*
X270067Y118748D01*
X270098Y118846D01*
X270097Y118866D01*
X270102Y118886D01*
X270094Y118989D01*
X270091Y119092D01*
X270085Y119111D01*
X270083Y119131D01*
X270043Y119226D01*
X270007Y119323D01*
X269995Y119339D01*
X269987Y119357D01*
X269882Y119488D01*
X267743Y121627D01*
X267743Y126023D01*
X270852Y129132D01*
X275248Y129132D01*
X278357Y126023D01*
X278357Y121627D01*
X275992Y119262D01*
X275981Y119246D01*
X275965Y119234D01*
X275909Y119147D01*
X275849Y119063D01*
X275843Y119044D01*
X275832Y119027D01*
X275807Y118926D01*
X275776Y118828D01*
X275777Y118808D01*
X275772Y118788D01*
X275780Y118685D01*
X275783Y118582D01*
X275790Y118563D01*
X275791Y118543D01*
X275831Y118448D01*
X275867Y118351D01*
X275880Y118335D01*
X275887Y118317D01*
X275992Y118186D01*
X278131Y116047D01*
X278131Y111651D01*
X275022Y108542D01*
X270626Y108542D01*
G37*
%LPD*%
%LPC*%
G36*
X270681Y134222D02*
X270681Y134222D01*
X267572Y137331D01*
X267572Y141727D01*
X270681Y144836D01*
X273332Y144836D01*
X273352Y144839D01*
X273371Y144837D01*
X273473Y144859D01*
X273575Y144875D01*
X273592Y144885D01*
X273612Y144889D01*
X273701Y144942D01*
X273792Y144990D01*
X273806Y145005D01*
X273823Y145015D01*
X273890Y145094D01*
X273962Y145169D01*
X273970Y145187D01*
X273983Y145202D01*
X274022Y145298D01*
X274065Y145392D01*
X274067Y145412D01*
X274075Y145430D01*
X274093Y145597D01*
X274093Y148399D01*
X277202Y151508D01*
X281598Y151508D01*
X284707Y148399D01*
X284707Y144003D01*
X281598Y140894D01*
X278947Y140894D01*
X278927Y140891D01*
X278907Y140893D01*
X278806Y140871D01*
X278704Y140855D01*
X278687Y140845D01*
X278667Y140841D01*
X278578Y140788D01*
X278487Y140739D01*
X278473Y140725D01*
X278456Y140715D01*
X278389Y140636D01*
X278317Y140561D01*
X278309Y140543D01*
X278296Y140528D01*
X278257Y140432D01*
X278214Y140338D01*
X278212Y140318D01*
X278204Y140300D01*
X278186Y140133D01*
X278186Y137331D01*
X275077Y134222D01*
X270681Y134222D01*
G37*
%LPD*%
%LPC*%
G36*
X397852Y370077D02*
X397852Y370077D01*
X394743Y373186D01*
X394743Y377582D01*
X397852Y380691D01*
X402248Y380691D01*
X405357Y377582D01*
X405357Y373186D01*
X402248Y370077D01*
X397852Y370077D01*
G37*
%LPD*%
%LPC*%
G36*
X280377Y448718D02*
X280377Y448718D01*
X277268Y451827D01*
X277268Y456223D01*
X280377Y459332D01*
X284773Y459332D01*
X287882Y456223D01*
X287882Y451827D01*
X284773Y448718D01*
X280377Y448718D01*
G37*
%LPD*%
%LPC*%
G36*
X188302Y448718D02*
X188302Y448718D01*
X185193Y451827D01*
X185193Y456223D01*
X188302Y459332D01*
X192698Y459332D01*
X195807Y456223D01*
X195807Y451827D01*
X192698Y448718D01*
X188302Y448718D01*
G37*
%LPD*%
%LPC*%
G36*
X388327Y315368D02*
X388327Y315368D01*
X385218Y318477D01*
X385218Y322873D01*
X388327Y325982D01*
X392723Y325982D01*
X395832Y322873D01*
X395832Y318477D01*
X392723Y315368D01*
X388327Y315368D01*
G37*
%LPD*%
%LPC*%
G36*
X477227Y315368D02*
X477227Y315368D01*
X474118Y318477D01*
X474118Y322873D01*
X477227Y325982D01*
X481623Y325982D01*
X484732Y322873D01*
X484732Y318477D01*
X481623Y315368D01*
X477227Y315368D01*
G37*
%LPD*%
%LPC*%
G36*
X347052Y270918D02*
X347052Y270918D01*
X343943Y274027D01*
X343943Y278423D01*
X347052Y281532D01*
X351448Y281532D01*
X354557Y278423D01*
X354557Y274027D01*
X351448Y270918D01*
X347052Y270918D01*
G37*
%LPD*%
%LPC*%
G36*
X258152Y264568D02*
X258152Y264568D01*
X255043Y267677D01*
X255043Y272073D01*
X258152Y275182D01*
X262548Y275182D01*
X265657Y272073D01*
X265657Y267677D01*
X262548Y264568D01*
X258152Y264568D01*
G37*
%LPD*%
%LPC*%
G36*
X162902Y258218D02*
X162902Y258218D01*
X159793Y261327D01*
X159793Y265723D01*
X162902Y268832D01*
X167298Y268832D01*
X170407Y265723D01*
X170407Y261327D01*
X167298Y258218D01*
X162902Y258218D01*
G37*
%LPD*%
%LPC*%
G36*
X315302Y226468D02*
X315302Y226468D01*
X312193Y229577D01*
X312193Y233973D01*
X315302Y237082D01*
X319698Y237082D01*
X322807Y233973D01*
X322807Y229577D01*
X319698Y226468D01*
X315302Y226468D01*
G37*
%LPD*%
%LPC*%
G36*
X518502Y216943D02*
X518502Y216943D01*
X515393Y220052D01*
X515393Y224448D01*
X518502Y227557D01*
X522898Y227557D01*
X526007Y224448D01*
X526007Y220052D01*
X522898Y216943D01*
X518502Y216943D01*
G37*
%LPD*%
%LPC*%
G36*
X540727Y204243D02*
X540727Y204243D01*
X537618Y207352D01*
X537618Y211748D01*
X540727Y214857D01*
X545123Y214857D01*
X548232Y211748D01*
X548232Y207352D01*
X545123Y204243D01*
X540727Y204243D01*
G37*
%LPD*%
%LPC*%
G36*
X226402Y197893D02*
X226402Y197893D01*
X223293Y201002D01*
X223293Y205398D01*
X226402Y208507D01*
X230798Y208507D01*
X233907Y205398D01*
X233907Y201002D01*
X230798Y197893D01*
X226402Y197893D01*
G37*
%LPD*%
%LPC*%
G36*
X162902Y191543D02*
X162902Y191543D01*
X159793Y194652D01*
X159793Y199048D01*
X162902Y202157D01*
X167298Y202157D01*
X170407Y199048D01*
X170407Y194652D01*
X167298Y191543D01*
X162902Y191543D01*
G37*
%LPD*%
%LPC*%
G36*
X366102Y163719D02*
X366102Y163719D01*
X362993Y166828D01*
X362993Y171224D01*
X366102Y174333D01*
X370498Y174333D01*
X373607Y171224D01*
X373607Y166828D01*
X370498Y163719D01*
X366102Y163719D01*
G37*
%LPD*%
%LPC*%
G36*
X470877Y128043D02*
X470877Y128043D01*
X467768Y131152D01*
X467768Y135548D01*
X470877Y138657D01*
X475273Y138657D01*
X478382Y135548D01*
X478382Y131152D01*
X475273Y128043D01*
X470877Y128043D01*
G37*
%LPD*%
%LPC*%
G36*
X363458Y108687D02*
X363458Y108687D01*
X360349Y111796D01*
X360349Y116192D01*
X363458Y119301D01*
X367854Y119301D01*
X370963Y116192D01*
X370963Y111796D01*
X367854Y108687D01*
X363458Y108687D01*
G37*
%LPD*%
%LPC*%
G36*
X461352Y105818D02*
X461352Y105818D01*
X458243Y108927D01*
X458243Y113323D01*
X461352Y116432D01*
X465748Y116432D01*
X468857Y113323D01*
X468857Y108927D01*
X465748Y105818D01*
X461352Y105818D01*
G37*
%LPD*%
%LPC*%
G36*
X334352Y20093D02*
X334352Y20093D01*
X331243Y23202D01*
X331243Y27598D01*
X334352Y30707D01*
X338748Y30707D01*
X341857Y27598D01*
X341857Y23202D01*
X338748Y20093D01*
X334352Y20093D01*
G37*
%LPD*%
%LPC*%
G36*
X442509Y426993D02*
X442509Y426993D01*
X439693Y429809D01*
X439693Y433791D01*
X442509Y436607D01*
X446491Y436607D01*
X449307Y433791D01*
X449307Y429809D01*
X446491Y426993D01*
X442509Y426993D01*
G37*
%LPD*%
%LPC*%
G36*
X423459Y426993D02*
X423459Y426993D01*
X420643Y429809D01*
X420643Y433791D01*
X423459Y436607D01*
X427441Y436607D01*
X430257Y433791D01*
X430257Y429809D01*
X427441Y426993D01*
X423459Y426993D01*
G37*
%LPD*%
%LPC*%
G36*
X404409Y426993D02*
X404409Y426993D01*
X401593Y429809D01*
X401593Y433791D01*
X404409Y436607D01*
X408391Y436607D01*
X411207Y433791D01*
X411207Y429809D01*
X408391Y426993D01*
X404409Y426993D01*
G37*
%LPD*%
%LPC*%
G36*
X385359Y426993D02*
X385359Y426993D01*
X382543Y429809D01*
X382543Y433791D01*
X385359Y436607D01*
X389341Y436607D01*
X392157Y433791D01*
X392157Y429809D01*
X389341Y426993D01*
X385359Y426993D01*
G37*
%LPD*%
%LPC*%
G36*
X366309Y426993D02*
X366309Y426993D01*
X363493Y429809D01*
X363493Y433791D01*
X366309Y436607D01*
X370291Y436607D01*
X373107Y433791D01*
X373107Y429809D01*
X370291Y426993D01*
X366309Y426993D01*
G37*
%LPD*%
%LPC*%
G36*
X550459Y417468D02*
X550459Y417468D01*
X547643Y420284D01*
X547643Y424266D01*
X550459Y427082D01*
X554441Y427082D01*
X557257Y424266D01*
X557257Y420284D01*
X554441Y417468D01*
X550459Y417468D01*
G37*
%LPD*%
%LPC*%
G36*
X531409Y417468D02*
X531409Y417468D01*
X528593Y420284D01*
X528593Y424266D01*
X531409Y427082D01*
X535391Y427082D01*
X538207Y424266D01*
X538207Y420284D01*
X535391Y417468D01*
X531409Y417468D01*
G37*
%LPD*%
%LPC*%
G36*
X512359Y417468D02*
X512359Y417468D01*
X509543Y420284D01*
X509543Y424266D01*
X512359Y427082D01*
X516341Y427082D01*
X519157Y424266D01*
X519157Y420284D01*
X516341Y417468D01*
X512359Y417468D01*
G37*
%LPD*%
%LPC*%
G36*
X493309Y417468D02*
X493309Y417468D01*
X490493Y420284D01*
X490493Y424266D01*
X493309Y427082D01*
X497291Y427082D01*
X500107Y424266D01*
X500107Y420284D01*
X497291Y417468D01*
X493309Y417468D01*
G37*
%LPD*%
%LPC*%
G36*
X474259Y417468D02*
X474259Y417468D01*
X471443Y420284D01*
X471443Y424266D01*
X474259Y427082D01*
X478241Y427082D01*
X481057Y424266D01*
X481057Y420284D01*
X478241Y417468D01*
X474259Y417468D01*
G37*
%LPD*%
%LPC*%
G36*
X432984Y417468D02*
X432984Y417468D01*
X430168Y420284D01*
X430168Y424266D01*
X432984Y427082D01*
X436966Y427082D01*
X439782Y424266D01*
X439782Y420284D01*
X436966Y417468D01*
X432984Y417468D01*
G37*
%LPD*%
%LPC*%
G36*
X413934Y417468D02*
X413934Y417468D01*
X411118Y420284D01*
X411118Y424266D01*
X413934Y427082D01*
X417916Y427082D01*
X420732Y424266D01*
X420732Y420284D01*
X417916Y417468D01*
X413934Y417468D01*
G37*
%LPD*%
%LPC*%
G36*
X394884Y417468D02*
X394884Y417468D01*
X392068Y420284D01*
X392068Y424266D01*
X394884Y427082D01*
X398866Y427082D01*
X401682Y424266D01*
X401682Y420284D01*
X398866Y417468D01*
X394884Y417468D01*
G37*
%LPD*%
%LPC*%
G36*
X375834Y417468D02*
X375834Y417468D01*
X373018Y420284D01*
X373018Y424266D01*
X375834Y427082D01*
X379816Y427082D01*
X382632Y424266D01*
X382632Y420284D01*
X379816Y417468D01*
X375834Y417468D01*
G37*
%LPD*%
%LPC*%
G36*
X356784Y417468D02*
X356784Y417468D01*
X353968Y420284D01*
X353968Y424266D01*
X356784Y427082D01*
X360766Y427082D01*
X363582Y424266D01*
X363582Y420284D01*
X360766Y417468D01*
X356784Y417468D01*
G37*
%LPD*%
%LPC*%
G36*
X559984Y407943D02*
X559984Y407943D01*
X557168Y410759D01*
X557168Y414741D01*
X559984Y417557D01*
X563966Y417557D01*
X566782Y414741D01*
X566782Y410759D01*
X563966Y407943D01*
X559984Y407943D01*
G37*
%LPD*%
%LPC*%
G36*
X540934Y407943D02*
X540934Y407943D01*
X538118Y410759D01*
X538118Y414741D01*
X540934Y417557D01*
X544916Y417557D01*
X547732Y414741D01*
X547732Y410759D01*
X544916Y407943D01*
X540934Y407943D01*
G37*
%LPD*%
%LPC*%
G36*
X521884Y407943D02*
X521884Y407943D01*
X519068Y410759D01*
X519068Y414741D01*
X521884Y417557D01*
X525866Y417557D01*
X528682Y414741D01*
X528682Y410759D01*
X525866Y407943D01*
X521884Y407943D01*
G37*
%LPD*%
%LPC*%
G36*
X502834Y407943D02*
X502834Y407943D01*
X500018Y410759D01*
X500018Y414741D01*
X502834Y417557D01*
X506816Y417557D01*
X509632Y414741D01*
X509632Y410759D01*
X506816Y407943D01*
X502834Y407943D01*
G37*
%LPD*%
%LPC*%
G36*
X483784Y407943D02*
X483784Y407943D01*
X480968Y410759D01*
X480968Y414741D01*
X483784Y417557D01*
X487766Y417557D01*
X490582Y414741D01*
X490582Y410759D01*
X487766Y407943D01*
X483784Y407943D01*
G37*
%LPD*%
%LPC*%
G36*
X442509Y407943D02*
X442509Y407943D01*
X439693Y410759D01*
X439693Y414741D01*
X442509Y417557D01*
X446491Y417557D01*
X449307Y414741D01*
X449307Y410759D01*
X446491Y407943D01*
X442509Y407943D01*
G37*
%LPD*%
%LPC*%
G36*
X423459Y407943D02*
X423459Y407943D01*
X420643Y410759D01*
X420643Y414741D01*
X423459Y417557D01*
X427441Y417557D01*
X430257Y414741D01*
X430257Y410759D01*
X427441Y407943D01*
X423459Y407943D01*
G37*
%LPD*%
%LPC*%
G36*
X404409Y407943D02*
X404409Y407943D01*
X401593Y410759D01*
X401593Y414741D01*
X404409Y417557D01*
X408391Y417557D01*
X411207Y414741D01*
X411207Y410759D01*
X408391Y407943D01*
X404409Y407943D01*
G37*
%LPD*%
%LPC*%
G36*
X385359Y407943D02*
X385359Y407943D01*
X382543Y410759D01*
X382543Y414741D01*
X385359Y417557D01*
X389341Y417557D01*
X392157Y414741D01*
X392157Y410759D01*
X389341Y407943D01*
X385359Y407943D01*
G37*
%LPD*%
%LPC*%
G36*
X366309Y407943D02*
X366309Y407943D01*
X363493Y410759D01*
X363493Y414741D01*
X366309Y417557D01*
X370291Y417557D01*
X373107Y414741D01*
X373107Y410759D01*
X370291Y407943D01*
X366309Y407943D01*
G37*
%LPD*%
%LPC*%
G36*
X626659Y404768D02*
X626659Y404768D01*
X623843Y407584D01*
X623843Y411566D01*
X626659Y414382D01*
X630641Y414382D01*
X633457Y411566D01*
X633457Y407584D01*
X630641Y404768D01*
X626659Y404768D01*
G37*
%LPD*%
%LPC*%
G36*
X613959Y404768D02*
X613959Y404768D01*
X611143Y407584D01*
X611143Y411566D01*
X613959Y414382D01*
X617941Y414382D01*
X620757Y411566D01*
X620757Y407584D01*
X617941Y404768D01*
X613959Y404768D01*
G37*
%LPD*%
%LPC*%
G36*
X740959Y404768D02*
X740959Y404768D01*
X738143Y407584D01*
X738143Y411566D01*
X740959Y414382D01*
X744941Y414382D01*
X747757Y411566D01*
X747757Y407584D01*
X744941Y404768D01*
X740959Y404768D01*
G37*
%LPD*%
%LPC*%
G36*
X728259Y404768D02*
X728259Y404768D01*
X725443Y407584D01*
X725443Y411566D01*
X728259Y414382D01*
X732241Y414382D01*
X735057Y411566D01*
X735057Y407584D01*
X732241Y404768D01*
X728259Y404768D01*
G37*
%LPD*%
%LPC*%
G36*
X715559Y404768D02*
X715559Y404768D01*
X712743Y407584D01*
X712743Y411566D01*
X715559Y414382D01*
X719541Y414382D01*
X722357Y411566D01*
X722357Y407584D01*
X719541Y404768D01*
X715559Y404768D01*
G37*
%LPD*%
%LPC*%
G36*
X702859Y404768D02*
X702859Y404768D01*
X700043Y407584D01*
X700043Y411566D01*
X702859Y414382D01*
X706841Y414382D01*
X709657Y411566D01*
X709657Y407584D01*
X706841Y404768D01*
X702859Y404768D01*
G37*
%LPD*%
%LPC*%
G36*
X690159Y404768D02*
X690159Y404768D01*
X687343Y407584D01*
X687343Y411566D01*
X690159Y414382D01*
X694141Y414382D01*
X696957Y411566D01*
X696957Y407584D01*
X694141Y404768D01*
X690159Y404768D01*
G37*
%LPD*%
%LPC*%
G36*
X677459Y404768D02*
X677459Y404768D01*
X674643Y407584D01*
X674643Y411566D01*
X677459Y414382D01*
X681441Y414382D01*
X684257Y411566D01*
X684257Y407584D01*
X681441Y404768D01*
X677459Y404768D01*
G37*
%LPD*%
%LPC*%
G36*
X664759Y404768D02*
X664759Y404768D01*
X661943Y407584D01*
X661943Y411566D01*
X664759Y414382D01*
X668741Y414382D01*
X671557Y411566D01*
X671557Y407584D01*
X668741Y404768D01*
X664759Y404768D01*
G37*
%LPD*%
%LPC*%
G36*
X652059Y404768D02*
X652059Y404768D01*
X649243Y407584D01*
X649243Y411566D01*
X652059Y414382D01*
X656041Y414382D01*
X658857Y411566D01*
X658857Y407584D01*
X656041Y404768D01*
X652059Y404768D01*
G37*
%LPD*%
%LPC*%
G36*
X639359Y404768D02*
X639359Y404768D01*
X636543Y407584D01*
X636543Y411566D01*
X639359Y414382D01*
X643341Y414382D01*
X646157Y411566D01*
X646157Y407584D01*
X643341Y404768D01*
X639359Y404768D01*
G37*
%LPD*%
%LPC*%
G36*
X413934Y398418D02*
X413934Y398418D01*
X411118Y401234D01*
X411118Y405216D01*
X413934Y408032D01*
X417916Y408032D01*
X420732Y405216D01*
X420732Y401234D01*
X417916Y398418D01*
X413934Y398418D01*
G37*
%LPD*%
%LPC*%
G36*
X394884Y398418D02*
X394884Y398418D01*
X392068Y401234D01*
X392068Y405216D01*
X394884Y408032D01*
X398866Y408032D01*
X401682Y405216D01*
X401682Y401234D01*
X398866Y398418D01*
X394884Y398418D01*
G37*
%LPD*%
%LPC*%
G36*
X550459Y398418D02*
X550459Y398418D01*
X547643Y401234D01*
X547643Y405216D01*
X550459Y408032D01*
X554441Y408032D01*
X557257Y405216D01*
X557257Y401234D01*
X554441Y398418D01*
X550459Y398418D01*
G37*
%LPD*%
%LPC*%
G36*
X531409Y398418D02*
X531409Y398418D01*
X528593Y401234D01*
X528593Y405216D01*
X531409Y408032D01*
X535391Y408032D01*
X538207Y405216D01*
X538207Y401234D01*
X535391Y398418D01*
X531409Y398418D01*
G37*
%LPD*%
%LPC*%
G36*
X512359Y398418D02*
X512359Y398418D01*
X509543Y401234D01*
X509543Y405216D01*
X512359Y408032D01*
X516341Y408032D01*
X519157Y405216D01*
X519157Y401234D01*
X516341Y398418D01*
X512359Y398418D01*
G37*
%LPD*%
%LPC*%
G36*
X493309Y398418D02*
X493309Y398418D01*
X490493Y401234D01*
X490493Y405216D01*
X493309Y408032D01*
X497291Y408032D01*
X500107Y405216D01*
X500107Y401234D01*
X497291Y398418D01*
X493309Y398418D01*
G37*
%LPD*%
%LPC*%
G36*
X474259Y398418D02*
X474259Y398418D01*
X471443Y401234D01*
X471443Y405216D01*
X474259Y408032D01*
X478241Y408032D01*
X481057Y405216D01*
X481057Y401234D01*
X478241Y398418D01*
X474259Y398418D01*
G37*
%LPD*%
%LPC*%
G36*
X432984Y398418D02*
X432984Y398418D01*
X430168Y401234D01*
X430168Y405216D01*
X432984Y408032D01*
X436966Y408032D01*
X439782Y405216D01*
X439782Y401234D01*
X436966Y398418D01*
X432984Y398418D01*
G37*
%LPD*%
%LPC*%
G36*
X356784Y398418D02*
X356784Y398418D01*
X353968Y401234D01*
X353968Y405216D01*
X356784Y408032D01*
X360766Y408032D01*
X363582Y405216D01*
X363582Y401234D01*
X360766Y398418D01*
X356784Y398418D01*
G37*
%LPD*%
%LPC*%
G36*
X375834Y398418D02*
X375834Y398418D01*
X373018Y401234D01*
X373018Y405216D01*
X375834Y408032D01*
X379816Y408032D01*
X382632Y405216D01*
X382632Y401234D01*
X379816Y398418D01*
X375834Y398418D01*
G37*
%LPD*%
%LPC*%
G36*
X385359Y388893D02*
X385359Y388893D01*
X382543Y391709D01*
X382543Y395691D01*
X385359Y398507D01*
X389341Y398507D01*
X392157Y395691D01*
X392157Y391709D01*
X389341Y388893D01*
X385359Y388893D01*
G37*
%LPD*%
%LPC*%
G36*
X366309Y388893D02*
X366309Y388893D01*
X363493Y391709D01*
X363493Y395691D01*
X366309Y398507D01*
X370291Y398507D01*
X373107Y395691D01*
X373107Y391709D01*
X370291Y388893D01*
X366309Y388893D01*
G37*
%LPD*%
%LPC*%
G36*
X559984Y388893D02*
X559984Y388893D01*
X557168Y391709D01*
X557168Y395691D01*
X559984Y398507D01*
X563966Y398507D01*
X566782Y395691D01*
X566782Y391709D01*
X563966Y388893D01*
X559984Y388893D01*
G37*
%LPD*%
%LPC*%
G36*
X540934Y388893D02*
X540934Y388893D01*
X538118Y391709D01*
X538118Y395691D01*
X540934Y398507D01*
X544916Y398507D01*
X547732Y395691D01*
X547732Y391709D01*
X544916Y388893D01*
X540934Y388893D01*
G37*
%LPD*%
%LPC*%
G36*
X521884Y388893D02*
X521884Y388893D01*
X519068Y391709D01*
X519068Y395691D01*
X521884Y398507D01*
X525866Y398507D01*
X528682Y395691D01*
X528682Y391709D01*
X525866Y388893D01*
X521884Y388893D01*
G37*
%LPD*%
%LPC*%
G36*
X502834Y388893D02*
X502834Y388893D01*
X500018Y391709D01*
X500018Y395691D01*
X502834Y398507D01*
X506816Y398507D01*
X509632Y395691D01*
X509632Y391709D01*
X506816Y388893D01*
X502834Y388893D01*
G37*
%LPD*%
%LPC*%
G36*
X483784Y388893D02*
X483784Y388893D01*
X480968Y391709D01*
X480968Y395691D01*
X483784Y398507D01*
X487766Y398507D01*
X490582Y395691D01*
X490582Y391709D01*
X487766Y388893D01*
X483784Y388893D01*
G37*
%LPD*%
%LPC*%
G36*
X442509Y388893D02*
X442509Y388893D01*
X439693Y391709D01*
X439693Y395691D01*
X442509Y398507D01*
X446491Y398507D01*
X449307Y395691D01*
X449307Y391709D01*
X446491Y388893D01*
X442509Y388893D01*
G37*
%LPD*%
%LPC*%
G36*
X423459Y388893D02*
X423459Y388893D01*
X420643Y391709D01*
X420643Y395691D01*
X423459Y398507D01*
X427441Y398507D01*
X430257Y395691D01*
X430257Y391709D01*
X427441Y388893D01*
X423459Y388893D01*
G37*
%LPD*%
%LPC*%
G36*
X404409Y388893D02*
X404409Y388893D01*
X401593Y391709D01*
X401593Y395691D01*
X404409Y398507D01*
X408391Y398507D01*
X411207Y395691D01*
X411207Y391709D01*
X408391Y388893D01*
X404409Y388893D01*
G37*
%LPD*%
%LPC*%
G36*
X125009Y379368D02*
X125009Y379368D01*
X122193Y382184D01*
X122193Y386166D01*
X125009Y388982D01*
X128991Y388982D01*
X131807Y386166D01*
X131807Y382184D01*
X128991Y379368D01*
X125009Y379368D01*
G37*
%LPD*%
%LPC*%
G36*
X302809Y379368D02*
X302809Y379368D01*
X299993Y382184D01*
X299993Y386166D01*
X302809Y388982D01*
X306791Y388982D01*
X309607Y386166D01*
X309607Y382184D01*
X306791Y379368D01*
X302809Y379368D01*
G37*
%LPD*%
%LPC*%
G36*
X105959Y379368D02*
X105959Y379368D01*
X103143Y382184D01*
X103143Y386166D01*
X105959Y388982D01*
X109941Y388982D01*
X112757Y386166D01*
X112757Y382184D01*
X109941Y379368D01*
X105959Y379368D01*
G37*
%LPD*%
%LPC*%
G36*
X283759Y379368D02*
X283759Y379368D01*
X280943Y382184D01*
X280943Y386166D01*
X283759Y388982D01*
X287741Y388982D01*
X290557Y386166D01*
X290557Y382184D01*
X287741Y379368D01*
X283759Y379368D01*
G37*
%LPD*%
%LPC*%
G36*
X264709Y379368D02*
X264709Y379368D01*
X261893Y382184D01*
X261893Y386166D01*
X264709Y388982D01*
X268691Y388982D01*
X271507Y386166D01*
X271507Y382184D01*
X268691Y379368D01*
X264709Y379368D01*
G37*
%LPD*%
%LPC*%
G36*
X245659Y379368D02*
X245659Y379368D01*
X242843Y382184D01*
X242843Y386166D01*
X245659Y388982D01*
X249641Y388982D01*
X252457Y386166D01*
X252457Y382184D01*
X249641Y379368D01*
X245659Y379368D01*
G37*
%LPD*%
%LPC*%
G36*
X226609Y379368D02*
X226609Y379368D01*
X223793Y382184D01*
X223793Y386166D01*
X226609Y388982D01*
X230591Y388982D01*
X233407Y386166D01*
X233407Y382184D01*
X230591Y379368D01*
X226609Y379368D01*
G37*
%LPD*%
%LPC*%
G36*
X182159Y379368D02*
X182159Y379368D01*
X179343Y382184D01*
X179343Y386166D01*
X182159Y388982D01*
X186141Y388982D01*
X188957Y386166D01*
X188957Y382184D01*
X186141Y379368D01*
X182159Y379368D01*
G37*
%LPD*%
%LPC*%
G36*
X163109Y379368D02*
X163109Y379368D01*
X160293Y382184D01*
X160293Y386166D01*
X163109Y388982D01*
X167091Y388982D01*
X169907Y386166D01*
X169907Y382184D01*
X167091Y379368D01*
X163109Y379368D01*
G37*
%LPD*%
%LPC*%
G36*
X144059Y379368D02*
X144059Y379368D01*
X141243Y382184D01*
X141243Y386166D01*
X144059Y388982D01*
X148041Y388982D01*
X150857Y386166D01*
X150857Y382184D01*
X148041Y379368D01*
X144059Y379368D01*
G37*
%LPD*%
%LPC*%
G36*
X312334Y369843D02*
X312334Y369843D01*
X309518Y372659D01*
X309518Y376641D01*
X312334Y379457D01*
X316316Y379457D01*
X319132Y376641D01*
X319132Y372659D01*
X316316Y369843D01*
X312334Y369843D01*
G37*
%LPD*%
%LPC*%
G36*
X293284Y369843D02*
X293284Y369843D01*
X290468Y372659D01*
X290468Y376641D01*
X293284Y379457D01*
X297266Y379457D01*
X300082Y376641D01*
X300082Y372659D01*
X297266Y369843D01*
X293284Y369843D01*
G37*
%LPD*%
%LPC*%
G36*
X274234Y369843D02*
X274234Y369843D01*
X271418Y372659D01*
X271418Y376641D01*
X274234Y379457D01*
X278216Y379457D01*
X281032Y376641D01*
X281032Y372659D01*
X278216Y369843D01*
X274234Y369843D01*
G37*
%LPD*%
%LPC*%
G36*
X255184Y369843D02*
X255184Y369843D01*
X252368Y372659D01*
X252368Y376641D01*
X255184Y379457D01*
X259166Y379457D01*
X261982Y376641D01*
X261982Y372659D01*
X259166Y369843D01*
X255184Y369843D01*
G37*
%LPD*%
%LPC*%
G36*
X236134Y369843D02*
X236134Y369843D01*
X233318Y372659D01*
X233318Y376641D01*
X236134Y379457D01*
X240116Y379457D01*
X242932Y376641D01*
X242932Y372659D01*
X240116Y369843D01*
X236134Y369843D01*
G37*
%LPD*%
%LPC*%
G36*
X191684Y369843D02*
X191684Y369843D01*
X188868Y372659D01*
X188868Y376641D01*
X191684Y379457D01*
X195666Y379457D01*
X198482Y376641D01*
X198482Y372659D01*
X195666Y369843D01*
X191684Y369843D01*
G37*
%LPD*%
%LPC*%
G36*
X172634Y369843D02*
X172634Y369843D01*
X169818Y372659D01*
X169818Y376641D01*
X172634Y379457D01*
X176616Y379457D01*
X179432Y376641D01*
X179432Y372659D01*
X176616Y369843D01*
X172634Y369843D01*
G37*
%LPD*%
%LPC*%
G36*
X153584Y369843D02*
X153584Y369843D01*
X150768Y372659D01*
X150768Y376641D01*
X153584Y379457D01*
X157566Y379457D01*
X160382Y376641D01*
X160382Y372659D01*
X157566Y369843D01*
X153584Y369843D01*
G37*
%LPD*%
%LPC*%
G36*
X134534Y369843D02*
X134534Y369843D01*
X131718Y372659D01*
X131718Y376641D01*
X134534Y379457D01*
X138516Y379457D01*
X141332Y376641D01*
X141332Y372659D01*
X138516Y369843D01*
X134534Y369843D01*
G37*
%LPD*%
%LPC*%
G36*
X115484Y369843D02*
X115484Y369843D01*
X112668Y372659D01*
X112668Y376641D01*
X115484Y379457D01*
X119466Y379457D01*
X122282Y376641D01*
X122282Y372659D01*
X119466Y369843D01*
X115484Y369843D01*
G37*
%LPD*%
%LPC*%
G36*
X125009Y360318D02*
X125009Y360318D01*
X122193Y363134D01*
X122193Y367116D01*
X125009Y369932D01*
X128991Y369932D01*
X131807Y367116D01*
X131807Y363134D01*
X128991Y360318D01*
X125009Y360318D01*
G37*
%LPD*%
%LPC*%
G36*
X105959Y360318D02*
X105959Y360318D01*
X103143Y363134D01*
X103143Y367116D01*
X105959Y369932D01*
X109941Y369932D01*
X112757Y367116D01*
X112757Y363134D01*
X109941Y360318D01*
X105959Y360318D01*
G37*
%LPD*%
%LPC*%
G36*
X302809Y360318D02*
X302809Y360318D01*
X299993Y363134D01*
X299993Y367116D01*
X302809Y369932D01*
X306791Y369932D01*
X309607Y367116D01*
X309607Y363134D01*
X306791Y360318D01*
X302809Y360318D01*
G37*
%LPD*%
%LPC*%
G36*
X283759Y360318D02*
X283759Y360318D01*
X280943Y363134D01*
X280943Y367116D01*
X283759Y369932D01*
X287741Y369932D01*
X290557Y367116D01*
X290557Y363134D01*
X287741Y360318D01*
X283759Y360318D01*
G37*
%LPD*%
%LPC*%
G36*
X264709Y360318D02*
X264709Y360318D01*
X261893Y363134D01*
X261893Y367116D01*
X264709Y369932D01*
X268691Y369932D01*
X271507Y367116D01*
X271507Y363134D01*
X268691Y360318D01*
X264709Y360318D01*
G37*
%LPD*%
%LPC*%
G36*
X245659Y360318D02*
X245659Y360318D01*
X242843Y363134D01*
X242843Y367116D01*
X245659Y369932D01*
X249641Y369932D01*
X252457Y367116D01*
X252457Y363134D01*
X249641Y360318D01*
X245659Y360318D01*
G37*
%LPD*%
%LPC*%
G36*
X226609Y360318D02*
X226609Y360318D01*
X223793Y363134D01*
X223793Y367116D01*
X226609Y369932D01*
X230591Y369932D01*
X233407Y367116D01*
X233407Y363134D01*
X230591Y360318D01*
X226609Y360318D01*
G37*
%LPD*%
%LPC*%
G36*
X182159Y360318D02*
X182159Y360318D01*
X179343Y363134D01*
X179343Y367116D01*
X182159Y369932D01*
X186141Y369932D01*
X188957Y367116D01*
X188957Y363134D01*
X186141Y360318D01*
X182159Y360318D01*
G37*
%LPD*%
%LPC*%
G36*
X163109Y360318D02*
X163109Y360318D01*
X160293Y363134D01*
X160293Y367116D01*
X163109Y369932D01*
X167091Y369932D01*
X169907Y367116D01*
X169907Y363134D01*
X167091Y360318D01*
X163109Y360318D01*
G37*
%LPD*%
%LPC*%
G36*
X144059Y360318D02*
X144059Y360318D01*
X141243Y363134D01*
X141243Y367116D01*
X144059Y369932D01*
X148041Y369932D01*
X150857Y367116D01*
X150857Y363134D01*
X148041Y360318D01*
X144059Y360318D01*
G37*
%LPD*%
%LPC*%
G36*
X134534Y350793D02*
X134534Y350793D01*
X131718Y353609D01*
X131718Y357591D01*
X134534Y360407D01*
X138516Y360407D01*
X141332Y357591D01*
X141332Y353609D01*
X138516Y350793D01*
X134534Y350793D01*
G37*
%LPD*%
%LPC*%
G36*
X115484Y350793D02*
X115484Y350793D01*
X112668Y353609D01*
X112668Y357591D01*
X115484Y360407D01*
X119466Y360407D01*
X122282Y357591D01*
X122282Y353609D01*
X119466Y350793D01*
X115484Y350793D01*
G37*
%LPD*%
%LPC*%
G36*
X312334Y350793D02*
X312334Y350793D01*
X309518Y353609D01*
X309518Y357591D01*
X312334Y360407D01*
X316316Y360407D01*
X319132Y357591D01*
X319132Y353609D01*
X316316Y350793D01*
X312334Y350793D01*
G37*
%LPD*%
%LPC*%
G36*
X293284Y350793D02*
X293284Y350793D01*
X290468Y353609D01*
X290468Y357591D01*
X293284Y360407D01*
X297266Y360407D01*
X300082Y357591D01*
X300082Y353609D01*
X297266Y350793D01*
X293284Y350793D01*
G37*
%LPD*%
%LPC*%
G36*
X274234Y350793D02*
X274234Y350793D01*
X271418Y353609D01*
X271418Y357591D01*
X274234Y360407D01*
X278216Y360407D01*
X281032Y357591D01*
X281032Y353609D01*
X278216Y350793D01*
X274234Y350793D01*
G37*
%LPD*%
%LPC*%
G36*
X255184Y350793D02*
X255184Y350793D01*
X252368Y353609D01*
X252368Y357591D01*
X255184Y360407D01*
X259166Y360407D01*
X261982Y357591D01*
X261982Y353609D01*
X259166Y350793D01*
X255184Y350793D01*
G37*
%LPD*%
%LPC*%
G36*
X236134Y350793D02*
X236134Y350793D01*
X233318Y353609D01*
X233318Y357591D01*
X236134Y360407D01*
X240116Y360407D01*
X242932Y357591D01*
X242932Y353609D01*
X240116Y350793D01*
X236134Y350793D01*
G37*
%LPD*%
%LPC*%
G36*
X191684Y350793D02*
X191684Y350793D01*
X188868Y353609D01*
X188868Y357591D01*
X191684Y360407D01*
X195666Y360407D01*
X198482Y357591D01*
X198482Y353609D01*
X195666Y350793D01*
X191684Y350793D01*
G37*
%LPD*%
%LPC*%
G36*
X172634Y350793D02*
X172634Y350793D01*
X169818Y353609D01*
X169818Y357591D01*
X172634Y360407D01*
X176616Y360407D01*
X179432Y357591D01*
X179432Y353609D01*
X176616Y350793D01*
X172634Y350793D01*
G37*
%LPD*%
%LPC*%
G36*
X153584Y350793D02*
X153584Y350793D01*
X150768Y353609D01*
X150768Y357591D01*
X153584Y360407D01*
X157566Y360407D01*
X160382Y357591D01*
X160382Y353609D01*
X157566Y350793D01*
X153584Y350793D01*
G37*
%LPD*%
%LPC*%
G36*
X302809Y341268D02*
X302809Y341268D01*
X299993Y344084D01*
X299993Y348066D01*
X302809Y350882D01*
X306791Y350882D01*
X309607Y348066D01*
X309607Y344084D01*
X306791Y341268D01*
X302809Y341268D01*
G37*
%LPD*%
%LPC*%
G36*
X283759Y341268D02*
X283759Y341268D01*
X280943Y344084D01*
X280943Y348066D01*
X283759Y350882D01*
X287741Y350882D01*
X290557Y348066D01*
X290557Y344084D01*
X287741Y341268D01*
X283759Y341268D01*
G37*
%LPD*%
%LPC*%
G36*
X264709Y341268D02*
X264709Y341268D01*
X261893Y344084D01*
X261893Y348066D01*
X264709Y350882D01*
X268691Y350882D01*
X271507Y348066D01*
X271507Y344084D01*
X268691Y341268D01*
X264709Y341268D01*
G37*
%LPD*%
%LPC*%
G36*
X245659Y341268D02*
X245659Y341268D01*
X242843Y344084D01*
X242843Y348066D01*
X245659Y350882D01*
X249641Y350882D01*
X252457Y348066D01*
X252457Y344084D01*
X249641Y341268D01*
X245659Y341268D01*
G37*
%LPD*%
%LPC*%
G36*
X226609Y341268D02*
X226609Y341268D01*
X223793Y344084D01*
X223793Y348066D01*
X226609Y350882D01*
X230591Y350882D01*
X233407Y348066D01*
X233407Y344084D01*
X230591Y341268D01*
X226609Y341268D01*
G37*
%LPD*%
%LPC*%
G36*
X182159Y341268D02*
X182159Y341268D01*
X179343Y344084D01*
X179343Y348066D01*
X182159Y350882D01*
X186141Y350882D01*
X188957Y348066D01*
X188957Y344084D01*
X186141Y341268D01*
X182159Y341268D01*
G37*
%LPD*%
%LPC*%
G36*
X163109Y341268D02*
X163109Y341268D01*
X160293Y344084D01*
X160293Y348066D01*
X163109Y350882D01*
X167091Y350882D01*
X169907Y348066D01*
X169907Y344084D01*
X167091Y341268D01*
X163109Y341268D01*
G37*
%LPD*%
%LPC*%
G36*
X144059Y341268D02*
X144059Y341268D01*
X141243Y344084D01*
X141243Y348066D01*
X144059Y350882D01*
X148041Y350882D01*
X150857Y348066D01*
X150857Y344084D01*
X148041Y341268D01*
X144059Y341268D01*
G37*
%LPD*%
%LPC*%
G36*
X125009Y341268D02*
X125009Y341268D01*
X122193Y344084D01*
X122193Y348066D01*
X125009Y350882D01*
X128991Y350882D01*
X131807Y348066D01*
X131807Y344084D01*
X128991Y341268D01*
X125009Y341268D01*
G37*
%LPD*%
%LPC*%
G36*
X105959Y341268D02*
X105959Y341268D01*
X103143Y344084D01*
X103143Y348066D01*
X105959Y350882D01*
X109941Y350882D01*
X112757Y348066D01*
X112757Y344084D01*
X109941Y341268D01*
X105959Y341268D01*
G37*
%LPD*%
%LPC*%
G36*
X36109Y338093D02*
X36109Y338093D01*
X33293Y340909D01*
X33293Y344891D01*
X36109Y347707D01*
X40091Y347707D01*
X42907Y344891D01*
X42907Y340909D01*
X40091Y338093D01*
X36109Y338093D01*
G37*
%LPD*%
%LPC*%
G36*
X74209Y338093D02*
X74209Y338093D01*
X71393Y340909D01*
X71393Y344891D01*
X74209Y347707D01*
X78191Y347707D01*
X81007Y344891D01*
X81007Y340909D01*
X78191Y338093D01*
X74209Y338093D01*
G37*
%LPD*%
%LPC*%
G36*
X61509Y338093D02*
X61509Y338093D01*
X58693Y340909D01*
X58693Y344891D01*
X61509Y347707D01*
X65491Y347707D01*
X68307Y344891D01*
X68307Y340909D01*
X65491Y338093D01*
X61509Y338093D01*
G37*
%LPD*%
%LPC*%
G36*
X48809Y338093D02*
X48809Y338093D01*
X45993Y340909D01*
X45993Y344891D01*
X48809Y347707D01*
X52791Y347707D01*
X55607Y344891D01*
X55607Y340909D01*
X52791Y338093D01*
X48809Y338093D01*
G37*
%LPD*%
%LPC*%
G36*
X312334Y331743D02*
X312334Y331743D01*
X309518Y334559D01*
X309518Y338541D01*
X312334Y341357D01*
X316316Y341357D01*
X319132Y338541D01*
X319132Y334559D01*
X316316Y331743D01*
X312334Y331743D01*
G37*
%LPD*%
%LPC*%
G36*
X191684Y331743D02*
X191684Y331743D01*
X188868Y334559D01*
X188868Y338541D01*
X191684Y341357D01*
X195666Y341357D01*
X198482Y338541D01*
X198482Y334559D01*
X195666Y331743D01*
X191684Y331743D01*
G37*
%LPD*%
%LPC*%
G36*
X293284Y331743D02*
X293284Y331743D01*
X290468Y334559D01*
X290468Y338541D01*
X293284Y341357D01*
X297266Y341357D01*
X300082Y338541D01*
X300082Y334559D01*
X297266Y331743D01*
X293284Y331743D01*
G37*
%LPD*%
%LPC*%
G36*
X274234Y331743D02*
X274234Y331743D01*
X271418Y334559D01*
X271418Y338541D01*
X274234Y341357D01*
X278216Y341357D01*
X281032Y338541D01*
X281032Y334559D01*
X278216Y331743D01*
X274234Y331743D01*
G37*
%LPD*%
%LPC*%
G36*
X255184Y331743D02*
X255184Y331743D01*
X252368Y334559D01*
X252368Y338541D01*
X255184Y341357D01*
X259166Y341357D01*
X261982Y338541D01*
X261982Y334559D01*
X259166Y331743D01*
X255184Y331743D01*
G37*
%LPD*%
%LPC*%
G36*
X236134Y331743D02*
X236134Y331743D01*
X233318Y334559D01*
X233318Y338541D01*
X236134Y341357D01*
X240116Y341357D01*
X242932Y338541D01*
X242932Y334559D01*
X240116Y331743D01*
X236134Y331743D01*
G37*
%LPD*%
%LPC*%
G36*
X172634Y331743D02*
X172634Y331743D01*
X169818Y334559D01*
X169818Y338541D01*
X172634Y341357D01*
X176616Y341357D01*
X179432Y338541D01*
X179432Y334559D01*
X176616Y331743D01*
X172634Y331743D01*
G37*
%LPD*%
%LPC*%
G36*
X153584Y331743D02*
X153584Y331743D01*
X150768Y334559D01*
X150768Y338541D01*
X153584Y341357D01*
X157566Y341357D01*
X160382Y338541D01*
X160382Y334559D01*
X157566Y331743D01*
X153584Y331743D01*
G37*
%LPD*%
%LPC*%
G36*
X134534Y331743D02*
X134534Y331743D01*
X131718Y334559D01*
X131718Y338541D01*
X134534Y341357D01*
X138516Y341357D01*
X141332Y338541D01*
X141332Y334559D01*
X138516Y331743D01*
X134534Y331743D01*
G37*
%LPD*%
%LPC*%
G36*
X115484Y331743D02*
X115484Y331743D01*
X112668Y334559D01*
X112668Y338541D01*
X115484Y341357D01*
X119466Y341357D01*
X122282Y338541D01*
X122282Y334559D01*
X119466Y331743D01*
X115484Y331743D01*
G37*
%LPD*%
%LPC*%
G36*
X67859Y328568D02*
X67859Y328568D01*
X65043Y331384D01*
X65043Y335366D01*
X67859Y338182D01*
X71841Y338182D01*
X74657Y335366D01*
X74657Y331384D01*
X71841Y328568D01*
X67859Y328568D01*
G37*
%LPD*%
%LPC*%
G36*
X55159Y328568D02*
X55159Y328568D01*
X52343Y331384D01*
X52343Y335366D01*
X55159Y338182D01*
X59141Y338182D01*
X61957Y335366D01*
X61957Y331384D01*
X59141Y328568D01*
X55159Y328568D01*
G37*
%LPD*%
%LPC*%
G36*
X42459Y328568D02*
X42459Y328568D01*
X39643Y331384D01*
X39643Y335366D01*
X42459Y338182D01*
X46441Y338182D01*
X49257Y335366D01*
X49257Y331384D01*
X46441Y328568D01*
X42459Y328568D01*
G37*
%LPD*%
%LPC*%
G36*
X74209Y319043D02*
X74209Y319043D01*
X71393Y321859D01*
X71393Y325841D01*
X74209Y328657D01*
X78191Y328657D01*
X81007Y325841D01*
X81007Y321859D01*
X78191Y319043D01*
X74209Y319043D01*
G37*
%LPD*%
%LPC*%
G36*
X61509Y319043D02*
X61509Y319043D01*
X58693Y321859D01*
X58693Y325841D01*
X61509Y328657D01*
X65491Y328657D01*
X68307Y325841D01*
X68307Y321859D01*
X65491Y319043D01*
X61509Y319043D01*
G37*
%LPD*%
%LPC*%
G36*
X48809Y319043D02*
X48809Y319043D01*
X45993Y321859D01*
X45993Y325841D01*
X48809Y328657D01*
X52791Y328657D01*
X55607Y325841D01*
X55607Y321859D01*
X52791Y319043D01*
X48809Y319043D01*
G37*
%LPD*%
%LPC*%
G36*
X36109Y319043D02*
X36109Y319043D01*
X33293Y321859D01*
X33293Y325841D01*
X36109Y328657D01*
X40091Y328657D01*
X42907Y325841D01*
X42907Y321859D01*
X40091Y319043D01*
X36109Y319043D01*
G37*
%LPD*%
%LPC*%
G36*
X664759Y468268D02*
X664759Y468268D01*
X661943Y471084D01*
X661943Y475066D01*
X664759Y477882D01*
X668741Y477882D01*
X671557Y475066D01*
X671557Y471084D01*
X668741Y468268D01*
X664759Y468268D01*
G37*
%LPD*%
%LPC*%
G36*
X652059Y468268D02*
X652059Y468268D01*
X649243Y471084D01*
X649243Y475066D01*
X652059Y477882D01*
X656041Y477882D01*
X658857Y475066D01*
X658857Y471084D01*
X656041Y468268D01*
X652059Y468268D01*
G37*
%LPD*%
%LPC*%
G36*
X740959Y468268D02*
X740959Y468268D01*
X738143Y471084D01*
X738143Y475066D01*
X740959Y477882D01*
X744941Y477882D01*
X747757Y475066D01*
X747757Y471084D01*
X744941Y468268D01*
X740959Y468268D01*
G37*
%LPD*%
%LPC*%
G36*
X728259Y468268D02*
X728259Y468268D01*
X725443Y471084D01*
X725443Y475066D01*
X728259Y477882D01*
X732241Y477882D01*
X735057Y475066D01*
X735057Y471084D01*
X732241Y468268D01*
X728259Y468268D01*
G37*
%LPD*%
%LPC*%
G36*
X42459Y309518D02*
X42459Y309518D01*
X39643Y312334D01*
X39643Y316316D01*
X42459Y319132D01*
X46441Y319132D01*
X49257Y316316D01*
X49257Y312334D01*
X46441Y309518D01*
X42459Y309518D01*
G37*
%LPD*%
%LPC*%
G36*
X67859Y309518D02*
X67859Y309518D01*
X65043Y312334D01*
X65043Y316316D01*
X67859Y319132D01*
X71841Y319132D01*
X74657Y316316D01*
X74657Y312334D01*
X71841Y309518D01*
X67859Y309518D01*
G37*
%LPD*%
%LPC*%
G36*
X55159Y309518D02*
X55159Y309518D01*
X52343Y312334D01*
X52343Y316316D01*
X55159Y319132D01*
X59141Y319132D01*
X61957Y316316D01*
X61957Y312334D01*
X59141Y309518D01*
X55159Y309518D01*
G37*
%LPD*%
%LPC*%
G36*
X690159Y299993D02*
X690159Y299993D01*
X687343Y302809D01*
X687343Y306791D01*
X690159Y309607D01*
X694141Y309607D01*
X696957Y306791D01*
X696957Y302809D01*
X694141Y299993D01*
X690159Y299993D01*
G37*
%LPD*%
%LPC*%
G36*
X664759Y299993D02*
X664759Y299993D01*
X661943Y302809D01*
X661943Y306791D01*
X664759Y309607D01*
X668741Y309607D01*
X671557Y306791D01*
X671557Y302809D01*
X668741Y299993D01*
X664759Y299993D01*
G37*
%LPD*%
%LPC*%
G36*
X702859Y299993D02*
X702859Y299993D01*
X700043Y302809D01*
X700043Y306791D01*
X702859Y309607D01*
X706841Y309607D01*
X709657Y306791D01*
X709657Y302809D01*
X706841Y299993D01*
X702859Y299993D01*
G37*
%LPD*%
%LPC*%
G36*
X652059Y299993D02*
X652059Y299993D01*
X649243Y302809D01*
X649243Y306791D01*
X652059Y309607D01*
X656041Y309607D01*
X658857Y306791D01*
X658857Y302809D01*
X656041Y299993D01*
X652059Y299993D01*
G37*
%LPD*%
%LPC*%
G36*
X639359Y299993D02*
X639359Y299993D01*
X636543Y302809D01*
X636543Y306791D01*
X639359Y309607D01*
X643341Y309607D01*
X646157Y306791D01*
X646157Y302809D01*
X643341Y299993D01*
X639359Y299993D01*
G37*
%LPD*%
%LPC*%
G36*
X613959Y299993D02*
X613959Y299993D01*
X611143Y302809D01*
X611143Y306791D01*
X613959Y309607D01*
X617941Y309607D01*
X620757Y306791D01*
X620757Y302809D01*
X617941Y299993D01*
X613959Y299993D01*
G37*
%LPD*%
%LPC*%
G36*
X74209Y299993D02*
X74209Y299993D01*
X71393Y302809D01*
X71393Y306791D01*
X74209Y309607D01*
X78191Y309607D01*
X81007Y306791D01*
X81007Y302809D01*
X78191Y299993D01*
X74209Y299993D01*
G37*
%LPD*%
%LPC*%
G36*
X677459Y299993D02*
X677459Y299993D01*
X674643Y302809D01*
X674643Y306791D01*
X677459Y309607D01*
X681441Y309607D01*
X684257Y306791D01*
X684257Y302809D01*
X681441Y299993D01*
X677459Y299993D01*
G37*
%LPD*%
%LPC*%
G36*
X626659Y299993D02*
X626659Y299993D01*
X623843Y302809D01*
X623843Y306791D01*
X626659Y309607D01*
X630641Y309607D01*
X633457Y306791D01*
X633457Y302809D01*
X630641Y299993D01*
X626659Y299993D01*
G37*
%LPD*%
%LPC*%
G36*
X740959Y299993D02*
X740959Y299993D01*
X738143Y302809D01*
X738143Y306791D01*
X740959Y309607D01*
X744941Y309607D01*
X747757Y306791D01*
X747757Y302809D01*
X744941Y299993D01*
X740959Y299993D01*
G37*
%LPD*%
%LPC*%
G36*
X728259Y299993D02*
X728259Y299993D01*
X725443Y302809D01*
X725443Y306791D01*
X728259Y309607D01*
X732241Y309607D01*
X735057Y306791D01*
X735057Y302809D01*
X732241Y299993D01*
X728259Y299993D01*
G37*
%LPD*%
%LPC*%
G36*
X715559Y299993D02*
X715559Y299993D01*
X712743Y302809D01*
X712743Y306791D01*
X715559Y309607D01*
X719541Y309607D01*
X722357Y306791D01*
X722357Y302809D01*
X719541Y299993D01*
X715559Y299993D01*
G37*
%LPD*%
%LPC*%
G36*
X61509Y299993D02*
X61509Y299993D01*
X58693Y302809D01*
X58693Y306791D01*
X61509Y309607D01*
X65491Y309607D01*
X68307Y306791D01*
X68307Y302809D01*
X65491Y299993D01*
X61509Y299993D01*
G37*
%LPD*%
%LPC*%
G36*
X48809Y299993D02*
X48809Y299993D01*
X45993Y302809D01*
X45993Y306791D01*
X48809Y309607D01*
X52791Y309607D01*
X55607Y306791D01*
X55607Y302809D01*
X52791Y299993D01*
X48809Y299993D01*
G37*
%LPD*%
%LPC*%
G36*
X36109Y299993D02*
X36109Y299993D01*
X33293Y302809D01*
X33293Y306791D01*
X36109Y309607D01*
X40091Y309607D01*
X42907Y306791D01*
X42907Y302809D01*
X40091Y299993D01*
X36109Y299993D01*
G37*
%LPD*%
%LPC*%
G36*
X55159Y290468D02*
X55159Y290468D01*
X52343Y293284D01*
X52343Y297266D01*
X55159Y300082D01*
X59141Y300082D01*
X61957Y297266D01*
X61957Y293284D01*
X59141Y290468D01*
X55159Y290468D01*
G37*
%LPD*%
%LPC*%
G36*
X42459Y290468D02*
X42459Y290468D01*
X39643Y293284D01*
X39643Y297266D01*
X42459Y300082D01*
X46441Y300082D01*
X49257Y297266D01*
X49257Y293284D01*
X46441Y290468D01*
X42459Y290468D01*
G37*
%LPD*%
%LPC*%
G36*
X67859Y290468D02*
X67859Y290468D01*
X65043Y293284D01*
X65043Y297266D01*
X67859Y300082D01*
X71841Y300082D01*
X74657Y297266D01*
X74657Y293284D01*
X71841Y290468D01*
X67859Y290468D01*
G37*
%LPD*%
%LPC*%
G36*
X36109Y280943D02*
X36109Y280943D01*
X33293Y283759D01*
X33293Y287741D01*
X36109Y290557D01*
X40091Y290557D01*
X42907Y287741D01*
X42907Y283759D01*
X40091Y280943D01*
X36109Y280943D01*
G37*
%LPD*%
%LPC*%
G36*
X74209Y280943D02*
X74209Y280943D01*
X71393Y283759D01*
X71393Y287741D01*
X74209Y290557D01*
X78191Y290557D01*
X81007Y287741D01*
X81007Y283759D01*
X78191Y280943D01*
X74209Y280943D01*
G37*
%LPD*%
%LPC*%
G36*
X61509Y280943D02*
X61509Y280943D01*
X58693Y283759D01*
X58693Y287741D01*
X61509Y290557D01*
X65491Y290557D01*
X68307Y287741D01*
X68307Y283759D01*
X65491Y280943D01*
X61509Y280943D01*
G37*
%LPD*%
%LPC*%
G36*
X48809Y280943D02*
X48809Y280943D01*
X45993Y283759D01*
X45993Y287741D01*
X48809Y290557D01*
X52791Y290557D01*
X55607Y287741D01*
X55607Y283759D01*
X52791Y280943D01*
X48809Y280943D01*
G37*
%LPD*%
%LPC*%
G36*
X220259Y274593D02*
X220259Y274593D01*
X217443Y277409D01*
X217443Y281391D01*
X220259Y284207D01*
X224241Y284207D01*
X227057Y281391D01*
X227057Y277409D01*
X224241Y274593D01*
X220259Y274593D01*
G37*
%LPD*%
%LPC*%
G36*
X182159Y274593D02*
X182159Y274593D01*
X179343Y277409D01*
X179343Y281391D01*
X182159Y284207D01*
X186141Y284207D01*
X188957Y281391D01*
X188957Y277409D01*
X186141Y274593D01*
X182159Y274593D01*
G37*
%LPD*%
%LPC*%
G36*
X144059Y274593D02*
X144059Y274593D01*
X141243Y277409D01*
X141243Y281391D01*
X144059Y284207D01*
X148041Y284207D01*
X150857Y281391D01*
X150857Y277409D01*
X148041Y274593D01*
X144059Y274593D01*
G37*
%LPD*%
%LPC*%
G36*
X105959Y274593D02*
X105959Y274593D01*
X103143Y277409D01*
X103143Y281391D01*
X105959Y284207D01*
X109941Y284207D01*
X112757Y281391D01*
X112757Y277409D01*
X109941Y274593D01*
X105959Y274593D01*
G37*
%LPD*%
%LPC*%
G36*
X715559Y468268D02*
X715559Y468268D01*
X712743Y471084D01*
X712743Y475066D01*
X715559Y477882D01*
X719541Y477882D01*
X722357Y475066D01*
X722357Y471084D01*
X719541Y468268D01*
X715559Y468268D01*
G37*
%LPD*%
%LPC*%
G36*
X42459Y271418D02*
X42459Y271418D01*
X39643Y274234D01*
X39643Y278216D01*
X42459Y281032D01*
X46441Y281032D01*
X49257Y278216D01*
X49257Y274234D01*
X46441Y271418D01*
X42459Y271418D01*
G37*
%LPD*%
%LPC*%
G36*
X67859Y271418D02*
X67859Y271418D01*
X65043Y274234D01*
X65043Y278216D01*
X67859Y281032D01*
X71841Y281032D01*
X74657Y278216D01*
X74657Y274234D01*
X71841Y271418D01*
X67859Y271418D01*
G37*
%LPD*%
%LPC*%
G36*
X55159Y271418D02*
X55159Y271418D01*
X52343Y274234D01*
X52343Y278216D01*
X55159Y281032D01*
X59141Y281032D01*
X61957Y278216D01*
X61957Y274234D01*
X59141Y271418D01*
X55159Y271418D01*
G37*
%LPD*%
%LPC*%
G36*
X410759Y268243D02*
X410759Y268243D01*
X407943Y271059D01*
X407943Y275041D01*
X410759Y277857D01*
X414741Y277857D01*
X417557Y275041D01*
X417557Y271059D01*
X414741Y268243D01*
X410759Y268243D01*
G37*
%LPD*%
%LPC*%
G36*
X455209Y268243D02*
X455209Y268243D01*
X452393Y271059D01*
X452393Y275041D01*
X455209Y277857D01*
X459191Y277857D01*
X462007Y275041D01*
X462007Y271059D01*
X459191Y268243D01*
X455209Y268243D01*
G37*
%LPD*%
%LPC*%
G36*
X702859Y468268D02*
X702859Y468268D01*
X700043Y471084D01*
X700043Y475066D01*
X702859Y477882D01*
X706841Y477882D01*
X709657Y475066D01*
X709657Y471084D01*
X706841Y468268D01*
X702859Y468268D01*
G37*
%LPD*%
%LPC*%
G36*
X690159Y468268D02*
X690159Y468268D01*
X687343Y471084D01*
X687343Y475066D01*
X690159Y477882D01*
X694141Y477882D01*
X696957Y475066D01*
X696957Y471084D01*
X694141Y468268D01*
X690159Y468268D01*
G37*
%LPD*%
%LPC*%
G36*
X677459Y468268D02*
X677459Y468268D01*
X674643Y471084D01*
X674643Y475066D01*
X677459Y477882D01*
X681441Y477882D01*
X684257Y475066D01*
X684257Y471084D01*
X681441Y468268D01*
X677459Y468268D01*
G37*
%LPD*%
%LPC*%
G36*
X613959Y233318D02*
X613959Y233318D01*
X611143Y236134D01*
X611143Y240116D01*
X613959Y242932D01*
X617941Y242932D01*
X620757Y240116D01*
X620757Y236134D01*
X617941Y233318D01*
X613959Y233318D01*
G37*
%LPD*%
%LPC*%
G36*
X740959Y233318D02*
X740959Y233318D01*
X738143Y236134D01*
X738143Y240116D01*
X740959Y242932D01*
X744941Y242932D01*
X747757Y240116D01*
X747757Y236134D01*
X744941Y233318D01*
X740959Y233318D01*
G37*
%LPD*%
%LPC*%
G36*
X728259Y233318D02*
X728259Y233318D01*
X725443Y236134D01*
X725443Y240116D01*
X728259Y242932D01*
X732241Y242932D01*
X735057Y240116D01*
X735057Y236134D01*
X732241Y233318D01*
X728259Y233318D01*
G37*
%LPD*%
%LPC*%
G36*
X715559Y233318D02*
X715559Y233318D01*
X712743Y236134D01*
X712743Y240116D01*
X715559Y242932D01*
X719541Y242932D01*
X722357Y240116D01*
X722357Y236134D01*
X719541Y233318D01*
X715559Y233318D01*
G37*
%LPD*%
%LPC*%
G36*
X702859Y233318D02*
X702859Y233318D01*
X700043Y236134D01*
X700043Y240116D01*
X702859Y242932D01*
X706841Y242932D01*
X709657Y240116D01*
X709657Y236134D01*
X706841Y233318D01*
X702859Y233318D01*
G37*
%LPD*%
%LPC*%
G36*
X690159Y233318D02*
X690159Y233318D01*
X687343Y236134D01*
X687343Y240116D01*
X690159Y242932D01*
X694141Y242932D01*
X696957Y240116D01*
X696957Y236134D01*
X694141Y233318D01*
X690159Y233318D01*
G37*
%LPD*%
%LPC*%
G36*
X677459Y233318D02*
X677459Y233318D01*
X674643Y236134D01*
X674643Y240116D01*
X677459Y242932D01*
X681441Y242932D01*
X684257Y240116D01*
X684257Y236134D01*
X681441Y233318D01*
X677459Y233318D01*
G37*
%LPD*%
%LPC*%
G36*
X664759Y233318D02*
X664759Y233318D01*
X661943Y236134D01*
X661943Y240116D01*
X664759Y242932D01*
X668741Y242932D01*
X671557Y240116D01*
X671557Y236134D01*
X668741Y233318D01*
X664759Y233318D01*
G37*
%LPD*%
%LPC*%
G36*
X652059Y233318D02*
X652059Y233318D01*
X649243Y236134D01*
X649243Y240116D01*
X652059Y242932D01*
X656041Y242932D01*
X658857Y240116D01*
X658857Y236134D01*
X656041Y233318D01*
X652059Y233318D01*
G37*
%LPD*%
%LPC*%
G36*
X639359Y233318D02*
X639359Y233318D01*
X636543Y236134D01*
X636543Y240116D01*
X639359Y242932D01*
X643341Y242932D01*
X646157Y240116D01*
X646157Y236134D01*
X643341Y233318D01*
X639359Y233318D01*
G37*
%LPD*%
%LPC*%
G36*
X626659Y233318D02*
X626659Y233318D01*
X623843Y236134D01*
X623843Y240116D01*
X626659Y242932D01*
X630641Y242932D01*
X633457Y240116D01*
X633457Y236134D01*
X630641Y233318D01*
X626659Y233318D01*
G37*
%LPD*%
%LPC*%
G36*
X613959Y468268D02*
X613959Y468268D01*
X611143Y471084D01*
X611143Y475066D01*
X613959Y477882D01*
X617941Y477882D01*
X620757Y475066D01*
X620757Y471084D01*
X617941Y468268D01*
X613959Y468268D01*
G37*
%LPD*%
%LPC*%
G36*
X639359Y468268D02*
X639359Y468268D01*
X636543Y471084D01*
X636543Y475066D01*
X639359Y477882D01*
X643341Y477882D01*
X646157Y475066D01*
X646157Y471084D01*
X643341Y468268D01*
X639359Y468268D01*
G37*
%LPD*%
%LPC*%
G36*
X582209Y217443D02*
X582209Y217443D01*
X579393Y220259D01*
X579393Y224241D01*
X582209Y227057D01*
X586191Y227057D01*
X589007Y224241D01*
X589007Y220259D01*
X586191Y217443D01*
X582209Y217443D01*
G37*
%LPD*%
%LPC*%
G36*
X563159Y217443D02*
X563159Y217443D01*
X560343Y220259D01*
X560343Y224241D01*
X563159Y227057D01*
X567141Y227057D01*
X569957Y224241D01*
X569957Y220259D01*
X567141Y217443D01*
X563159Y217443D01*
G37*
%LPD*%
%LPC*%
G36*
X626659Y468268D02*
X626659Y468268D01*
X623843Y471084D01*
X623843Y475066D01*
X626659Y477882D01*
X630641Y477882D01*
X633457Y475066D01*
X633457Y471084D01*
X630641Y468268D01*
X626659Y468268D01*
G37*
%LPD*%
%LPC*%
G36*
X375834Y436518D02*
X375834Y436518D01*
X373018Y439334D01*
X373018Y443316D01*
X375834Y446132D01*
X379816Y446132D01*
X382632Y443316D01*
X382632Y439334D01*
X379816Y436518D01*
X375834Y436518D01*
G37*
%LPD*%
%LPC*%
G36*
X356784Y436518D02*
X356784Y436518D01*
X353968Y439334D01*
X353968Y443316D01*
X356784Y446132D01*
X360766Y446132D01*
X363582Y443316D01*
X363582Y439334D01*
X360766Y436518D01*
X356784Y436518D01*
G37*
%LPD*%
%LPC*%
G36*
X550459Y436518D02*
X550459Y436518D01*
X547643Y439334D01*
X547643Y443316D01*
X550459Y446132D01*
X554441Y446132D01*
X557257Y443316D01*
X557257Y439334D01*
X554441Y436518D01*
X550459Y436518D01*
G37*
%LPD*%
%LPC*%
G36*
X531409Y436518D02*
X531409Y436518D01*
X528593Y439334D01*
X528593Y443316D01*
X531409Y446132D01*
X535391Y446132D01*
X538207Y443316D01*
X538207Y439334D01*
X535391Y436518D01*
X531409Y436518D01*
G37*
%LPD*%
%LPC*%
G36*
X512359Y436518D02*
X512359Y436518D01*
X509543Y439334D01*
X509543Y443316D01*
X512359Y446132D01*
X516341Y446132D01*
X519157Y443316D01*
X519157Y439334D01*
X516341Y436518D01*
X512359Y436518D01*
G37*
%LPD*%
%LPC*%
G36*
X493309Y436518D02*
X493309Y436518D01*
X490493Y439334D01*
X490493Y443316D01*
X493309Y446132D01*
X497291Y446132D01*
X500107Y443316D01*
X500107Y439334D01*
X497291Y436518D01*
X493309Y436518D01*
G37*
%LPD*%
%LPC*%
G36*
X474259Y436518D02*
X474259Y436518D01*
X471443Y439334D01*
X471443Y443316D01*
X474259Y446132D01*
X478241Y446132D01*
X481057Y443316D01*
X481057Y439334D01*
X478241Y436518D01*
X474259Y436518D01*
G37*
%LPD*%
%LPC*%
G36*
X432984Y436518D02*
X432984Y436518D01*
X430168Y439334D01*
X430168Y443316D01*
X432984Y446132D01*
X436966Y446132D01*
X439782Y443316D01*
X439782Y439334D01*
X436966Y436518D01*
X432984Y436518D01*
G37*
%LPD*%
%LPC*%
G36*
X413934Y436518D02*
X413934Y436518D01*
X411118Y439334D01*
X411118Y443316D01*
X413934Y446132D01*
X417916Y446132D01*
X420732Y443316D01*
X420732Y439334D01*
X417916Y436518D01*
X413934Y436518D01*
G37*
%LPD*%
%LPC*%
G36*
X394884Y436518D02*
X394884Y436518D01*
X392068Y439334D01*
X392068Y443316D01*
X394884Y446132D01*
X398866Y446132D01*
X401682Y443316D01*
X401682Y439334D01*
X398866Y436518D01*
X394884Y436518D01*
G37*
%LPD*%
%LPC*%
G36*
X709209Y87268D02*
X709209Y87268D01*
X706393Y90084D01*
X706393Y94066D01*
X709209Y96882D01*
X713191Y96882D01*
X716007Y94066D01*
X716007Y90084D01*
X713191Y87268D01*
X709209Y87268D01*
G37*
%LPD*%
%LPC*%
G36*
X696509Y87268D02*
X696509Y87268D01*
X693693Y90084D01*
X693693Y94066D01*
X696509Y96882D01*
X700491Y96882D01*
X703307Y94066D01*
X703307Y90084D01*
X700491Y87268D01*
X696509Y87268D01*
G37*
%LPD*%
%LPC*%
G36*
X734609Y87268D02*
X734609Y87268D01*
X731793Y90084D01*
X731793Y94066D01*
X734609Y96882D01*
X738591Y96882D01*
X741407Y94066D01*
X741407Y90084D01*
X738591Y87268D01*
X734609Y87268D01*
G37*
%LPD*%
%LPC*%
G36*
X721909Y87268D02*
X721909Y87268D01*
X719093Y90084D01*
X719093Y94066D01*
X721909Y96882D01*
X725891Y96882D01*
X728707Y94066D01*
X728707Y90084D01*
X725891Y87268D01*
X721909Y87268D01*
G37*
%LPD*%
%LPC*%
G36*
X702859Y77743D02*
X702859Y77743D01*
X700043Y80559D01*
X700043Y84541D01*
X702859Y87357D01*
X706841Y87357D01*
X709657Y84541D01*
X709657Y80559D01*
X706841Y77743D01*
X702859Y77743D01*
G37*
%LPD*%
%LPC*%
G36*
X728259Y77743D02*
X728259Y77743D01*
X725443Y80559D01*
X725443Y84541D01*
X728259Y87357D01*
X732241Y87357D01*
X735057Y84541D01*
X735057Y80559D01*
X732241Y77743D01*
X728259Y77743D01*
G37*
%LPD*%
%LPC*%
G36*
X715559Y77743D02*
X715559Y77743D01*
X712743Y80559D01*
X712743Y84541D01*
X715559Y87357D01*
X719541Y87357D01*
X722357Y84541D01*
X722357Y80559D01*
X719541Y77743D01*
X715559Y77743D01*
G37*
%LPD*%
%LPC*%
G36*
X734609Y68218D02*
X734609Y68218D01*
X731793Y71034D01*
X731793Y75016D01*
X734609Y77832D01*
X738591Y77832D01*
X741407Y75016D01*
X741407Y71034D01*
X738591Y68218D01*
X734609Y68218D01*
G37*
%LPD*%
%LPC*%
G36*
X721909Y68218D02*
X721909Y68218D01*
X719093Y71034D01*
X719093Y75016D01*
X721909Y77832D01*
X725891Y77832D01*
X728707Y75016D01*
X728707Y71034D01*
X725891Y68218D01*
X721909Y68218D01*
G37*
%LPD*%
%LPC*%
G36*
X709209Y68218D02*
X709209Y68218D01*
X706393Y71034D01*
X706393Y75016D01*
X709209Y77832D01*
X713191Y77832D01*
X716007Y75016D01*
X716007Y71034D01*
X713191Y68218D01*
X709209Y68218D01*
G37*
%LPD*%
%LPC*%
G36*
X696509Y68218D02*
X696509Y68218D01*
X693693Y71034D01*
X693693Y75016D01*
X696509Y77832D01*
X700491Y77832D01*
X703307Y75016D01*
X703307Y71034D01*
X700491Y68218D01*
X696509Y68218D01*
G37*
%LPD*%
%LPC*%
G36*
X728259Y58693D02*
X728259Y58693D01*
X725443Y61509D01*
X725443Y65491D01*
X728259Y68307D01*
X732241Y68307D01*
X735057Y65491D01*
X735057Y61509D01*
X732241Y58693D01*
X728259Y58693D01*
G37*
%LPD*%
%LPC*%
G36*
X715559Y58693D02*
X715559Y58693D01*
X712743Y61509D01*
X712743Y65491D01*
X715559Y68307D01*
X719541Y68307D01*
X722357Y65491D01*
X722357Y61509D01*
X719541Y58693D01*
X715559Y58693D01*
G37*
%LPD*%
%LPC*%
G36*
X702859Y58693D02*
X702859Y58693D01*
X700043Y61509D01*
X700043Y65491D01*
X702859Y68307D01*
X706841Y68307D01*
X709657Y65491D01*
X709657Y61509D01*
X706841Y58693D01*
X702859Y58693D01*
G37*
%LPD*%
%LPC*%
G36*
X502834Y426993D02*
X502834Y426993D01*
X500018Y429809D01*
X500018Y433791D01*
X502834Y436607D01*
X506816Y436607D01*
X509632Y433791D01*
X509632Y429809D01*
X506816Y426993D01*
X502834Y426993D01*
G37*
%LPD*%
%LPC*%
G36*
X483784Y426993D02*
X483784Y426993D01*
X480968Y429809D01*
X480968Y433791D01*
X483784Y436607D01*
X487766Y436607D01*
X490582Y433791D01*
X490582Y429809D01*
X487766Y426993D01*
X483784Y426993D01*
G37*
%LPD*%
%LPC*%
G36*
X559984Y426993D02*
X559984Y426993D01*
X557168Y429809D01*
X557168Y433791D01*
X559984Y436607D01*
X563966Y436607D01*
X566782Y433791D01*
X566782Y429809D01*
X563966Y426993D01*
X559984Y426993D01*
G37*
%LPD*%
%LPC*%
G36*
X540934Y426993D02*
X540934Y426993D01*
X538118Y429809D01*
X538118Y433791D01*
X540934Y436607D01*
X544916Y436607D01*
X547732Y433791D01*
X547732Y429809D01*
X544916Y426993D01*
X540934Y426993D01*
G37*
%LPD*%
%LPC*%
G36*
X734609Y49168D02*
X734609Y49168D01*
X731793Y51984D01*
X731793Y55966D01*
X734609Y58782D01*
X738591Y58782D01*
X741407Y55966D01*
X741407Y51984D01*
X738591Y49168D01*
X734609Y49168D01*
G37*
%LPD*%
%LPC*%
G36*
X709209Y49168D02*
X709209Y49168D01*
X706393Y51984D01*
X706393Y55966D01*
X709209Y58782D01*
X713191Y58782D01*
X716007Y55966D01*
X716007Y51984D01*
X713191Y49168D01*
X709209Y49168D01*
G37*
%LPD*%
%LPC*%
G36*
X721909Y49168D02*
X721909Y49168D01*
X719093Y51984D01*
X719093Y55966D01*
X721909Y58782D01*
X725891Y58782D01*
X728707Y55966D01*
X728707Y51984D01*
X725891Y49168D01*
X721909Y49168D01*
G37*
%LPD*%
%LPC*%
G36*
X696509Y49168D02*
X696509Y49168D01*
X693693Y51984D01*
X693693Y55966D01*
X696509Y58782D01*
X700491Y58782D01*
X703307Y55966D01*
X703307Y51984D01*
X700491Y49168D01*
X696509Y49168D01*
G37*
%LPD*%
%LPC*%
G36*
X728259Y39643D02*
X728259Y39643D01*
X725443Y42459D01*
X725443Y46441D01*
X728259Y49257D01*
X732241Y49257D01*
X735057Y46441D01*
X735057Y42459D01*
X732241Y39643D01*
X728259Y39643D01*
G37*
%LPD*%
%LPC*%
G36*
X715559Y39643D02*
X715559Y39643D01*
X712743Y42459D01*
X712743Y46441D01*
X715559Y49257D01*
X719541Y49257D01*
X722357Y46441D01*
X722357Y42459D01*
X719541Y39643D01*
X715559Y39643D01*
G37*
%LPD*%
%LPC*%
G36*
X702859Y39643D02*
X702859Y39643D01*
X700043Y42459D01*
X700043Y46441D01*
X702859Y49257D01*
X706841Y49257D01*
X709657Y46441D01*
X709657Y42459D01*
X706841Y39643D01*
X702859Y39643D01*
G37*
%LPD*%
%LPC*%
G36*
X734609Y30118D02*
X734609Y30118D01*
X731793Y32934D01*
X731793Y36916D01*
X734609Y39732D01*
X738591Y39732D01*
X741407Y36916D01*
X741407Y32934D01*
X738591Y30118D01*
X734609Y30118D01*
G37*
%LPD*%
%LPC*%
G36*
X721909Y30118D02*
X721909Y30118D01*
X719093Y32934D01*
X719093Y36916D01*
X721909Y39732D01*
X725891Y39732D01*
X728707Y36916D01*
X728707Y32934D01*
X725891Y30118D01*
X721909Y30118D01*
G37*
%LPD*%
%LPC*%
G36*
X709209Y30118D02*
X709209Y30118D01*
X706393Y32934D01*
X706393Y36916D01*
X709209Y39732D01*
X713191Y39732D01*
X716007Y36916D01*
X716007Y32934D01*
X713191Y30118D01*
X709209Y30118D01*
G37*
%LPD*%
%LPC*%
G36*
X696509Y30118D02*
X696509Y30118D01*
X693693Y32934D01*
X693693Y36916D01*
X696509Y39732D01*
X700491Y39732D01*
X703307Y36916D01*
X703307Y32934D01*
X700491Y30118D01*
X696509Y30118D01*
G37*
%LPD*%
%LPC*%
G36*
X521884Y426993D02*
X521884Y426993D01*
X519068Y429809D01*
X519068Y433791D01*
X521884Y436607D01*
X525866Y436607D01*
X528682Y433791D01*
X528682Y429809D01*
X525866Y426993D01*
X521884Y426993D01*
G37*
%LPD*%
%LPC*%
G36*
X715559Y20593D02*
X715559Y20593D01*
X712743Y23409D01*
X712743Y27391D01*
X715559Y30207D01*
X719541Y30207D01*
X722357Y27391D01*
X722357Y23409D01*
X719541Y20593D01*
X715559Y20593D01*
G37*
%LPD*%
%LPC*%
G36*
X702859Y20593D02*
X702859Y20593D01*
X700043Y23409D01*
X700043Y27391D01*
X702859Y30207D01*
X706841Y30207D01*
X709657Y27391D01*
X709657Y23409D01*
X706841Y20593D01*
X702859Y20593D01*
G37*
%LPD*%
%LPC*%
G36*
X728259Y20593D02*
X728259Y20593D01*
X725443Y23409D01*
X725443Y27391D01*
X728259Y30207D01*
X732241Y30207D01*
X735057Y27391D01*
X735057Y23409D01*
X732241Y20593D01*
X728259Y20593D01*
G37*
%LPD*%
%LPC*%
G36*
X176148Y55498D02*
X176148Y55498D01*
X176148Y61442D01*
X176848Y61303D01*
X178235Y60728D01*
X179483Y59894D01*
X180544Y58833D01*
X181378Y57585D01*
X181953Y56198D01*
X182092Y55498D01*
X176148Y55498D01*
G37*
%LPD*%
%LPC*%
G36*
X201548Y55498D02*
X201548Y55498D01*
X201548Y61442D01*
X202248Y61303D01*
X203635Y60728D01*
X204883Y59894D01*
X205944Y58833D01*
X206778Y57585D01*
X207353Y56198D01*
X207492Y55498D01*
X201548Y55498D01*
G37*
%LPD*%
%LPC*%
G36*
X192558Y55498D02*
X192558Y55498D01*
X192697Y56198D01*
X193272Y57585D01*
X194106Y58833D01*
X195167Y59894D01*
X196415Y60728D01*
X197802Y61303D01*
X198502Y61442D01*
X198502Y55498D01*
X192558Y55498D01*
G37*
%LPD*%
%LPC*%
G36*
X201548Y52452D02*
X201548Y52452D01*
X207492Y52452D01*
X207353Y51752D01*
X206778Y50365D01*
X205944Y49117D01*
X204883Y48056D01*
X203635Y47222D01*
X202248Y46647D01*
X201548Y46508D01*
X201548Y52452D01*
G37*
%LPD*%
%LPC*%
G36*
X176148Y52452D02*
X176148Y52452D01*
X182092Y52452D01*
X181953Y51752D01*
X181378Y50365D01*
X180544Y49117D01*
X179483Y48056D01*
X178235Y47222D01*
X176848Y46647D01*
X176148Y46508D01*
X176148Y52452D01*
G37*
%LPD*%
%LPC*%
G36*
X167158Y55498D02*
X167158Y55498D01*
X167297Y56198D01*
X167872Y57585D01*
X168706Y58833D01*
X169767Y59894D01*
X171015Y60728D01*
X172402Y61303D01*
X173102Y61442D01*
X173102Y55498D01*
X167158Y55498D01*
G37*
%LPD*%
%LPC*%
G36*
X197802Y46647D02*
X197802Y46647D01*
X196415Y47222D01*
X195167Y48056D01*
X194106Y49117D01*
X193272Y50365D01*
X192697Y51752D01*
X192558Y52452D01*
X198502Y52452D01*
X198502Y46508D01*
X197802Y46647D01*
G37*
%LPD*%
%LPC*%
G36*
X172402Y46647D02*
X172402Y46647D01*
X171015Y47222D01*
X169767Y48056D01*
X168706Y49117D01*
X167872Y50365D01*
X167297Y51752D01*
X167158Y52452D01*
X173102Y52452D01*
X173102Y46508D01*
X172402Y46647D01*
G37*
%LPD*%
%LPC*%
G36*
X200024Y53974D02*
X200024Y53974D01*
X200024Y53976D01*
X200026Y53976D01*
X200026Y53974D01*
X200024Y53974D01*
G37*
%LPD*%
%LPC*%
G36*
X174624Y53974D02*
X174624Y53974D01*
X174624Y53976D01*
X174626Y53976D01*
X174626Y53974D01*
X174624Y53974D01*
G37*
%LPD*%
D10*
X73025Y53975D03*
X98425Y53975D03*
X123825Y53975D03*
X149225Y53975D03*
X174625Y53975D03*
X200025Y53975D03*
D11*
X272879Y139529D03*
X365656Y113994D03*
X400050Y375384D03*
X273050Y123825D03*
X317500Y231775D03*
D12*
X358775Y441325D03*
X368300Y431800D03*
X377825Y441325D03*
X387350Y431800D03*
X396875Y441325D03*
X406400Y431800D03*
X415925Y441325D03*
X425450Y431800D03*
X434975Y441325D03*
X444500Y431800D03*
X358775Y422275D03*
X377825Y422275D03*
X396875Y422275D03*
X415925Y422275D03*
X434975Y422275D03*
X368300Y412750D03*
X387350Y412750D03*
X406400Y412750D03*
X425450Y412750D03*
X444500Y412750D03*
X434975Y403225D03*
X415925Y403225D03*
X396875Y403225D03*
X377825Y403225D03*
X358775Y403225D03*
X368300Y393700D03*
X387350Y393700D03*
X406400Y393700D03*
X425450Y393700D03*
X444500Y393700D03*
X476250Y441325D03*
X485775Y431800D03*
X495300Y441325D03*
X504825Y431800D03*
X514350Y441325D03*
X523875Y431800D03*
X533400Y441325D03*
X542925Y431800D03*
X552450Y441325D03*
X561975Y431800D03*
X476250Y422275D03*
X495300Y422275D03*
X514350Y422275D03*
X533400Y422275D03*
X552450Y422275D03*
X485775Y412750D03*
X504825Y412750D03*
X523875Y412750D03*
X542925Y412750D03*
X561975Y412750D03*
X552450Y403225D03*
X533400Y403225D03*
X514350Y403225D03*
X495300Y403225D03*
X476250Y403225D03*
X485775Y393700D03*
X504825Y393700D03*
X523875Y393700D03*
X542925Y393700D03*
X561975Y393700D03*
X615950Y473075D03*
X628650Y473075D03*
X641350Y473075D03*
X654050Y473075D03*
X666750Y473075D03*
X679450Y473075D03*
X692150Y473075D03*
X704850Y473075D03*
X717550Y473075D03*
X730250Y473075D03*
X742950Y473075D03*
X615950Y409575D03*
X628650Y409575D03*
X641350Y409575D03*
X654050Y409575D03*
X666750Y409575D03*
X679450Y409575D03*
X692150Y409575D03*
X704850Y409575D03*
X717550Y409575D03*
X730250Y409575D03*
X742950Y409575D03*
X117475Y469900D03*
X130175Y469900D03*
X123825Y463550D03*
X117475Y457200D03*
X130175Y457200D03*
X241300Y469900D03*
X254000Y469900D03*
X247650Y463550D03*
X241300Y457200D03*
X254000Y457200D03*
D11*
X228600Y203200D03*
X349250Y276225D03*
D12*
X412750Y273050D03*
X457200Y273050D03*
X422275Y295275D03*
X450850Y295275D03*
X422275Y263525D03*
X431800Y263525D03*
X441325Y263525D03*
X450850Y263525D03*
X419100Y304800D03*
X431800Y304800D03*
X425450Y311150D03*
X419100Y317500D03*
X431800Y317500D03*
X539750Y304800D03*
X552450Y304800D03*
X546100Y311150D03*
X539750Y317500D03*
X552450Y317500D03*
X431800Y295275D03*
X441325Y295275D03*
D11*
X15875Y12700D03*
X50800Y12700D03*
X101600Y12700D03*
X152400Y12700D03*
X203200Y12700D03*
X254000Y12700D03*
X15875Y50800D03*
X15875Y101600D03*
X15875Y152400D03*
X304800Y12700D03*
X355600Y12700D03*
X406400Y12700D03*
X457200Y12700D03*
X508000Y12700D03*
X558800Y12700D03*
X609600Y12700D03*
X660400Y12700D03*
X711200Y12700D03*
X758825Y12700D03*
X758825Y50800D03*
X758825Y101600D03*
X758825Y152400D03*
X758825Y203200D03*
X758825Y254000D03*
X758825Y304800D03*
X758825Y355600D03*
X758825Y406400D03*
X758825Y457200D03*
X15875Y203200D03*
X15875Y254000D03*
X15875Y304800D03*
X15875Y355600D03*
X15875Y406400D03*
X15875Y457200D03*
X15875Y492125D03*
X50800Y492125D03*
X101600Y492125D03*
X152400Y492125D03*
X203200Y492125D03*
X254000Y492125D03*
X304800Y492125D03*
X355600Y492125D03*
X406400Y492125D03*
X457200Y492125D03*
X508000Y492125D03*
X558800Y492125D03*
X609600Y492125D03*
X660400Y492125D03*
X711200Y492125D03*
X758825Y492125D03*
D12*
X323850Y165100D03*
X314325Y165100D03*
X333375Y165100D03*
X314325Y155575D03*
X323850Y155575D03*
X333375Y155575D03*
X314325Y146050D03*
X323850Y146050D03*
X333375Y146050D03*
X314325Y136525D03*
X323850Y136525D03*
X333375Y136525D03*
X314325Y127000D03*
X323850Y127000D03*
X333375Y127000D03*
X314325Y117475D03*
X323850Y117475D03*
X333375Y117475D03*
X561975Y174625D03*
X584200Y174625D03*
X412750Y228600D03*
X412750Y219075D03*
X422275Y209550D03*
X431800Y209550D03*
X441325Y209550D03*
X450850Y209550D03*
X422275Y238125D03*
X431800Y238125D03*
X441325Y238125D03*
X450850Y238125D03*
X457200Y228600D03*
X457200Y219075D03*
X107950Y222250D03*
X146050Y222250D03*
X184150Y222250D03*
X222250Y222250D03*
X606425Y187325D03*
X615950Y187325D03*
X625475Y187325D03*
X635000Y187325D03*
X644525Y187325D03*
X654050Y187325D03*
X663575Y187325D03*
X663575Y155575D03*
X654050Y155575D03*
X644525Y155575D03*
X635000Y155575D03*
X625475Y155575D03*
X565150Y92075D03*
X577850Y92075D03*
X590550Y92075D03*
X603250Y92075D03*
X571500Y82550D03*
X584200Y82550D03*
X596900Y82550D03*
X565150Y73025D03*
X577850Y73025D03*
X590550Y73025D03*
X603250Y73025D03*
X571500Y63500D03*
X584200Y63500D03*
X596900Y63500D03*
X565150Y53975D03*
X577850Y53975D03*
X590550Y53975D03*
X603250Y53975D03*
X571500Y44450D03*
X584200Y44450D03*
X596900Y44450D03*
X565150Y34925D03*
X577850Y34925D03*
X590550Y34925D03*
X603250Y34925D03*
X571500Y25400D03*
X584200Y25400D03*
X596900Y25400D03*
X38100Y219075D03*
X50800Y219075D03*
X63500Y219075D03*
X76200Y219075D03*
X44450Y209550D03*
X57150Y209550D03*
X69850Y209550D03*
X38100Y200025D03*
X50800Y200025D03*
X63500Y200025D03*
X76200Y200025D03*
X44450Y190500D03*
X57150Y190500D03*
X69850Y190500D03*
X38100Y180975D03*
X50800Y180975D03*
X63500Y180975D03*
X76200Y180975D03*
X44450Y171450D03*
X57150Y171450D03*
X69850Y171450D03*
X38100Y161925D03*
X50800Y161925D03*
X63500Y161925D03*
X76200Y161925D03*
X44450Y152400D03*
X57150Y152400D03*
X69850Y152400D03*
D11*
X266700Y82550D03*
X330200Y82550D03*
X260350Y231775D03*
X463550Y111125D03*
X542925Y209550D03*
D12*
X755650Y187325D03*
X746125Y187325D03*
X736600Y187325D03*
X727075Y187325D03*
X717550Y187325D03*
X708025Y187325D03*
X708025Y155575D03*
X717550Y155575D03*
X727075Y155575D03*
X736600Y155575D03*
X746125Y155575D03*
X615950Y304800D03*
X628650Y304800D03*
X641350Y304800D03*
X654050Y304800D03*
X666750Y304800D03*
X679450Y304800D03*
X692150Y304800D03*
X704850Y304800D03*
X717550Y304800D03*
X730250Y304800D03*
X742950Y304800D03*
X615950Y238125D03*
X628650Y238125D03*
X641350Y238125D03*
X654050Y238125D03*
X666750Y238125D03*
X679450Y238125D03*
X692150Y238125D03*
X704850Y238125D03*
X717550Y238125D03*
X730250Y238125D03*
X742950Y238125D03*
X584200Y222250D03*
X565150Y222250D03*
X698500Y92075D03*
X711200Y92075D03*
X723900Y92075D03*
X736600Y92075D03*
X704850Y82550D03*
X717550Y82550D03*
X730250Y82550D03*
X698500Y73025D03*
X711200Y73025D03*
X723900Y73025D03*
X736600Y73025D03*
X704850Y63500D03*
X717550Y63500D03*
X730250Y63500D03*
X698500Y53975D03*
X711200Y53975D03*
X723900Y53975D03*
X736600Y53975D03*
X704850Y44450D03*
X717550Y44450D03*
X730250Y44450D03*
X698500Y34925D03*
X711200Y34925D03*
X723900Y34925D03*
X736600Y34925D03*
X704850Y25400D03*
X717550Y25400D03*
X730250Y25400D03*
D11*
X390525Y320675D03*
X479425Y320675D03*
X279400Y146201D03*
X190500Y454025D03*
X282575Y454025D03*
X272824Y113849D03*
X336550Y25400D03*
X473075Y133350D03*
X368300Y169026D03*
X520700Y222250D03*
X165100Y263525D03*
D12*
X107950Y384175D03*
X117475Y374650D03*
X127000Y384175D03*
X136525Y374650D03*
X146050Y384175D03*
X155575Y374650D03*
X165100Y384175D03*
X174625Y374650D03*
X184150Y384175D03*
X193675Y374650D03*
X107950Y365125D03*
X127000Y365125D03*
X146050Y365125D03*
X165100Y365125D03*
X184150Y365125D03*
X117475Y355600D03*
X136525Y355600D03*
X155575Y355600D03*
X174625Y355600D03*
X193675Y355600D03*
X184150Y346075D03*
X165100Y346075D03*
X146050Y346075D03*
X127000Y346075D03*
X107950Y346075D03*
X117475Y336550D03*
X136525Y336550D03*
X155575Y336550D03*
X174625Y336550D03*
X193675Y336550D03*
X228600Y384175D03*
X238125Y374650D03*
X247650Y384175D03*
X257175Y374650D03*
X266700Y384175D03*
X276225Y374650D03*
X285750Y384175D03*
X295275Y374650D03*
X304800Y384175D03*
X314325Y374650D03*
X228600Y365125D03*
X247650Y365125D03*
X266700Y365125D03*
X285750Y365125D03*
X304800Y365125D03*
X238125Y355600D03*
X257175Y355600D03*
X276225Y355600D03*
X295275Y355600D03*
X314325Y355600D03*
X304800Y346075D03*
X285750Y346075D03*
X266700Y346075D03*
X247650Y346075D03*
X228600Y346075D03*
X238125Y336550D03*
X257175Y336550D03*
X276225Y336550D03*
X295275Y336550D03*
X314325Y336550D03*
X107950Y279400D03*
X146050Y279400D03*
X184150Y279400D03*
X222250Y279400D03*
X38100Y342900D03*
X50800Y342900D03*
X63500Y342900D03*
X76200Y342900D03*
X44450Y333375D03*
X57150Y333375D03*
X69850Y333375D03*
X38100Y323850D03*
X50800Y323850D03*
X63500Y323850D03*
X76200Y323850D03*
X44450Y314325D03*
X57150Y314325D03*
X69850Y314325D03*
X38100Y304800D03*
X50800Y304800D03*
X63500Y304800D03*
X76200Y304800D03*
X44450Y295275D03*
X57150Y295275D03*
X69850Y295275D03*
X38100Y285750D03*
X50800Y285750D03*
X63500Y285750D03*
X76200Y285750D03*
X44450Y276225D03*
X57150Y276225D03*
X69850Y276225D03*
D11*
X165100Y196850D03*
X260350Y269875D03*
M02*
