G04 EAGLE Gerber RS-274X export*
G75*
%MOMM*%
%FSLAX34Y34*%
%LPD*%
%INBottom Copper*%
%IPPOS*%
%AMOC8*
5,1,8,0,0,1.08239X$1,22.5*%
G01*
%ADD10P,1.649562X8X112.500000*%
%ADD11C,0.756400*%
%ADD12C,0.656400*%

G36*
X666770Y8767D02*
X666770Y8767D01*
X666789Y8765D01*
X666891Y8787D01*
X666993Y8804D01*
X667010Y8813D01*
X667030Y8817D01*
X667119Y8870D01*
X667210Y8919D01*
X667224Y8933D01*
X667241Y8943D01*
X667308Y9022D01*
X667380Y9097D01*
X667388Y9115D01*
X667401Y9130D01*
X667440Y9226D01*
X667483Y9320D01*
X667485Y9340D01*
X667493Y9358D01*
X667511Y9525D01*
X667511Y196850D01*
X667508Y196870D01*
X667510Y196889D01*
X667488Y196991D01*
X667472Y197093D01*
X667462Y197110D01*
X667458Y197130D01*
X667405Y197219D01*
X667356Y197310D01*
X667342Y197324D01*
X667332Y197341D01*
X667253Y197408D01*
X667178Y197480D01*
X667160Y197488D01*
X667145Y197501D01*
X667049Y197540D01*
X666955Y197583D01*
X666935Y197585D01*
X666917Y197593D01*
X666750Y197611D01*
X537336Y197611D01*
X537336Y244475D01*
X537333Y244495D01*
X537335Y244514D01*
X537313Y244616D01*
X537297Y244718D01*
X537287Y244735D01*
X537283Y244755D01*
X537230Y244844D01*
X537181Y244935D01*
X537167Y244949D01*
X537157Y244966D01*
X537078Y245033D01*
X537003Y245105D01*
X536985Y245113D01*
X536970Y245126D01*
X536874Y245165D01*
X536780Y245208D01*
X536760Y245210D01*
X536742Y245218D01*
X536575Y245236D01*
X12700Y245236D01*
X12680Y245233D01*
X12661Y245235D01*
X12559Y245213D01*
X12457Y245197D01*
X12440Y245187D01*
X12420Y245183D01*
X12331Y245130D01*
X12240Y245081D01*
X12226Y245067D01*
X12209Y245057D01*
X12142Y244978D01*
X12071Y244903D01*
X12062Y244885D01*
X12049Y244870D01*
X12010Y244774D01*
X11967Y244680D01*
X11965Y244660D01*
X11957Y244642D01*
X11939Y244475D01*
X11939Y9525D01*
X11942Y9505D01*
X11940Y9486D01*
X11962Y9384D01*
X11979Y9282D01*
X11988Y9265D01*
X11992Y9245D01*
X12045Y9156D01*
X12094Y9065D01*
X12108Y9051D01*
X12118Y9034D01*
X12197Y8967D01*
X12272Y8896D01*
X12290Y8887D01*
X12305Y8874D01*
X12401Y8835D01*
X12495Y8792D01*
X12515Y8790D01*
X12533Y8782D01*
X12700Y8764D01*
X666750Y8764D01*
X666770Y8767D01*
G37*
G36*
X752777Y354842D02*
X752777Y354842D01*
X752796Y354840D01*
X752898Y354862D01*
X753000Y354879D01*
X753017Y354888D01*
X753037Y354892D01*
X753126Y354945D01*
X753217Y354994D01*
X753231Y355008D01*
X753248Y355018D01*
X753315Y355097D01*
X753387Y355172D01*
X753395Y355190D01*
X753408Y355205D01*
X753447Y355301D01*
X753490Y355395D01*
X753492Y355415D01*
X753500Y355433D01*
X753518Y355600D01*
X753518Y357798D01*
X756627Y360907D01*
X761023Y360907D01*
X763040Y358890D01*
X763098Y358848D01*
X763150Y358799D01*
X763197Y358777D01*
X763239Y358747D01*
X763308Y358725D01*
X763373Y358695D01*
X763425Y358690D01*
X763475Y358674D01*
X763546Y358676D01*
X763617Y358668D01*
X763668Y358679D01*
X763720Y358681D01*
X763788Y358705D01*
X763858Y358720D01*
X763903Y358747D01*
X763951Y358765D01*
X764007Y358810D01*
X764069Y358847D01*
X764103Y358886D01*
X764143Y358919D01*
X764182Y358979D01*
X764229Y359034D01*
X764248Y359082D01*
X764276Y359126D01*
X764294Y359195D01*
X764321Y359262D01*
X764329Y359333D01*
X764337Y359364D01*
X764335Y359387D01*
X764339Y359428D01*
X764339Y402572D01*
X764328Y402642D01*
X764326Y402714D01*
X764308Y402763D01*
X764300Y402814D01*
X764266Y402878D01*
X764241Y402945D01*
X764209Y402986D01*
X764184Y403032D01*
X764132Y403081D01*
X764088Y403137D01*
X764044Y403165D01*
X764006Y403201D01*
X763941Y403231D01*
X763881Y403270D01*
X763830Y403283D01*
X763783Y403305D01*
X763712Y403313D01*
X763642Y403330D01*
X763590Y403326D01*
X763539Y403332D01*
X763468Y403317D01*
X763397Y403311D01*
X763349Y403291D01*
X763298Y403280D01*
X763237Y403243D01*
X763171Y403215D01*
X763115Y403170D01*
X763087Y403153D01*
X763072Y403136D01*
X763040Y403110D01*
X761023Y401093D01*
X756627Y401093D01*
X753518Y404202D01*
X753518Y408598D01*
X756627Y411707D01*
X761023Y411707D01*
X763040Y409690D01*
X763098Y409648D01*
X763150Y409599D01*
X763197Y409577D01*
X763239Y409547D01*
X763308Y409525D01*
X763373Y409495D01*
X763425Y409490D01*
X763475Y409474D01*
X763546Y409476D01*
X763617Y409468D01*
X763668Y409479D01*
X763720Y409481D01*
X763788Y409505D01*
X763858Y409520D01*
X763903Y409547D01*
X763951Y409565D01*
X764007Y409610D01*
X764069Y409647D01*
X764103Y409686D01*
X764143Y409719D01*
X764182Y409779D01*
X764229Y409834D01*
X764248Y409882D01*
X764276Y409926D01*
X764294Y409995D01*
X764321Y410062D01*
X764329Y410133D01*
X764337Y410164D01*
X764335Y410187D01*
X764339Y410228D01*
X764339Y453372D01*
X764328Y453442D01*
X764326Y453514D01*
X764308Y453563D01*
X764300Y453614D01*
X764266Y453678D01*
X764241Y453745D01*
X764209Y453786D01*
X764184Y453832D01*
X764132Y453881D01*
X764088Y453937D01*
X764044Y453965D01*
X764006Y454001D01*
X763941Y454031D01*
X763881Y454070D01*
X763830Y454083D01*
X763783Y454105D01*
X763712Y454113D01*
X763642Y454130D01*
X763590Y454126D01*
X763539Y454132D01*
X763468Y454117D01*
X763397Y454111D01*
X763349Y454091D01*
X763298Y454080D01*
X763237Y454043D01*
X763171Y454015D01*
X763115Y453970D01*
X763087Y453953D01*
X763072Y453936D01*
X763040Y453910D01*
X761023Y451893D01*
X756627Y451893D01*
X753518Y455002D01*
X753518Y459398D01*
X756627Y462507D01*
X761023Y462507D01*
X763040Y460490D01*
X763098Y460448D01*
X763150Y460399D01*
X763197Y460377D01*
X763239Y460347D01*
X763308Y460325D01*
X763373Y460295D01*
X763425Y460290D01*
X763475Y460274D01*
X763546Y460276D01*
X763617Y460268D01*
X763668Y460279D01*
X763720Y460281D01*
X763788Y460305D01*
X763858Y460320D01*
X763903Y460347D01*
X763951Y460365D01*
X764007Y460410D01*
X764069Y460447D01*
X764103Y460486D01*
X764143Y460519D01*
X764182Y460579D01*
X764229Y460634D01*
X764248Y460682D01*
X764276Y460726D01*
X764294Y460795D01*
X764321Y460862D01*
X764329Y460933D01*
X764337Y460964D01*
X764335Y460987D01*
X764339Y461028D01*
X764339Y488297D01*
X764328Y488367D01*
X764326Y488439D01*
X764308Y488488D01*
X764300Y488539D01*
X764266Y488603D01*
X764241Y488670D01*
X764209Y488711D01*
X764184Y488757D01*
X764132Y488806D01*
X764088Y488862D01*
X764044Y488890D01*
X764006Y488926D01*
X763941Y488956D01*
X763881Y488995D01*
X763830Y489008D01*
X763783Y489030D01*
X763712Y489038D01*
X763642Y489055D01*
X763590Y489051D01*
X763539Y489057D01*
X763468Y489042D01*
X763397Y489036D01*
X763349Y489016D01*
X763298Y489005D01*
X763237Y488968D01*
X763171Y488940D01*
X763115Y488895D01*
X763087Y488878D01*
X763072Y488861D01*
X763040Y488835D01*
X761023Y486818D01*
X756627Y486818D01*
X753518Y489927D01*
X753518Y494323D01*
X753957Y494762D01*
X753999Y494820D01*
X754048Y494872D01*
X754070Y494919D01*
X754100Y494961D01*
X754121Y495030D01*
X754152Y495095D01*
X754157Y495147D01*
X754173Y495197D01*
X754171Y495268D01*
X754179Y495339D01*
X754168Y495390D01*
X754166Y495442D01*
X754142Y495510D01*
X754127Y495580D01*
X754100Y495624D01*
X754082Y495673D01*
X754037Y495729D01*
X754000Y495791D01*
X753961Y495825D01*
X753928Y495865D01*
X753868Y495904D01*
X753813Y495951D01*
X753765Y495970D01*
X753721Y495998D01*
X753652Y496016D01*
X753585Y496043D01*
X753514Y496051D01*
X753483Y496059D01*
X753460Y496057D01*
X753419Y496061D01*
X716606Y496061D01*
X716536Y496050D01*
X716464Y496048D01*
X716415Y496030D01*
X716364Y496022D01*
X716300Y495988D01*
X716233Y495963D01*
X716192Y495931D01*
X716146Y495906D01*
X716097Y495855D01*
X716041Y495810D01*
X716013Y495766D01*
X715977Y495728D01*
X715947Y495663D01*
X715908Y495603D01*
X715895Y495552D01*
X715873Y495505D01*
X715865Y495434D01*
X715848Y495364D01*
X715852Y495312D01*
X715846Y495261D01*
X715861Y495190D01*
X715867Y495119D01*
X715887Y495071D01*
X715898Y495020D01*
X715935Y494959D01*
X715963Y494893D01*
X716008Y494837D01*
X716025Y494809D01*
X716042Y494794D01*
X716068Y494762D01*
X716507Y494323D01*
X716507Y489927D01*
X713398Y486818D01*
X709002Y486818D01*
X705893Y489927D01*
X705893Y494323D01*
X706332Y494762D01*
X706374Y494820D01*
X706423Y494872D01*
X706445Y494919D01*
X706475Y494961D01*
X706496Y495030D01*
X706527Y495095D01*
X706532Y495147D01*
X706548Y495197D01*
X706546Y495268D01*
X706554Y495339D01*
X706543Y495390D01*
X706541Y495442D01*
X706517Y495510D01*
X706502Y495580D01*
X706475Y495624D01*
X706457Y495673D01*
X706412Y495729D01*
X706375Y495791D01*
X706336Y495825D01*
X706303Y495865D01*
X706243Y495904D01*
X706188Y495951D01*
X706140Y495970D01*
X706096Y495998D01*
X706027Y496016D01*
X705960Y496043D01*
X705889Y496051D01*
X705858Y496059D01*
X705835Y496057D01*
X705794Y496061D01*
X665806Y496061D01*
X665736Y496050D01*
X665664Y496048D01*
X665615Y496030D01*
X665564Y496022D01*
X665500Y495988D01*
X665433Y495963D01*
X665392Y495931D01*
X665346Y495906D01*
X665297Y495855D01*
X665241Y495810D01*
X665213Y495766D01*
X665177Y495728D01*
X665147Y495663D01*
X665108Y495603D01*
X665095Y495552D01*
X665073Y495505D01*
X665065Y495434D01*
X665048Y495364D01*
X665052Y495312D01*
X665046Y495261D01*
X665061Y495190D01*
X665067Y495119D01*
X665087Y495071D01*
X665098Y495020D01*
X665135Y494959D01*
X665163Y494893D01*
X665208Y494837D01*
X665225Y494809D01*
X665242Y494794D01*
X665268Y494762D01*
X665707Y494323D01*
X665707Y489927D01*
X662598Y486818D01*
X658202Y486818D01*
X655093Y489927D01*
X655093Y494323D01*
X655532Y494762D01*
X655574Y494820D01*
X655623Y494872D01*
X655645Y494919D01*
X655675Y494961D01*
X655696Y495030D01*
X655727Y495095D01*
X655732Y495147D01*
X655748Y495197D01*
X655746Y495268D01*
X655754Y495339D01*
X655743Y495390D01*
X655741Y495442D01*
X655717Y495510D01*
X655702Y495580D01*
X655675Y495624D01*
X655657Y495673D01*
X655612Y495729D01*
X655575Y495791D01*
X655536Y495825D01*
X655503Y495865D01*
X655443Y495904D01*
X655388Y495951D01*
X655340Y495970D01*
X655296Y495998D01*
X655227Y496016D01*
X655160Y496043D01*
X655089Y496051D01*
X655058Y496059D01*
X655035Y496057D01*
X654994Y496061D01*
X615006Y496061D01*
X614936Y496050D01*
X614864Y496048D01*
X614815Y496030D01*
X614764Y496022D01*
X614700Y495988D01*
X614633Y495963D01*
X614592Y495931D01*
X614546Y495906D01*
X614497Y495855D01*
X614441Y495810D01*
X614413Y495766D01*
X614377Y495728D01*
X614347Y495663D01*
X614308Y495603D01*
X614295Y495552D01*
X614273Y495505D01*
X614265Y495434D01*
X614248Y495364D01*
X614252Y495312D01*
X614246Y495261D01*
X614261Y495190D01*
X614267Y495119D01*
X614287Y495071D01*
X614298Y495020D01*
X614335Y494959D01*
X614363Y494893D01*
X614408Y494837D01*
X614425Y494809D01*
X614442Y494794D01*
X614468Y494762D01*
X614907Y494323D01*
X614907Y489927D01*
X611798Y486818D01*
X607402Y486818D01*
X604293Y489927D01*
X604293Y494323D01*
X604732Y494762D01*
X604774Y494820D01*
X604823Y494872D01*
X604845Y494919D01*
X604875Y494961D01*
X604896Y495030D01*
X604927Y495095D01*
X604932Y495147D01*
X604948Y495197D01*
X604946Y495268D01*
X604954Y495339D01*
X604943Y495390D01*
X604941Y495442D01*
X604917Y495510D01*
X604902Y495580D01*
X604875Y495624D01*
X604857Y495673D01*
X604812Y495729D01*
X604775Y495791D01*
X604736Y495825D01*
X604703Y495865D01*
X604643Y495904D01*
X604588Y495951D01*
X604540Y495970D01*
X604496Y495998D01*
X604427Y496016D01*
X604360Y496043D01*
X604289Y496051D01*
X604258Y496059D01*
X604235Y496057D01*
X604194Y496061D01*
X564206Y496061D01*
X564136Y496050D01*
X564064Y496048D01*
X564015Y496030D01*
X563964Y496022D01*
X563900Y495988D01*
X563833Y495963D01*
X563792Y495931D01*
X563746Y495906D01*
X563697Y495855D01*
X563641Y495810D01*
X563613Y495766D01*
X563577Y495728D01*
X563547Y495663D01*
X563508Y495603D01*
X563495Y495552D01*
X563473Y495505D01*
X563465Y495434D01*
X563448Y495364D01*
X563452Y495312D01*
X563446Y495261D01*
X563461Y495190D01*
X563467Y495119D01*
X563487Y495071D01*
X563498Y495020D01*
X563535Y494959D01*
X563563Y494893D01*
X563608Y494837D01*
X563625Y494809D01*
X563642Y494794D01*
X563668Y494762D01*
X564107Y494323D01*
X564107Y489927D01*
X560998Y486818D01*
X556602Y486818D01*
X553493Y489927D01*
X553493Y494323D01*
X553932Y494762D01*
X553974Y494820D01*
X554023Y494872D01*
X554045Y494919D01*
X554075Y494961D01*
X554096Y495030D01*
X554127Y495095D01*
X554132Y495147D01*
X554148Y495197D01*
X554146Y495268D01*
X554154Y495339D01*
X554143Y495390D01*
X554141Y495442D01*
X554117Y495510D01*
X554102Y495580D01*
X554075Y495624D01*
X554057Y495673D01*
X554012Y495729D01*
X553975Y495791D01*
X553936Y495825D01*
X553903Y495865D01*
X553843Y495904D01*
X553788Y495951D01*
X553740Y495970D01*
X553696Y495998D01*
X553627Y496016D01*
X553560Y496043D01*
X553489Y496051D01*
X553458Y496059D01*
X553435Y496057D01*
X553394Y496061D01*
X513406Y496061D01*
X513336Y496050D01*
X513264Y496048D01*
X513215Y496030D01*
X513164Y496022D01*
X513100Y495988D01*
X513033Y495963D01*
X512992Y495931D01*
X512946Y495906D01*
X512897Y495855D01*
X512841Y495810D01*
X512813Y495766D01*
X512777Y495728D01*
X512747Y495663D01*
X512708Y495603D01*
X512695Y495552D01*
X512673Y495505D01*
X512665Y495434D01*
X512648Y495364D01*
X512652Y495312D01*
X512646Y495261D01*
X512661Y495190D01*
X512667Y495119D01*
X512687Y495071D01*
X512698Y495020D01*
X512735Y494959D01*
X512763Y494893D01*
X512808Y494837D01*
X512825Y494809D01*
X512842Y494794D01*
X512868Y494762D01*
X513307Y494323D01*
X513307Y489927D01*
X510198Y486818D01*
X505802Y486818D01*
X502693Y489927D01*
X502693Y494323D01*
X503132Y494762D01*
X503174Y494820D01*
X503223Y494872D01*
X503245Y494919D01*
X503275Y494961D01*
X503296Y495030D01*
X503327Y495095D01*
X503332Y495147D01*
X503348Y495197D01*
X503346Y495268D01*
X503354Y495339D01*
X503343Y495390D01*
X503341Y495442D01*
X503317Y495510D01*
X503302Y495580D01*
X503275Y495624D01*
X503257Y495673D01*
X503212Y495729D01*
X503175Y495791D01*
X503136Y495825D01*
X503103Y495865D01*
X503043Y495904D01*
X502988Y495951D01*
X502940Y495970D01*
X502896Y495998D01*
X502827Y496016D01*
X502760Y496043D01*
X502689Y496051D01*
X502658Y496059D01*
X502635Y496057D01*
X502594Y496061D01*
X462606Y496061D01*
X462536Y496050D01*
X462464Y496048D01*
X462415Y496030D01*
X462364Y496022D01*
X462300Y495988D01*
X462233Y495963D01*
X462192Y495931D01*
X462146Y495906D01*
X462097Y495855D01*
X462041Y495810D01*
X462013Y495766D01*
X461977Y495728D01*
X461947Y495663D01*
X461908Y495603D01*
X461895Y495552D01*
X461873Y495505D01*
X461865Y495434D01*
X461848Y495364D01*
X461852Y495312D01*
X461846Y495261D01*
X461861Y495190D01*
X461867Y495119D01*
X461887Y495071D01*
X461898Y495020D01*
X461935Y494959D01*
X461963Y494893D01*
X462008Y494837D01*
X462025Y494809D01*
X462042Y494794D01*
X462068Y494762D01*
X462507Y494323D01*
X462507Y489927D01*
X459398Y486818D01*
X455002Y486818D01*
X451893Y489927D01*
X451893Y494323D01*
X452332Y494762D01*
X452374Y494820D01*
X452423Y494872D01*
X452445Y494919D01*
X452475Y494961D01*
X452496Y495030D01*
X452527Y495095D01*
X452532Y495147D01*
X452548Y495197D01*
X452546Y495268D01*
X452554Y495339D01*
X452543Y495390D01*
X452541Y495442D01*
X452517Y495510D01*
X452502Y495580D01*
X452475Y495624D01*
X452457Y495673D01*
X452412Y495729D01*
X452375Y495791D01*
X452336Y495825D01*
X452303Y495865D01*
X452243Y495904D01*
X452188Y495951D01*
X452140Y495970D01*
X452096Y495998D01*
X452027Y496016D01*
X451960Y496043D01*
X451889Y496051D01*
X451858Y496059D01*
X451835Y496057D01*
X451794Y496061D01*
X411806Y496061D01*
X411736Y496050D01*
X411664Y496048D01*
X411615Y496030D01*
X411564Y496022D01*
X411500Y495988D01*
X411433Y495963D01*
X411392Y495931D01*
X411346Y495906D01*
X411297Y495855D01*
X411241Y495810D01*
X411213Y495766D01*
X411177Y495728D01*
X411147Y495663D01*
X411108Y495603D01*
X411095Y495552D01*
X411073Y495505D01*
X411065Y495434D01*
X411048Y495364D01*
X411052Y495312D01*
X411046Y495261D01*
X411061Y495190D01*
X411067Y495119D01*
X411087Y495071D01*
X411098Y495020D01*
X411135Y494959D01*
X411163Y494893D01*
X411208Y494837D01*
X411225Y494809D01*
X411242Y494794D01*
X411268Y494762D01*
X411707Y494323D01*
X411707Y489927D01*
X408598Y486818D01*
X404202Y486818D01*
X401093Y489927D01*
X401093Y494323D01*
X401532Y494762D01*
X401574Y494820D01*
X401623Y494872D01*
X401645Y494919D01*
X401675Y494961D01*
X401696Y495030D01*
X401727Y495095D01*
X401732Y495147D01*
X401748Y495197D01*
X401746Y495268D01*
X401754Y495339D01*
X401743Y495390D01*
X401741Y495442D01*
X401717Y495510D01*
X401702Y495580D01*
X401675Y495624D01*
X401657Y495673D01*
X401612Y495729D01*
X401575Y495791D01*
X401536Y495825D01*
X401503Y495865D01*
X401443Y495904D01*
X401388Y495951D01*
X401340Y495970D01*
X401296Y495998D01*
X401227Y496016D01*
X401160Y496043D01*
X401089Y496051D01*
X401058Y496059D01*
X401035Y496057D01*
X400994Y496061D01*
X361006Y496061D01*
X360936Y496050D01*
X360864Y496048D01*
X360815Y496030D01*
X360764Y496022D01*
X360700Y495988D01*
X360633Y495963D01*
X360592Y495931D01*
X360546Y495906D01*
X360497Y495855D01*
X360441Y495810D01*
X360413Y495766D01*
X360377Y495728D01*
X360347Y495663D01*
X360308Y495603D01*
X360295Y495552D01*
X360273Y495505D01*
X360265Y495434D01*
X360248Y495364D01*
X360252Y495312D01*
X360246Y495261D01*
X360261Y495190D01*
X360267Y495119D01*
X360287Y495071D01*
X360298Y495020D01*
X360335Y494959D01*
X360363Y494893D01*
X360408Y494837D01*
X360425Y494809D01*
X360442Y494794D01*
X360468Y494762D01*
X360907Y494323D01*
X360907Y489927D01*
X357798Y486818D01*
X353402Y486818D01*
X350293Y489927D01*
X350293Y494323D01*
X350732Y494762D01*
X350774Y494820D01*
X350823Y494872D01*
X350845Y494919D01*
X350875Y494961D01*
X350896Y495030D01*
X350927Y495095D01*
X350932Y495147D01*
X350948Y495197D01*
X350946Y495268D01*
X350954Y495339D01*
X350943Y495390D01*
X350941Y495442D01*
X350917Y495510D01*
X350902Y495580D01*
X350875Y495624D01*
X350857Y495673D01*
X350812Y495729D01*
X350775Y495791D01*
X350736Y495825D01*
X350703Y495865D01*
X350643Y495904D01*
X350588Y495951D01*
X350540Y495970D01*
X350496Y495998D01*
X350427Y496016D01*
X350360Y496043D01*
X350289Y496051D01*
X350258Y496059D01*
X350235Y496057D01*
X350194Y496061D01*
X310206Y496061D01*
X310136Y496050D01*
X310064Y496048D01*
X310015Y496030D01*
X309964Y496022D01*
X309900Y495988D01*
X309833Y495963D01*
X309792Y495931D01*
X309746Y495906D01*
X309697Y495855D01*
X309641Y495810D01*
X309613Y495766D01*
X309577Y495728D01*
X309547Y495663D01*
X309508Y495603D01*
X309495Y495552D01*
X309473Y495505D01*
X309465Y495434D01*
X309448Y495364D01*
X309452Y495312D01*
X309446Y495261D01*
X309461Y495190D01*
X309467Y495119D01*
X309487Y495071D01*
X309498Y495020D01*
X309535Y494959D01*
X309563Y494893D01*
X309608Y494837D01*
X309625Y494809D01*
X309642Y494794D01*
X309668Y494762D01*
X310107Y494323D01*
X310107Y489927D01*
X306998Y486818D01*
X302602Y486818D01*
X299493Y489927D01*
X299493Y494323D01*
X299932Y494762D01*
X299974Y494820D01*
X300023Y494872D01*
X300045Y494919D01*
X300075Y494961D01*
X300096Y495030D01*
X300127Y495095D01*
X300132Y495147D01*
X300148Y495197D01*
X300146Y495268D01*
X300154Y495339D01*
X300143Y495390D01*
X300141Y495442D01*
X300117Y495510D01*
X300102Y495580D01*
X300075Y495624D01*
X300057Y495673D01*
X300012Y495729D01*
X299975Y495791D01*
X299936Y495825D01*
X299903Y495865D01*
X299843Y495904D01*
X299788Y495951D01*
X299740Y495970D01*
X299696Y495998D01*
X299627Y496016D01*
X299560Y496043D01*
X299489Y496051D01*
X299458Y496059D01*
X299435Y496057D01*
X299394Y496061D01*
X259406Y496061D01*
X259336Y496050D01*
X259264Y496048D01*
X259215Y496030D01*
X259164Y496022D01*
X259100Y495988D01*
X259033Y495963D01*
X258992Y495931D01*
X258946Y495906D01*
X258897Y495855D01*
X258841Y495810D01*
X258813Y495766D01*
X258777Y495728D01*
X258747Y495663D01*
X258708Y495603D01*
X258695Y495552D01*
X258673Y495505D01*
X258665Y495434D01*
X258648Y495364D01*
X258652Y495312D01*
X258646Y495261D01*
X258661Y495190D01*
X258667Y495119D01*
X258687Y495071D01*
X258698Y495020D01*
X258735Y494959D01*
X258763Y494893D01*
X258808Y494837D01*
X258825Y494809D01*
X258842Y494794D01*
X258868Y494762D01*
X259307Y494323D01*
X259307Y489927D01*
X256198Y486818D01*
X251802Y486818D01*
X248693Y489927D01*
X248693Y494323D01*
X249132Y494762D01*
X249174Y494820D01*
X249223Y494872D01*
X249245Y494919D01*
X249275Y494961D01*
X249296Y495030D01*
X249327Y495095D01*
X249332Y495147D01*
X249348Y495197D01*
X249346Y495268D01*
X249354Y495339D01*
X249343Y495390D01*
X249341Y495442D01*
X249317Y495510D01*
X249302Y495580D01*
X249275Y495624D01*
X249257Y495673D01*
X249212Y495729D01*
X249175Y495791D01*
X249136Y495825D01*
X249103Y495865D01*
X249043Y495904D01*
X248988Y495951D01*
X248940Y495970D01*
X248896Y495998D01*
X248827Y496016D01*
X248760Y496043D01*
X248689Y496051D01*
X248658Y496059D01*
X248635Y496057D01*
X248594Y496061D01*
X208606Y496061D01*
X208536Y496050D01*
X208464Y496048D01*
X208415Y496030D01*
X208364Y496022D01*
X208300Y495988D01*
X208233Y495963D01*
X208192Y495931D01*
X208146Y495906D01*
X208097Y495855D01*
X208041Y495810D01*
X208013Y495766D01*
X207977Y495728D01*
X207947Y495663D01*
X207908Y495603D01*
X207895Y495552D01*
X207873Y495505D01*
X207865Y495434D01*
X207848Y495364D01*
X207852Y495312D01*
X207846Y495261D01*
X207861Y495190D01*
X207867Y495119D01*
X207887Y495071D01*
X207898Y495020D01*
X207935Y494959D01*
X207963Y494893D01*
X208008Y494837D01*
X208025Y494809D01*
X208042Y494794D01*
X208068Y494762D01*
X208507Y494323D01*
X208507Y489927D01*
X205398Y486818D01*
X201002Y486818D01*
X197893Y489927D01*
X197893Y494323D01*
X198332Y494762D01*
X198374Y494820D01*
X198423Y494872D01*
X198445Y494919D01*
X198475Y494961D01*
X198496Y495030D01*
X198527Y495095D01*
X198532Y495147D01*
X198548Y495197D01*
X198546Y495268D01*
X198554Y495339D01*
X198543Y495390D01*
X198541Y495442D01*
X198517Y495510D01*
X198502Y495580D01*
X198475Y495624D01*
X198457Y495673D01*
X198412Y495729D01*
X198375Y495791D01*
X198336Y495825D01*
X198303Y495865D01*
X198243Y495904D01*
X198188Y495951D01*
X198140Y495970D01*
X198096Y495998D01*
X198027Y496016D01*
X197960Y496043D01*
X197889Y496051D01*
X197858Y496059D01*
X197835Y496057D01*
X197794Y496061D01*
X157806Y496061D01*
X157736Y496050D01*
X157664Y496048D01*
X157615Y496030D01*
X157564Y496022D01*
X157500Y495988D01*
X157433Y495963D01*
X157392Y495931D01*
X157346Y495906D01*
X157297Y495855D01*
X157241Y495810D01*
X157213Y495766D01*
X157177Y495728D01*
X157147Y495663D01*
X157108Y495603D01*
X157095Y495552D01*
X157073Y495505D01*
X157065Y495434D01*
X157048Y495364D01*
X157052Y495312D01*
X157046Y495261D01*
X157061Y495190D01*
X157067Y495119D01*
X157087Y495071D01*
X157098Y495020D01*
X157135Y494959D01*
X157163Y494893D01*
X157208Y494837D01*
X157225Y494809D01*
X157242Y494794D01*
X157268Y494762D01*
X157707Y494323D01*
X157707Y489927D01*
X154598Y486818D01*
X150202Y486818D01*
X147093Y489927D01*
X147093Y494323D01*
X147532Y494762D01*
X147574Y494820D01*
X147623Y494872D01*
X147645Y494919D01*
X147675Y494961D01*
X147696Y495030D01*
X147727Y495095D01*
X147732Y495147D01*
X147748Y495197D01*
X147746Y495268D01*
X147754Y495339D01*
X147743Y495390D01*
X147741Y495442D01*
X147717Y495510D01*
X147702Y495580D01*
X147675Y495624D01*
X147657Y495673D01*
X147612Y495729D01*
X147575Y495791D01*
X147536Y495825D01*
X147503Y495865D01*
X147443Y495904D01*
X147388Y495951D01*
X147340Y495970D01*
X147296Y495998D01*
X147227Y496016D01*
X147160Y496043D01*
X147089Y496051D01*
X147058Y496059D01*
X147035Y496057D01*
X146994Y496061D01*
X107006Y496061D01*
X106936Y496050D01*
X106864Y496048D01*
X106815Y496030D01*
X106764Y496022D01*
X106700Y495988D01*
X106633Y495963D01*
X106592Y495931D01*
X106546Y495906D01*
X106497Y495855D01*
X106441Y495810D01*
X106413Y495766D01*
X106377Y495728D01*
X106347Y495663D01*
X106308Y495603D01*
X106295Y495552D01*
X106273Y495505D01*
X106265Y495434D01*
X106248Y495364D01*
X106252Y495312D01*
X106246Y495261D01*
X106261Y495190D01*
X106267Y495119D01*
X106287Y495071D01*
X106298Y495020D01*
X106335Y494959D01*
X106363Y494893D01*
X106408Y494837D01*
X106425Y494809D01*
X106442Y494794D01*
X106468Y494762D01*
X106907Y494323D01*
X106907Y489927D01*
X103798Y486818D01*
X101600Y486818D01*
X101580Y486815D01*
X101561Y486817D01*
X101459Y486795D01*
X101357Y486779D01*
X101340Y486769D01*
X101320Y486765D01*
X101231Y486712D01*
X101140Y486663D01*
X101126Y486649D01*
X101109Y486639D01*
X101042Y486560D01*
X100971Y486485D01*
X100962Y486467D01*
X100949Y486452D01*
X100910Y486356D01*
X100867Y486262D01*
X100865Y486242D01*
X100857Y486224D01*
X100839Y486057D01*
X100839Y425450D01*
X100842Y425430D01*
X100840Y425411D01*
X100862Y425309D01*
X100879Y425207D01*
X100888Y425190D01*
X100892Y425170D01*
X100945Y425081D01*
X100994Y424990D01*
X101008Y424976D01*
X101018Y424959D01*
X101097Y424892D01*
X101172Y424821D01*
X101190Y424812D01*
X101205Y424799D01*
X101301Y424760D01*
X101395Y424717D01*
X101415Y424715D01*
X101433Y424707D01*
X101600Y424689D01*
X338964Y424689D01*
X338964Y355600D01*
X338967Y355580D01*
X338965Y355561D01*
X338987Y355459D01*
X339004Y355357D01*
X339013Y355340D01*
X339017Y355320D01*
X339070Y355231D01*
X339119Y355140D01*
X339133Y355126D01*
X339143Y355109D01*
X339222Y355042D01*
X339297Y354971D01*
X339315Y354962D01*
X339330Y354949D01*
X339426Y354910D01*
X339520Y354867D01*
X339540Y354865D01*
X339558Y354857D01*
X339725Y354839D01*
X752757Y354839D01*
X752777Y354842D01*
G37*
G36*
X333395Y250067D02*
X333395Y250067D01*
X333414Y250065D01*
X333516Y250087D01*
X333618Y250104D01*
X333635Y250113D01*
X333655Y250117D01*
X333744Y250170D01*
X333835Y250219D01*
X333849Y250233D01*
X333866Y250243D01*
X333933Y250322D01*
X334005Y250397D01*
X334013Y250415D01*
X334026Y250430D01*
X334065Y250526D01*
X334108Y250620D01*
X334110Y250640D01*
X334118Y250658D01*
X334136Y250825D01*
X334136Y419100D01*
X334133Y419120D01*
X334135Y419139D01*
X334113Y419241D01*
X334097Y419343D01*
X334087Y419360D01*
X334083Y419380D01*
X334030Y419469D01*
X333981Y419560D01*
X333967Y419574D01*
X333957Y419591D01*
X333878Y419658D01*
X333803Y419730D01*
X333785Y419738D01*
X333770Y419751D01*
X333674Y419790D01*
X333580Y419833D01*
X333560Y419835D01*
X333542Y419843D01*
X333375Y419861D01*
X96011Y419861D01*
X96011Y495300D01*
X96008Y495320D01*
X96010Y495339D01*
X95988Y495441D01*
X95972Y495543D01*
X95962Y495560D01*
X95958Y495580D01*
X95905Y495669D01*
X95856Y495760D01*
X95842Y495774D01*
X95832Y495791D01*
X95753Y495858D01*
X95678Y495930D01*
X95660Y495938D01*
X95645Y495951D01*
X95549Y495990D01*
X95455Y496033D01*
X95435Y496035D01*
X95417Y496043D01*
X95250Y496061D01*
X56206Y496061D01*
X56136Y496050D01*
X56064Y496048D01*
X56015Y496030D01*
X55964Y496022D01*
X55900Y495988D01*
X55833Y495963D01*
X55792Y495931D01*
X55746Y495906D01*
X55697Y495855D01*
X55641Y495810D01*
X55613Y495766D01*
X55577Y495728D01*
X55547Y495663D01*
X55508Y495603D01*
X55495Y495552D01*
X55473Y495505D01*
X55465Y495434D01*
X55448Y495364D01*
X55452Y495312D01*
X55446Y495261D01*
X55461Y495190D01*
X55467Y495119D01*
X55487Y495071D01*
X55498Y495020D01*
X55535Y494959D01*
X55563Y494893D01*
X55608Y494837D01*
X55625Y494809D01*
X55642Y494794D01*
X55668Y494762D01*
X56107Y494323D01*
X56107Y489927D01*
X52998Y486818D01*
X48602Y486818D01*
X45493Y489927D01*
X45493Y494323D01*
X45932Y494762D01*
X45974Y494820D01*
X46023Y494872D01*
X46045Y494919D01*
X46075Y494961D01*
X46096Y495030D01*
X46127Y495095D01*
X46132Y495147D01*
X46148Y495197D01*
X46146Y495268D01*
X46154Y495339D01*
X46143Y495390D01*
X46141Y495442D01*
X46117Y495510D01*
X46102Y495580D01*
X46075Y495624D01*
X46057Y495673D01*
X46012Y495729D01*
X45975Y495791D01*
X45936Y495825D01*
X45903Y495865D01*
X45843Y495904D01*
X45788Y495951D01*
X45740Y495970D01*
X45696Y495998D01*
X45627Y496016D01*
X45560Y496043D01*
X45489Y496051D01*
X45458Y496059D01*
X45435Y496057D01*
X45394Y496061D01*
X21281Y496061D01*
X21211Y496050D01*
X21139Y496048D01*
X21090Y496030D01*
X21039Y496022D01*
X20975Y495988D01*
X20908Y495963D01*
X20867Y495931D01*
X20821Y495906D01*
X20772Y495855D01*
X20716Y495810D01*
X20688Y495766D01*
X20652Y495728D01*
X20622Y495663D01*
X20583Y495603D01*
X20570Y495552D01*
X20548Y495505D01*
X20540Y495434D01*
X20523Y495364D01*
X20527Y495312D01*
X20521Y495261D01*
X20536Y495190D01*
X20542Y495119D01*
X20562Y495071D01*
X20573Y495020D01*
X20610Y494959D01*
X20638Y494893D01*
X20683Y494837D01*
X20700Y494809D01*
X20717Y494794D01*
X20743Y494762D01*
X21182Y494323D01*
X21182Y489927D01*
X18073Y486818D01*
X13677Y486818D01*
X11460Y489035D01*
X11402Y489077D01*
X11350Y489126D01*
X11303Y489148D01*
X11261Y489178D01*
X11192Y489200D01*
X11127Y489230D01*
X11075Y489235D01*
X11025Y489251D01*
X10954Y489249D01*
X10883Y489257D01*
X10832Y489246D01*
X10780Y489244D01*
X10712Y489220D01*
X10642Y489205D01*
X10597Y489178D01*
X10549Y489160D01*
X10493Y489115D01*
X10431Y489078D01*
X10397Y489039D01*
X10357Y489006D01*
X10318Y488946D01*
X10271Y488891D01*
X10252Y488843D01*
X10224Y488799D01*
X10206Y488730D01*
X10179Y488663D01*
X10171Y488592D01*
X10163Y488561D01*
X10165Y488538D01*
X10161Y488497D01*
X10161Y460828D01*
X10172Y460758D01*
X10174Y460686D01*
X10192Y460637D01*
X10200Y460586D01*
X10234Y460522D01*
X10259Y460455D01*
X10291Y460414D01*
X10316Y460368D01*
X10368Y460319D01*
X10412Y460263D01*
X10456Y460235D01*
X10494Y460199D01*
X10559Y460169D01*
X10619Y460130D01*
X10670Y460117D01*
X10717Y460095D01*
X10788Y460087D01*
X10858Y460070D01*
X10910Y460074D01*
X10961Y460068D01*
X11032Y460083D01*
X11103Y460089D01*
X11151Y460109D01*
X11202Y460120D01*
X11263Y460157D01*
X11329Y460185D01*
X11385Y460230D01*
X11413Y460247D01*
X11428Y460264D01*
X11460Y460290D01*
X13677Y462507D01*
X18073Y462507D01*
X21182Y459398D01*
X21182Y455002D01*
X18073Y451893D01*
X13677Y451893D01*
X11460Y454110D01*
X11402Y454152D01*
X11350Y454201D01*
X11303Y454223D01*
X11261Y454253D01*
X11192Y454275D01*
X11127Y454305D01*
X11075Y454310D01*
X11025Y454326D01*
X10954Y454324D01*
X10883Y454332D01*
X10832Y454321D01*
X10780Y454319D01*
X10712Y454295D01*
X10642Y454280D01*
X10597Y454253D01*
X10549Y454235D01*
X10493Y454190D01*
X10431Y454153D01*
X10397Y454114D01*
X10357Y454081D01*
X10318Y454021D01*
X10271Y453966D01*
X10252Y453918D01*
X10224Y453874D01*
X10206Y453805D01*
X10179Y453738D01*
X10171Y453667D01*
X10163Y453636D01*
X10165Y453613D01*
X10161Y453572D01*
X10161Y410028D01*
X10172Y409958D01*
X10174Y409886D01*
X10192Y409837D01*
X10200Y409786D01*
X10234Y409722D01*
X10259Y409655D01*
X10291Y409614D01*
X10316Y409568D01*
X10368Y409519D01*
X10412Y409463D01*
X10456Y409435D01*
X10494Y409399D01*
X10559Y409369D01*
X10619Y409330D01*
X10670Y409317D01*
X10717Y409295D01*
X10788Y409287D01*
X10858Y409270D01*
X10910Y409274D01*
X10961Y409268D01*
X11032Y409283D01*
X11103Y409289D01*
X11151Y409309D01*
X11202Y409320D01*
X11263Y409357D01*
X11329Y409385D01*
X11385Y409430D01*
X11413Y409447D01*
X11428Y409464D01*
X11460Y409490D01*
X13677Y411707D01*
X18073Y411707D01*
X21182Y408598D01*
X21182Y404202D01*
X18073Y401093D01*
X13677Y401093D01*
X11460Y403310D01*
X11402Y403352D01*
X11350Y403401D01*
X11303Y403423D01*
X11261Y403453D01*
X11192Y403475D01*
X11127Y403505D01*
X11075Y403510D01*
X11025Y403526D01*
X10954Y403524D01*
X10883Y403532D01*
X10832Y403521D01*
X10780Y403519D01*
X10712Y403495D01*
X10642Y403480D01*
X10597Y403453D01*
X10549Y403435D01*
X10493Y403390D01*
X10431Y403353D01*
X10397Y403314D01*
X10357Y403281D01*
X10318Y403221D01*
X10271Y403166D01*
X10252Y403118D01*
X10224Y403074D01*
X10206Y403005D01*
X10179Y402938D01*
X10171Y402867D01*
X10163Y402836D01*
X10165Y402813D01*
X10161Y402772D01*
X10161Y359228D01*
X10172Y359158D01*
X10174Y359086D01*
X10192Y359037D01*
X10200Y358986D01*
X10234Y358922D01*
X10259Y358855D01*
X10291Y358814D01*
X10316Y358768D01*
X10368Y358719D01*
X10412Y358663D01*
X10456Y358635D01*
X10494Y358599D01*
X10559Y358569D01*
X10619Y358530D01*
X10670Y358517D01*
X10717Y358495D01*
X10788Y358487D01*
X10858Y358470D01*
X10910Y358474D01*
X10961Y358468D01*
X11032Y358483D01*
X11103Y358489D01*
X11151Y358509D01*
X11202Y358520D01*
X11263Y358557D01*
X11329Y358585D01*
X11385Y358630D01*
X11413Y358647D01*
X11428Y358664D01*
X11460Y358690D01*
X13677Y360907D01*
X18073Y360907D01*
X21182Y357798D01*
X21182Y353402D01*
X18073Y350293D01*
X13677Y350293D01*
X11460Y352510D01*
X11402Y352552D01*
X11350Y352601D01*
X11303Y352623D01*
X11261Y352653D01*
X11192Y352675D01*
X11127Y352705D01*
X11075Y352710D01*
X11025Y352726D01*
X10954Y352724D01*
X10883Y352732D01*
X10832Y352721D01*
X10780Y352719D01*
X10712Y352695D01*
X10642Y352680D01*
X10597Y352653D01*
X10549Y352635D01*
X10493Y352590D01*
X10431Y352553D01*
X10397Y352514D01*
X10357Y352481D01*
X10318Y352421D01*
X10271Y352366D01*
X10252Y352318D01*
X10224Y352274D01*
X10206Y352205D01*
X10179Y352138D01*
X10171Y352067D01*
X10163Y352036D01*
X10165Y352013D01*
X10161Y351972D01*
X10161Y308428D01*
X10172Y308358D01*
X10174Y308286D01*
X10192Y308237D01*
X10200Y308186D01*
X10234Y308122D01*
X10259Y308055D01*
X10291Y308014D01*
X10316Y307968D01*
X10368Y307919D01*
X10412Y307863D01*
X10456Y307835D01*
X10494Y307799D01*
X10559Y307769D01*
X10619Y307730D01*
X10670Y307717D01*
X10717Y307695D01*
X10788Y307687D01*
X10858Y307670D01*
X10910Y307674D01*
X10961Y307668D01*
X11032Y307683D01*
X11103Y307689D01*
X11151Y307709D01*
X11202Y307720D01*
X11263Y307757D01*
X11329Y307785D01*
X11385Y307830D01*
X11413Y307847D01*
X11428Y307864D01*
X11460Y307890D01*
X13677Y310107D01*
X18073Y310107D01*
X21182Y306998D01*
X21182Y302602D01*
X18073Y299493D01*
X13677Y299493D01*
X11460Y301710D01*
X11402Y301752D01*
X11350Y301801D01*
X11303Y301823D01*
X11261Y301853D01*
X11192Y301875D01*
X11127Y301905D01*
X11075Y301910D01*
X11025Y301926D01*
X10954Y301924D01*
X10883Y301932D01*
X10832Y301921D01*
X10780Y301919D01*
X10712Y301895D01*
X10642Y301880D01*
X10597Y301853D01*
X10549Y301835D01*
X10493Y301790D01*
X10431Y301753D01*
X10397Y301714D01*
X10357Y301681D01*
X10318Y301621D01*
X10271Y301566D01*
X10252Y301518D01*
X10224Y301474D01*
X10206Y301405D01*
X10179Y301338D01*
X10171Y301267D01*
X10163Y301236D01*
X10165Y301213D01*
X10161Y301172D01*
X10161Y257628D01*
X10172Y257558D01*
X10174Y257486D01*
X10192Y257437D01*
X10200Y257386D01*
X10234Y257322D01*
X10259Y257255D01*
X10291Y257214D01*
X10316Y257168D01*
X10368Y257119D01*
X10412Y257063D01*
X10456Y257035D01*
X10494Y256999D01*
X10559Y256969D01*
X10619Y256930D01*
X10670Y256917D01*
X10717Y256895D01*
X10788Y256887D01*
X10858Y256870D01*
X10910Y256874D01*
X10961Y256868D01*
X11032Y256883D01*
X11103Y256889D01*
X11151Y256909D01*
X11202Y256920D01*
X11263Y256957D01*
X11329Y256985D01*
X11385Y257030D01*
X11413Y257047D01*
X11428Y257064D01*
X11460Y257090D01*
X13677Y259307D01*
X18073Y259307D01*
X21182Y256198D01*
X21182Y251802D01*
X20743Y251363D01*
X20701Y251305D01*
X20652Y251253D01*
X20630Y251206D01*
X20600Y251164D01*
X20579Y251095D01*
X20548Y251030D01*
X20543Y250978D01*
X20527Y250928D01*
X20529Y250857D01*
X20521Y250786D01*
X20532Y250735D01*
X20534Y250683D01*
X20558Y250615D01*
X20573Y250545D01*
X20600Y250501D01*
X20618Y250452D01*
X20663Y250396D01*
X20700Y250334D01*
X20739Y250300D01*
X20772Y250260D01*
X20832Y250221D01*
X20887Y250174D01*
X20935Y250155D01*
X20979Y250127D01*
X21048Y250109D01*
X21115Y250082D01*
X21186Y250074D01*
X21217Y250066D01*
X21240Y250068D01*
X21281Y250064D01*
X333375Y250064D01*
X333395Y250067D01*
G37*
G36*
X707642Y6997D02*
X707642Y6997D01*
X707714Y6999D01*
X707763Y7017D01*
X707814Y7025D01*
X707878Y7059D01*
X707945Y7084D01*
X707986Y7116D01*
X708032Y7141D01*
X708081Y7193D01*
X708137Y7237D01*
X708165Y7281D01*
X708201Y7319D01*
X708231Y7384D01*
X708270Y7444D01*
X708283Y7495D01*
X708305Y7542D01*
X708313Y7613D01*
X708330Y7683D01*
X708326Y7735D01*
X708332Y7786D01*
X708317Y7857D01*
X708311Y7928D01*
X708291Y7976D01*
X708280Y8027D01*
X708243Y8088D01*
X708215Y8154D01*
X708170Y8210D01*
X708153Y8238D01*
X708136Y8253D01*
X708110Y8285D01*
X705893Y10502D01*
X705893Y14898D01*
X709002Y18007D01*
X713398Y18007D01*
X716507Y14898D01*
X716507Y10502D01*
X714290Y8285D01*
X714248Y8227D01*
X714199Y8175D01*
X714177Y8128D01*
X714147Y8086D01*
X714125Y8017D01*
X714095Y7952D01*
X714090Y7900D01*
X714074Y7850D01*
X714076Y7779D01*
X714068Y7708D01*
X714079Y7657D01*
X714081Y7605D01*
X714105Y7537D01*
X714120Y7467D01*
X714147Y7422D01*
X714165Y7374D01*
X714210Y7318D01*
X714247Y7256D01*
X714286Y7222D01*
X714319Y7182D01*
X714379Y7143D01*
X714434Y7096D01*
X714482Y7077D01*
X714526Y7049D01*
X714595Y7031D01*
X714662Y7004D01*
X714733Y6996D01*
X714764Y6988D01*
X714787Y6990D01*
X714828Y6986D01*
X755197Y6986D01*
X755267Y6997D01*
X755339Y6999D01*
X755388Y7017D01*
X755439Y7025D01*
X755503Y7059D01*
X755570Y7084D01*
X755611Y7116D01*
X755657Y7141D01*
X755706Y7193D01*
X755762Y7237D01*
X755790Y7281D01*
X755826Y7319D01*
X755856Y7384D01*
X755895Y7444D01*
X755908Y7495D01*
X755930Y7542D01*
X755938Y7613D01*
X755955Y7683D01*
X755951Y7735D01*
X755957Y7786D01*
X755942Y7857D01*
X755936Y7928D01*
X755916Y7976D01*
X755905Y8027D01*
X755868Y8088D01*
X755840Y8154D01*
X755795Y8210D01*
X755778Y8238D01*
X755761Y8253D01*
X755735Y8285D01*
X753518Y10502D01*
X753518Y14898D01*
X756627Y18007D01*
X761023Y18007D01*
X761462Y17568D01*
X761520Y17526D01*
X761572Y17477D01*
X761619Y17455D01*
X761661Y17425D01*
X761730Y17404D01*
X761795Y17373D01*
X761847Y17368D01*
X761897Y17352D01*
X761968Y17354D01*
X762039Y17346D01*
X762090Y17357D01*
X762142Y17359D01*
X762210Y17383D01*
X762280Y17398D01*
X762324Y17425D01*
X762373Y17443D01*
X762429Y17488D01*
X762491Y17525D01*
X762525Y17564D01*
X762565Y17597D01*
X762604Y17657D01*
X762651Y17712D01*
X762670Y17760D01*
X762698Y17804D01*
X762716Y17873D01*
X762743Y17940D01*
X762751Y18011D01*
X762759Y18042D01*
X762757Y18065D01*
X762761Y18106D01*
X762761Y45394D01*
X762750Y45464D01*
X762748Y45536D01*
X762730Y45585D01*
X762722Y45636D01*
X762688Y45700D01*
X762663Y45767D01*
X762631Y45808D01*
X762606Y45854D01*
X762555Y45903D01*
X762510Y45959D01*
X762466Y45987D01*
X762428Y46023D01*
X762363Y46053D01*
X762303Y46092D01*
X762252Y46105D01*
X762205Y46127D01*
X762134Y46135D01*
X762064Y46152D01*
X762012Y46148D01*
X761961Y46154D01*
X761890Y46139D01*
X761819Y46133D01*
X761771Y46113D01*
X761720Y46102D01*
X761659Y46065D01*
X761593Y46037D01*
X761537Y45992D01*
X761509Y45975D01*
X761494Y45958D01*
X761462Y45932D01*
X761023Y45493D01*
X756627Y45493D01*
X753518Y48602D01*
X753518Y52998D01*
X756627Y56107D01*
X761023Y56107D01*
X761462Y55668D01*
X761520Y55626D01*
X761572Y55577D01*
X761619Y55555D01*
X761661Y55525D01*
X761730Y55504D01*
X761795Y55473D01*
X761847Y55468D01*
X761897Y55452D01*
X761968Y55454D01*
X762039Y55446D01*
X762090Y55457D01*
X762142Y55459D01*
X762210Y55483D01*
X762280Y55498D01*
X762324Y55525D01*
X762373Y55543D01*
X762429Y55588D01*
X762491Y55625D01*
X762525Y55664D01*
X762565Y55697D01*
X762604Y55757D01*
X762651Y55812D01*
X762670Y55860D01*
X762698Y55904D01*
X762716Y55973D01*
X762743Y56040D01*
X762751Y56111D01*
X762759Y56142D01*
X762757Y56165D01*
X762761Y56206D01*
X762761Y96194D01*
X762750Y96264D01*
X762748Y96336D01*
X762730Y96385D01*
X762722Y96436D01*
X762688Y96500D01*
X762663Y96567D01*
X762631Y96608D01*
X762606Y96654D01*
X762555Y96703D01*
X762510Y96759D01*
X762466Y96787D01*
X762428Y96823D01*
X762363Y96853D01*
X762303Y96892D01*
X762252Y96905D01*
X762205Y96927D01*
X762134Y96935D01*
X762064Y96952D01*
X762012Y96948D01*
X761961Y96954D01*
X761890Y96939D01*
X761819Y96933D01*
X761771Y96913D01*
X761720Y96902D01*
X761659Y96865D01*
X761593Y96837D01*
X761537Y96792D01*
X761509Y96775D01*
X761494Y96758D01*
X761462Y96732D01*
X761023Y96293D01*
X756627Y96293D01*
X753518Y99402D01*
X753518Y103798D01*
X756627Y106907D01*
X761023Y106907D01*
X761462Y106468D01*
X761520Y106426D01*
X761572Y106377D01*
X761619Y106355D01*
X761661Y106325D01*
X761730Y106304D01*
X761795Y106273D01*
X761847Y106268D01*
X761897Y106252D01*
X761968Y106254D01*
X762039Y106246D01*
X762090Y106257D01*
X762142Y106259D01*
X762210Y106283D01*
X762280Y106298D01*
X762324Y106325D01*
X762373Y106343D01*
X762429Y106388D01*
X762491Y106425D01*
X762525Y106464D01*
X762565Y106497D01*
X762604Y106557D01*
X762651Y106612D01*
X762670Y106660D01*
X762698Y106704D01*
X762716Y106773D01*
X762743Y106840D01*
X762751Y106911D01*
X762759Y106942D01*
X762757Y106965D01*
X762761Y107006D01*
X762761Y146994D01*
X762750Y147064D01*
X762748Y147136D01*
X762730Y147185D01*
X762722Y147236D01*
X762688Y147300D01*
X762663Y147367D01*
X762631Y147408D01*
X762606Y147454D01*
X762555Y147503D01*
X762510Y147559D01*
X762466Y147587D01*
X762428Y147623D01*
X762363Y147653D01*
X762303Y147692D01*
X762252Y147705D01*
X762205Y147727D01*
X762134Y147735D01*
X762064Y147752D01*
X762012Y147748D01*
X761961Y147754D01*
X761890Y147739D01*
X761819Y147733D01*
X761771Y147713D01*
X761720Y147702D01*
X761659Y147665D01*
X761593Y147637D01*
X761537Y147592D01*
X761509Y147575D01*
X761494Y147558D01*
X761462Y147532D01*
X761023Y147093D01*
X756627Y147093D01*
X753518Y150202D01*
X753518Y154598D01*
X756627Y157707D01*
X761023Y157707D01*
X761462Y157268D01*
X761520Y157226D01*
X761572Y157177D01*
X761619Y157155D01*
X761661Y157125D01*
X761730Y157104D01*
X761795Y157073D01*
X761847Y157068D01*
X761897Y157052D01*
X761968Y157054D01*
X762039Y157046D01*
X762090Y157057D01*
X762142Y157059D01*
X762210Y157083D01*
X762280Y157098D01*
X762324Y157125D01*
X762373Y157143D01*
X762429Y157188D01*
X762491Y157225D01*
X762525Y157264D01*
X762565Y157297D01*
X762604Y157357D01*
X762651Y157412D01*
X762670Y157460D01*
X762698Y157504D01*
X762716Y157573D01*
X762743Y157640D01*
X762751Y157711D01*
X762759Y157742D01*
X762757Y157765D01*
X762761Y157806D01*
X762761Y197794D01*
X762750Y197864D01*
X762748Y197936D01*
X762730Y197985D01*
X762722Y198036D01*
X762688Y198100D01*
X762663Y198167D01*
X762631Y198208D01*
X762606Y198254D01*
X762555Y198303D01*
X762510Y198359D01*
X762466Y198387D01*
X762428Y198423D01*
X762363Y198453D01*
X762303Y198492D01*
X762252Y198505D01*
X762205Y198527D01*
X762134Y198535D01*
X762064Y198552D01*
X762012Y198548D01*
X761961Y198554D01*
X761890Y198539D01*
X761819Y198533D01*
X761771Y198513D01*
X761720Y198502D01*
X761659Y198465D01*
X761593Y198437D01*
X761537Y198392D01*
X761509Y198375D01*
X761494Y198358D01*
X761462Y198332D01*
X761023Y197893D01*
X756627Y197893D01*
X753518Y201002D01*
X753518Y205398D01*
X756627Y208507D01*
X761023Y208507D01*
X761462Y208068D01*
X761520Y208026D01*
X761572Y207977D01*
X761619Y207955D01*
X761661Y207925D01*
X761730Y207904D01*
X761795Y207873D01*
X761847Y207868D01*
X761897Y207852D01*
X761968Y207854D01*
X762039Y207846D01*
X762090Y207857D01*
X762142Y207859D01*
X762210Y207883D01*
X762280Y207898D01*
X762324Y207925D01*
X762373Y207943D01*
X762429Y207988D01*
X762491Y208025D01*
X762525Y208064D01*
X762565Y208097D01*
X762604Y208157D01*
X762651Y208212D01*
X762670Y208260D01*
X762698Y208304D01*
X762716Y208373D01*
X762743Y208440D01*
X762751Y208511D01*
X762759Y208542D01*
X762757Y208565D01*
X762761Y208606D01*
X762761Y248594D01*
X762750Y248664D01*
X762748Y248736D01*
X762730Y248785D01*
X762722Y248836D01*
X762688Y248900D01*
X762663Y248967D01*
X762631Y249008D01*
X762606Y249054D01*
X762555Y249103D01*
X762510Y249159D01*
X762466Y249187D01*
X762428Y249223D01*
X762363Y249253D01*
X762303Y249292D01*
X762252Y249305D01*
X762205Y249327D01*
X762134Y249335D01*
X762064Y249352D01*
X762012Y249348D01*
X761961Y249354D01*
X761890Y249339D01*
X761819Y249333D01*
X761771Y249313D01*
X761720Y249302D01*
X761659Y249265D01*
X761593Y249237D01*
X761537Y249192D01*
X761509Y249175D01*
X761494Y249158D01*
X761462Y249132D01*
X761023Y248693D01*
X756627Y248693D01*
X753518Y251802D01*
X753518Y256198D01*
X756627Y259307D01*
X761023Y259307D01*
X761462Y258868D01*
X761520Y258826D01*
X761572Y258777D01*
X761619Y258755D01*
X761661Y258725D01*
X761730Y258704D01*
X761795Y258673D01*
X761847Y258668D01*
X761897Y258652D01*
X761968Y258654D01*
X762039Y258646D01*
X762090Y258657D01*
X762142Y258659D01*
X762210Y258683D01*
X762280Y258698D01*
X762324Y258725D01*
X762373Y258743D01*
X762429Y258788D01*
X762491Y258825D01*
X762525Y258864D01*
X762565Y258897D01*
X762604Y258957D01*
X762651Y259012D01*
X762670Y259060D01*
X762698Y259104D01*
X762716Y259173D01*
X762743Y259240D01*
X762751Y259311D01*
X762759Y259342D01*
X762757Y259365D01*
X762761Y259406D01*
X762761Y299394D01*
X762750Y299464D01*
X762748Y299536D01*
X762730Y299585D01*
X762722Y299636D01*
X762688Y299700D01*
X762663Y299767D01*
X762631Y299808D01*
X762606Y299854D01*
X762555Y299903D01*
X762510Y299959D01*
X762466Y299987D01*
X762428Y300023D01*
X762363Y300053D01*
X762303Y300092D01*
X762252Y300105D01*
X762205Y300127D01*
X762134Y300135D01*
X762064Y300152D01*
X762012Y300148D01*
X761961Y300154D01*
X761890Y300139D01*
X761819Y300133D01*
X761771Y300113D01*
X761720Y300102D01*
X761659Y300065D01*
X761593Y300037D01*
X761537Y299992D01*
X761509Y299975D01*
X761494Y299958D01*
X761462Y299932D01*
X761023Y299493D01*
X756627Y299493D01*
X753518Y302602D01*
X753518Y306998D01*
X756627Y310107D01*
X761023Y310107D01*
X761462Y309668D01*
X761520Y309626D01*
X761572Y309577D01*
X761619Y309555D01*
X761661Y309525D01*
X761730Y309504D01*
X761795Y309473D01*
X761847Y309468D01*
X761897Y309452D01*
X761968Y309454D01*
X762039Y309446D01*
X762090Y309457D01*
X762142Y309459D01*
X762210Y309483D01*
X762280Y309498D01*
X762324Y309525D01*
X762373Y309543D01*
X762429Y309588D01*
X762491Y309625D01*
X762525Y309664D01*
X762565Y309697D01*
X762604Y309757D01*
X762651Y309812D01*
X762670Y309860D01*
X762698Y309904D01*
X762716Y309973D01*
X762743Y310040D01*
X762751Y310111D01*
X762759Y310142D01*
X762757Y310165D01*
X762761Y310206D01*
X762761Y320675D01*
X762758Y320695D01*
X762760Y320714D01*
X762738Y320816D01*
X762722Y320918D01*
X762712Y320935D01*
X762708Y320955D01*
X762655Y321044D01*
X762606Y321135D01*
X762592Y321149D01*
X762582Y321166D01*
X762503Y321233D01*
X762428Y321305D01*
X762410Y321313D01*
X762395Y321326D01*
X762299Y321365D01*
X762205Y321408D01*
X762185Y321410D01*
X762167Y321418D01*
X762000Y321436D01*
X577850Y321436D01*
X577830Y321433D01*
X577811Y321435D01*
X577709Y321413D01*
X577607Y321397D01*
X577590Y321387D01*
X577570Y321383D01*
X577481Y321330D01*
X577390Y321281D01*
X577376Y321267D01*
X577359Y321257D01*
X577292Y321178D01*
X577221Y321103D01*
X577212Y321085D01*
X577199Y321070D01*
X577160Y320974D01*
X577117Y320880D01*
X577115Y320860D01*
X577107Y320842D01*
X577089Y320675D01*
X577089Y242061D01*
X549275Y242061D01*
X549255Y242058D01*
X549236Y242060D01*
X549134Y242038D01*
X549032Y242022D01*
X549015Y242012D01*
X548995Y242008D01*
X548906Y241955D01*
X548815Y241906D01*
X548801Y241892D01*
X548784Y241882D01*
X548717Y241803D01*
X548646Y241728D01*
X548637Y241710D01*
X548624Y241695D01*
X548585Y241599D01*
X548542Y241505D01*
X548540Y241485D01*
X548532Y241467D01*
X548514Y241300D01*
X548514Y203200D01*
X548517Y203180D01*
X548515Y203161D01*
X548537Y203059D01*
X548554Y202957D01*
X548563Y202940D01*
X548567Y202920D01*
X548620Y202831D01*
X548669Y202740D01*
X548683Y202726D01*
X548693Y202709D01*
X548772Y202642D01*
X548847Y202571D01*
X548865Y202562D01*
X548880Y202549D01*
X548976Y202510D01*
X549070Y202467D01*
X549090Y202465D01*
X549108Y202457D01*
X549275Y202439D01*
X675514Y202439D01*
X675514Y7747D01*
X675517Y7727D01*
X675515Y7708D01*
X675537Y7606D01*
X675554Y7504D01*
X675563Y7487D01*
X675567Y7467D01*
X675620Y7378D01*
X675669Y7287D01*
X675683Y7273D01*
X675693Y7256D01*
X675772Y7189D01*
X675847Y7117D01*
X675865Y7109D01*
X675880Y7096D01*
X675976Y7057D01*
X676070Y7014D01*
X676090Y7012D01*
X676108Y7004D01*
X676275Y6986D01*
X707572Y6986D01*
X707642Y6997D01*
G37*
G36*
X571520Y250067D02*
X571520Y250067D01*
X571539Y250065D01*
X571641Y250087D01*
X571743Y250104D01*
X571760Y250113D01*
X571780Y250117D01*
X571869Y250170D01*
X571960Y250219D01*
X571974Y250233D01*
X571991Y250243D01*
X572058Y250322D01*
X572130Y250397D01*
X572138Y250415D01*
X572151Y250430D01*
X572190Y250526D01*
X572233Y250620D01*
X572235Y250640D01*
X572243Y250658D01*
X572261Y250825D01*
X572261Y349250D01*
X572258Y349270D01*
X572260Y349289D01*
X572238Y349391D01*
X572222Y349493D01*
X572212Y349510D01*
X572208Y349530D01*
X572155Y349619D01*
X572106Y349710D01*
X572092Y349724D01*
X572082Y349741D01*
X572003Y349808D01*
X571928Y349880D01*
X571910Y349888D01*
X571895Y349901D01*
X571799Y349940D01*
X571705Y349983D01*
X571685Y349985D01*
X571667Y349993D01*
X571500Y350011D01*
X339725Y350011D01*
X339705Y350008D01*
X339686Y350010D01*
X339584Y349988D01*
X339482Y349972D01*
X339465Y349962D01*
X339445Y349958D01*
X339356Y349905D01*
X339265Y349856D01*
X339251Y349842D01*
X339234Y349832D01*
X339167Y349753D01*
X339096Y349678D01*
X339087Y349660D01*
X339074Y349645D01*
X339035Y349549D01*
X338992Y349455D01*
X338990Y349435D01*
X338982Y349417D01*
X338964Y349250D01*
X338964Y250825D01*
X338967Y250805D01*
X338965Y250786D01*
X338987Y250684D01*
X339004Y250582D01*
X339013Y250565D01*
X339017Y250545D01*
X339070Y250456D01*
X339119Y250365D01*
X339133Y250351D01*
X339143Y250334D01*
X339222Y250267D01*
X339297Y250196D01*
X339315Y250187D01*
X339330Y250174D01*
X339426Y250135D01*
X339520Y250092D01*
X339540Y250090D01*
X339558Y250082D01*
X339725Y250064D01*
X571500Y250064D01*
X571520Y250067D01*
G37*
%LPC*%
G36*
X145437Y44830D02*
X145437Y44830D01*
X140080Y50187D01*
X140080Y57763D01*
X145437Y63120D01*
X153013Y63120D01*
X158370Y57763D01*
X158370Y50187D01*
X153013Y44830D01*
X145437Y44830D01*
G37*
%LPD*%
%LPC*%
G36*
X120037Y44830D02*
X120037Y44830D01*
X114680Y50187D01*
X114680Y57763D01*
X120037Y63120D01*
X127613Y63120D01*
X132970Y57763D01*
X132970Y50187D01*
X127613Y44830D01*
X120037Y44830D01*
G37*
%LPD*%
%LPC*%
G36*
X94637Y44830D02*
X94637Y44830D01*
X89280Y50187D01*
X89280Y57763D01*
X94637Y63120D01*
X102213Y63120D01*
X107570Y57763D01*
X107570Y50187D01*
X102213Y44830D01*
X94637Y44830D01*
G37*
%LPD*%
%LPC*%
G36*
X69237Y44830D02*
X69237Y44830D01*
X63880Y50187D01*
X63880Y57763D01*
X69237Y63120D01*
X76813Y63120D01*
X82170Y57763D01*
X82170Y50187D01*
X76813Y44830D01*
X69237Y44830D01*
G37*
%LPD*%
%LPC*%
G36*
X270626Y108542D02*
X270626Y108542D01*
X267517Y111651D01*
X267517Y116047D01*
X269882Y118412D01*
X269894Y118428D01*
X269909Y118440D01*
X269965Y118528D01*
X270025Y118611D01*
X270031Y118630D01*
X270042Y118647D01*
X270067Y118748D01*
X270098Y118846D01*
X270097Y118866D01*
X270102Y118886D01*
X270094Y118989D01*
X270091Y119092D01*
X270085Y119111D01*
X270083Y119131D01*
X270043Y119226D01*
X270007Y119323D01*
X269995Y119339D01*
X269987Y119357D01*
X269882Y119488D01*
X267743Y121627D01*
X267743Y126023D01*
X270852Y129132D01*
X275248Y129132D01*
X278357Y126023D01*
X278357Y121627D01*
X275992Y119262D01*
X275981Y119246D01*
X275965Y119234D01*
X275909Y119147D01*
X275849Y119063D01*
X275843Y119044D01*
X275832Y119027D01*
X275807Y118926D01*
X275776Y118828D01*
X275777Y118808D01*
X275772Y118788D01*
X275780Y118685D01*
X275783Y118582D01*
X275790Y118563D01*
X275791Y118543D01*
X275831Y118448D01*
X275867Y118351D01*
X275880Y118335D01*
X275887Y118317D01*
X275992Y118186D01*
X278131Y116047D01*
X278131Y111651D01*
X275022Y108542D01*
X270626Y108542D01*
G37*
%LPD*%
%LPC*%
G36*
X270681Y134222D02*
X270681Y134222D01*
X267572Y137331D01*
X267572Y141727D01*
X270681Y144836D01*
X273332Y144836D01*
X273352Y144839D01*
X273371Y144837D01*
X273473Y144859D01*
X273575Y144875D01*
X273592Y144885D01*
X273612Y144889D01*
X273701Y144942D01*
X273792Y144990D01*
X273806Y145005D01*
X273823Y145015D01*
X273890Y145094D01*
X273962Y145169D01*
X273970Y145187D01*
X273983Y145202D01*
X274021Y145298D01*
X274065Y145392D01*
X274067Y145412D01*
X274075Y145430D01*
X274093Y145597D01*
X274093Y148399D01*
X277202Y151508D01*
X281598Y151508D01*
X284707Y148399D01*
X284707Y144003D01*
X281598Y140894D01*
X278947Y140894D01*
X278927Y140891D01*
X278907Y140893D01*
X278806Y140871D01*
X278704Y140855D01*
X278687Y140845D01*
X278667Y140841D01*
X278578Y140788D01*
X278487Y140739D01*
X278473Y140725D01*
X278456Y140715D01*
X278389Y140636D01*
X278317Y140561D01*
X278309Y140543D01*
X278296Y140528D01*
X278257Y140432D01*
X278214Y140338D01*
X278212Y140318D01*
X278204Y140300D01*
X278186Y140133D01*
X278186Y137331D01*
X275077Y134222D01*
X270681Y134222D01*
G37*
%LPD*%
%LPC*%
G36*
X315302Y226468D02*
X315302Y226468D01*
X312193Y229577D01*
X312193Y233973D01*
X315302Y237082D01*
X319698Y237082D01*
X322807Y233973D01*
X322807Y229577D01*
X319698Y226468D01*
X315302Y226468D01*
G37*
%LPD*%
%LPC*%
G36*
X518502Y216943D02*
X518502Y216943D01*
X515393Y220052D01*
X515393Y224448D01*
X518502Y227557D01*
X522898Y227557D01*
X526007Y224448D01*
X526007Y220052D01*
X522898Y216943D01*
X518502Y216943D01*
G37*
%LPD*%
%LPC*%
G36*
X226402Y197893D02*
X226402Y197893D01*
X223293Y201002D01*
X223293Y205398D01*
X226402Y208507D01*
X230798Y208507D01*
X233907Y205398D01*
X233907Y201002D01*
X230798Y197893D01*
X226402Y197893D01*
G37*
%LPD*%
%LPC*%
G36*
X162902Y191543D02*
X162902Y191543D01*
X159793Y194652D01*
X159793Y199048D01*
X162902Y202157D01*
X167298Y202157D01*
X170407Y199048D01*
X170407Y194652D01*
X167298Y191543D01*
X162902Y191543D01*
G37*
%LPD*%
%LPC*%
G36*
X366102Y163719D02*
X366102Y163719D01*
X362993Y166828D01*
X362993Y171224D01*
X366102Y174333D01*
X370498Y174333D01*
X373607Y171224D01*
X373607Y166828D01*
X370498Y163719D01*
X366102Y163719D01*
G37*
%LPD*%
%LPC*%
G36*
X470877Y128043D02*
X470877Y128043D01*
X467768Y131152D01*
X467768Y135548D01*
X470877Y138657D01*
X475273Y138657D01*
X478382Y135548D01*
X478382Y131152D01*
X475273Y128043D01*
X470877Y128043D01*
G37*
%LPD*%
%LPC*%
G36*
X363458Y108687D02*
X363458Y108687D01*
X360349Y111796D01*
X360349Y116192D01*
X363458Y119301D01*
X367854Y119301D01*
X370963Y116192D01*
X370963Y111796D01*
X367854Y108687D01*
X363458Y108687D01*
G37*
%LPD*%
%LPC*%
G36*
X461352Y105818D02*
X461352Y105818D01*
X458243Y108927D01*
X458243Y113323D01*
X461352Y116432D01*
X465748Y116432D01*
X468857Y113323D01*
X468857Y108927D01*
X465748Y105818D01*
X461352Y105818D01*
G37*
%LPD*%
%LPC*%
G36*
X280377Y448718D02*
X280377Y448718D01*
X277268Y451827D01*
X277268Y456223D01*
X280377Y459332D01*
X284773Y459332D01*
X287882Y456223D01*
X287882Y451827D01*
X284773Y448718D01*
X280377Y448718D01*
G37*
%LPD*%
%LPC*%
G36*
X188302Y448718D02*
X188302Y448718D01*
X185193Y451827D01*
X185193Y456223D01*
X188302Y459332D01*
X192698Y459332D01*
X195807Y456223D01*
X195807Y451827D01*
X192698Y448718D01*
X188302Y448718D01*
G37*
%LPD*%
%LPC*%
G36*
X477227Y315368D02*
X477227Y315368D01*
X474118Y318477D01*
X474118Y322873D01*
X477227Y325982D01*
X481623Y325982D01*
X484732Y322873D01*
X484732Y318477D01*
X481623Y315368D01*
X477227Y315368D01*
G37*
%LPD*%
%LPC*%
G36*
X388327Y315368D02*
X388327Y315368D01*
X385218Y318477D01*
X385218Y322873D01*
X388327Y325982D01*
X392723Y325982D01*
X395832Y322873D01*
X395832Y318477D01*
X392723Y315368D01*
X388327Y315368D01*
G37*
%LPD*%
%LPC*%
G36*
X334352Y20093D02*
X334352Y20093D01*
X331243Y23202D01*
X331243Y27598D01*
X334352Y30707D01*
X338748Y30707D01*
X341857Y27598D01*
X341857Y23202D01*
X338748Y20093D01*
X334352Y20093D01*
G37*
%LPD*%
%LPC*%
G36*
X176148Y55498D02*
X176148Y55498D01*
X176148Y61596D01*
X177782Y61596D01*
X182246Y57132D01*
X182246Y55498D01*
X176148Y55498D01*
G37*
%LPD*%
%LPC*%
G36*
X201548Y55498D02*
X201548Y55498D01*
X201548Y61596D01*
X203182Y61596D01*
X207646Y57132D01*
X207646Y55498D01*
X201548Y55498D01*
G37*
%LPD*%
%LPC*%
G36*
X192404Y55498D02*
X192404Y55498D01*
X192404Y57132D01*
X196868Y61596D01*
X198502Y61596D01*
X198502Y55498D01*
X192404Y55498D01*
G37*
%LPD*%
%LPC*%
G36*
X167004Y55498D02*
X167004Y55498D01*
X167004Y57132D01*
X171468Y61596D01*
X173102Y61596D01*
X173102Y55498D01*
X167004Y55498D01*
G37*
%LPD*%
%LPC*%
G36*
X201548Y46354D02*
X201548Y46354D01*
X201548Y52452D01*
X207646Y52452D01*
X207646Y50818D01*
X203182Y46354D01*
X201548Y46354D01*
G37*
%LPD*%
%LPC*%
G36*
X176148Y46354D02*
X176148Y46354D01*
X176148Y52452D01*
X182246Y52452D01*
X182246Y50818D01*
X177782Y46354D01*
X176148Y46354D01*
G37*
%LPD*%
%LPC*%
G36*
X196868Y46354D02*
X196868Y46354D01*
X192404Y50818D01*
X192404Y52452D01*
X198502Y52452D01*
X198502Y46354D01*
X196868Y46354D01*
G37*
%LPD*%
%LPC*%
G36*
X171468Y46354D02*
X171468Y46354D01*
X167004Y50818D01*
X167004Y52452D01*
X173102Y52452D01*
X173102Y46354D01*
X171468Y46354D01*
G37*
%LPD*%
%LPC*%
G36*
X200024Y53974D02*
X200024Y53974D01*
X200024Y53976D01*
X200026Y53976D01*
X200026Y53974D01*
X200024Y53974D01*
G37*
%LPD*%
%LPC*%
G36*
X174624Y53974D02*
X174624Y53974D01*
X174624Y53976D01*
X174626Y53976D01*
X174626Y53974D01*
X174624Y53974D01*
G37*
%LPD*%
D10*
X73025Y53975D03*
X98425Y53975D03*
X123825Y53975D03*
X149225Y53975D03*
X174625Y53975D03*
X200025Y53975D03*
D11*
X272879Y139529D03*
X365656Y113994D03*
X400050Y375384D03*
X273050Y123825D03*
X317500Y231775D03*
D12*
X358775Y441325D03*
X368300Y431800D03*
X377825Y441325D03*
X387350Y431800D03*
X396875Y441325D03*
X406400Y431800D03*
X415925Y441325D03*
X425450Y431800D03*
X434975Y441325D03*
X444500Y431800D03*
X358775Y422275D03*
X377825Y422275D03*
X396875Y422275D03*
X415925Y422275D03*
X434975Y422275D03*
X368300Y412750D03*
X387350Y412750D03*
X406400Y412750D03*
X425450Y412750D03*
X444500Y412750D03*
X434975Y403225D03*
X415925Y403225D03*
X396875Y403225D03*
X377825Y403225D03*
X358775Y403225D03*
X368300Y393700D03*
X387350Y393700D03*
X406400Y393700D03*
X425450Y393700D03*
X444500Y393700D03*
X476250Y441325D03*
X485775Y431800D03*
X495300Y441325D03*
X504825Y431800D03*
X514350Y441325D03*
X523875Y431800D03*
X533400Y441325D03*
X542925Y431800D03*
X552450Y441325D03*
X561975Y431800D03*
X476250Y422275D03*
X495300Y422275D03*
X514350Y422275D03*
X533400Y422275D03*
X552450Y422275D03*
X485775Y412750D03*
X504825Y412750D03*
X523875Y412750D03*
X542925Y412750D03*
X561975Y412750D03*
X552450Y403225D03*
X533400Y403225D03*
X514350Y403225D03*
X495300Y403225D03*
X476250Y403225D03*
X485775Y393700D03*
X504825Y393700D03*
X523875Y393700D03*
X542925Y393700D03*
X561975Y393700D03*
X615950Y473075D03*
X628650Y473075D03*
X641350Y473075D03*
X654050Y473075D03*
X666750Y473075D03*
X679450Y473075D03*
X692150Y473075D03*
X704850Y473075D03*
X717550Y473075D03*
X730250Y473075D03*
X742950Y473075D03*
X615950Y409575D03*
X628650Y409575D03*
X641350Y409575D03*
X654050Y409575D03*
X666750Y409575D03*
X679450Y409575D03*
X692150Y409575D03*
X704850Y409575D03*
X717550Y409575D03*
X730250Y409575D03*
X742950Y409575D03*
X117475Y469900D03*
X130175Y469900D03*
X123825Y463550D03*
X117475Y457200D03*
X130175Y457200D03*
X241300Y469900D03*
X254000Y469900D03*
X247650Y463550D03*
X241300Y457200D03*
X254000Y457200D03*
D11*
X228600Y203200D03*
X349250Y276225D03*
D12*
X412750Y273050D03*
X457200Y273050D03*
X422275Y295275D03*
X450850Y295275D03*
X422275Y263525D03*
X431800Y263525D03*
X441325Y263525D03*
X450850Y263525D03*
X419100Y304800D03*
X431800Y304800D03*
X425450Y311150D03*
X419100Y317500D03*
X431800Y317500D03*
X539750Y304800D03*
X552450Y304800D03*
X546100Y311150D03*
X539750Y317500D03*
X552450Y317500D03*
X431800Y295275D03*
X441325Y295275D03*
D11*
X15875Y12700D03*
X50800Y12700D03*
X101600Y12700D03*
X152400Y12700D03*
X203200Y12700D03*
X254000Y12700D03*
X15875Y50800D03*
X15875Y101600D03*
X15875Y152400D03*
X304800Y12700D03*
X355600Y12700D03*
X406400Y12700D03*
X457200Y12700D03*
X508000Y12700D03*
X558800Y12700D03*
X609600Y12700D03*
X660400Y12700D03*
X711200Y12700D03*
X758825Y12700D03*
X758825Y50800D03*
X758825Y101600D03*
X758825Y152400D03*
X758825Y203200D03*
X758825Y254000D03*
X758825Y304800D03*
X758825Y355600D03*
X758825Y406400D03*
X758825Y457200D03*
X15875Y203200D03*
X15875Y254000D03*
X15875Y304800D03*
X15875Y355600D03*
X15875Y406400D03*
X15875Y457200D03*
X15875Y492125D03*
X50800Y492125D03*
X101600Y492125D03*
X152400Y492125D03*
X203200Y492125D03*
X254000Y492125D03*
X304800Y492125D03*
X355600Y492125D03*
X406400Y492125D03*
X457200Y492125D03*
X508000Y492125D03*
X558800Y492125D03*
X609600Y492125D03*
X660400Y492125D03*
X711200Y492125D03*
X758825Y492125D03*
D12*
X323850Y165100D03*
X314325Y165100D03*
X333375Y165100D03*
X314325Y155575D03*
X323850Y155575D03*
X333375Y155575D03*
X314325Y146050D03*
X323850Y146050D03*
X333375Y146050D03*
X314325Y136525D03*
X323850Y136525D03*
X333375Y136525D03*
X314325Y127000D03*
X323850Y127000D03*
X333375Y127000D03*
X314325Y117475D03*
X323850Y117475D03*
X333375Y117475D03*
X561975Y174625D03*
X584200Y174625D03*
X412750Y228600D03*
X412750Y219075D03*
X422275Y209550D03*
X431800Y209550D03*
X441325Y209550D03*
X450850Y209550D03*
X422275Y238125D03*
X431800Y238125D03*
X441325Y238125D03*
X450850Y238125D03*
X457200Y228600D03*
X457200Y219075D03*
X107950Y222250D03*
X146050Y222250D03*
X184150Y222250D03*
X222250Y222250D03*
X606425Y187325D03*
X615950Y187325D03*
X625475Y187325D03*
X635000Y187325D03*
X644525Y187325D03*
X654050Y187325D03*
X663575Y187325D03*
X663575Y155575D03*
X654050Y155575D03*
X644525Y155575D03*
X635000Y155575D03*
X625475Y155575D03*
X565150Y92075D03*
X577850Y92075D03*
X590550Y92075D03*
X603250Y92075D03*
X571500Y82550D03*
X584200Y82550D03*
X596900Y82550D03*
X565150Y73025D03*
X577850Y73025D03*
X590550Y73025D03*
X603250Y73025D03*
X571500Y63500D03*
X584200Y63500D03*
X596900Y63500D03*
X565150Y53975D03*
X577850Y53975D03*
X590550Y53975D03*
X603250Y53975D03*
X571500Y44450D03*
X584200Y44450D03*
X596900Y44450D03*
X565150Y34925D03*
X577850Y34925D03*
X590550Y34925D03*
X603250Y34925D03*
X571500Y25400D03*
X584200Y25400D03*
X596900Y25400D03*
X38100Y219075D03*
X50800Y219075D03*
X63500Y219075D03*
X76200Y219075D03*
X44450Y209550D03*
X57150Y209550D03*
X69850Y209550D03*
X38100Y200025D03*
X50800Y200025D03*
X63500Y200025D03*
X76200Y200025D03*
X44450Y190500D03*
X57150Y190500D03*
X69850Y190500D03*
X38100Y180975D03*
X50800Y180975D03*
X63500Y180975D03*
X76200Y180975D03*
X44450Y171450D03*
X57150Y171450D03*
X69850Y171450D03*
X38100Y161925D03*
X50800Y161925D03*
X63500Y161925D03*
X76200Y161925D03*
X44450Y152400D03*
X57150Y152400D03*
X69850Y152400D03*
D11*
X266700Y82550D03*
X330200Y82550D03*
X260350Y231775D03*
X463550Y111125D03*
X542925Y209550D03*
D12*
X755650Y187325D03*
X746125Y187325D03*
X736600Y187325D03*
X727075Y187325D03*
X717550Y187325D03*
X708025Y187325D03*
X708025Y155575D03*
X717550Y155575D03*
X727075Y155575D03*
X736600Y155575D03*
X746125Y155575D03*
X615950Y304800D03*
X628650Y304800D03*
X641350Y304800D03*
X654050Y304800D03*
X666750Y304800D03*
X679450Y304800D03*
X692150Y304800D03*
X704850Y304800D03*
X717550Y304800D03*
X730250Y304800D03*
X742950Y304800D03*
X615950Y238125D03*
X628650Y238125D03*
X641350Y238125D03*
X654050Y238125D03*
X666750Y238125D03*
X679450Y238125D03*
X692150Y238125D03*
X704850Y238125D03*
X717550Y238125D03*
X730250Y238125D03*
X742950Y238125D03*
X584200Y222250D03*
X565150Y222250D03*
X698500Y92075D03*
X711200Y92075D03*
X723900Y92075D03*
X736600Y92075D03*
X704850Y82550D03*
X717550Y82550D03*
X730250Y82550D03*
X698500Y73025D03*
X711200Y73025D03*
X723900Y73025D03*
X736600Y73025D03*
X704850Y63500D03*
X717550Y63500D03*
X730250Y63500D03*
X698500Y53975D03*
X711200Y53975D03*
X723900Y53975D03*
X736600Y53975D03*
X704850Y44450D03*
X717550Y44450D03*
X730250Y44450D03*
X698500Y34925D03*
X711200Y34925D03*
X723900Y34925D03*
X736600Y34925D03*
X704850Y25400D03*
X717550Y25400D03*
X730250Y25400D03*
D11*
X390525Y320675D03*
X479425Y320675D03*
X279400Y146201D03*
X190500Y454025D03*
X282575Y454025D03*
X272824Y113849D03*
X336550Y25400D03*
X473075Y133350D03*
X368300Y169026D03*
X520700Y222250D03*
X165100Y263525D03*
D12*
X107950Y384175D03*
X117475Y374650D03*
X127000Y384175D03*
X136525Y374650D03*
X146050Y384175D03*
X155575Y374650D03*
X165100Y384175D03*
X174625Y374650D03*
X184150Y384175D03*
X193675Y374650D03*
X107950Y365125D03*
X127000Y365125D03*
X146050Y365125D03*
X165100Y365125D03*
X184150Y365125D03*
X117475Y355600D03*
X136525Y355600D03*
X155575Y355600D03*
X174625Y355600D03*
X193675Y355600D03*
X184150Y346075D03*
X165100Y346075D03*
X146050Y346075D03*
X127000Y346075D03*
X107950Y346075D03*
X117475Y336550D03*
X136525Y336550D03*
X155575Y336550D03*
X174625Y336550D03*
X193675Y336550D03*
X228600Y384175D03*
X238125Y374650D03*
X247650Y384175D03*
X257175Y374650D03*
X266700Y384175D03*
X276225Y374650D03*
X285750Y384175D03*
X295275Y374650D03*
X304800Y384175D03*
X314325Y374650D03*
X228600Y365125D03*
X247650Y365125D03*
X266700Y365125D03*
X285750Y365125D03*
X304800Y365125D03*
X238125Y355600D03*
X257175Y355600D03*
X276225Y355600D03*
X295275Y355600D03*
X314325Y355600D03*
X304800Y346075D03*
X285750Y346075D03*
X266700Y346075D03*
X247650Y346075D03*
X228600Y346075D03*
X238125Y336550D03*
X257175Y336550D03*
X276225Y336550D03*
X295275Y336550D03*
X314325Y336550D03*
X107950Y279400D03*
X146050Y279400D03*
X184150Y279400D03*
X222250Y279400D03*
X38100Y342900D03*
X50800Y342900D03*
X63500Y342900D03*
X76200Y342900D03*
X44450Y333375D03*
X57150Y333375D03*
X69850Y333375D03*
X38100Y323850D03*
X50800Y323850D03*
X63500Y323850D03*
X76200Y323850D03*
X44450Y314325D03*
X57150Y314325D03*
X69850Y314325D03*
X38100Y304800D03*
X50800Y304800D03*
X63500Y304800D03*
X76200Y304800D03*
X44450Y295275D03*
X57150Y295275D03*
X69850Y295275D03*
X38100Y285750D03*
X50800Y285750D03*
X63500Y285750D03*
X76200Y285750D03*
X44450Y276225D03*
X57150Y276225D03*
X69850Y276225D03*
D11*
X165100Y196850D03*
X260350Y269875D03*
M02*
