G04 EAGLE Gerber RS-274X export*
G75*
%MOMM*%
%FSLAX34Y34*%
%LPD*%
%INSoldermask Top*%
%IPPOS*%
%AMOC8*
5,1,8,0,0,1.08239X$1,22.5*%
G01*
%ADD10R,1.603200X0.653200*%
%ADD11R,3.603200X6.703200*%
%ADD12R,1.603200X1.603200*%
%ADD13R,1.203200X1.303200*%
%ADD14R,3.403200X2.003200*%
%ADD15R,1.303200X1.203200*%
%ADD16R,13.203200X5.203200*%
%ADD17R,1.703200X1.503200*%
%ADD18R,6.203200X2.203200*%
%ADD19R,10.503200X9.103200*%
%ADD20R,2.133600X4.013200*%
%ADD21R,1.403200X0.903200*%
%ADD22R,2.003200X1.803200*%
%ADD23P,1.869504X8X112.500000*%
%ADD24C,2.203200*%
%ADD25C,0.959600*%
%ADD26C,0.859600*%

G36*
X82570Y272292D02*
X82570Y272292D01*
X82589Y272290D01*
X82691Y272312D01*
X82793Y272329D01*
X82810Y272338D01*
X82830Y272342D01*
X82919Y272395D01*
X83010Y272444D01*
X83024Y272458D01*
X83041Y272468D01*
X83108Y272547D01*
X83180Y272622D01*
X83188Y272640D01*
X83201Y272655D01*
X83240Y272751D01*
X83283Y272845D01*
X83285Y272865D01*
X83293Y272883D01*
X83311Y273050D01*
X83311Y349250D01*
X83308Y349270D01*
X83310Y349289D01*
X83288Y349391D01*
X83272Y349493D01*
X83262Y349510D01*
X83258Y349530D01*
X83205Y349619D01*
X83156Y349710D01*
X83142Y349724D01*
X83132Y349741D01*
X83053Y349808D01*
X82978Y349880D01*
X82960Y349888D01*
X82945Y349901D01*
X82849Y349940D01*
X82755Y349983D01*
X82735Y349985D01*
X82717Y349993D01*
X82550Y350011D01*
X31750Y350011D01*
X31730Y350008D01*
X31711Y350010D01*
X31609Y349988D01*
X31507Y349972D01*
X31490Y349962D01*
X31470Y349958D01*
X31381Y349905D01*
X31290Y349856D01*
X31276Y349842D01*
X31259Y349832D01*
X31192Y349753D01*
X31121Y349678D01*
X31112Y349660D01*
X31099Y349645D01*
X31060Y349549D01*
X31017Y349455D01*
X31015Y349435D01*
X31007Y349417D01*
X30989Y349250D01*
X30989Y273050D01*
X30992Y273030D01*
X30990Y273011D01*
X31012Y272909D01*
X31029Y272807D01*
X31038Y272790D01*
X31042Y272770D01*
X31095Y272681D01*
X31144Y272590D01*
X31158Y272576D01*
X31168Y272559D01*
X31247Y272492D01*
X31322Y272421D01*
X31340Y272412D01*
X31355Y272399D01*
X31451Y272360D01*
X31545Y272317D01*
X31565Y272315D01*
X31583Y272307D01*
X31750Y272289D01*
X82550Y272289D01*
X82570Y272292D01*
G37*
G36*
X82570Y148467D02*
X82570Y148467D01*
X82589Y148465D01*
X82691Y148487D01*
X82793Y148504D01*
X82810Y148513D01*
X82830Y148517D01*
X82919Y148570D01*
X83010Y148619D01*
X83024Y148633D01*
X83041Y148643D01*
X83108Y148722D01*
X83180Y148797D01*
X83188Y148815D01*
X83201Y148830D01*
X83240Y148926D01*
X83283Y149020D01*
X83285Y149040D01*
X83293Y149058D01*
X83311Y149225D01*
X83311Y225425D01*
X83308Y225445D01*
X83310Y225464D01*
X83288Y225566D01*
X83272Y225668D01*
X83262Y225685D01*
X83258Y225705D01*
X83205Y225794D01*
X83156Y225885D01*
X83142Y225899D01*
X83132Y225916D01*
X83053Y225983D01*
X82978Y226055D01*
X82960Y226063D01*
X82945Y226076D01*
X82849Y226115D01*
X82755Y226158D01*
X82735Y226160D01*
X82717Y226168D01*
X82550Y226186D01*
X31750Y226186D01*
X31730Y226183D01*
X31711Y226185D01*
X31609Y226163D01*
X31507Y226147D01*
X31490Y226137D01*
X31470Y226133D01*
X31381Y226080D01*
X31290Y226031D01*
X31276Y226017D01*
X31259Y226007D01*
X31192Y225928D01*
X31121Y225853D01*
X31112Y225835D01*
X31099Y225820D01*
X31060Y225724D01*
X31017Y225630D01*
X31015Y225610D01*
X31007Y225592D01*
X30989Y225425D01*
X30989Y149225D01*
X30992Y149205D01*
X30990Y149186D01*
X31012Y149084D01*
X31029Y148982D01*
X31038Y148965D01*
X31042Y148945D01*
X31095Y148856D01*
X31144Y148765D01*
X31158Y148751D01*
X31168Y148734D01*
X31247Y148667D01*
X31322Y148596D01*
X31340Y148587D01*
X31355Y148574D01*
X31451Y148535D01*
X31545Y148492D01*
X31565Y148490D01*
X31583Y148482D01*
X31750Y148464D01*
X82550Y148464D01*
X82570Y148467D01*
G37*
G36*
X742970Y21467D02*
X742970Y21467D01*
X742989Y21465D01*
X743091Y21487D01*
X743193Y21504D01*
X743210Y21513D01*
X743230Y21517D01*
X743319Y21570D01*
X743410Y21619D01*
X743424Y21633D01*
X743441Y21643D01*
X743508Y21722D01*
X743580Y21797D01*
X743588Y21815D01*
X743601Y21830D01*
X743640Y21926D01*
X743683Y22020D01*
X743685Y22040D01*
X743693Y22058D01*
X743711Y22225D01*
X743711Y98425D01*
X743708Y98445D01*
X743710Y98464D01*
X743688Y98566D01*
X743672Y98668D01*
X743662Y98685D01*
X743658Y98705D01*
X743605Y98794D01*
X743556Y98885D01*
X743542Y98899D01*
X743532Y98916D01*
X743453Y98983D01*
X743378Y99055D01*
X743360Y99063D01*
X743345Y99076D01*
X743249Y99115D01*
X743155Y99158D01*
X743135Y99160D01*
X743117Y99168D01*
X742950Y99186D01*
X692150Y99186D01*
X692130Y99183D01*
X692111Y99185D01*
X692009Y99163D01*
X691907Y99147D01*
X691890Y99137D01*
X691870Y99133D01*
X691781Y99080D01*
X691690Y99031D01*
X691676Y99017D01*
X691659Y99007D01*
X691592Y98928D01*
X691521Y98853D01*
X691512Y98835D01*
X691499Y98820D01*
X691460Y98724D01*
X691417Y98630D01*
X691415Y98610D01*
X691407Y98592D01*
X691389Y98425D01*
X691389Y22225D01*
X691392Y22205D01*
X691390Y22186D01*
X691412Y22084D01*
X691429Y21982D01*
X691438Y21965D01*
X691442Y21945D01*
X691495Y21856D01*
X691544Y21765D01*
X691558Y21751D01*
X691568Y21734D01*
X691647Y21667D01*
X691722Y21596D01*
X691740Y21587D01*
X691755Y21574D01*
X691851Y21535D01*
X691945Y21492D01*
X691965Y21490D01*
X691983Y21482D01*
X692150Y21464D01*
X742950Y21464D01*
X742970Y21467D01*
G37*
G36*
X609620Y21467D02*
X609620Y21467D01*
X609639Y21465D01*
X609741Y21487D01*
X609843Y21504D01*
X609860Y21513D01*
X609880Y21517D01*
X609969Y21570D01*
X610060Y21619D01*
X610074Y21633D01*
X610091Y21643D01*
X610158Y21722D01*
X610230Y21797D01*
X610238Y21815D01*
X610251Y21830D01*
X610290Y21926D01*
X610333Y22020D01*
X610335Y22040D01*
X610343Y22058D01*
X610361Y22225D01*
X610361Y98425D01*
X610358Y98445D01*
X610360Y98464D01*
X610338Y98566D01*
X610322Y98668D01*
X610312Y98685D01*
X610308Y98705D01*
X610255Y98794D01*
X610206Y98885D01*
X610192Y98899D01*
X610182Y98916D01*
X610103Y98983D01*
X610028Y99055D01*
X610010Y99063D01*
X609995Y99076D01*
X609899Y99115D01*
X609805Y99158D01*
X609785Y99160D01*
X609767Y99168D01*
X609600Y99186D01*
X558800Y99186D01*
X558780Y99183D01*
X558761Y99185D01*
X558659Y99163D01*
X558557Y99147D01*
X558540Y99137D01*
X558520Y99133D01*
X558431Y99080D01*
X558340Y99031D01*
X558326Y99017D01*
X558309Y99007D01*
X558242Y98928D01*
X558171Y98853D01*
X558162Y98835D01*
X558149Y98820D01*
X558110Y98724D01*
X558067Y98630D01*
X558065Y98610D01*
X558057Y98592D01*
X558039Y98425D01*
X558039Y22225D01*
X558042Y22205D01*
X558040Y22186D01*
X558062Y22084D01*
X558079Y21982D01*
X558088Y21965D01*
X558092Y21945D01*
X558145Y21856D01*
X558194Y21765D01*
X558208Y21751D01*
X558218Y21734D01*
X558297Y21667D01*
X558372Y21596D01*
X558390Y21587D01*
X558405Y21574D01*
X558501Y21535D01*
X558595Y21492D01*
X558615Y21490D01*
X558633Y21482D01*
X558800Y21464D01*
X609600Y21464D01*
X609620Y21467D01*
G37*
G36*
X339133Y117826D02*
X339133Y117826D01*
X339140Y117824D01*
X339232Y117833D01*
X339243Y117839D01*
X339256Y117838D01*
X339345Y117865D01*
X339354Y117873D01*
X339368Y117875D01*
X339450Y117918D01*
X339457Y117928D01*
X339470Y117932D01*
X339542Y117991D01*
X339547Y118002D01*
X339559Y118008D01*
X339618Y118080D01*
X339621Y118092D01*
X339632Y118101D01*
X339675Y118182D01*
X339676Y118194D01*
X339685Y118205D01*
X339712Y118294D01*
X339710Y118306D01*
X339717Y118318D01*
X339726Y118410D01*
X339724Y118416D01*
X339726Y118423D01*
X339726Y160978D01*
X339724Y160983D01*
X339726Y160990D01*
X339717Y161082D01*
X339711Y161093D01*
X339712Y161106D01*
X339685Y161195D01*
X339677Y161204D01*
X339675Y161218D01*
X339632Y161300D01*
X339622Y161307D01*
X339618Y161320D01*
X339559Y161392D01*
X339548Y161397D01*
X339542Y161409D01*
X339470Y161468D01*
X339458Y161471D01*
X339457Y161473D01*
X339457Y161474D01*
X339450Y161482D01*
X339368Y161525D01*
X339356Y161526D01*
X339345Y161535D01*
X339256Y161562D01*
X339244Y161560D01*
X339232Y161567D01*
X339140Y161576D01*
X339134Y161574D01*
X339128Y161576D01*
X308573Y161576D01*
X308567Y161574D01*
X308560Y161576D01*
X308468Y161567D01*
X308457Y161561D01*
X308444Y161562D01*
X308355Y161535D01*
X308346Y161527D01*
X308332Y161525D01*
X308251Y161482D01*
X308243Y161472D01*
X308230Y161468D01*
X308158Y161409D01*
X308153Y161398D01*
X308141Y161392D01*
X308082Y161320D01*
X308079Y161308D01*
X308068Y161300D01*
X308025Y161218D01*
X308024Y161206D01*
X308015Y161195D01*
X307988Y161106D01*
X307990Y161094D01*
X307983Y161082D01*
X307974Y160990D01*
X307976Y160984D01*
X307974Y160978D01*
X307974Y118423D01*
X307976Y118417D01*
X307974Y118410D01*
X307983Y118318D01*
X307989Y118307D01*
X307988Y118294D01*
X308015Y118205D01*
X308023Y118196D01*
X308025Y118182D01*
X308068Y118101D01*
X308078Y118093D01*
X308082Y118080D01*
X308141Y118008D01*
X308152Y118003D01*
X308158Y117991D01*
X308230Y117932D01*
X308242Y117929D01*
X308251Y117918D01*
X308332Y117875D01*
X308344Y117874D01*
X308355Y117865D01*
X308444Y117838D01*
X308456Y117840D01*
X308468Y117833D01*
X308560Y117824D01*
X308566Y117826D01*
X308573Y117824D01*
X339128Y117824D01*
X339133Y117826D01*
G37*
D10*
X353350Y110450D03*
X353350Y116950D03*
X353350Y123450D03*
X353350Y129950D03*
X353350Y136450D03*
X353350Y142950D03*
X353350Y149450D03*
X353350Y155950D03*
X353350Y162450D03*
X353350Y168950D03*
X294350Y168950D03*
X294350Y162450D03*
X294350Y155950D03*
X294350Y149450D03*
X294350Y142950D03*
X294350Y136450D03*
X294350Y129950D03*
X294350Y123450D03*
X294350Y116950D03*
X294350Y110450D03*
D11*
X323850Y139700D03*
D12*
X234950Y101650D03*
X234950Y139650D03*
D13*
X260350Y137550D03*
X260350Y154550D03*
X260350Y105800D03*
X260350Y122800D03*
D14*
X434975Y278825D03*
X434975Y222825D03*
D15*
X311150Y201050D03*
X311150Y218050D03*
D13*
X292100Y201050D03*
X292100Y218050D03*
D16*
X679450Y441325D03*
X679450Y271325D03*
D17*
X584200Y209525D03*
X584200Y190525D03*
X561975Y209525D03*
X561975Y190525D03*
D18*
X632625Y171450D03*
X732625Y171450D03*
D19*
X273050Y346475D03*
D20*
X298550Y453975D03*
X247550Y453975D03*
D19*
X400050Y428225D03*
D20*
X374550Y320725D03*
X425550Y320725D03*
D19*
X520700Y428225D03*
D20*
X495200Y320725D03*
X546200Y320725D03*
D19*
X149225Y346475D03*
D20*
X174725Y453975D03*
X123725Y453975D03*
D21*
X292650Y44450D03*
X329650Y44450D03*
D13*
X364100Y44450D03*
X347100Y44450D03*
X347100Y25400D03*
X364100Y25400D03*
X364100Y63500D03*
X347100Y63500D03*
D15*
X447675Y129150D03*
X447675Y112150D03*
X428625Y129150D03*
X428625Y112150D03*
X423300Y171450D03*
X440300Y171450D03*
D13*
X406400Y170425D03*
X406400Y153425D03*
X423300Y152400D03*
X440300Y152400D03*
X478400Y146050D03*
X461400Y146050D03*
X408550Y114300D03*
X391550Y114300D03*
D15*
X391550Y76200D03*
X408550Y76200D03*
X391550Y95250D03*
X408550Y95250D03*
D13*
X260350Y259325D03*
X260350Y242325D03*
D22*
X222250Y264825D03*
X222250Y236825D03*
X184150Y264825D03*
X184150Y236825D03*
X146050Y264825D03*
X146050Y236825D03*
X107950Y264825D03*
X107950Y236825D03*
D13*
X537600Y231775D03*
X554600Y231775D03*
D15*
X520700Y188350D03*
X520700Y205350D03*
D13*
X243450Y190500D03*
X226450Y190500D03*
X243450Y171450D03*
X226450Y171450D03*
X260350Y186300D03*
X260350Y169300D03*
D15*
X289950Y63500D03*
X306950Y63500D03*
D23*
X73025Y53975D03*
X98425Y53975D03*
X123825Y53975D03*
X149225Y53975D03*
X174625Y53975D03*
X200025Y53975D03*
D24*
X165100Y171450D03*
X73025Y79375D03*
X123825Y79375D03*
X98425Y79375D03*
X209550Y139700D03*
X149225Y79375D03*
X333375Y463550D03*
X457200Y85725D03*
X212725Y454025D03*
X457200Y320675D03*
X479425Y276225D03*
D25*
X272879Y139529D03*
X365656Y113994D03*
X400050Y375384D03*
X273050Y123825D03*
X317500Y231775D03*
D26*
X358775Y441325D03*
X368300Y431800D03*
X377825Y441325D03*
X387350Y431800D03*
X396875Y441325D03*
X406400Y431800D03*
X415925Y441325D03*
X425450Y431800D03*
X434975Y441325D03*
X444500Y431800D03*
X358775Y422275D03*
X377825Y422275D03*
X396875Y422275D03*
X415925Y422275D03*
X434975Y422275D03*
X368300Y412750D03*
X387350Y412750D03*
X406400Y412750D03*
X425450Y412750D03*
X444500Y412750D03*
X434975Y403225D03*
X415925Y403225D03*
X396875Y403225D03*
X377825Y403225D03*
X358775Y403225D03*
X368300Y393700D03*
X387350Y393700D03*
X406400Y393700D03*
X425450Y393700D03*
X444500Y393700D03*
X476250Y441325D03*
X485775Y431800D03*
X495300Y441325D03*
X504825Y431800D03*
X514350Y441325D03*
X523875Y431800D03*
X533400Y441325D03*
X542925Y431800D03*
X552450Y441325D03*
X561975Y431800D03*
X476250Y422275D03*
X495300Y422275D03*
X514350Y422275D03*
X533400Y422275D03*
X552450Y422275D03*
X485775Y412750D03*
X504825Y412750D03*
X523875Y412750D03*
X542925Y412750D03*
X561975Y412750D03*
X552450Y403225D03*
X533400Y403225D03*
X514350Y403225D03*
X495300Y403225D03*
X476250Y403225D03*
X485775Y393700D03*
X504825Y393700D03*
X523875Y393700D03*
X542925Y393700D03*
X561975Y393700D03*
X615950Y473075D03*
X628650Y473075D03*
X641350Y473075D03*
X654050Y473075D03*
X666750Y473075D03*
X679450Y473075D03*
X692150Y473075D03*
X704850Y473075D03*
X717550Y473075D03*
X730250Y473075D03*
X742950Y473075D03*
X615950Y409575D03*
X628650Y409575D03*
X641350Y409575D03*
X654050Y409575D03*
X666750Y409575D03*
X679450Y409575D03*
X692150Y409575D03*
X704850Y409575D03*
X717550Y409575D03*
X730250Y409575D03*
X742950Y409575D03*
X117475Y469900D03*
X130175Y469900D03*
X123825Y463550D03*
X117475Y457200D03*
X130175Y457200D03*
X241300Y469900D03*
X254000Y469900D03*
X247650Y463550D03*
X241300Y457200D03*
X254000Y457200D03*
D25*
X228600Y203200D03*
X349250Y276225D03*
D26*
X412750Y273050D03*
X457200Y273050D03*
X422275Y295275D03*
X450850Y295275D03*
X422275Y263525D03*
X431800Y263525D03*
X441325Y263525D03*
X450850Y263525D03*
X419100Y304800D03*
X431800Y304800D03*
X425450Y311150D03*
X419100Y317500D03*
X431800Y317500D03*
X539750Y304800D03*
X552450Y304800D03*
X546100Y311150D03*
X539750Y317500D03*
X552450Y317500D03*
X431800Y295275D03*
X441325Y295275D03*
D25*
X15875Y12700D03*
X50800Y12700D03*
X101600Y12700D03*
X152400Y12700D03*
X203200Y12700D03*
X254000Y12700D03*
X15875Y50800D03*
X15875Y101600D03*
X15875Y152400D03*
X304800Y12700D03*
X355600Y12700D03*
X406400Y12700D03*
X457200Y12700D03*
X508000Y12700D03*
X558800Y12700D03*
X609600Y12700D03*
X660400Y12700D03*
X711200Y12700D03*
X758825Y12700D03*
X758825Y50800D03*
X758825Y101600D03*
X758825Y152400D03*
X758825Y203200D03*
X758825Y254000D03*
X758825Y304800D03*
X758825Y355600D03*
X758825Y406400D03*
X758825Y457200D03*
X15875Y203200D03*
X15875Y254000D03*
X15875Y304800D03*
X15875Y355600D03*
X15875Y406400D03*
X15875Y457200D03*
X15875Y492125D03*
X50800Y492125D03*
X101600Y492125D03*
X152400Y492125D03*
X203200Y492125D03*
X254000Y492125D03*
X304800Y492125D03*
X355600Y492125D03*
X406400Y492125D03*
X457200Y492125D03*
X508000Y492125D03*
X558800Y492125D03*
X609600Y492125D03*
X660400Y492125D03*
X711200Y492125D03*
X758825Y492125D03*
D26*
X323850Y165100D03*
X314325Y165100D03*
X333375Y165100D03*
X314325Y155575D03*
X323850Y155575D03*
X333375Y155575D03*
X314325Y146050D03*
X323850Y146050D03*
X333375Y146050D03*
X314325Y136525D03*
X323850Y136525D03*
X333375Y136525D03*
X314325Y127000D03*
X323850Y127000D03*
X333375Y127000D03*
X314325Y117475D03*
X323850Y117475D03*
X333375Y117475D03*
X561975Y174625D03*
X584200Y174625D03*
X412750Y228600D03*
X412750Y219075D03*
X422275Y209550D03*
X431800Y209550D03*
X441325Y209550D03*
X450850Y209550D03*
X422275Y238125D03*
X431800Y238125D03*
X441325Y238125D03*
X450850Y238125D03*
X457200Y228600D03*
X457200Y219075D03*
X107950Y222250D03*
X146050Y222250D03*
X184150Y222250D03*
X222250Y222250D03*
X606425Y187325D03*
X615950Y187325D03*
X625475Y187325D03*
X635000Y187325D03*
X644525Y187325D03*
X654050Y187325D03*
X663575Y187325D03*
X663575Y155575D03*
X654050Y155575D03*
X644525Y155575D03*
X635000Y155575D03*
X625475Y155575D03*
X565150Y92075D03*
X577850Y92075D03*
X590550Y92075D03*
X603250Y92075D03*
X571500Y82550D03*
X584200Y82550D03*
X596900Y82550D03*
X565150Y73025D03*
X577850Y73025D03*
X590550Y73025D03*
X603250Y73025D03*
X571500Y63500D03*
X584200Y63500D03*
X596900Y63500D03*
X565150Y53975D03*
X577850Y53975D03*
X590550Y53975D03*
X603250Y53975D03*
X571500Y44450D03*
X584200Y44450D03*
X596900Y44450D03*
X565150Y34925D03*
X577850Y34925D03*
X590550Y34925D03*
X603250Y34925D03*
X571500Y25400D03*
X584200Y25400D03*
X596900Y25400D03*
X38100Y219075D03*
X50800Y219075D03*
X63500Y219075D03*
X76200Y219075D03*
X44450Y209550D03*
X57150Y209550D03*
X69850Y209550D03*
X38100Y200025D03*
X50800Y200025D03*
X63500Y200025D03*
X76200Y200025D03*
X44450Y190500D03*
X57150Y190500D03*
X69850Y190500D03*
X38100Y180975D03*
X50800Y180975D03*
X63500Y180975D03*
X76200Y180975D03*
X44450Y171450D03*
X57150Y171450D03*
X69850Y171450D03*
X38100Y161925D03*
X50800Y161925D03*
X63500Y161925D03*
X76200Y161925D03*
X44450Y152400D03*
X57150Y152400D03*
X69850Y152400D03*
D25*
X266700Y82550D03*
X330200Y82550D03*
X260350Y231775D03*
X463550Y111125D03*
X542925Y209550D03*
D26*
X755650Y187325D03*
X746125Y187325D03*
X736600Y187325D03*
X727075Y187325D03*
X717550Y187325D03*
X708025Y187325D03*
X708025Y155575D03*
X717550Y155575D03*
X727075Y155575D03*
X736600Y155575D03*
X746125Y155575D03*
X615950Y304800D03*
X628650Y304800D03*
X641350Y304800D03*
X654050Y304800D03*
X666750Y304800D03*
X679450Y304800D03*
X692150Y304800D03*
X704850Y304800D03*
X717550Y304800D03*
X730250Y304800D03*
X742950Y304800D03*
X615950Y238125D03*
X628650Y238125D03*
X641350Y238125D03*
X654050Y238125D03*
X666750Y238125D03*
X679450Y238125D03*
X692150Y238125D03*
X704850Y238125D03*
X717550Y238125D03*
X730250Y238125D03*
X742950Y238125D03*
X584200Y222250D03*
X565150Y222250D03*
X698500Y92075D03*
X711200Y92075D03*
X723900Y92075D03*
X736600Y92075D03*
X704850Y82550D03*
X717550Y82550D03*
X730250Y82550D03*
X698500Y73025D03*
X711200Y73025D03*
X723900Y73025D03*
X736600Y73025D03*
X704850Y63500D03*
X717550Y63500D03*
X730250Y63500D03*
X698500Y53975D03*
X711200Y53975D03*
X723900Y53975D03*
X736600Y53975D03*
X704850Y44450D03*
X717550Y44450D03*
X730250Y44450D03*
X698500Y34925D03*
X711200Y34925D03*
X723900Y34925D03*
X736600Y34925D03*
X704850Y25400D03*
X717550Y25400D03*
X730250Y25400D03*
D25*
X390525Y320675D03*
X479425Y320675D03*
X279400Y146201D03*
X190500Y454025D03*
X282575Y454025D03*
X272824Y113849D03*
X336550Y25400D03*
X473075Y133350D03*
X368300Y169026D03*
X520700Y222250D03*
X165100Y263525D03*
D26*
X107950Y384175D03*
X117475Y374650D03*
X127000Y384175D03*
X136525Y374650D03*
X146050Y384175D03*
X155575Y374650D03*
X165100Y384175D03*
X174625Y374650D03*
X184150Y384175D03*
X193675Y374650D03*
X107950Y365125D03*
X127000Y365125D03*
X146050Y365125D03*
X165100Y365125D03*
X184150Y365125D03*
X117475Y355600D03*
X136525Y355600D03*
X155575Y355600D03*
X174625Y355600D03*
X193675Y355600D03*
X184150Y346075D03*
X165100Y346075D03*
X146050Y346075D03*
X127000Y346075D03*
X107950Y346075D03*
X117475Y336550D03*
X136525Y336550D03*
X155575Y336550D03*
X174625Y336550D03*
X193675Y336550D03*
X228600Y384175D03*
X238125Y374650D03*
X247650Y384175D03*
X257175Y374650D03*
X266700Y384175D03*
X276225Y374650D03*
X285750Y384175D03*
X295275Y374650D03*
X304800Y384175D03*
X314325Y374650D03*
X228600Y365125D03*
X247650Y365125D03*
X266700Y365125D03*
X285750Y365125D03*
X304800Y365125D03*
X238125Y355600D03*
X257175Y355600D03*
X276225Y355600D03*
X295275Y355600D03*
X314325Y355600D03*
X304800Y346075D03*
X285750Y346075D03*
X266700Y346075D03*
X247650Y346075D03*
X228600Y346075D03*
X238125Y336550D03*
X257175Y336550D03*
X276225Y336550D03*
X295275Y336550D03*
X314325Y336550D03*
X107950Y279400D03*
X146050Y279400D03*
X184150Y279400D03*
X222250Y279400D03*
X38100Y342900D03*
X50800Y342900D03*
X63500Y342900D03*
X76200Y342900D03*
X44450Y333375D03*
X57150Y333375D03*
X69850Y333375D03*
X38100Y323850D03*
X50800Y323850D03*
X63500Y323850D03*
X76200Y323850D03*
X44450Y314325D03*
X57150Y314325D03*
X69850Y314325D03*
X38100Y304800D03*
X50800Y304800D03*
X63500Y304800D03*
X76200Y304800D03*
X44450Y295275D03*
X57150Y295275D03*
X69850Y295275D03*
X38100Y285750D03*
X50800Y285750D03*
X63500Y285750D03*
X76200Y285750D03*
X44450Y276225D03*
X57150Y276225D03*
X69850Y276225D03*
D25*
X165100Y196850D03*
X260350Y269875D03*
M02*
