G04 EAGLE Gerber RS-274X export*
G75*
%MOMM*%
%FSLAX34Y34*%
%LPD*%
%INSoldermask Bottom*%
%IPPOS*%
%AMOC8*
5,1,8,0,0,1.08239X$1,22.5*%
G01*
%ADD10P,1.869504X8X112.500000*%
%ADD11C,0.959600*%
%ADD12C,0.859600*%


D10*
X73025Y53975D03*
X98425Y53975D03*
X123825Y53975D03*
X149225Y53975D03*
X174625Y53975D03*
X200025Y53975D03*
D11*
X272879Y139529D03*
X365656Y113994D03*
X400050Y375384D03*
X273050Y123825D03*
X317500Y231775D03*
D12*
X358775Y441325D03*
X368300Y431800D03*
X377825Y441325D03*
X387350Y431800D03*
X396875Y441325D03*
X406400Y431800D03*
X415925Y441325D03*
X425450Y431800D03*
X434975Y441325D03*
X444500Y431800D03*
X358775Y422275D03*
X377825Y422275D03*
X396875Y422275D03*
X415925Y422275D03*
X434975Y422275D03*
X368300Y412750D03*
X387350Y412750D03*
X406400Y412750D03*
X425450Y412750D03*
X444500Y412750D03*
X434975Y403225D03*
X415925Y403225D03*
X396875Y403225D03*
X377825Y403225D03*
X358775Y403225D03*
X368300Y393700D03*
X387350Y393700D03*
X406400Y393700D03*
X425450Y393700D03*
X444500Y393700D03*
X476250Y441325D03*
X485775Y431800D03*
X495300Y441325D03*
X504825Y431800D03*
X514350Y441325D03*
X523875Y431800D03*
X533400Y441325D03*
X542925Y431800D03*
X552450Y441325D03*
X561975Y431800D03*
X476250Y422275D03*
X495300Y422275D03*
X514350Y422275D03*
X533400Y422275D03*
X552450Y422275D03*
X485775Y412750D03*
X504825Y412750D03*
X523875Y412750D03*
X542925Y412750D03*
X561975Y412750D03*
X552450Y403225D03*
X533400Y403225D03*
X514350Y403225D03*
X495300Y403225D03*
X476250Y403225D03*
X485775Y393700D03*
X504825Y393700D03*
X523875Y393700D03*
X542925Y393700D03*
X561975Y393700D03*
X615950Y473075D03*
X628650Y473075D03*
X641350Y473075D03*
X654050Y473075D03*
X666750Y473075D03*
X679450Y473075D03*
X692150Y473075D03*
X704850Y473075D03*
X717550Y473075D03*
X730250Y473075D03*
X742950Y473075D03*
X615950Y409575D03*
X628650Y409575D03*
X641350Y409575D03*
X654050Y409575D03*
X666750Y409575D03*
X679450Y409575D03*
X692150Y409575D03*
X704850Y409575D03*
X717550Y409575D03*
X730250Y409575D03*
X742950Y409575D03*
X117475Y469900D03*
X130175Y469900D03*
X123825Y463550D03*
X117475Y457200D03*
X130175Y457200D03*
X241300Y469900D03*
X254000Y469900D03*
X247650Y463550D03*
X241300Y457200D03*
X254000Y457200D03*
D11*
X228600Y203200D03*
X349250Y276225D03*
D12*
X412750Y273050D03*
X457200Y273050D03*
X422275Y295275D03*
X450850Y295275D03*
X422275Y263525D03*
X431800Y263525D03*
X441325Y263525D03*
X450850Y263525D03*
X419100Y304800D03*
X431800Y304800D03*
X425450Y311150D03*
X419100Y317500D03*
X431800Y317500D03*
X539750Y304800D03*
X552450Y304800D03*
X546100Y311150D03*
X539750Y317500D03*
X552450Y317500D03*
X431800Y295275D03*
X441325Y295275D03*
D11*
X15875Y12700D03*
X50800Y12700D03*
X101600Y12700D03*
X152400Y12700D03*
X203200Y12700D03*
X254000Y12700D03*
X15875Y50800D03*
X15875Y101600D03*
X15875Y152400D03*
X304800Y12700D03*
X355600Y12700D03*
X406400Y12700D03*
X457200Y12700D03*
X508000Y12700D03*
X558800Y12700D03*
X609600Y12700D03*
X660400Y12700D03*
X711200Y12700D03*
X758825Y12700D03*
X758825Y50800D03*
X758825Y101600D03*
X758825Y152400D03*
X758825Y203200D03*
X758825Y254000D03*
X758825Y304800D03*
X758825Y355600D03*
X758825Y406400D03*
X758825Y457200D03*
X15875Y203200D03*
X15875Y254000D03*
X15875Y304800D03*
X15875Y355600D03*
X15875Y406400D03*
X15875Y457200D03*
X15875Y492125D03*
X50800Y492125D03*
X101600Y492125D03*
X152400Y492125D03*
X203200Y492125D03*
X254000Y492125D03*
X304800Y492125D03*
X355600Y492125D03*
X406400Y492125D03*
X457200Y492125D03*
X508000Y492125D03*
X558800Y492125D03*
X609600Y492125D03*
X660400Y492125D03*
X711200Y492125D03*
X758825Y492125D03*
D12*
X323850Y165100D03*
X314325Y165100D03*
X333375Y165100D03*
X314325Y155575D03*
X323850Y155575D03*
X333375Y155575D03*
X314325Y146050D03*
X323850Y146050D03*
X333375Y146050D03*
X314325Y136525D03*
X323850Y136525D03*
X333375Y136525D03*
X314325Y127000D03*
X323850Y127000D03*
X333375Y127000D03*
X314325Y117475D03*
X323850Y117475D03*
X333375Y117475D03*
X561975Y174625D03*
X584200Y174625D03*
X412750Y228600D03*
X412750Y219075D03*
X422275Y209550D03*
X431800Y209550D03*
X441325Y209550D03*
X450850Y209550D03*
X422275Y238125D03*
X431800Y238125D03*
X441325Y238125D03*
X450850Y238125D03*
X457200Y228600D03*
X457200Y219075D03*
X107950Y222250D03*
X146050Y222250D03*
X184150Y222250D03*
X222250Y222250D03*
X606425Y187325D03*
X615950Y187325D03*
X625475Y187325D03*
X635000Y187325D03*
X644525Y187325D03*
X654050Y187325D03*
X663575Y187325D03*
X663575Y155575D03*
X654050Y155575D03*
X644525Y155575D03*
X635000Y155575D03*
X625475Y155575D03*
X565150Y92075D03*
X577850Y92075D03*
X590550Y92075D03*
X603250Y92075D03*
X571500Y82550D03*
X584200Y82550D03*
X596900Y82550D03*
X565150Y73025D03*
X577850Y73025D03*
X590550Y73025D03*
X603250Y73025D03*
X571500Y63500D03*
X584200Y63500D03*
X596900Y63500D03*
X565150Y53975D03*
X577850Y53975D03*
X590550Y53975D03*
X603250Y53975D03*
X571500Y44450D03*
X584200Y44450D03*
X596900Y44450D03*
X565150Y34925D03*
X577850Y34925D03*
X590550Y34925D03*
X603250Y34925D03*
X571500Y25400D03*
X584200Y25400D03*
X596900Y25400D03*
X38100Y219075D03*
X50800Y219075D03*
X63500Y219075D03*
X76200Y219075D03*
X44450Y209550D03*
X57150Y209550D03*
X69850Y209550D03*
X38100Y200025D03*
X50800Y200025D03*
X63500Y200025D03*
X76200Y200025D03*
X44450Y190500D03*
X57150Y190500D03*
X69850Y190500D03*
X38100Y180975D03*
X50800Y180975D03*
X63500Y180975D03*
X76200Y180975D03*
X44450Y171450D03*
X57150Y171450D03*
X69850Y171450D03*
X38100Y161925D03*
X50800Y161925D03*
X63500Y161925D03*
X76200Y161925D03*
X44450Y152400D03*
X57150Y152400D03*
X69850Y152400D03*
D11*
X266700Y82550D03*
X330200Y82550D03*
X260350Y231775D03*
X463550Y111125D03*
X542925Y209550D03*
D12*
X755650Y187325D03*
X746125Y187325D03*
X736600Y187325D03*
X727075Y187325D03*
X717550Y187325D03*
X708025Y187325D03*
X708025Y155575D03*
X717550Y155575D03*
X727075Y155575D03*
X736600Y155575D03*
X746125Y155575D03*
X615950Y304800D03*
X628650Y304800D03*
X641350Y304800D03*
X654050Y304800D03*
X666750Y304800D03*
X679450Y304800D03*
X692150Y304800D03*
X704850Y304800D03*
X717550Y304800D03*
X730250Y304800D03*
X742950Y304800D03*
X615950Y238125D03*
X628650Y238125D03*
X641350Y238125D03*
X654050Y238125D03*
X666750Y238125D03*
X679450Y238125D03*
X692150Y238125D03*
X704850Y238125D03*
X717550Y238125D03*
X730250Y238125D03*
X742950Y238125D03*
X584200Y222250D03*
X565150Y222250D03*
X698500Y92075D03*
X711200Y92075D03*
X723900Y92075D03*
X736600Y92075D03*
X704850Y82550D03*
X717550Y82550D03*
X730250Y82550D03*
X698500Y73025D03*
X711200Y73025D03*
X723900Y73025D03*
X736600Y73025D03*
X704850Y63500D03*
X717550Y63500D03*
X730250Y63500D03*
X698500Y53975D03*
X711200Y53975D03*
X723900Y53975D03*
X736600Y53975D03*
X704850Y44450D03*
X717550Y44450D03*
X730250Y44450D03*
X698500Y34925D03*
X711200Y34925D03*
X723900Y34925D03*
X736600Y34925D03*
X704850Y25400D03*
X717550Y25400D03*
X730250Y25400D03*
D11*
X390525Y320675D03*
X479425Y320675D03*
X279400Y146201D03*
X190500Y454025D03*
X282575Y454025D03*
X272824Y113849D03*
X336550Y25400D03*
X473075Y133350D03*
X368300Y169026D03*
X520700Y222250D03*
X165100Y263525D03*
D12*
X107950Y384175D03*
X117475Y374650D03*
X127000Y384175D03*
X136525Y374650D03*
X146050Y384175D03*
X155575Y374650D03*
X165100Y384175D03*
X174625Y374650D03*
X184150Y384175D03*
X193675Y374650D03*
X107950Y365125D03*
X127000Y365125D03*
X146050Y365125D03*
X165100Y365125D03*
X184150Y365125D03*
X117475Y355600D03*
X136525Y355600D03*
X155575Y355600D03*
X174625Y355600D03*
X193675Y355600D03*
X184150Y346075D03*
X165100Y346075D03*
X146050Y346075D03*
X127000Y346075D03*
X107950Y346075D03*
X117475Y336550D03*
X136525Y336550D03*
X155575Y336550D03*
X174625Y336550D03*
X193675Y336550D03*
X228600Y384175D03*
X238125Y374650D03*
X247650Y384175D03*
X257175Y374650D03*
X266700Y384175D03*
X276225Y374650D03*
X285750Y384175D03*
X295275Y374650D03*
X304800Y384175D03*
X314325Y374650D03*
X228600Y365125D03*
X247650Y365125D03*
X266700Y365125D03*
X285750Y365125D03*
X304800Y365125D03*
X238125Y355600D03*
X257175Y355600D03*
X276225Y355600D03*
X295275Y355600D03*
X314325Y355600D03*
X304800Y346075D03*
X285750Y346075D03*
X266700Y346075D03*
X247650Y346075D03*
X228600Y346075D03*
X238125Y336550D03*
X257175Y336550D03*
X276225Y336550D03*
X295275Y336550D03*
X314325Y336550D03*
X107950Y279400D03*
X146050Y279400D03*
X184150Y279400D03*
X222250Y279400D03*
X38100Y342900D03*
X50800Y342900D03*
X63500Y342900D03*
X76200Y342900D03*
X44450Y333375D03*
X57150Y333375D03*
X69850Y333375D03*
X38100Y323850D03*
X50800Y323850D03*
X63500Y323850D03*
X76200Y323850D03*
X44450Y314325D03*
X57150Y314325D03*
X69850Y314325D03*
X38100Y304800D03*
X50800Y304800D03*
X63500Y304800D03*
X76200Y304800D03*
X44450Y295275D03*
X57150Y295275D03*
X69850Y295275D03*
X38100Y285750D03*
X50800Y285750D03*
X63500Y285750D03*
X76200Y285750D03*
X44450Y276225D03*
X57150Y276225D03*
X69850Y276225D03*
D11*
X165100Y196850D03*
X260350Y269875D03*
M02*
