G04 EAGLE Gerber RS-274X export*
G75*
%MOMM*%
%FSLAX34Y34*%
%LPD*%
%INSolderpaste Top*%
%IPPOS*%
%AMOC8*
5,1,8,0,0,1.08239X$1,22.5*%
G01*
%ADD10R,1.400000X0.450000*%
%ADD11R,1.400000X1.400000*%
%ADD12R,1.000000X1.100000*%
%ADD13R,3.200000X1.800000*%
%ADD14R,1.100000X1.000000*%
%ADD15R,13.000000X5.000000*%
%ADD16R,1.500000X1.300000*%
%ADD17R,6.000000X2.000000*%
%ADD18R,10.300000X8.900000*%
%ADD19R,1.930400X3.810000*%
%ADD20R,1.200000X0.700000*%
%ADD21R,1.800000X1.600000*%

G36*
X339133Y117826D02*
X339133Y117826D01*
X339140Y117824D01*
X339232Y117833D01*
X339243Y117839D01*
X339256Y117838D01*
X339345Y117865D01*
X339354Y117873D01*
X339368Y117875D01*
X339450Y117918D01*
X339457Y117928D01*
X339470Y117932D01*
X339542Y117991D01*
X339547Y118002D01*
X339559Y118008D01*
X339618Y118080D01*
X339621Y118092D01*
X339632Y118101D01*
X339675Y118182D01*
X339676Y118194D01*
X339685Y118205D01*
X339712Y118294D01*
X339710Y118306D01*
X339717Y118318D01*
X339726Y118410D01*
X339724Y118416D01*
X339726Y118423D01*
X339726Y160978D01*
X339724Y160983D01*
X339726Y160990D01*
X339717Y161082D01*
X339711Y161093D01*
X339712Y161106D01*
X339685Y161195D01*
X339677Y161204D01*
X339675Y161218D01*
X339632Y161300D01*
X339622Y161307D01*
X339618Y161320D01*
X339559Y161392D01*
X339548Y161397D01*
X339542Y161409D01*
X339470Y161468D01*
X339458Y161471D01*
X339457Y161473D01*
X339457Y161474D01*
X339450Y161482D01*
X339368Y161525D01*
X339356Y161526D01*
X339345Y161535D01*
X339256Y161562D01*
X339244Y161560D01*
X339232Y161567D01*
X339140Y161576D01*
X339134Y161574D01*
X339128Y161576D01*
X308573Y161576D01*
X308567Y161574D01*
X308560Y161576D01*
X308468Y161567D01*
X308457Y161561D01*
X308444Y161562D01*
X308355Y161535D01*
X308346Y161527D01*
X308332Y161525D01*
X308251Y161482D01*
X308243Y161472D01*
X308230Y161468D01*
X308158Y161409D01*
X308153Y161398D01*
X308141Y161392D01*
X308082Y161320D01*
X308079Y161308D01*
X308068Y161300D01*
X308025Y161218D01*
X308024Y161206D01*
X308015Y161195D01*
X307988Y161106D01*
X307990Y161094D01*
X307983Y161082D01*
X307974Y160990D01*
X307976Y160984D01*
X307974Y160978D01*
X307974Y118423D01*
X307976Y118417D01*
X307974Y118410D01*
X307983Y118318D01*
X307989Y118307D01*
X307988Y118294D01*
X308015Y118205D01*
X308023Y118196D01*
X308025Y118182D01*
X308068Y118101D01*
X308078Y118093D01*
X308082Y118080D01*
X308141Y118008D01*
X308152Y118003D01*
X308158Y117991D01*
X308230Y117932D01*
X308242Y117929D01*
X308251Y117918D01*
X308332Y117875D01*
X308344Y117874D01*
X308355Y117865D01*
X308444Y117838D01*
X308456Y117840D01*
X308468Y117833D01*
X308560Y117824D01*
X308566Y117826D01*
X308573Y117824D01*
X339128Y117824D01*
X339133Y117826D01*
G37*
D10*
X353350Y110450D03*
X353350Y116950D03*
X353350Y123450D03*
X353350Y129950D03*
X353350Y136450D03*
X353350Y142950D03*
X353350Y149450D03*
X353350Y155950D03*
X353350Y162450D03*
X353350Y168950D03*
X294350Y168950D03*
X294350Y162450D03*
X294350Y155950D03*
X294350Y149450D03*
X294350Y142950D03*
X294350Y136450D03*
X294350Y129950D03*
X294350Y123450D03*
X294350Y116950D03*
X294350Y110450D03*
D11*
X234950Y101650D03*
X234950Y139650D03*
D12*
X260350Y137550D03*
X260350Y154550D03*
X260350Y105800D03*
X260350Y122800D03*
D13*
X434975Y278825D03*
X434975Y222825D03*
D14*
X311150Y201050D03*
X311150Y218050D03*
D12*
X292100Y201050D03*
X292100Y218050D03*
D15*
X679450Y441325D03*
X679450Y271325D03*
D16*
X584200Y209525D03*
X584200Y190525D03*
X561975Y209525D03*
X561975Y190525D03*
D17*
X632625Y171450D03*
X732625Y171450D03*
D18*
X273050Y346475D03*
D19*
X298550Y453975D03*
X247550Y453975D03*
D18*
X400050Y428225D03*
D19*
X374550Y320725D03*
X425550Y320725D03*
D18*
X520700Y428225D03*
D19*
X495200Y320725D03*
X546200Y320725D03*
D18*
X149225Y346475D03*
D19*
X174725Y453975D03*
X123725Y453975D03*
D20*
X292650Y44450D03*
X329650Y44450D03*
D12*
X364100Y44450D03*
X347100Y44450D03*
X347100Y25400D03*
X364100Y25400D03*
X364100Y63500D03*
X347100Y63500D03*
D14*
X447675Y129150D03*
X447675Y112150D03*
X428625Y129150D03*
X428625Y112150D03*
X423300Y171450D03*
X440300Y171450D03*
D12*
X406400Y170425D03*
X406400Y153425D03*
X423300Y152400D03*
X440300Y152400D03*
X478400Y146050D03*
X461400Y146050D03*
X408550Y114300D03*
X391550Y114300D03*
D14*
X391550Y76200D03*
X408550Y76200D03*
X391550Y95250D03*
X408550Y95250D03*
D12*
X260350Y259325D03*
X260350Y242325D03*
D21*
X222250Y264825D03*
X222250Y236825D03*
X184150Y264825D03*
X184150Y236825D03*
X146050Y264825D03*
X146050Y236825D03*
X107950Y264825D03*
X107950Y236825D03*
D12*
X537600Y231775D03*
X554600Y231775D03*
D14*
X520700Y188350D03*
X520700Y205350D03*
D12*
X243450Y190500D03*
X226450Y190500D03*
X243450Y171450D03*
X226450Y171450D03*
X260350Y186300D03*
X260350Y169300D03*
D14*
X289950Y63500D03*
X306950Y63500D03*
M02*
