M48
;GenerationSoftware,Autodesk,EAGLE,9.4.2*%
;CreationDate,2019-07-04T02:40:04Z*%
FMAT,2
ICI,OFF
METRIC,TZ,000.000
T3C0.250
T2C0.350
T1C1.016
%
G90
M71
T1
X17463Y5398
X20003Y5398
X7302Y5398
X9843Y5398
X12382Y5398
X14922Y5398
T2
X35560Y49212
X40640Y49212
X45720Y49212
X50800Y49212
X55880Y49212
X60960Y49212
X66040Y49212
X71120Y49212
X75883Y49212
X1587Y1270
X5080Y1270
X10160Y1270
X15240Y1270
X20320Y1270
X25400Y1270
X1587Y5080
X1587Y10160
X1587Y15240
X30480Y1270
X35560Y1270
X40640Y1270
X45720Y1270
X50800Y1270
X55880Y1270
X60960Y1270
X66040Y1270
X71120Y1270
X75883Y1270
X75883Y5080
X75883Y10160
X75883Y15240
X75883Y20320
X75883Y25400
X75883Y30480
X75883Y35560
X75883Y40640
X75883Y45720
X1587Y20320
X1587Y25400
X22860Y20320
X34925Y27622
X1587Y30480
X1587Y35560
X1587Y40640
X1587Y45720
X1587Y49212
X5080Y49212
X10160Y49212
X15240Y49212
X20320Y49212
X25400Y49212
X26670Y8255
X33020Y8255
X26035Y23177
X27288Y13953
X54292Y20955
X36566Y11399
X39053Y32067
X47942Y32067
X27940Y14620
X19050Y45402
X28257Y45402
X27282Y11385
X33655Y2540
X46355Y11112
X36830Y16903
X52070Y22225
X16510Y26352
X16510Y19685
X26035Y26987
X40005Y37538
X27305Y12382
X31750Y23177
X30480Y49212
X47307Y13335
T3
X35878Y40323
X36830Y39370
X38735Y39370
X40640Y39370
X42545Y39370
X44450Y39370
X47625Y44132
X48577Y43180
X49530Y44132
X50482Y43180
X51435Y44132
X52387Y43180
X53340Y44132
X54292Y43180
X55245Y44132
X56197Y43180
X47625Y42228
X49530Y42228
X51435Y42228
X53340Y42228
X55245Y42228
X48577Y41275
X50482Y41275
X52387Y41275
X54292Y41275
X56197Y41275
X55245Y40323
X53340Y40323
X51435Y40323
X49530Y40323
X47625Y40323
X48577Y39370
X50482Y39370
X52387Y39370
X54292Y39370
X56197Y39370
X61595Y47307
X62865Y47307
X64135Y47307
X65405Y47307
X66675Y47307
X67945Y47307
X69215Y47307
X70485Y47307
X71755Y47307
X73025Y47307
X74295Y47307
X61595Y40958
X62865Y40958
X64135Y40958
X65405Y40958
X66675Y40958
X67945Y40958
X69215Y40958
X70485Y40958
X71755Y40958
X73025Y40958
X74295Y40958
X11747Y46990
X13017Y46990
X12382Y46355
X11747Y45720
X13017Y45720
X24130Y46990
X25400Y46990
X24765Y46355
X24130Y45720
X25400Y45720
X41275Y27305
X45720Y27305
X42228Y29527
X45085Y29527
X42228Y26352
X43180Y26352
X44132Y26352
X45085Y26352
X41910Y30480
X43180Y30480
X42545Y31115
X41910Y31750
X43180Y31750
X53975Y30480
X55245Y30480
X54610Y31115
X53975Y31750
X55245Y31750
X43180Y29527
X44132Y29527
X32385Y16510
X31432Y16510
X33338Y16510
X31432Y15557
X32385Y15557
X33338Y15557
X31432Y14605
X32385Y14605
X33338Y14605
X31432Y13652
X32385Y13652
X33338Y13652
X31432Y12700
X32385Y12700
X33338Y12700
X31432Y11747
X32385Y11747
X33338Y11747
X56197Y17463
X58420Y17463
X41275Y22860
X41275Y21907
X42228Y20955
X43180Y20955
X44132Y20955
X45085Y20955
X42228Y23812
X43180Y23812
X44132Y23812
X45085Y23812
X45720Y22860
X45720Y21907
X10795Y22225
X14605Y22225
X18415Y22225
X22225Y22225
X60642Y18733
X61595Y18733
X62547Y18733
X63500Y18733
X64452Y18733
X65405Y18733
X66358Y18733
X66358Y15557
X65405Y15557
X64452Y15557
X63500Y15557
X62547Y15557
X56515Y9208
X57785Y9208
X59055Y9208
X60325Y9208
X57150Y8255
X58420Y8255
X59690Y8255
X56515Y7302
X57785Y7302
X59055Y7302
X60325Y7302
X57150Y6350
X58420Y6350
X59690Y6350
X56515Y5398
X57785Y5398
X59055Y5398
X60325Y5398
X57150Y4445
X58420Y4445
X59690Y4445
X56515Y3492
X57785Y3492
X59055Y3492
X60325Y3492
X57150Y2540
X58420Y2540
X59690Y2540
X3810Y21907
X5080Y21907
X6350Y21907
X7620Y21907
X4445Y20955
X5715Y20955
X6985Y20955
X3810Y20003
X5080Y20003
X6350Y20003
X7620Y20003
X4445Y19050
X5715Y19050
X6985Y19050
X3810Y18098
X5080Y18098
X6350Y18098
X7620Y18098
X4445Y17145
X5715Y17145
X6985Y17145
X3810Y16192
X5080Y16192
X6350Y16192
X7620Y16192
X4445Y15240
X5715Y15240
X6985Y15240
X35878Y44132
X36830Y43180
X37783Y44132
X38735Y43180
X39688Y44132
X75565Y18733
X74613Y18733
X73660Y18733
X72708Y18733
X71755Y18733
X70803Y18733
X70803Y15557
X71755Y15557
X72708Y15557
X73660Y15557
X74613Y15557
X61595Y30480
X62865Y30480
X64135Y30480
X65405Y30480
X66675Y30480
X67945Y30480
X69215Y30480
X70485Y30480
X71755Y30480
X73025Y30480
X74295Y30480
X61595Y23812
X62865Y23812
X64135Y23812
X65405Y23812
X66675Y23812
X67945Y23812
X69215Y23812
X70485Y23812
X71755Y23812
X73025Y23812
X74295Y23812
X58420Y22225
X56515Y22225
X69850Y9208
X71120Y9208
X72390Y9208
X73660Y9208
X70485Y8255
X71755Y8255
X73025Y8255
X69850Y7302
X71120Y7302
X72390Y7302
X73660Y7302
X70485Y6350
X71755Y6350
X73025Y6350
X69850Y5398
X71120Y5398
X72390Y5398
X73660Y5398
X70485Y4445
X71755Y4445
X73025Y4445
X69850Y3492
X71120Y3492
X72390Y3492
X73660Y3492
X70485Y2540
X40640Y43180
X73025Y2540
X41593Y44132
X42545Y43180
X43498Y44132
X44450Y43180
X35878Y42228
X37783Y42228
X39688Y42228
X41593Y42228
X43498Y42228
X36830Y41275
X38735Y41275
X10795Y38418
X11747Y37465
X12700Y38418
X13652Y37465
X14605Y38418
X15557Y37465
X16510Y38418
X17463Y37465
X18415Y38418
X19368Y37465
X10795Y36513
X12700Y36513
X14605Y36513
X16510Y36513
X18415Y36513
X11747Y35560
X13652Y35560
X15557Y35560
X17463Y35560
X19368Y35560
X18415Y34608
X16510Y34608
X14605Y34608
X12700Y34608
X10795Y34608
X11747Y33655
X13652Y33655
X15557Y33655
X17463Y33655
X19368Y33655
X22860Y38418
X23812Y37465
X24765Y38418
X25717Y37465
X26670Y38418
X27622Y37465
X28575Y38418
X29527Y37465
X30480Y38418
X31432Y37465
X22860Y36513
X24765Y36513
X26670Y36513
X71755Y2540
X30480Y36513
X23812Y35560
X25717Y35560
X27622Y35560
X29527Y35560
X31432Y35560
X30480Y34608
X28575Y34608
X26670Y34608
X24765Y34608
X22860Y34608
X23812Y33655
X25717Y33655
X27622Y33655
X29527Y33655
X31432Y33655
X10795Y27940
X14605Y27940
X18415Y27940
X22225Y27940
X3810Y34290
X5080Y34290
X6350Y34290
X7620Y34290
X4445Y33338
X5715Y33338
X6985Y33338
X3810Y32385
X5080Y32385
X6350Y32385
X7620Y32385
X4445Y31432
X5715Y31432
X6985Y31432
X3810Y30480
X5080Y30480
X6350Y30480
X7620Y30480
X4445Y29527
X5715Y29527
X6985Y29527
X3810Y28575
X5080Y28575
X6350Y28575
X7620Y28575
X4445Y27622
X5715Y27622
X6985Y27622
X40640Y41275
X42545Y41275
X44450Y41275
X43498Y40323
X41593Y40323
X39688Y40323
X37783Y40323
X28575Y36513
M30